<svg xmlns="http://www.w3.org/2000/svg" width="38.5" height="38.5" viewBox="0 0 38.5 38.5">
  <g id="_848043" data-name="848043" transform="translate(0.25 0.25)">
    <g id="Group_7941" data-name="Group 7941">
      <path id="Path_8461" data-name="Path 8461" d="M19,0A18.99,18.99,0,0,0,4.354,31.089c.007.01.008.022.015.03a19,19,0,0,0,7.174,5.354l.094.041c.222.094.447.18.673.265.089.034.177.068.267.1q.292.1.587.2c.126.041.252.08.379.118q.261.078.525.149c.155.042.31.08.466.118s.316.076.475.11c.177.038.357.072.536.1.144.027.288.054.434.078.2.032.4.058.6.084.13.016.259.035.389.049.228.024.458.041.688.057.107.008.213.019.321.025Q18.485,38,19,38c.343,0,.683-.01,1.02-.028.108-.006.214-.017.321-.025.231-.016.46-.033.688-.057.13-.014.26-.033.389-.049.2-.026.4-.051.6-.084.145-.023.289-.051.434-.078.179-.033.358-.066.536-.1.159-.034.317-.072.475-.11s.312-.077.466-.118c.176-.047.351-.1.525-.149.127-.038.253-.078.379-.118q.3-.095.587-.2c.089-.032.178-.066.267-.1.226-.085.45-.172.673-.265l.094-.041a19,19,0,0,0,7.174-5.354c.008-.009.008-.022.015-.03A18.992,18.992,0,0,0,19,0Zm7.7,34.973-.028.014c-.226.109-.456.212-.688.312l-.157.067q-.3.127-.614.243c-.086.032-.172.064-.259.094-.183.065-.367.128-.552.187-.115.037-.231.072-.347.106-.165.049-.33.1-.5.141-.141.037-.282.072-.424.105s-.3.072-.447.1-.329.065-.494.094c-.134.025-.267.051-.4.072-.186.029-.373.053-.56.076-.118.015-.236.033-.356.046-.213.023-.429.037-.643.053-.1.006-.191.017-.288.022q-.47.025-.943.025t-.942-.025c-.1-.005-.191-.015-.288-.022-.215-.015-.43-.03-.643-.053-.12-.013-.237-.03-.356-.046-.187-.023-.374-.047-.56-.076-.135-.022-.268-.048-.4-.072-.165-.03-.331-.06-.494-.094s-.3-.068-.447-.1-.284-.068-.424-.105c-.167-.044-.332-.092-.5-.141-.116-.034-.232-.069-.347-.106q-.278-.089-.552-.187l-.259-.094q-.31-.116-.614-.243l-.156-.067c-.232-.1-.462-.2-.688-.312l-.028-.014a17.819,17.819,0,0,1-5.746-4.43A13.979,13.979,0,0,1,14.7,20.956c.088.054.18.1.27.153.053.03.106.061.16.09.189.1.38.194.576.278.15.066.305.122.46.179l.091.034a8.083,8.083,0,0,0,5.478,0l.091-.034c.155-.057.31-.113.46-.179.2-.084.387-.178.576-.278.054-.029.106-.06.16-.09.091-.051.183-.1.272-.153a13.982,13.982,0,0,1,9.149,9.588A17.837,17.837,0,0,1,26.7,34.973ZM12.033,13.933A6.967,6.967,0,1,1,22.79,19.771a6.709,6.709,0,0,1-.776.434l-.094.046a7.126,7.126,0,0,1-5.839,0l-.094-.046a6.657,6.657,0,0,1-.776-.434A6.962,6.962,0,0,1,12.033,13.933ZM33.4,29.338a15.26,15.26,0,0,0-8.9-9.294,8.234,8.234,0,1,0-11,0,15.262,15.262,0,0,0-8.9,9.294A17.729,17.729,0,1,1,36.733,19,17.633,17.633,0,0,1,33.4,29.338Z" fill="#6d6d6d" stroke="#6d6d6d" stroke-width="0.5"/>
    </g>
  </g>
</svg>
