<svg xmlns="http://www.w3.org/2000/svg" width="72" height="72" viewBox="0 0 72 72">
  <g id="Group_8130" data-name="Group 8130" transform="translate(-11915 -10511)">
    <circle id="Ellipse_424" data-name="Ellipse 424" cx="36" cy="36" r="36" transform="translate(11915 10511)" opacity="0.1"/>
    <g id="_2849121" data-name="2849121" transform="translate(11930 10527)">
      <g id="Group_8128" data-name="Group 8128" transform="translate(1.636 1.636)">
        <g id="Group_8110" data-name="Group 8110" transform="translate(8.906)">
          <path id="Path_8789" data-name="Path 8789" d="M28.939,15.995a3.809,3.809,0,0,0,.9,1.425l.77.592-.006.006-.337,1.527a1.85,1.85,0,0,1-.611,1.018A1.913,1.913,0,0,1,28.78,21l-.07.013-.986.2a5.088,5.088,0,0,0-4.09,4.987v1.883h-.223a13.56,13.56,0,0,0,.223-2.436V21.084a1.276,1.276,0,0,0-1.272-1.272,1.282,1.282,0,0,0-1.272,1.272V19.812a1.276,1.276,0,0,0-1.272-1.272,1.282,1.282,0,0,0-1.272,1.272V18.539a1.276,1.276,0,0,0-1.272-1.272A1.282,1.282,0,0,0,16,18.539V16.224a1.4,1.4,0,0,1,.9-1.291c.006-.006.013-.006.025-.013a1.421,1.421,0,0,1,1.565.274l.732.738,1.8-1.8-.738-.732a1.421,1.421,0,0,1-.274-1.565c.006-.013.006-.019.013-.025a1.4,1.4,0,0,1,1.291-.9h1.043V8.361H21.318a1.4,1.4,0,0,1-1.291-.9c-.006-.006-.006-.013-.013-.025a1.421,1.421,0,0,1,.274-1.565l.738-.732-1.8-1.8-.732.738a1.421,1.421,0,0,1-1.565.274c-.013-.006-.019-.006-.025-.013A1.4,1.4,0,0,1,16,3.043V2H44.626a.638.638,0,0,1,.636.636V27.445a.638.638,0,0,1-.636.636H41.445V26.2a5.088,5.088,0,0,0-4.09-4.987l-.986-.2L36.3,21a1.913,1.913,0,0,1-.878-.439,1.85,1.85,0,0,1-.611-1.018l-.337-1.527-.006-.006a3.823,3.823,0,0,0,1.673-2.017h.852a1.908,1.908,0,0,0,1.31-3.3l.318-.954a5.473,5.473,0,0,0-5.191-7.2H31.649a5.473,5.473,0,0,0-5.191,7.2l.318.954a1.909,1.909,0,0,0,1.31,3.3Z" transform="translate(-16 -2)" fill="#e6e9ed"/>
        </g>
        <g id="Group_8111" data-name="Group 8111" transform="translate(0 0)">
          <path id="Path_8790" data-name="Path 8790" d="M14.92,7.433c.006.013.006.019.013.025a1.4,1.4,0,0,0,1.291.9h1.043v2.545H16.224a1.4,1.4,0,0,0-1.291.9c-.006.006-.006.013-.013.025a1.421,1.421,0,0,0,.274,1.565l.738.732-1.8,1.8-.732-.738a1.421,1.421,0,0,0-1.565-.274c-.013.006-.019.006-.025.013a1.4,1.4,0,0,0-.9,1.291V13.45a1.171,1.171,0,0,0-.019-.21,3.817,3.817,0,1,0-2.506,0,1.171,1.171,0,0,0-.019.21v2.774a1.4,1.4,0,0,0-.9-1.291l-.025-.013a1.471,1.471,0,0,0-1.609.324l-.687.687-1.8-1.8.687-.687a1.471,1.471,0,0,0,.324-1.609l-.032-.083a1.389,1.389,0,0,0-1.272-.846H2V8.361h.986a1.455,1.455,0,0,0,1.349-.9l.013-.025a1.471,1.471,0,0,0-.324-1.609l-.687-.687,1.8-1.8.687.687a1.471,1.471,0,0,0,1.609.324l.083-.032a1.389,1.389,0,0,0,.846-1.272V2h2.545V3.043a1.4,1.4,0,0,0,.9,1.291c.006.006.013.006.025.013A1.421,1.421,0,0,0,13.4,4.074l.732-.738,1.8,1.8-.738.732a1.421,1.421,0,0,0-.274,1.565Z" transform="translate(-2 -2)" fill="#fcd770"/>
        </g>
        <g id="Group_8112" data-name="Group 8112" transform="translate(19.084 2.545)">
          <path id="Path_8791" data-name="Path 8791" d="M37.229,10.65l-1.482.6a1.9,1.9,0,0,0-1.2,1.768v.617h-.636a1.913,1.913,0,0,0-1.31.522L32.28,13.2A5.473,5.473,0,0,1,37.471,6h1.781a5.473,5.473,0,0,1,5.191,7.2l-.318.954a1.913,1.913,0,0,0-1.31-.522h-.636a1.276,1.276,0,0,0-1.272-1.272H39.634a2.54,2.54,0,0,1-2.4-1.711Z" transform="translate(-32 -6)" fill="#656d78"/>
        </g>
        <g id="Group_8113" data-name="Group 8113" transform="translate(16.539 19.014)">
          <path id="Path_8792" data-name="Path 8792" d="M33.674,35.179l.687,3.779H28V37.074a5.088,5.088,0,0,1,4.09-4.987l.986-.2Z" transform="translate(-28 -31.89)" fill="#4fc1e9"/>
        </g>
        <g id="Group_8114" data-name="Group 8114" transform="translate(27.99 19.014)">
          <path id="Path_8793" data-name="Path 8793" d="M52.361,37.074v1.883H46l.687-3.779.6-3.289.986.2A5.088,5.088,0,0,1,52.361,37.074Z" transform="translate(-46 -31.89)" fill="#4fc1e9"/>
        </g>
        <g id="Group_8115" data-name="Group 8115" transform="translate(23.537 22.265)">
          <path id="Path_8794" data-name="Path 8794" d="M41.545,37l1.272,3.817H39L40.272,37Z" transform="translate(-39 -37)" fill="#fcd770"/>
        </g>
        <g id="Group_8116" data-name="Group 8116" transform="translate(23.677 19.72)">
          <path id="Path_8795" data-name="Path 8795" d="M40.988,33l1.768,1.412-1.132,1.132H40.352L39.22,34.412Z" transform="translate(-39.22 -33)" fill="#ffc729"/>
        </g>
        <g id="Group_8117" data-name="Group 8117" transform="translate(22.214 21.132)">
          <path id="Path_8796" data-name="Path 8796" d="M39.515,36.352l-1.272,3.817h-.636L36.92,36.39l1.463-1.17Z" transform="translate(-36.92 -35.22)" fill="#ff826e"/>
        </g>
        <g id="Group_8118" data-name="Group 8118" transform="translate(26.081 21.132)">
          <path id="Path_8797" data-name="Path 8797" d="M45.6,36.39l-.687,3.779h-.636L43,36.352l1.132-1.132Z" transform="translate(-43 -35.22)" fill="#ff826e"/>
        </g>
        <g id="Group_8119" data-name="Group 8119" transform="translate(25.445 18.562)">
          <path id="Path_8798" data-name="Path 8798" d="M45.83,31.632l-.6,3.289-1.463-1.17L42,32.338l2.882-1.151V31.18a1.913,1.913,0,0,0,.878.439Z" transform="translate(-42 -31.18)" fill="#fc6e51"/>
        </g>
        <g id="Group_8120" data-name="Group 8120" transform="translate(21.616 18.562)">
          <path id="Path_8799" data-name="Path 8799" d="M36.578,34.92l-.6-3.289.07-.013a1.913,1.913,0,0,0,.878-.439v.006l2.882,1.151L38.041,33.75Z" transform="translate(-35.98 -31.18)" fill="#fc6e51"/>
        </g>
        <g id="Group_8121" data-name="Group 8121" transform="translate(14.631 29.262)">
          <path id="Path_8800" data-name="Path 8800" d="M48.537,52.453l-7,4.453V55H25V49.908H41.539V48Z" transform="translate(-25 -48)" fill="#ccd1d9"/>
        </g>
        <g id="Group_8122" data-name="Group 8122" transform="translate(3.817 29.262)">
          <path id="Path_8801" data-name="Path 8801" d="M18.814,49.908v7H8V49.272A12.006,12.006,0,0,1,13.388,48h.038a12.006,12.006,0,0,1,5.388,1.272Z" transform="translate(-8 -48)" fill="#b4dd7f"/>
        </g>
        <g id="Group_8123" data-name="Group 8123" transform="translate(1.272 10.178)">
          <path id="Path_8802" data-name="Path 8802" d="M16.723,26.906a1.282,1.282,0,0,1,1.272-1.272,1.276,1.276,0,0,1,1.272,1.272v4.561a13.56,13.56,0,0,1-.223,2.436c-.07.382-.159.763-.261,1.139a13.621,13.621,0,0,1-1.425,3.314,12.006,12.006,0,0,0-5.388-1.272h-.038a12.006,12.006,0,0,0-5.388,1.272A11.615,11.615,0,0,1,4,31.1V25a.638.638,0,0,1,.636-.636A1.906,1.906,0,0,1,6.545,26.27v3.817a1.282,1.282,0,0,0,1.272,1.272,1.276,1.276,0,0,0,1.272-1.272V19.272a1.171,1.171,0,0,1,.019-.21,1.26,1.26,0,0,1,.356-.687,1.244,1.244,0,0,1,.9-.375,1.272,1.272,0,0,1,1.253,1.062,1.171,1.171,0,0,1,.019.21v5.089a1.282,1.282,0,0,1,1.272-1.272,1.276,1.276,0,0,1,1.272,1.272v1.272a1.282,1.282,0,0,1,1.272-1.272,1.276,1.276,0,0,1,1.272,1.272Z" transform="translate(-4 -18)" fill="#f0d0b4"/>
        </g>
        <g id="Group_8124" data-name="Group 8124" transform="translate(29.046 10.178)">
          <path id="Path_8803" data-name="Path 8803" d="M49.861,21.257a1.9,1.9,0,0,1-1.349.56H47.66a3.844,3.844,0,0,0,.216-1.272V18h.636a1.907,1.907,0,0,1,1.349,3.257Z" transform="translate(-47.66 -18)" fill="#f0d0b4"/>
        </g>
        <g id="Group_8125" data-name="Group 8125" transform="translate(22.564 16.011)">
          <path id="Path_8804" data-name="Path 8804" d="M42.623,28.7a1.85,1.85,0,0,0,.611,1.018v.006l-2.882,1.151L37.47,29.727v-.006a1.85,1.85,0,0,0,.611-1.018l.337-1.527.006-.006a3.782,3.782,0,0,0,3.855,0l.006.006Z" transform="translate(-37.47 -27.17)" fill="#f0d0b4"/>
        </g>
        <g id="Group_8126" data-name="Group 8126" transform="translate(21.629 7.195)">
          <path id="Path_8805" data-name="Path 8805" d="M38.684,13.31a2.54,2.54,0,0,0,2.4,1.711h1.272a1.276,1.276,0,0,1,1.272,1.272v2.545a3.789,3.789,0,0,1-1.889,3.289,3.782,3.782,0,0,1-3.855,0l-.77-.592a3.78,3.78,0,0,1-1.12-2.7V15.676a1.9,1.9,0,0,1,1.2-1.768Z" transform="translate(-36 -13.31)" fill="#f0d0b4"/>
        </g>
        <g id="Group_8127" data-name="Group 8127" transform="translate(19.084 10.178)">
          <path id="Path_8806" data-name="Path 8806" d="M34.545,20.545a3.844,3.844,0,0,0,.216,1.272h-.852a1.908,1.908,0,0,1,0-3.817h.636Z" transform="translate(-32 -18)" fill="#f0d0b4"/>
        </g>
      </g>
      <g id="Group_8129" data-name="Group 8129" transform="translate(1 1)">
        <path id="Path_8807" data-name="Path 8807" d="M40.989,35.351l-8.819-5.612v2.431H17a14.01,14.01,0,0,0,1.466-3.817h20.7a1.274,1.274,0,0,0,1.272-1.272V2.272A1.274,1.274,0,0,0,39.168,1H7.361V2.679a.739.739,0,0,1-.457.684L6.827,3.4a.834.834,0,0,1-.917-.183L4.774,2.071l-2.7,2.7L3.213,5.91a.845.845,0,0,1,.172.941.828.828,0,0,1-.766.51H1v3.817H2.679a.739.739,0,0,1,.684.457l.032.078a.835.835,0,0,1-.183.917L2.071,13.766l2.7,2.7L5.91,15.326a.846.846,0,0,1,.942-.172.773.773,0,0,1,.509.706V23.9a.636.636,0,0,1-1.272,0V20.084a2.547,2.547,0,0,0-2.545-2.545,1.274,1.274,0,0,0-1.272,1.272v6.1a12.3,12.3,0,0,0,2.545,7.474v8.05H16.9V38.532H32.171v2.431ZM22.629,12.45v1.908a4.469,4.469,0,0,0,.051.636h-.051a1.272,1.272,0,1,1,0-2.545Zm0-1.272h0a2.536,2.536,0,0,0-.962.191l-.062-.186a4.837,4.837,0,0,1,4.589-6.366H27.97a4.837,4.837,0,0,1,4.589,6.366l-.062.186a2.536,2.536,0,0,0-.962-.191h-.117a1.906,1.906,0,0,0-1.791-1.272H28.354A1.911,1.911,0,0,1,26.445,8V6.089H25.173V8a3.232,3.232,0,0,0,.031.447l-.976.391A2.533,2.533,0,0,0,22.63,11.178Zm8.9,3.181V12.45a1.272,1.272,0,1,1,0,2.545h-.051A4.469,4.469,0,0,0,31.534,14.359ZM23.9,11.2a1.266,1.266,0,0,1,.8-1.181l.933-.373a3.182,3.182,0,0,0,2.721,1.534h1.272a.637.637,0,0,1,.636.636v2.545a3.181,3.181,0,0,1-6.361,0Zm1.7,7.356a4.375,4.375,0,0,0,2.962,0l.172.767a2.527,2.527,0,0,0,.223.6l-1.875.75-1.875-.75a2.527,2.527,0,0,0,.223-.6Zm9.751,8.528H30.388L31.421,21.4l.351.07a4.465,4.465,0,0,1,3.58,4.366ZM28.9,23.622l.723.578-.4,2.2-.774-2.323Zm-1.441-.358h-.746l-.442-.442.815-.652.815.652Zm-2.187.358.45.45L24.943,26.4l-.4-2.2Zm1.637.915h.355l.848,2.545H26.055Zm2.973-1.758-1.546-1.237,1.55-.62a2.528,2.528,0,0,0,.3.161Zm-5.6-1.857,1.55.62-1.546,1.237-.308-1.7A2.52,2.52,0,0,0,24.281,20.922Zm-1.539.478,1.033,5.682H18.812V25.836a4.465,4.465,0,0,1,3.58-4.366Zm16.426,5.682H36.623V25.836a5.741,5.741,0,0,0-4.6-5.614l-1.054-.211a1.274,1.274,0,0,1-.992-.969l-.249-1.109A4.475,4.475,0,0,0,31.1,16.267h.436a2.547,2.547,0,0,0,2.545-2.545A2.517,2.517,0,0,0,33.56,12.2l.2-.615a6.109,6.109,0,0,0-5.8-8.041H26.193a6.109,6.109,0,0,0-5.8,8.041l.2.615a2.516,2.516,0,0,0-.518,1.522,2.547,2.547,0,0,0,2.545,2.545h.436a4.481,4.481,0,0,0,1.372,1.665l-.249,1.109a1.274,1.274,0,0,1-.992.969l-1.053.211a5.714,5.714,0,0,0-3.33,2.025V20.72a1.9,1.9,0,0,0-2.618-1.768,1.892,1.892,0,0,0-2.544-1.272,1.877,1.877,0,0,0-2.471-1.3v-.524a.859.859,0,0,1,1.405-.58l1.183,1.188,2.7-2.7-1.188-1.182a.8.8,0,0,1-.126-.9.773.773,0,0,1,.706-.509h1.679V7.361H15.861a.789.789,0,0,1-.718-.536.787.787,0,0,1,.137-.87l1.188-1.183-2.5-2.5h25.2ZM7.687,12.022a3.181,3.181,0,1,1,3.165,0,1.907,1.907,0,0,0-3.165,0Zm3.491-9.749h2.388l-.982.987a.8.8,0,0,1-.9.126.773.773,0,0,1-.509-.706Zm-3.861,11.7a2.1,2.1,0,0,0-2.308.459l-.237.239-.9-.9.239-.237a2.1,2.1,0,0,0,.459-2.309l-.033-.078A2.008,2.008,0,0,0,2.679,9.906H2.272V8.634H2.62A2.126,2.126,0,0,0,4.111,5.009l-.239-.237.9-.9.237.239a2.1,2.1,0,0,0,2.309.459L7.4,4.538A2.009,2.009,0,0,0,8.634,2.679V2.272H9.906v.406a2.06,2.06,0,0,0,1.316,1.891,2.054,2.054,0,0,0,2.265-.412l.282-.284.9.9-.284.282a2.062,2.062,0,0,0-.4,2.285,2.048,2.048,0,0,0,1.88,1.294h.406V9.906h-.406a2.129,2.129,0,0,0-1.478,3.58l.284.282-.9.9-.282-.284a2.065,2.065,0,0,0-2.285-.4l-.022.011v-.709a4.453,4.453,0,1,0-3.817,0v.712c-.015-.008-.029-.017-.044-.024ZM3.545,24.917v-6.1a1.274,1.274,0,0,1,1.272,1.272V23.9a1.908,1.908,0,1,0,3.817,0V13.087a.636.636,0,0,1,1.272,0v11.45h1.272V18.176a.636.636,0,1,1,1.272,0v6.361h1.272V19.448a.636.636,0,0,1,1.272,0v5.089h1.272V20.72a.636.636,0,0,1,1.272,0v4.56A12.753,12.753,0,0,1,16,31.345a13.029,13.029,0,0,0-10.34.03A11.016,11.016,0,0,1,3.545,24.917ZM6.089,39.168V32.577a11.712,11.712,0,0,1,9.542,0v6.591ZM16.9,37.26V33.443H33.443V32.057l5.176,3.294-5.176,3.294V37.26Z" transform="translate(-1 -1)"/>
        <path id="Path_8808" data-name="Path 8808" d="M32,54h1.272v1.272H32Z" transform="translate(-12.28 -20.285)"/>
        <path id="Path_8809" data-name="Path 8809" d="M38,54h1.272v1.272H38Z" transform="translate(-14.463 -20.285)"/>
        <path id="Path_8810" data-name="Path 8810" d="M44,54h1.272v1.272H44Z" transform="translate(-16.646 -20.285)"/>
      </g>
    </g>
  </g>
</svg>
