<svg xmlns="http://www.w3.org/2000/svg" width="35.033" height="36.099" viewBox="0 0 35.033 36.099">
  <g id="Group_8098" data-name="Group 8098" transform="translate(-18954.221 -1169.86)">
    <path id="Path_8212" data-name="Path 8212" d="M48.234,0H20.517A2.069,2.069,0,0,0,18.45,2.067v.787H17.435a2.069,2.069,0,0,0-2.067,2.067V24.9a.617.617,0,0,0,1.233,0V4.921a.835.835,0,0,1,.834-.834H45.152a.835.835,0,0,1,.834.834v29.01a.835.835,0,0,1-.834.834H17.435a.835.835,0,0,1-.834-.834V28.118a.617.617,0,0,0-1.233,0v5.813A2.07,2.07,0,0,0,17.435,36H45.152a2.069,2.069,0,0,0,2.067-2.067v-.787h1.015A2.069,2.069,0,0,0,50.3,31.078V9.908a.617.617,0,0,0-1.233,0v21.17a.835.835,0,0,1-.834.834h-.787V4.921A2.07,2.07,0,0,0,45.38,2.854h-25.7V2.067a.835.835,0,0,1,.834-.834H48.234a.835.835,0,0,1,.834.834V7.03a.617.617,0,0,0,1.233,0V2.067A2.069,2.069,0,0,0,48.234,0Z" transform="translate(18938.902 1169.911)" fill="#fff" stroke="#fff" stroke-width="0.1"/>
    <path id="Path_8214" data-name="Path 8214" d="M58.218,391.706a1.276,1.276,0,0,0,1.275,1.275h3.4a1.276,1.276,0,0,0,1.275-1.275v-3.248l1.407-1.5a.617.617,0,0,0-.9-.845l-1.068,1.136a1.267,1.267,0,0,0-.715-.22h-3.4a1.276,1.276,0,0,0-1.275,1.275Zm4.714-1.936v1.936a.041.041,0,0,1-.041.041H61.064a.616.616,0,0,0,.069-.062Zm-3.481-1.463a.041.041,0,0,1,.041-.041h3.161l-1.884,2-1.105-1.684a.613.613,0,0,0-.213-.2v-.08Zm0,2.2c.781,1.19.743,1.153.851,1.238h-.81a.041.041,0,0,1-.041-.041Z" transform="translate(18900.576 808.942)" fill="#fff" stroke="#fff" stroke-width="0.1"/>
    <path id="Path_8215" data-name="Path 8215" d="M162.511,428.091h-13.1a.617.617,0,0,0,0,1.233h13.1a.617.617,0,1,0,0-1.233Z" transform="translate(18819.621 770.24)" fill="#fff" stroke="#fff" stroke-width="0.1"/>
    <path id="Path_8216" data-name="Path 8216" d="M59.657,88.762H70.59a1.441,1.441,0,0,0,1.439-1.439V76.39a1.441,1.441,0,0,0-1.439-1.439H59.657a1.441,1.441,0,0,0-1.439,1.439V87.323A1.441,1.441,0,0,0,59.657,88.762ZM59.451,76.39a.206.206,0,0,1,.206-.206H70.59a.206.206,0,0,1,.206.206V87.323a.206.206,0,0,1-.206.206H59.657a.206.206,0,0,1-.206-.206Z" transform="translate(18899.576 1101.123)" fill="#fff" stroke="#fff" stroke-width="0.1"/>
    <path id="Path_8217" data-name="Path 8217" d="M106.126,111.335a.617.617,0,0,0,.618-.616v-1.332a1.79,1.79,0,0,1,1.776-1.784h.015a1.79,1.79,0,0,1,1.776,1.784v.715H109a.617.617,0,1,0,0,1.233h1.923a.616.616,0,0,0,.617-.616v-1.332a3,3,0,0,0-.884-2.134,3.053,3.053,0,0,0-.341-.295,2.818,2.818,0,1,0-3.584,0,3.057,3.057,0,0,0-.342.295,3,3,0,0,0-.883,2.134v1.332a.615.615,0,0,0,.616.616Zm2.4-8.134a1.584,1.584,0,0,1,.005,3.169h-.011a1.584,1.584,0,0,1,.005-3.169Z" transform="translate(18856.172 1076.328)" fill="#fff" stroke="#fff" stroke-width="0.1"/>
    <path id="Path_8218" data-name="Path 8218" d="M242.654,112.8h7.223a.641.641,0,1,0,0-1.233h-7.223a.641.641,0,1,0,0,1.233Z" transform="translate(18732.055 1067.518)" fill="#fff" stroke="#fff" stroke-width="0.1"/>
    <path id="Path_8219" data-name="Path 8219" d="M242.654,155.321h7.223a.641.641,0,1,0,0-1.233h-7.223a.641.641,0,1,0,0,1.233Z" transform="translate(18732.055 1028.493)" fill="#fff" stroke="#fff" stroke-width="0.1"/>
    <path id="Path_8220" data-name="Path 8220" d="M242.654,200.674h7.223a.641.641,0,1,0,0-1.233h-7.223a.641.641,0,1,0,0,1.233Z" transform="translate(18732.055 986.869)" fill="#fff" stroke="#fff" stroke-width="0.1"/>
    <path id="Path_8221" data-name="Path 8221" d="M58.925,273.1H82.467a.622.622,0,1,0,0-1.233H58.925a.622.622,0,1,0,0,1.233Z" transform="translate(18899.576 920.401)" fill="#fff" stroke="#fff" stroke-width="0.1"/>
  </g>
</svg>
