<svg xmlns="http://www.w3.org/2000/svg" width="41.5" height="41.5" viewBox="0 0 41.5 41.5">
  <g id="_2556959" data-name="2556959" transform="translate(0.25 0.25)">
    <path id="Path_8502" data-name="Path 8502" d="M40.4,20.951a.6.6,0,0,0,.6-.6V17.982a2.751,2.751,0,0,0-2.748-2.748h-.5a1.546,1.546,0,0,1-1.433-.966c-.072-.184-.149-.368-.226-.547a1.547,1.547,0,0,1,.33-1.7l.353-.353a2.751,2.751,0,0,0,0-3.886L33.215,4.224a2.748,2.748,0,0,0-3.887,0l-.353.353a1.547,1.547,0,0,1-1.7.33c-.179-.078-.363-.154-.547-.226a1.546,1.546,0,0,1-.965-1.433v-.5A2.751,2.751,0,0,0,23.018,0H17.982a2.751,2.751,0,0,0-2.748,2.748v.5a1.546,1.546,0,0,1-.965,1.433c-.184.072-.367.148-.547.226a1.547,1.547,0,0,1-1.7-.33l-.353-.353a2.748,2.748,0,0,0-3.886,0L4.224,7.785a2.751,2.751,0,0,0,0,3.886l.353.353a1.547,1.547,0,0,1,.33,1.7c-.078.179-.154.363-.226.547a1.546,1.546,0,0,1-1.433.965h-.5A2.751,2.751,0,0,0,0,17.982v5.036a2.751,2.751,0,0,0,2.748,2.748h.5a1.546,1.546,0,0,1,1.433.966c.072.184.148.368.226.547a1.548,1.548,0,0,1-.33,1.7l-.353.353a2.751,2.751,0,0,0,0,3.886l3.561,3.561a2.748,2.748,0,0,0,3.887,0l.353-.353a1.547,1.547,0,0,1,1.7-.33c.181.078.365.155.547.226a1.546,1.546,0,0,1,.966,1.433v.5A2.751,2.751,0,0,0,17.982,41h5.036a2.751,2.751,0,0,0,2.748-2.748v-.5a1.546,1.546,0,0,1,.965-1.433c.182-.072.366-.148.547-.226a1.547,1.547,0,0,1,1.7.33l.353.353a2.748,2.748,0,0,0,3.886,0l3.561-3.561a2.751,2.751,0,0,0,0-3.886l-.353-.353a1.547,1.547,0,0,1-.33-1.7c.078-.179.154-.363.226-.547a1.546,1.546,0,0,1,1.433-.965h.5A2.751,2.751,0,0,0,41,23.018V22.7a.6.6,0,0,0-1.2,0v.32a1.549,1.549,0,0,1-1.547,1.547h-.5A2.721,2.721,0,0,0,35.2,26.292c-.067.171-.138.342-.21.508a2.722,2.722,0,0,0,.582,3.026l.353.353a1.549,1.549,0,0,1,0,2.188l-3.561,3.561a1.547,1.547,0,0,1-2.188,0l-.353-.353a2.722,2.722,0,0,0-3.026-.582c-.168.073-.338.144-.508.21a2.721,2.721,0,0,0-1.727,2.551v.5A1.549,1.549,0,0,1,23.018,39.8H17.982a1.549,1.549,0,0,1-1.547-1.547v-.5A2.721,2.721,0,0,0,14.708,35.2c-.169-.067-.34-.137-.508-.21a2.722,2.722,0,0,0-3.026.582l-.353.353a1.547,1.547,0,0,1-2.188,0L5.073,32.366a1.549,1.549,0,0,1,0-2.188l.353-.353A2.722,2.722,0,0,0,6.008,26.8c-.072-.166-.143-.337-.21-.508a2.721,2.721,0,0,0-2.551-1.727h-.5A1.549,1.549,0,0,1,1.2,23.018V17.982a1.549,1.549,0,0,1,1.547-1.547h.5A2.721,2.721,0,0,0,5.8,14.708c.067-.171.138-.342.21-.508a2.722,2.722,0,0,0-.582-3.026l-.353-.353a1.549,1.549,0,0,1,0-2.188L8.634,5.073a1.547,1.547,0,0,1,2.188,0l.353.353a2.723,2.723,0,0,0,3.026.582c.166-.072.337-.143.508-.21a2.721,2.721,0,0,0,1.727-2.551v-.5A1.549,1.549,0,0,1,17.982,1.2h5.036a1.549,1.549,0,0,1,1.547,1.547v.5A2.721,2.721,0,0,0,26.292,5.8c.17.067.341.138.508.21a2.722,2.722,0,0,0,3.026-.582l.353-.353a1.547,1.547,0,0,1,2.188,0l3.561,3.561a1.549,1.549,0,0,1,0,2.188l-.353.353a2.722,2.722,0,0,0-.582,3.026c.072.166.143.337.21.508a2.721,2.721,0,0,0,2.551,1.727h.5A1.549,1.549,0,0,1,39.8,17.982V20.35a.6.6,0,0,0,.6.6ZM20.5,6.962A13.538,13.538,0,1,0,34.038,20.5,13.553,13.553,0,0,0,20.5,6.962Zm0,25.874A12.336,12.336,0,1,1,32.836,20.5,12.35,12.35,0,0,1,20.5,32.836Zm0-22.513a2.347,2.347,0,0,0-2.322,2.515l.381,4.775a.6.6,0,0,0,1.2-.1l-.381-4.775a1.128,1.128,0,1,1,2.25,0l-.846,10.607a.279.279,0,0,1-.557,0L19.931,19.7a.6.6,0,0,0-1.2.1l.291,3.646a1.481,1.481,0,0,0,2.952,0l.846-10.607A2.354,2.354,0,0,0,20.5,10.323Zm0,16.224a2.065,2.065,0,1,0,2.065,2.065A2.067,2.067,0,0,0,20.5,26.547Zm0,2.928a.864.864,0,1,1,.864-.864A.865.865,0,0,1,20.5,29.475Z" transform="translate(0 0)" fill="#5e5e5e" stroke="#5e5e5e" stroke-width="0.5"/>
  </g>
</svg>
