<svg xmlns="http://www.w3.org/2000/svg" width="96.659" height="87.238" viewBox="0 0 96.659 87.238">
  <g id="Group_8070" data-name="Group 8070" transform="translate(9616 -2203)">
    <g id="Group_7484" data-name="Group 7484" transform="translate(-9930.174 1269)">
      <ellipse id="Ellipse_53" data-name="Ellipse 53" cx="43.067" cy="43.619" rx="43.067" ry="43.619" transform="translate(324.699 934)" fill="#ed3042" opacity="0.2"/>
      <g id="simple-royal-crown" transform="translate(314.174 931.2)">
        <path id="Path_8025" data-name="Path 8025" d="M62.888,66.792a1.78,1.78,0,0,1-1.78,1.78H1.78a1.78,1.78,0,0,1,0-3.56H61.108A1.78,1.78,0,0,1,62.888,66.792Zm0-28.58V59.538a1.78,1.78,0,0,1-1.78,1.78H1.78A1.78,1.78,0,0,1,0,59.538V38.212a1.777,1.777,0,0,1,2.382-1.673l13.435,4.829L30.081,24.4a1.838,1.838,0,0,1,2.725,0L47.071,41.368l13.435-4.829a1.778,1.778,0,0,1,2.382,1.673Zm-3.56,2.531L47.11,45.137a1.772,1.772,0,0,1-1.965-.531l-13.7-16.294-13.7,16.294a1.782,1.782,0,0,1-1.965.531L3.564,40.743V57.76H59.332l0-17.017Z" transform="translate(0 0)" fill="#ed3042"/>
      </g>
    </g>
  </g>
</svg>
