<svg id="deadline" xmlns="http://www.w3.org/2000/svg" width="18" height="18" viewBox="0 0 18 18">
  <path id="Path_5782" data-name="Path 5782" d="M70.146,197h2.112v1.055H70.146Z" transform="translate(-67.68 -190.074)" fill="#5d5d5d"/>
  <path id="Path_5783" data-name="Path 5783" d="M185.385,197H187.5v1.055h-2.112Z" transform="translate(-178.868 -190.074)" fill="#5d5d5d"/>
  <path id="Path_5784" data-name="Path 5784" d="M300.624,197h2.112v1.055h-2.112Z" transform="translate(-290.055 -190.074)" fill="#5d5d5d"/>
  <path id="Path_5785" data-name="Path 5785" d="M70.146,277h2.112v1.055H70.146Z" transform="translate(-67.68 -267.262)" fill="#5d5d5d"/>
  <path id="Path_5786" data-name="Path 5786" d="M185.385,277H187.5v1.055h-2.112Z" transform="translate(-178.868 -267.262)" fill="#5d5d5d"/>
  <path id="Path_5787" data-name="Path 5787" d="M70.146,358h2.112v1.055H70.146Z" transform="translate(-67.68 -345.414)" fill="#5d5d5d"/>
  <path id="Path_5788" data-name="Path 5788" d="M185.385,358H187.5v1.055h-2.112Z" transform="translate(-178.868 -345.414)" fill="#5d5d5d"/>
  <path id="Path_5789" data-name="Path 5789" d="M15.146,10.34V1.247H12.679V0H11.624V1.247h-2V0H8.572V1.247h-2V0H5.52V1.247h-2V0H2.467V1.247H0v15H10.826a3.906,3.906,0,1,0,4.321-5.9ZM2.467,2.3V3.613H3.522V2.3h2V3.613H6.574V2.3h2V3.613H9.627V2.3h2V3.613h1.055V2.3h1.413V4.66H1.055V2.3ZM1.055,15.188V5.715H14.092V10.2h0a3.9,3.9,0,0,0-3.754,4.992Zm13.036,1.758A2.848,2.848,0,1,1,16.945,14.1a2.854,2.854,0,0,1-2.855,2.848Z" fill="#5d5d5d"/>
  <path id="Path_5790" data-name="Path 5790" d="M386.856,351.186H385.8v2.279h2.279V352.41h-1.224Z" transform="translate(-372.238 -338.84)" fill="#5d5d5d"/>
</svg>
