<svg xmlns="http://www.w3.org/2000/svg" width="52.648" height="43.221" viewBox="0 0 52.648 43.221">
  <g id="line_icons" data-name="line icons" transform="translate(0.1 0.1)">
    <path id="Path_5670" data-name="Path 5670" d="M66.684,42.661H54.535a.749.749,0,0,1,0-1.5h11.4V27.749H54.845a.749.749,0,0,1,0-1.5H66.684a.749.749,0,0,1,.749.749V41.91a.749.749,0,0,1-.749.752Z" transform="translate(-14.985 -9.797)" fill="#fff" stroke="#fff" stroke-width="0.2"/>
    <path id="Path_5671" data-name="Path 5671" d="M49.44,47.312H7.008A5.013,5.013,0,0,1,2,42.3V16.23a5.013,5.013,0,0,1,5.008-5.007H17.4l1.539-4.742a3.187,3.187,0,0,1,3.024-2.19H34.492a3.156,3.156,0,0,1,3.014,2.193l1.538,4.741h10.4a5.013,5.013,0,0,1,5.008,5.007V42.306A5.013,5.013,0,0,1,49.44,47.312ZM7.008,12.723A3.513,3.513,0,0,0,3.5,16.232V42.306a3.513,3.513,0,0,0,3.51,3.509H49.44a3.513,3.513,0,0,0,3.51-3.51V16.23a3.513,3.513,0,0,0-3.51-3.509H38.5a.749.749,0,0,1-.713-.518L36.08,6.943a1.682,1.682,0,0,0-1.587-1.155H21.968a1.687,1.687,0,0,0-1.6,1.161L18.661,12.2a.749.749,0,0,1-.713.518Z" transform="translate(-2 -4.291)" fill="#fff" stroke="#fff" stroke-width="0.2"/>
    <path id="Path_5672" data-name="Path 5672" d="M39.744,10.1H30.765a.749.749,0,0,1,0-1.5h8.979a.749.749,0,0,1,0,1.5Z" transform="translate(-9.025 -5.371)" fill="#fff" stroke="#fff" stroke-width="0.2"/>
    <path id="Path_5673" data-name="Path 5673" d="M14.737,42.661H2.749A.749.749,0,0,1,2,41.912V27a.749.749,0,0,1,.749-.749H14.388a.749.749,0,1,1,0,1.5H3.5V41.16H14.737a.749.749,0,0,1,0,1.5Z" transform="translate(-2 -9.797)" fill="#fff" stroke="#fff" stroke-width="0.2"/>
    <path id="Path_5674" data-name="Path 5674" d="M31.6,47.6A16.144,16.144,0,1,1,47.742,31.457,16.144,16.144,0,0,1,31.6,47.6Zm0-30.79A14.646,14.646,0,1,0,46.243,31.457,14.646,14.646,0,0,0,31.6,16.812Z" transform="translate(-5.373 -7.055)" fill="#fff" stroke="#fff" stroke-width="0.2"/>
    <path id="Path_5675" data-name="Path 5675" d="M32.82,45.171A12.492,12.492,0,1,1,45.311,32.68,12.492,12.492,0,0,1,32.82,45.171Zm0-23.485A10.993,10.993,0,1,0,43.813,32.68,10.993,10.993,0,0,0,32.82,21.687Z" transform="translate(-6.596 -8.277)" fill="#fff" stroke="#fff" stroke-width="0.2"/>
    <path id="Path_5676" data-name="Path 5676" d="M26.649,34.827a.749.749,0,0,1-.749-.749,8.325,8.325,0,0,1,8.317-8.315.749.749,0,1,1,0,1.5A6.824,6.824,0,0,0,27.4,34.079.749.749,0,0,1,26.649,34.827Z" transform="translate(-7.993 -9.675)" fill="#fff" stroke="#fff" stroke-width="0.2"/>
    <path id="Path_5677" data-name="Path 5677" d="M62.558,21.589h-6.5a.749.749,0,0,1-.749-.749V18.088a.749.749,0,0,1,.749-.749h6.5a.749.749,0,0,1,.749.749V20.84A.749.749,0,0,1,62.558,21.589Zm-5.749-1.5h5V18.838h-5Z" transform="translate(-15.367 -7.563)" fill="#fff" stroke="#fff" stroke-width="0.2"/>
    <path id="Path_5678" data-name="Path 5678" d="M14.93,13.8H9.262a.749.749,0,0,1-.749-.749v-2.2A2.258,2.258,0,0,1,10.769,8.6h2.654a2.258,2.258,0,0,1,2.257,2.256v2.2a.749.749,0,0,1-.749.751Zm-4.919-1.5h4.17V10.858a.759.759,0,0,0-.758-.759H10.769a.759.759,0,0,0-.758.757Z" transform="translate(-3.633 -5.371)" fill="#fff" stroke="#fff" stroke-width="0.2"/>
  </g>
</svg>
