<svg xmlns="http://www.w3.org/2000/svg" width="19.873" height="16.338" viewBox="0 0 19.873 16.338">
  <g id="line_icons" data-name="line icons" transform="translate(-1.9 -4.191)">
    <path id="Path_5670" data-name="Path 5670" d="M58.624,32.406H54.067a.281.281,0,0,1,0-.562h4.276V26.812h-4.16a.281.281,0,0,1,0-.562h4.441a.281.281,0,0,1,.281.281v5.593a.281.281,0,0,1-.281.282Z" transform="translate(-37.231 -15.787)" fill="#fff" stroke="#fff" stroke-width="0.2"/>
    <path id="Path_5671" data-name="Path 5671" d="M19.8,20.429H3.879A1.881,1.881,0,0,1,2,18.55V8.77A1.881,1.881,0,0,1,3.879,6.891h3.9l.577-1.779A1.2,1.2,0,0,1,9.49,4.291h4.7a1.184,1.184,0,0,1,1.13.823L15.9,6.892h3.9A1.881,1.881,0,0,1,21.674,8.77v9.781A1.881,1.881,0,0,1,19.8,20.429ZM3.879,7.454A1.318,1.318,0,0,0,2.562,8.77v9.781a1.318,1.318,0,0,0,1.316,1.316H19.8a1.318,1.318,0,0,0,1.316-1.317V8.77A1.318,1.318,0,0,0,19.8,7.453h-4.1a.281.281,0,0,1-.267-.194l-.641-1.973a.631.631,0,0,0-.6-.433H9.49a.633.633,0,0,0-.6.436L8.25,7.259a.281.281,0,0,1-.267.194Z" fill="#fff" stroke="#fff" stroke-width="0.2"/>
    <path id="Path_5672" data-name="Path 5672" d="M33.665,9.162H30.3a.281.281,0,1,1,0-.562h3.368a.281.281,0,0,1,0,.562Z" transform="translate(-20.142 -3.098)" fill="#fff" stroke="#fff" stroke-width="0.2"/>
    <path id="Path_5673" data-name="Path 5673" d="M6.778,32.406h-4.5A.281.281,0,0,1,2,32.125V26.531a.281.281,0,0,1,.281-.281H6.647a.281.281,0,1,1,0,.562H2.562v5.031H6.778a.281.281,0,0,1,0,.562Z" transform="translate(0 -15.787)" fill="#fff" stroke="#fff" stroke-width="0.2"/>
    <path id="Path_5674" data-name="Path 5674" d="M21.509,27.425a6.056,6.056,0,1,1,6.056-6.056,6.056,6.056,0,0,1-6.056,6.056Zm0-11.55A5.494,5.494,0,1,0,27,21.369a5.494,5.494,0,0,0-5.494-5.494Z" transform="translate(-9.672 -7.924)" fill="#fff" stroke="#fff" stroke-width="0.2"/>
    <path id="Path_5675" data-name="Path 5675" d="M25.014,29.559A4.686,4.686,0,1,1,29.7,24.874,4.686,4.686,0,0,1,25.014,29.559Zm0-8.809a4.124,4.124,0,1,0,4.124,4.124A4.124,4.124,0,0,0,25.014,20.75Z" transform="translate(-13.177 -11.429)" fill="#fff" stroke="#fff" stroke-width="0.2"/>
    <path id="Path_5676" data-name="Path 5676" d="M26.181,29.162a.281.281,0,0,1-.281-.281,3.123,3.123,0,0,1,3.12-3.119.281.281,0,0,1,0,.562,2.56,2.56,0,0,0-2.558,2.558A.281.281,0,0,1,26.181,29.162Z" transform="translate(-17.183 -15.436)" fill="#fff" stroke="#fff" stroke-width="0.2"/>
    <path id="Path_5677" data-name="Path 5677" d="M58.029,18.933H55.591a.281.281,0,0,1-.281-.281V17.62a.281.281,0,0,1,.281-.281h2.438a.281.281,0,0,1,.281.281v1.032A.281.281,0,0,1,58.029,18.933Zm-2.157-.562h1.875V17.9H55.872Z" transform="translate(-38.327 -9.381)" fill="#fff" stroke="#fff" stroke-width="0.2"/>
    <path id="Path_5678" data-name="Path 5678" d="M10.92,10.552H8.794a.281.281,0,0,1-.281-.281V9.447A.847.847,0,0,1,9.359,8.6h1a.847.847,0,0,1,.847.846v.824a.281.281,0,0,1-.281.282ZM9.075,9.99h1.564V9.447a.285.285,0,0,0-.284-.285h-1a.285.285,0,0,0-.284.284Z" transform="translate(-4.682 -3.098)" fill="#fff" stroke="#fff" stroke-width="0.2"/>
  </g>
</svg>
