<svg xmlns="http://www.w3.org/2000/svg" width="40.938" height="37.794" viewBox="0 0 40.938 37.794">
  <g id="_3521105" data-name="3521105" transform="translate(0.1 -19.63)">
    <path id="Path_8497" data-name="Path 8497" d="M47.229,373.516a.6.6,0,0,0,.6-.6v-1.911l1.655.955a.6.6,0,1,0,.6-1.035l-1.655-.955,1.655-.955a.6.6,0,0,0-.6-1.035l-1.655.955v-1.911a.6.6,0,0,0-1.195,0v1.911l-1.655-.955a.6.6,0,1,0-.6,1.035l1.655.955-1.655.955a.6.6,0,1,0,.6,1.035l1.655-.955v1.911A.6.6,0,0,0,47.229,373.516Z" transform="translate(-40.569 -319.082)" fill="#5e5e5e" stroke="#5e5e5e" stroke-width="0.2"/>
    <path id="Path_8498" data-name="Path 8498" d="M273.61,371.744a.6.6,0,0,0,.816.219l1.655-.955v1.911a.6.6,0,1,0,1.195,0v-1.911l1.655.955a.6.6,0,1,0,.6-1.035l-1.655-.955,1.655-.955a.6.6,0,1,0-.6-1.035l-1.655.955v-1.911a.6.6,0,0,0-1.195,0v1.911l-1.655-.955a.6.6,0,0,0-.6,1.035l1.655.955-1.655.955a.6.6,0,0,0-.219.816Z" transform="translate(-251.74 -319.082)" fill="#5e5e5e" stroke="#5e5e5e" stroke-width="0.2"/>
    <path id="Path_8499" data-name="Path 8499" d="M158.885,371.747a.6.6,0,0,0,.816.219l1.655-.955v1.911a.6.6,0,0,0,1.195,0v-1.911l1.655.955a.6.6,0,0,0,.6-1.035l-1.655-.955,1.655-.955a.6.6,0,0,0-.6-1.035l-1.655.955V367.03a.6.6,0,0,0-1.195,0v1.911l-1.655-.955a.6.6,0,0,0-.6,1.035l1.655.955-1.655.955A.6.6,0,0,0,158.885,371.747Z" transform="translate(-146.154 -319.084)" fill="#5e5e5e" stroke="#5e5e5e" stroke-width="0.2"/>
    <path id="Path_8500" data-name="Path 8500" d="M388.335,371.747a.6.6,0,0,0,.816.219l1.655-.955v1.911a.6.6,0,0,0,1.195,0v-1.911l1.655.955a.6.6,0,0,0,.6-1.035l-1.655-.955,1.655-.955a.6.6,0,0,0-.6-1.035l-1.655.955V367.03a.6.6,0,0,0-1.195,0v1.911l-1.655-.955a.6.6,0,0,0-.6,1.035l1.655.955-1.655.955A.6.6,0,0,0,388.335,371.747Z" transform="translate(-357.325 -319.084)" fill="#5e5e5e" stroke="#5e5e5e" stroke-width="0.2"/>
    <path id="Path_8501" data-name="Path 8501" d="M38.211,43.788H31.079V38.07a.6.6,0,1,0-1.195,0v5.718h-6.8l-.318-2.824a2.822,2.822,0,1,0-4.79,0l-.318,2.824h-6.8V33.86a.669.669,0,0,1,.668-.668H29.216a.669.669,0,0,1,.668.668v1.422a.6.6,0,0,0,1.195,0V33.86A1.865,1.865,0,0,0,29.216,32h-.094V28.483a8.753,8.753,0,1,0-17.506,0V32h-.094A1.865,1.865,0,0,0,9.658,33.86v9.928H2.526A2.529,2.529,0,0,0,0,46.314V54.8a2.529,2.529,0,0,0,2.526,2.526H6.66a.6.6,0,0,0,0-1.195H2.526A1.333,1.333,0,0,1,1.195,54.8V46.314a1.333,1.333,0,0,1,1.331-1.331H38.211a1.333,1.333,0,0,1,1.331,1.331V54.8a1.333,1.333,0,0,1-1.331,1.331H9.448a.6.6,0,1,0,0,1.195H38.211A2.529,2.529,0,0,0,40.737,54.8V46.314a2.529,2.529,0,0,0-2.526-2.526ZM24.012,32H16.725V28.483a3.644,3.644,0,1,1,7.287,0Zm-11.2-3.513a7.558,7.558,0,1,1,15.117,0V32h-2.72V28.483a4.839,4.839,0,0,0-9.677,0V32H12.81ZM19,40.35a1.621,1.621,0,0,1-.255-.98,1.644,1.644,0,0,1,1.519-1.524,1.627,1.627,0,0,1,1.475,2.5,1.09,1.09,0,0,0-.167.706l.308,2.733H18.858l.308-2.736a1.081,1.081,0,0,0-.167-.7Z" transform="translate(0 0)" fill="#5e5e5e" stroke="#5e5e5e" stroke-width="0.2"/>
  </g>
</svg>
