<svg xmlns="http://www.w3.org/2000/svg" width="46.336" height="38.826" viewBox="0 0 46.336 38.826">
  <g id="Group_8089" data-name="Group 8089" transform="translate(-9219 -2497)">
    <g id="love-message" transform="translate(9219 2455.505)">
      <g id="Group_7391" data-name="Group 7391" transform="translate(0.679 42.174)">
        <path id="Path_5700" data-name="Path 5700" d="M118,48.995H94.74a7.24,7.24,0,0,0-7.24,7.24v9.76a7.24,7.24,0,0,0,7.24,7.24h10.1a1.81,1.81,0,0,1,1.28.53l3.129,3.129a1.81,1.81,0,0,0,2.56,0l3.129-3.129a1.81,1.81,0,0,1,1.28-.53H118a7.24,7.24,0,0,0,7.24-7.24v-9.76A7.24,7.24,0,0,0,118,48.995Z" transform="translate(-80.26 -48.995)" fill="#ffbfe4"/>
        <path id="Path_5701" data-name="Path 5701" d="M14.74,148.869H38a7.24,7.24,0,0,1,7.24,7.24v9.76a7.24,7.24,0,0,1-7.24,7.24H27.9a1.81,1.81,0,0,0-1.28.53l-3.129,3.129a1.81,1.81,0,0,1-2.56,0L17.8,173.639a1.81,1.81,0,0,0-1.28-.53H14.74a7.24,7.24,0,0,1-7.24-7.24v-9.76A7.24,7.24,0,0,1,14.74,148.869Z" transform="translate(-7.5 -139.83)" fill="#efedf2"/>
        <path id="Path_5702" data-name="Path 5702" d="M47.861,149.454a7.206,7.206,0,0,1,.9,3.489v9.76a7.24,7.24,0,0,1-7.24,7.24H18.258a7.3,7.3,0,0,1-.863-.053,7.238,7.238,0,0,0,6.345,3.751h1.783a1.81,1.81,0,0,1,1.28.53l3.129,3.129a1.81,1.81,0,0,0,2.56,0l3.129-3.129a1.81,1.81,0,0,1,1.28-.53H47a7.24,7.24,0,0,0,7.24-7.24v-9.76A7.24,7.24,0,0,0,47.861,149.454Z" transform="translate(-16.499 -140.362)" fill="#e5daea"/>
        <path id="Path_5703" data-name="Path 5703" d="M138.966,220.056c-7.367-5.513-12.248,5.733,0,11.171C151.215,225.79,146.333,214.543,138.966,220.056Z" transform="translate(-120.278 -203.227)" fill="#ff5578"/>
        <path id="Path_5704" data-name="Path 5704" d="M155.211,218.778c.435,2.794-1.481,6.785-7.407,9.416a18.4,18.4,0,0,1-3.048-1.694,13.968,13.968,0,0,0,6.267,4.913C160.691,227.121,159.686,219.21,155.211,218.778Z" transform="translate(-132.334 -203.413)" fill="#ed3c61"/>
      </g>
      <g id="Group_7392" data-name="Group 7392" transform="translate(0 41.495)">
        <path id="Path_5705" data-name="Path 5705" d="M25.795,290.493H21.08a2.472,2.472,0,0,0-1.76.729l-3.129,3.129a1.131,1.131,0,0,1-1.6,0l-3.13-3.129a2.472,2.472,0,0,0-1.76-.729H7.919a6.569,6.569,0,0,1-6.561-6.561v-4.573a.679.679,0,1,0-1.358,0v4.573a7.928,7.928,0,0,0,7.919,7.919H9.7a1.124,1.124,0,0,1,.8.331l3.129,3.129a2.489,2.489,0,0,0,3.52,0l3.129-3.129a1.124,1.124,0,0,1,.8-.331h4.715a.679.679,0,0,0,0-1.358Z" transform="translate(0 -257.215)"/>
        <path id="Path_5706" data-name="Path 5706" d="M38.417,41.495h-8.09a.679.679,0,0,0,0,1.358h8.09a6.569,6.569,0,0,1,6.561,6.561v9.76A6.571,6.571,0,0,1,39.1,65.7V58.452a7.928,7.928,0,0,0-7.919-7.919H8.6v-1.12a6.569,6.569,0,0,1,6.561-6.561h12a.679.679,0,1,0,0-1.358h-12A7.928,7.928,0,0,0,7.24,49.414v1.149A7.93,7.93,0,0,0,0,58.452v2.019a.679.679,0,1,0,1.358,0V58.452a6.569,6.569,0,0,1,6.561-6.561H31.177a6.569,6.569,0,0,1,6.561,6.561v9.76a6.569,6.569,0,0,1-6.561,6.561H28.962a.679.679,0,1,0,0,1.357h2.215A7.928,7.928,0,0,0,39.1,68.212V67.063a7.93,7.93,0,0,0,7.24-7.89v-9.76A7.928,7.928,0,0,0,38.417,41.495Z" transform="translate(0 -41.495)"/>
        <path id="Path_5707" data-name="Path 5707" d="M137.95,211.543c-1.648-.857-3.743-.543-5.805.853-2.062-1.4-4.157-1.71-5.805-.853A4.613,4.613,0,0,0,124,215.952a8.1,8.1,0,0,0,1.931,4.77,15.565,15.565,0,0,0,5.936,4.3.679.679,0,0,0,.551,0,15.566,15.566,0,0,0,5.936-4.3,8.1,8.1,0,0,0,1.931-4.77A4.613,4.613,0,0,0,137.95,211.543Zm.98,4.367a6.665,6.665,0,0,1-1.632,3.962,14.01,14.01,0,0,1-5.153,3.784,14.01,14.01,0,0,1-5.153-3.784,6.665,6.665,0,0,1-1.632-3.962,3.292,3.292,0,0,1,1.606-3.163,2.946,2.946,0,0,1,1.374-.321,5.886,5.886,0,0,1,3.4,1.347.679.679,0,0,0,.813,0c1.757-1.315,3.5-1.689,4.772-1.026A3.292,3.292,0,0,1,138.929,215.911Z" transform="translate(-112.777 -195.722)"/>
      </g>
    </g>
  </g>
</svg>
