<svg xmlns="http://www.w3.org/2000/svg" width="27.358" height="18.579" viewBox="0 0 27.358 18.579">
  <g id="_2950648" data-name="2950648" transform="translate(0.1 -82.669)">
    <g id="Group_7416" data-name="Group 7416" transform="translate(0 82.769)">
      <path id="Path_7937" data-name="Path 7937" d="M20.9,90.98c0-4.96-5.228-8.211-10.448-8.211C5.207,82.769,0,86.035,0,90.98a7.224,7.224,0,0,0,2.307,5.151.224.224,0,0,1,.057.22,11.983,11.983,0,0,1-2.028,3.844.591.591,0,0,0,.466.953H.817A9.67,9.67,0,0,0,7.207,98.9a.227.227,0,0,1,.214-.058,13.132,13.132,0,0,0,3.027.35C15.687,99.191,20.9,95.926,20.9,90.98ZM7.6,98.067a1.019,1.019,0,0,0-.955.265c-1.592,1.566-4.192,1.921-5.423,2a12.4,12.4,0,0,0,1.9-3.772,1.02,1.02,0,0,0-.269-1A6.352,6.352,0,0,1,.8,90.98c0-4.089,4.33-7.415,9.652-7.415S20.1,86.891,20.1,90.98s-4.33,7.415-9.652,7.415A12.34,12.34,0,0,1,7.6,98.067Z" transform="translate(0 -82.769)" fill="#fff" stroke="#fff" stroke-width="0.2"/>
      <path id="Path_7938" data-name="Path 7938" d="M333.1,155.24a6.138,6.138,0,0,0,3.7-5.344c0-3.073-2.778-5.7-6.605-6.243a.4.4,0,0,0-.112.788c3.431.488,5.921,2.783,5.921,5.456a5.364,5.364,0,0,1-3.268,4.634.983.983,0,0,0-.518,1.081,8.285,8.285,0,0,0,.937,2.328,4.679,4.679,0,0,1-3.521-2.006.982.982,0,0,0-.85-.488h-.032a9.468,9.468,0,0,1-1.313-.091.4.4,0,0,0-.111.788,10.272,10.272,0,0,0,1.423.1h.033a.184.184,0,0,1,.16.09c1.077,1.867,3.554,2.344,4.569,2.462a.577.577,0,0,0,.553-.885A7.9,7.9,0,0,1,333,155.446.187.187,0,0,1,333.1,155.24Z" transform="translate(-309.645 -140.419)" fill="#fff" stroke="#fff" stroke-width="0.2"/>
      <path id="Path_7939" data-name="Path 7939" d="M55.644,210.733a1.379,1.379,0,1,0,1.379,1.379A1.38,1.38,0,0,0,55.644,210.733Zm0,1.962a.583.583,0,1,1,.583-.583A.584.584,0,0,1,55.644,212.695Z" transform="translate(-51.387 -203.945)" fill="#fff" stroke="#fff" stroke-width="0.2"/>
      <path id="Path_7940" data-name="Path 7940" d="M129.8,210.733a1.379,1.379,0,1,0,1.379,1.379A1.38,1.38,0,0,0,129.8,210.733Zm0,1.962a.583.583,0,1,1,.583-.583A.584.584,0,0,1,129.8,212.695Z" transform="translate(-121.606 -203.945)" fill="#fff" stroke="#fff" stroke-width="0.2"/>
      <path id="Path_7941" data-name="Path 7941" d="M203.949,210.733a1.379,1.379,0,1,0,1.379,1.379A1.38,1.38,0,0,0,203.949,210.733Zm0,1.962a.583.583,0,1,1,.583-.583A.584.584,0,0,1,203.949,212.695Z" transform="translate(-191.825 -203.945)" fill="#fff" stroke="#fff" stroke-width="0.2"/>
      <path id="Path_7942" data-name="Path 7942" d="M278.1,210.733a1.379,1.379,0,1,0,1.379,1.379A1.38,1.38,0,0,0,278.1,210.733Zm0,1.962a.583.583,0,1,1,.583-.583A.584.584,0,0,1,278.1,212.695Z" transform="translate(-262.045 -203.945)" fill="#fff" stroke="#fff" stroke-width="0.2"/>
    </g>
  </g>
</svg>
