<svg xmlns="http://www.w3.org/2000/svg" width="97" height="68.013" viewBox="0 0 97 68.013">
  <path id="Combined_Shape" data-name="Combined Shape" d="M70.546,65.175V47.341A2.838,2.838,0,0,1,71.778,45l5.63-3.851H55.725a2.825,2.825,0,0,1-2.816-2.834V2.834A2.825,2.825,0,0,1,55.725,0H94.184A2.825,2.825,0,0,1,97,2.834v48.1a2.838,2.838,0,0,1-1.232,2.343L74.945,67.518a2.772,2.772,0,0,1-1.575.5A2.827,2.827,0,0,1,70.546,65.175Zm-52.909,0V47.341A2.839,2.839,0,0,1,18.869,45l5.63-3.851H2.816A2.825,2.825,0,0,1,0,38.312V2.834A2.825,2.825,0,0,1,2.816,0H41.275a2.825,2.825,0,0,1,2.816,2.834v48.1a2.839,2.839,0,0,1-1.233,2.343L22.036,67.518a2.771,2.771,0,0,1-1.575.5A2.827,2.827,0,0,1,17.636,65.175Z" fill="#fcb315" opacity="0.2"/>
</svg>
