<svg xmlns="http://www.w3.org/2000/svg" width="38.064" height="38.064" viewBox="0 0 38.064 38.064">
  <g id="_3540796" data-name="3540796" transform="translate(-64.801 -64.8)">
    <path id="Path_8473" data-name="Path 8473" d="M64.8,85.017v-2.38c.02-.109.05-.218.06-.317A19.021,19.021,0,0,1,80.585,65.088c.684-.119,1.368-.188,2.052-.288h2.38c.635.079,1.279.149,1.9.248a19.084,19.084,0,0,1,15.646,15.5c.119.694.2,1.388.3,2.092v2.38c-.02.1-.05.188-.059.288a18.236,18.236,0,0,1-2.618,8.24,18.8,18.8,0,0,1-13.048,9.023c-.7.129-1.418.2-2.122.3h-2.38c-.1-.02-.188-.05-.288-.059a18.4,18.4,0,0,1-9.687-3.569,18.724,18.724,0,0,1-7.575-12.126C64.959,86.415,64.889,85.721,64.8,85.017Zm8.547,8.339a1.925,1.925,0,0,0-.218-.01,2.527,2.527,0,0,1-2.618-2.667V75.667a2.511,2.511,0,0,1,2.578-2.618c.744-.01,1.487,0,2.231,0h18.1a.582.582,0,0,0,.377-.1c.7-.684,1.4-1.388,2.1-2.092A17.326,17.326,0,0,0,79.2,66.7c-7.159,2.082-11.541,6.9-12.87,14.228C65.306,86.6,67,91.6,70.789,95.914,71.671,95.041,72.484,94.218,73.347,93.356Zm-1.636,3.49c4.918,4.234,10.51,5.86,16.747,4.095,7.367-2.082,11.759-7.119,12.949-14.694A17.146,17.146,0,0,0,96.886,71.76c-.506.506-.962.952-1.418,1.408.02.01.04.04.069.05a2.576,2.576,0,0,1,1.626,2.588c-.01,4.958,0,9.915,0,14.873a2.537,2.537,0,0,1-2.687,2.677c-1.487,0-2.975-.01-4.462.01a.875.875,0,0,0-.555.208c-1.368,1.18-2.727,2.37-4.095,3.56a2.061,2.061,0,0,1-3.054,0c-1.358-1.19-2.717-2.38-4.095-3.56a.925.925,0,0,0-.516-.2c-.734-.02-1.458-.02-2.191,0a.732.732,0,0,0-.476.2c-.555.526-1.091,1.081-1.636,1.626C72.841,95.716,72.3,96.251,71.711,96.846Zm16.023-3.5H85.761a.612.612,0,0,1-.635-.466.545.545,0,0,1,.258-.674,1.207,1.207,0,0,1,.565-.119c2.816-.01,5.622,0,8.438-.01a1.309,1.309,0,0,0,1.5-1.507V75.816a2.268,2.268,0,0,0-.01-.367,1.2,1.2,0,0,0-.823-1.051,1,1,0,0,0-1.19.288c-3.074,3.1-6.177,6.2-9.271,9.281-.218.218-.456.416-.664.6,1.091,1.735,1.18,2,1.17,3.55a2.548,2.548,0,0,1-2.707,2.7H78.037a.549.549,0,0,0-.347.069c-.4.357-.773.744-1.229,1.2h5.394a.638.638,0,1,1,.02,1.269c-.615.01-1.229,0-1.953,0,1.229,1.071,2.37,2.072,3.53,3.044a.665.665,0,0,0,.863-.05c.228-.178.436-.367.644-.555C85.85,95,86.752,94.208,87.734,93.346Zm4.611-19.037h-19.2a1.254,1.254,0,0,0-1.368,1.358V90.689a1.277,1.277,0,0,0,1.388,1.388,5.165,5.165,0,0,1,.783.01,1.259,1.259,0,0,0,1.249-.516,9.274,9.274,0,0,1,.763-.773,2.444,2.444,0,0,1-2.2-1.953,4.577,4.577,0,0,1,2.469-5.225c.1-.05.208-.1.337-.149A4.448,4.448,0,1,1,82.221,76.6,4.287,4.287,0,0,1,83.8,79.574a4.471,4.471,0,0,1-1.586,3.887c.268.129.5.238.654.317C86.038,80.6,89.181,77.472,92.344,74.309ZM79.385,83.193a3.173,3.173,0,1,0-3.153-3.173A3.18,3.18,0,0,0,79.385,83.193Zm2.637,1.517a7.868,7.868,0,0,0-1.17-.218c-.942-.03-1.884-.03-2.816-.01A2.866,2.866,0,0,0,77,84.69a3.322,3.322,0,0,0-1.983,3.917,1.074,1.074,0,0,0,.9.882c.3.059.615.03.922.059a.738.738,0,0,0,.654-.258c1.4-1.418,2.816-2.816,4.224-4.234Zm1.051.9c-1.319,1.319-2.618,2.618-3.907,3.916,1.17,0,2.37.03,3.579-.01a1.064,1.064,0,0,0,1.031-.932A3.481,3.481,0,0,0,83.074,85.612Z" transform="translate(0)" fill="#fff" fill-rule="evenodd"/>
    <path id="Path_8474" data-name="Path 8474" d="M316.727,218.94c.238,0,.417-.01.6,0a.649.649,0,0,1,.664.654.617.617,0,0,1-.664.6c-.833.01-1.656.01-2.489,0a.6.6,0,0,1-.644-.615.62.62,0,0,1,.635-.635c.2-.01.387,0,.6,0V214.21c-.1.069-.188.129-.278.188a.633.633,0,0,1-.813-.119.56.56,0,0,1-.02-.783,18.312,18.312,0,0,1,1.388-1.388.613.613,0,0,1,.992.406,2.275,2.275,0,0,1,.01.367v5.612C316.727,218.622,316.727,218.751,316.727,218.94Z" transform="translate(-224.651 -132.574)" fill="#fff" fill-rule="evenodd"/>
  </g>
</svg>
