<svg xmlns="http://www.w3.org/2000/svg" width="14.442" height="15.85" viewBox="0 0 14.442 15.85">
  <g id="Group_7529" data-name="Group 7529" transform="translate(0.05 0.051)">
    <path id="Path_8064" data-name="Path 8064" d="M13.8,4.491a1.822,1.822,0,0,0-1.2-.534V.787A.787.787,0,0,0,11.813,0H3.676a.146.146,0,0,0-.016,0A.25.25,0,0,0,3.6.014L3.572.023A.26.26,0,0,0,3.5.07L.084,3.219A.258.258,0,0,0,.029,3.3a.241.241,0,0,0-.01.026A.254.254,0,0,0,0,3.4c0,.006,0,.011,0,.016V14.961a.787.787,0,0,0,.787.787H11.812a.787.787,0,0,0,.787-.787V8.294l1.2-1.2a1.837,1.837,0,0,0,0-2.6ZM3.413.862V2.887a.262.262,0,0,1-.262.262H.935Zm8.662,7.957v6.142a.262.262,0,0,1-.262.262H.788a.262.262,0,0,1-.262-.262V3.674H3.151a.787.787,0,0,0,.787-.787V.525h7.874a.262.262,0,0,1,.262.262V4L12,4.023a1.842,1.842,0,0,0-.8.469L4.524,11.174A.3.3,0,0,0,4.5,11.2l-.007.009a.263.263,0,0,0-.042.105s0,0,0,0l0,.017-.367,2.581a.262.262,0,0,0,.26.3l.037,0,2.6-.371s.008,0,.013-.005a.266.266,0,0,0,.043-.012l.016-.007a.245.245,0,0,0,.035-.019L7.1,13.79l.026-.021ZM6.54,13.378l-1.458.208.185-.185A.262.262,0,0,0,4.9,13.03l-.185.185.208-1.457L6,12.3l.41.818Zm.22-.735-.245-.491L9.722,8.946a.262.262,0,1,0-.371-.371L6.143,11.782l-.989-.5,5.125-5.125,1.855,1.857L7.009,13.142Zm5.745-5L10.651,5.79l.371-.37,1.855,1.855Zm.927-.928-.184.184L11.392,5.049l.184-.186a1.314,1.314,0,0,1,.566-.334,1.232,1.232,0,0,1,.222-.042,1.312,1.312,0,0,1,1.069,2.233Zm0,0" transform="translate(0 0)" fill="#ff3a29" stroke="#ff3a29" stroke-width="0.1"/>
    <path id="Path_8065" data-name="Path 8065" d="M306,225.167a.262.262,0,0,0-.371,0l-.371.371a.262.262,0,1,0,.371.371l.371-.371A.262.262,0,0,0,306,225.167Zm0,0" transform="translate(-295.168 -217.705)" fill="#ff3a29" stroke="#ff3a29" stroke-width="0.1"/>
    <path id="Path_8066" data-name="Path 8066" d="M56.286,208.525H61.8a.262.262,0,0,0,0-.525H56.286a.262.262,0,0,0,0,.525Zm0,0" transform="translate(-54.185 -201.176)" fill="#ff3a29" stroke="#ff3a29" stroke-width="0.1"/>
    <path id="Path_8067" data-name="Path 8067" d="M56.286,256.525h3.937a.262.262,0,0,0,0-.525H56.286a.262.262,0,0,0,0,.525Zm0,0" transform="translate(-54.185 -247.601)" fill="#ff3a29" stroke="#ff3a29" stroke-width="0.1"/>
    <path id="Path_8068" data-name="Path 8068" d="M58.91,304.263a.263.263,0,0,0-.262-.263H56.285a.262.262,0,0,0,0,.525h2.362A.263.263,0,0,0,58.91,304.263Zm0,0" transform="translate(-54.185 -294.026)" fill="#ff3a29" stroke="#ff3a29" stroke-width="0.1"/>
    <path id="Path_8069" data-name="Path 8069" d="M120.285,160.525h4.987a.262.262,0,1,0,0-.525h-4.987a.262.262,0,1,0,0,.525Zm0,0" transform="translate(-116.085 -154.75)" fill="#ff3a29" stroke="#ff3a29" stroke-width="0.1"/>
    <path id="Path_8070" data-name="Path 8070" d="M56.286,160.525h1.05a.262.262,0,1,0,0-.525h-1.05a.262.262,0,1,0,0,.525Zm0,0" transform="translate(-54.185 -154.75)" fill="#ff3a29" stroke="#ff3a29" stroke-width="0.1"/>
  </g>
</svg>
