<svg xmlns="http://www.w3.org/2000/svg" width="37.23" height="47.04" viewBox="0 0 37.23 47.04">
  <g id="_3135810" data-name="3135810" transform="translate(-53.387)">
    <g id="Group_7574" data-name="Group 7574" transform="translate(54.076 0.689)">
      <g id="Group_7564" data-name="Group 7564" transform="translate(0 21.695)">
        <path id="Path_8185" data-name="Path 8185" d="M177.827,255.094l-4.731-5.171v-6.29h-8.249v6.292l-4.678,5.169Z" transform="translate(-151.047 -243.633)" fill="#ffddce"/>
        <path id="Path_8186" data-name="Path 8186" d="M92.2,321.684l-6.9-2.025L78.813,327.1l-6.488-7.44-6.9,2.024a6.321,6.321,0,0,0-4.541,6.066V334.4a2.237,2.237,0,0,0,2.237,2.237H94.5a2.237,2.237,0,0,0,2.237-2.237v-6.655A6.321,6.321,0,0,0,92.2,321.684Z" transform="translate(-60.887 -312.674)" fill="#407093"/>
        <g id="Group_7563" data-name="Group 7563" transform="translate(21.209 6.985)">
          <path id="Path_8187" data-name="Path 8187" d="M301.839,321.684l-6.9-2.025-3.206,3.676,4.284,1.258a6.321,6.321,0,0,1,4.541,6.065v5.983h3.581a2.237,2.237,0,0,0,2.237-2.237v-6.655A6.321,6.321,0,0,0,301.839,321.684Z" transform="translate(-291.737 -319.659)" fill="#365e7d"/>
        </g>
      </g>
      <g id="Group_7571" data-name="Group 7571" transform="translate(1.332)">
        <g id="Group_7570" data-name="Group 7570">
          <path id="Path_8188" data-name="Path 8188" d="M79.249,146.558l-.706-.779h-1.51l-.706.779-.931,5.464a.845.845,0,0,0,.833.987h3.119a.845.845,0,0,0,.833-.987Z" transform="translate(-75.383 -133.075)" fill="#e4f6ff"/>
          <g id="Group_7568" data-name="Group 7568" transform="translate(7.774 4.692)">
            <g id="Group_7567" data-name="Group 7567">
              <g id="Group_7566" data-name="Group 7566">
                <g id="Group_7565" data-name="Group 7565">
                  <path id="Path_8189" data-name="Path 8189" d="M172.637,58.569H165a5,5,0,0,0-5,5V69.12h17.637V63.569A5,5,0,0,0,172.637,58.569Z" transform="translate(-159.999 -58.569)" fill="#efc984"/>
                </g>
              </g>
            </g>
          </g>
          <path id="Path_8190" data-name="Path 8190" d="M289.652,58.569h-.8V69.12h5.8V63.569A5,5,0,0,0,289.652,58.569Z" transform="translate(-269.24 -53.877)" fill="#eabc6b"/>
          <path id="Path_8191" data-name="Path 8191" d="M176.151,127.821a1.512,1.512,0,0,1-1.512-1.512v-2.3H163.028v2.3a1.512,1.512,0,0,1-1.512,1.512h-1.5v2.472a1.144,1.144,0,0,0,1.144,1.144.376.376,0,0,1,.374.355,7.316,7.316,0,0,0,14.6,0,.376.376,0,0,1,.374-.355,1.144,1.144,0,0,0,1.144-1.144v-2.472Z" transform="translate(-152.239 -113.307)" fill="#ffddce"/>
          <path id="Path_8192" data-name="Path 8192" d="M255.371,127.821a1.512,1.512,0,0,1-1.512-1.512v-2.3h-2.788v8.508a7.317,7.317,0,0,1-3.822,6.078,7.394,7.394,0,0,0,.8.045,7.317,7.317,0,0,0,7.3-6.85.376.376,0,0,1,.374-.355,1.144,1.144,0,0,0,1.144-1.144v-2.472h-1.5Z" transform="translate(-231.46 -113.307)" fill="#ffcbbe"/>
          <path id="Path_8193" data-name="Path 8193" d="M109.907,7.54,95.933,11.985a.78.78,0,0,0,.106,1.513l14.105,2.4,14.105-2.4a.78.78,0,0,0,.106-1.513L110.38,7.54A.781.781,0,0,0,109.907,7.54Z" transform="translate(-93.551 -7.503)" fill="#407093"/>
          <path id="Path_8194" data-name="Path 8194" d="M171.941,75.16H154.523a.676.676,0,0,1-.676-.676V71.037l7.735-.957a13.436,13.436,0,0,1,3.3,0l7.738.957v3.447A.676.676,0,0,1,171.941,75.16Z" transform="translate(-146.638 -64.239)" fill="#4a80aa"/>
          <g id="Group_7569" data-name="Group 7569" transform="translate(18.113 0.445)">
            <path id="Path_8195" data-name="Path 8195" d="M285.221,16.383,272.53,12.346V16.39a1.511,1.511,0,0,0,1.5,1.511v1.883L285.115,17.9A.78.78,0,0,0,285.221,16.383Z" transform="translate(-272.53 -12.346)" fill="#365e7d"/>
          </g>
          <path id="Path_8196" data-name="Path 8196" d="M288.853,72.93v4.911h5.691a.676.676,0,0,0,.676-.676V73.718Z" transform="translate(-269.24 -66.919)" fill="#407093"/>
          <path id="Path_8197" data-name="Path 8197" d="M88.572,128H85.649v-1.918a.738.738,0,0,1,.738-.738h1.446a.738.738,0,0,1,.738.738V128Z" transform="translate(-84.706 -114.516)" fill="#ffe07d"/>
        </g>
      </g>
      <g id="Group_7572" data-name="Group 7572" transform="translate(7.399 25.682)">
        <path id="Path_8198" data-name="Path 8198" d="M260.123,287.034a13.823,13.823,0,0,1-2.236,7.538l-1.887,2.9,10.527-6.255Z" transform="translate(-245.473 -287.034)" fill="#4a80aa"/>
        <path id="Path_8199" data-name="Path 8199" d="M147.823,287.034a13.823,13.823,0,0,0,2.236,7.538l1.887,2.9-10.527-6.255Z" transform="translate(-141.419 -287.034)" fill="#4a80aa"/>
      </g>
      <g id="Group_7573" data-name="Group 7573" transform="translate(14.412 29.735)">
        <path id="Path_8200" data-name="Path 8200" d="M224.781,331.144a16.849,16.849,0,0,1-7.028,0,13.815,13.815,0,0,0,1.627,3.485l1.887,2.9,1.887-2.9a13.816,13.816,0,0,0,1.627-3.485Z" transform="translate(-217.753 -331.144)" fill="#f4fbff"/>
      </g>
    </g>
    <path id="Path_8201" data-name="Path 8201" d="M85.581,30.732l-2.761-.811L76.814,26v-.9a8,8,0,0,0,3.155-5.615,1.836,1.836,0,0,0,1.54-1.809V15.2c0-.01,0-.019,0-.028V12.043a1.358,1.358,0,0,0,.568-1.109V8.069l4.145-.706a1.469,1.469,0,0,0,.2-2.849L72.446.069a1.462,1.462,0,0,0-.891,0L57.581,4.514a1.474,1.474,0,0,0-.458,2.565v3.747h-.034a1.429,1.429,0,0,0-1.427,1.427v1.86l-.921,5.407a1.534,1.534,0,0,0,1.512,1.791h3.119a1.534,1.534,0,0,0,1.512-1.791l-.921-5.407v-1.86a1.429,1.429,0,0,0-1.427-1.427H58.5V7.486l3.426.584v2.865a1.36,1.36,0,0,0,.565,1.106v5.634a1.835,1.835,0,0,0,1.54,1.809A8,8,0,0,0,67.187,25.1V26l-6.005,3.922-2.759.81a7.007,7.007,0,0,0-5.036,6.727v2.054a.689.689,0,0,0,1.378,0V37.459a5.663,5.663,0,0,1,4.046-5.4l2.57-.754L71.65,37.4a.7.7,0,0,0,.7,0l10.269-6.1,2.57.754a5.663,5.663,0,0,1,4.046,5.4v6.655a1.55,1.55,0,0,1-1.548,1.548H84.654v-2.97a.689.689,0,1,0-1.378,0v2.97H60.725v-2.97a.689.689,0,0,0-1.378,0v2.97H56.313a1.55,1.55,0,0,1-1.548-1.548v-1.38a.689.689,0,1,0-1.378,0v1.38a2.929,2.929,0,0,0,2.926,2.926H87.691a2.929,2.929,0,0,0,2.926-2.926V37.459a7.007,7.007,0,0,0-5.036-6.727Zm-26.21-10.8H56.253a.155.155,0,0,1-.154-.182l.833-4.891h1.759l.833,4.891A.155.155,0,0,1,59.372,19.934Zm-.787-7.68v1.229H57.04V12.254a.049.049,0,0,1,.049-.049h1.446A.049.049,0,0,1,58.585,12.254ZM69.538,34.285l.274.422-7.035-4.18,4.465-2.917A14.474,14.474,0,0,0,69.538,34.285Zm0-2.974a17.718,17.718,0,0,0,4.938,0,13.161,13.161,0,0,1-1.16,2.223L72,35.546l-1.309-2.012a13.161,13.161,0,0,1-1.16-2.223Zm4.934,2.974a14.473,14.473,0,0,0,2.3-6.675l4.465,2.916-7.035,4.18ZM78.5,12.3H80.13v2.214H79.32a.824.824,0,0,1-.823-.823V12.3ZM58,5.827,71.973,1.382a.091.091,0,0,1,.055,0L86,5.827a.077.077,0,0,1,.063.093c-.005.072-.046.079-.076.084l-4.62.787-1.735-.215a.689.689,0,0,0-.169,1.368L80.7,8.1v2.825H63.306V8.1l7.13-.882a12.764,12.764,0,0,1,3.129,0l2.7.334a.689.689,0,1,0,.169-1.368l-2.7-.334a14.136,14.136,0,0,0-3.468,0l-7.634.945L58.011,6c-.03-.005-.071-.012-.076-.084A.077.077,0,0,1,58,5.827Zm5.873,8.687V12.3h1.636v1.392a.824.824,0,0,1-.823.823h-.812Zm1.517,4.616a1.068,1.068,0,0,0-1.062-1,.455.455,0,0,1-.455-.455V15.892h.812a2.2,2.2,0,0,0,2.2-2.2V12.3H77.119v1.392a2.2,2.2,0,0,0,2.2,2.2h.812v1.783a.455.455,0,0,1-.455.455,1.068,1.068,0,0,0-1.062,1,6.627,6.627,0,0,1-13.227,0ZM72,26.713a7.953,7.953,0,0,0,3.434-.778v.437a13.132,13.132,0,0,1-.465,3.461,16.271,16.271,0,0,1-5.938,0,13.131,13.131,0,0,1-.465-3.461c0-.015,0-.029,0-.043s0-.006,0-.009v-.386A7.954,7.954,0,0,0,72,26.713Z" transform="translate(0 0)"/>
  </g>
</svg>
