<svg xmlns="http://www.w3.org/2000/svg" width="20.954" height="13.969" viewBox="0 0 20.954 13.969">
  <g id="email_1_" data-name="email(1)" transform="translate(0 -85.333)">
    <g id="Group_33" data-name="Group 33" transform="translate(0 85.333)">
      <g id="Group_32" data-name="Group 32" transform="translate(0 0)">
        <path id="Path_1220" data-name="Path 1220" d="M18.771,85.333H2.183A2.186,2.186,0,0,0,0,87.516v9.6A2.186,2.186,0,0,0,2.183,99.3H18.771a2.186,2.186,0,0,0,2.183-2.183v-9.6A2.186,2.186,0,0,0,18.771,85.333Zm1.31,11.787a1.311,1.311,0,0,1-1.31,1.31H2.183a1.311,1.311,0,0,1-1.31-1.31v-9.6a1.311,1.311,0,0,1,1.31-1.31H18.771a1.311,1.311,0,0,1,1.31,1.31v9.6Z" transform="translate(0 -85.333)" fill="#686868"/>
      </g>
    </g>
    <g id="Group_35" data-name="Group 35" transform="translate(1.746 87.079)">
      <g id="Group_34" data-name="Group 34" transform="translate(0 0)">
        <path id="Path_1221" data-name="Path 1221" d="M60.055,128.19a.437.437,0,0,0-.607-.113l-7.16,4.9a1.563,1.563,0,0,1-1.775,0l-7.16-4.9a.436.436,0,1,0-.492.72l7.16,4.9a2.429,2.429,0,0,0,2.761,0l7.16-4.9A.436.436,0,0,0,60.055,128.19Z" transform="translate(-42.67 -128)" fill="#686868"/>
      </g>
    </g>
    <g id="Group_37" data-name="Group 37" transform="translate(1.745 92.317)">
      <g id="Group_36" data-name="Group 36" transform="translate(0 0)">
        <path id="Path_1222" data-name="Path 1222" d="M48.657,256.152a.439.439,0,0,0-.616-.056L42.8,260.462a.437.437,0,0,0,.56.671l5.238-4.365A.437.437,0,0,0,48.657,256.152Z" transform="translate(-42.646 -255.996)" fill="#686868"/>
      </g>
    </g>
    <g id="Group_39" data-name="Group 39" transform="translate(13.096 92.317)">
      <g id="Group_38" data-name="Group 38" transform="translate(0 0)">
        <path id="Path_1223" data-name="Path 1223" d="M325.957,260.461l-5.238-4.365a.437.437,0,1,0-.56.671l5.238,4.365a.437.437,0,1,0,.56-.671Z" transform="translate(-320.001 -255.995)" fill="#686868"/>
      </g>
    </g>
  </g>
</svg>
