<svg xmlns="http://www.w3.org/2000/svg" width="38.257" height="38.257" viewBox="0 0 38.257 38.257">
  <g id="_2452717" data-name="2452717" transform="translate(0.1 0.1)">
    <path id="Path_8462" data-name="Path 8462" d="M18.089,27.333A3.163,3.163,0,0,0,21.1,25.166l.031-.095-1.164-.389-.031.1a1.941,1.941,0,0,1-3.683,0l-.031-.095-1.164.389.031.094a3.163,3.163,0,0,0,3.006,2.167Z" transform="translate(-6.427 -10.146)" fill="#ed3042" stroke="#ed3042" stroke-width="0.2"/>
    <path id="Path_8463" data-name="Path 8463" d="M30.089,50.333A3.163,3.163,0,0,0,33.1,48.166l.031-.095-1.164-.389-.031.1a1.941,1.941,0,0,1-3.683,0l-.031-.095-1.164.389.031.094A3.163,3.163,0,0,0,30.089,50.333Z" transform="translate(-11.061 -19.028)" fill="#ed3042" stroke="#ed3042" stroke-width="0.2"/>
    <path id="Path_8464" data-name="Path 8464" d="M45.962,23.684l-.031.095a1.941,1.941,0,0,1-3.683,0l-.031-.095-1.164.389.031.094a3.168,3.168,0,0,0,6.012,0l.031-.095Z" transform="translate(-16.467 -9.76)" fill="#ed3042" stroke="#ed3042" stroke-width="0.2"/>
    <path id="Path_8465" data-name="Path 8465" d="M37.976,24.36A6.417,6.417,0,0,0,36.6,22.875V10.926a7.479,7.479,0,0,0-7.471-7.471,4.77,4.77,0,0,0-3.215,1.233A5.525,5.525,0,0,0,21.475,7.3a6.242,6.242,0,0,0-1.444-2.257L19.4,4.417A3.653,3.653,0,0,0,15.762,1h-3.2A6.972,6.972,0,0,0,6.723,4.188l-.124.05a5,5,0,0,0-2.887,6.226L4.7,13.419a2.451,2.451,0,0,0,2.441,2.312h.036a5.529,5.529,0,0,0,2.419,3.976v2.283L6.3,22.724A6.766,6.766,0,0,0,1,29.329v9.728H39.057V27.929a6.415,6.415,0,0,0-1.081-3.569Zm-.147,3.569v3.148H35.374V28.622H34.146v9.207H29.6a7.224,7.224,0,0,0-5.923-3.669,6.165,6.165,0,0,0,1.859-2.232l.091.091a3.048,3.048,0,0,0,2.17.9h2.9l-.8-2.392A3.678,3.678,0,0,0,27.569,28.2l.055-.165a7.411,7.411,0,0,0,.085-4.441,3.6,3.6,0,0,0,.913.121,3.552,3.552,0,0,0,2.53-1.048l.147-.147,1.969.246a5.208,5.208,0,0,1,4.561,5.167ZM12.071,25.216c-.009.15-.023.3-.023.451,0,.028,0,.055,0,.083l-2.034.813-.807-3.229.8-.178Zm1.576,4.02h.243a6.122,6.122,0,0,0,.171,1.416l-.5.5a1.854,1.854,0,0,1-1.3.539h-1.2l.259-.776A2.452,2.452,0,0,1,13.647,29.236Zm.243-1.982v.754h-.171l-.122-.365a6.251,6.251,0,0,1,5.931-8.229h1a6.252,6.252,0,0,1,5.931,8.228l-.122.365h-.171v-.2a3.087,3.087,0,0,0-2.814-3.059l-3.4-.283a1.257,1.257,0,0,1-.293-2.445l.563-.188-.389-1.164-.562.188a2.48,2.48,0,0,0-1.7,2.356c0,.068,0,.136.009.2l-1.02.292a3.7,3.7,0,0,0-2.671,3.541Zm4.3-15.2a1.228,1.228,0,1,1,0,2.455Zm-.036,3.683h.036a2.451,2.451,0,0,0,2.437-2.274l.018-.037v4.771c-.038,0-.076-.006-.114-.006h-1a7.432,7.432,0,0,0-2.651.494,5.5,5.5,0,0,0,1.274-2.949ZM28.622,18.8a4.3,4.3,0,0,1-4.3-4.3v-2a3.661,3.661,0,0,1,1.827-3.18,4.286,4.286,0,0,0,3.7,2.113h1.841a1.229,1.229,0,0,1,1.228,1.228V14.5a4.3,4.3,0,0,1-4.3,4.3Zm0,1.228a5.492,5.492,0,0,0,1.422-.193l.366,1.832-.127.127a2.407,2.407,0,0,1-3.323,0l-.112-.112-.014-.023.365-1.825a5.466,5.466,0,0,0,1.422.193Zm-2.455,9.207h.243a2.452,2.452,0,0,1,2.329,1.679l.259.776H27.8a1.854,1.854,0,0,1-1.3-.539l-.5-.5a6.122,6.122,0,0,0,.171-1.416ZM15.118,27.254A2.466,2.466,0,0,1,16.9,24.893l1.088-.311a2.494,2.494,0,0,0,1.864,1.112l3.4.283a1.852,1.852,0,0,1,1.689,1.835v1.423a4.911,4.911,0,1,1-9.821,0Zm8.159,8.12a6,6,0,0,1,4.855,2.455H11.925a6,6,0,0,1,4.855-2.455Zm2.89-29.463h.254l.18-.18a3.554,3.554,0,0,1,2.53-1.048,6.25,6.25,0,0,1,6.243,6.243V22.114a6.444,6.444,0,0,0-1.954-.57l-1.828-.229-.387-1.932A5.525,5.525,0,0,0,34.146,14.5V12.663a2.458,2.458,0,0,0-2.455-2.455H29.85A3.069,3.069,0,0,1,26.78,7.138H25.553a4.256,4.256,0,0,0,.129,1.039A4.885,4.885,0,0,0,23.1,12.5v2a5.527,5.527,0,0,0,2.941,4.879l-.2,1.018a7.464,7.464,0,0,0-3.965-2.088V10.207a4.3,4.3,0,0,1,4.3-4.3ZM18.345,7.235a3.64,3.64,0,0,0,.836-1.3,5.046,5.046,0,0,1,.928,5.81l-.008.015a2.442,2.442,0,0,0-1.914-.937h-.5l-1.766-.707a1.278,1.278,0,0,1-.808-1.193,1.17,1.17,0,0,1,2.28-.37l.207.622,1.164-.389-.207-.622a2.4,2.4,0,0,0-.408-.738ZM7.055,5.377l.5-.2L7.664,5a5.737,5.737,0,0,1,4.895-2.771h3.2a2.425,2.425,0,0,1,1.714,4.139l-.325.325A2.376,2.376,0,0,0,13.933,8.5L12.4,8.942a16.907,16.907,0,0,1-4.648.651.614.614,0,0,1,0-1.228h.614V7.138H7.752a1.837,1.837,0,0,0-.614,3.57v.113a2.445,2.445,0,0,0-1.762.753l-.5-1.5a3.776,3.776,0,0,1,2.179-4.7Zm-1.145,7.9a1.229,1.229,0,0,1,1.228-1.228V14.5A1.229,1.229,0,0,1,5.911,13.276Zm2.455,1.841V10.8a18.138,18.138,0,0,0,4.371-.677l1.3-.371a2.5,2.5,0,0,0,1.435,1.5l1.49.6v3.267a4.3,4.3,0,1,1-8.593,0Zm4.3,5.524a5.492,5.492,0,0,0,1.545-.224,7.472,7.472,0,0,0-1.893,3.3L10.821,22.23V20.32A5.485,5.485,0,0,0,12.663,20.642ZM3.85,25.412a5.529,5.529,0,0,1,2.715-1.49L8.012,23.6l1.156,4.625,3.009-1.2a7.415,7.415,0,0,0,.255,1.01l.055.165a3.678,3.678,0,0,0-2.334,2.331l-.8,2.392h2.9a3.049,3.049,0,0,0,2.17-.9l.091-.091a6.171,6.171,0,0,0,1.859,2.232,7.223,7.223,0,0,0-5.923,3.669H5.911V29.236H4.683v2.455H2.228V29.329A5.5,5.5,0,0,1,3.85,25.412ZM2.228,32.919H4.683v4.911H2.228Zm33.146,4.911V32.3h2.455v5.524Z" transform="translate(-1 -1)" fill="#ed3042" stroke="#ed3042" stroke-width="0.2"/>
  </g>
</svg>
