<svg xmlns="http://www.w3.org/2000/svg" width="72" height="72" viewBox="0 0 72 72">
  <g id="Group_8131" data-name="Group 8131" transform="translate(-11846 -10137)">
    <circle id="Ellipse_424" data-name="Ellipse 424" cx="36" cy="36" r="36" transform="translate(11846 10137)" opacity="0.1"/>
    <g id="Group_7562" data-name="Group 7562" transform="translate(-11067.744 6576.422)">
      <g id="Filled_outline" data-name="Filled outline" transform="translate(22928.807 3572.578)">
        <path id="Path_8100" data-name="Path 8100" d="M136,216h6.93v7.623H136Z" transform="translate(-125.605 -198.676)" fill="#feb784"/>
        <path id="Path_8101" data-name="Path 8101" d="M103.245,248H99.025l-3.4,4.158L92.221,248H88v20.789h20.789V253.544A5.544,5.544,0,0,0,103.245,248Z" transform="translate(-81.763 -227.904)" fill="#45a7d1"/>
        <path id="Path_8102" data-name="Path 8102" d="M248,120h.772a2,2,0,0,1,2,2v.158a2,2,0,0,1-2,2H248Z" transform="translate(-227.904 -110.991)" fill="#feb784"/>
        <path id="Path_8103" data-name="Path 8103" d="M74.731,120h-.683a2.079,2.079,0,0,0,0,4.158h.724Z" transform="translate(-67.149 -110.991)" fill="#feb784"/>
        <path id="Path_8104" data-name="Path 8104" d="M109.859,39.336v2.622a15.586,15.586,0,0,1-.848,5.067,6.224,6.224,0,0,1-2.334,3.078,6.584,6.584,0,0,1-4.49,1.131,6.369,6.369,0,0,1-5.339-4.206A15.617,15.617,0,0,1,96,41.958V39.336a6.825,6.825,0,0,1,6.93-6.716c.161,0,.321.005.48.016a7,7,0,0,1,4.42,1.951A6.594,6.594,0,0,1,109.859,39.336Z" transform="translate(-89.07 -31.18)" fill="#fec9a3"/>
        <path id="Path_8105" data-name="Path 8105" d="M175.111,39.509v2.622a15.585,15.585,0,0,1-.848,5.067,6.225,6.225,0,0,1-2.334,3.078,6.584,6.584,0,0,1-4.49,1.131,9.445,9.445,0,0,0,3.987-7.715v-4.2a9.424,9.424,0,0,0-2.766-6.682,7,7,0,0,1,4.42,1.951A6.6,6.6,0,0,1,175.111,39.509Z" transform="translate(-154.322 -31.354)" fill="#fec093"/>
        <g id="Group_7559" data-name="Group 7559" transform="translate(6.93 2.186)">
          <path id="Path_8106" data-name="Path 8106" d="M132.965,174.77h-.876a4.936,4.936,0,0,1-3.611-1.606,4.936,4.936,0,0,1-3.611,1.606h-.876a3.884,3.884,0,0,1,3.739-4.014h1.5A3.884,3.884,0,0,1,132.965,174.77Z" transform="translate(-121.566 -159.536)" fill="#b0b0ae"/>
          <path id="Path_8107" data-name="Path 8107" d="M215.406,47.949V45.262a3.943,3.943,0,0,0-3.85-4.031l.135.425A16.235,16.235,0,0,0,215.406,47.949Z" transform="translate(-201.546 -41.231)" fill="#b0b0ae"/>
          <path id="Path_8108" data-name="Path 8108" d="M96,47.949V45.262a3.943,3.943,0,0,1,3.85-4.031l-.135.425A16.235,16.235,0,0,1,96,47.949Z" transform="translate(-96 -41.231)" fill="#b0b0ae"/>
        </g>
        <path id="Path_8109" data-name="Path 8109" d="M113.787,27.732H100.75a3.9,3.9,0,0,1,1.3-2.639l.011-.01a4.209,4.209,0,0,1,1.163-.736,4.34,4.34,0,0,1,1.693-.34h4.7a4.333,4.333,0,0,1,1.7.346,4.185,4.185,0,0,1,1.173.75,3.9,3.9,0,0,1,1.29,2.621Z" transform="translate(-93.409 -23.307)" fill="#bfbfbd"/>
        <path id="Path_8110" data-name="Path 8110" d="M99.781,248l-4.158,7.623L91.465,248H88v20.789h15.245V248Z" transform="translate(-81.763 -227.904)" fill="#4d5e78"/>
        <path id="Path_8111" data-name="Path 8111" d="M103.245,325.6v14.067H88v-4.438A30.618,30.618,0,0,0,103.245,325.6Z" transform="translate(-81.763 -298.782)" fill="#485870"/>
        <path id="Path_8112" data-name="Path 8112" d="M132.158,252.158l-3.4-4.158H128v6.237Z" transform="translate(-118.298 -227.904)" fill="#4db7e5"/>
        <path id="Path_8113" data-name="Path 8113" d="M180.158,248H179.4l-3.4,4.158,4.158,2.079Z" transform="translate(-162.14 -227.904)" fill="#4db7e5"/>
        <path id="Path_8114" data-name="Path 8114" d="M262.844,39.825a4.156,4.156,0,0,1-4.112,3.566h-12.2a4.153,4.153,0,0,1-4.112-3.567,4.2,4.2,0,0,1-.042-.589,4.142,4.142,0,0,1,.438-1.856l.887-1.774a4.156,4.156,0,0,0,.377-2.57l-.009-.05a8.57,8.57,0,1,1,17.129-.437c0,.145,0,.29-.011.437l-.009.05a4.156,4.156,0,0,0,.378,2.57l.887,1.774A4.156,4.156,0,0,1,262.844,39.825Z" transform="translate(-222.771 -23.295)" fill="#bfbfbd"/>
        <path id="Path_8115" data-name="Path 8115" d="M350.08,39.836a4.156,4.156,0,0,1-4.112,3.566h-6.429a9.315,9.315,0,0,0,3.057-6.911V32.34a9.347,9.347,0,0,0-4.706-8.111,8.578,8.578,0,0,1,10.549,8.331c0,.145,0,.29-.011.437l-.009.05a4.157,4.157,0,0,0,.378,2.57l.887,1.774a4.156,4.156,0,0,1,.4,2.445Z" transform="translate(-310.007 -23.306)" fill="#b8b8b6"/>
        <path id="Path_8116" data-name="Path 8116" d="M301.544,229.167,296,221.544h1.866a.97.97,0,0,0,.97-.97V216h5.544v4.574a.97.97,0,0,0,.97.97h1.738Z" transform="translate(-271.746 -198.676)" fill="#fec9a3"/>
        <path id="Path_8117" data-name="Path 8117" d="M334.284,216v2.816a6.245,6.245,0,0,1-5.544,0V216Z" transform="translate(-301.65 -198.676)" fill="#feb784"/>
        <path id="Path_8118" data-name="Path 8118" d="M247.561,284.158v10.395a3.465,3.465,0,0,1-3.465,3.465H224V284.158A4.158,4.158,0,0,1,228.158,280h3.529l4.158,7.623L240,280h3.4A4.158,4.158,0,0,1,247.561,284.158Z" transform="translate(-205.983 -257.132)" fill="#b281c7"/>
        <path id="Path_8119" data-name="Path 8119" d="M247.561,294.443v10.395A3.465,3.465,0,0,1,244.1,308.3H224v-1.674a37.954,37.954,0,0,0,22.079-15.368A4.149,4.149,0,0,1,247.561,294.443Z" transform="translate(-205.983 -267.416)" fill="#ab7cbf"/>
        <path id="Path_8120" data-name="Path 8120" d="M335.471,312h-5.294l2.647,4.851Z" transform="translate(-302.962 -286.36)" fill="#d3669a"/>
        <path id="Path_8121" data-name="Path 8121" d="M301.213,75.049v3.465a6.237,6.237,0,1,1-12.474,0V75.049a5.159,5.159,0,0,0,4.74-3.125l.739-1.726.625-.125a2.375,2.375,0,0,1,2.84,2.328,2.376,2.376,0,0,0,1.916,2.331Z" transform="translate(-265.115 -65.348)" fill="#fec9a3"/>
        <path id="Path_8122" data-name="Path 8122" d="M381.494,119.917v3.465a6.239,6.239,0,0,1-4.86,6.084,9.144,9.144,0,0,0,2.258-6.03v-4.08q0-.1,0-.205a2.369,2.369,0,0,0,.993.45Z" transform="translate(-345.395 -110.215)" fill="#fec093"/>
        <path id="Path_8123" data-name="Path 8123" d="M336,429.544h10.395a2.772,2.772,0,1,0,0-5.544h-.5a2.764,2.764,0,0,0-.393.028L336,425.386Z" transform="translate(-308.281 -388.658)" fill="#b281c7"/>
        <path id="Path_8124" data-name="Path 8124" d="M232.316,414.93a5.606,5.606,0,0,1-5.014-3.1l-.529-1.059h-1.386a1.386,1.386,0,0,1,0-2.772h1.059a5.014,5.014,0,0,1,4.485,2.772H233.7v4.158Z" transform="translate(-205.983 -374.044)" fill="#feb784"/>
        <path id="Path_8125" data-name="Path 8125" d="M29.544,263.938V248A5.544,5.544,0,0,0,24,253.544v10.395a4.851,4.851,0,0,0,4.851,4.851h9.055l-.047-4.851Z" transform="translate(-23.307 -227.904)" fill="#4db7e5"/>
        <path id="Path_8126" data-name="Path 8126" d="M190.237,410.772h-2.079l-.02-1.3a1.467,1.467,0,0,0-2.509-1.032L184,410.079l.047,4.851h6.19a1.386,1.386,0,0,0,1.386-1.386v-1.386A1.386,1.386,0,0,0,190.237,410.772Z" transform="translate(-169.448 -374.044)" fill="#fec9a3"/>
        <path id="Path_8127" data-name="Path 8127" d="M124.634,121.517a1.066,1.066,0,1,0-1.078-1.066A1.066,1.066,0,0,0,124.634,121.517Z" transform="translate(-114.239 -110.429)"/>
        <path id="Path_8128" data-name="Path 8128" d="M204.634,121.517a1.066,1.066,0,1,0-1.078-1.066A1.066,1.066,0,0,0,204.634,121.517Z" transform="translate(-187.31 -110.429)"/>
        <path id="Path_8129" data-name="Path 8129" d="M52.728,38.175H49.6a.277.277,0,0,1-.277-.277V36.789h2.634A4.847,4.847,0,0,0,56.3,29.775L55.409,28a4.376,4.376,0,0,1-.287-2.218c.006-.165.012-.332.015-.5a8.916,8.916,0,0,0-.376-2.6,9.271,9.271,0,0,0-17.34-1.243,4.784,4.784,0,0,0-.366-1.22A4.81,4.81,0,0,0,32.21,16h-4.7a4.808,4.808,0,0,0-4.844,4.223,4.825,4.825,0,0,0-.427,1.993V24.4a2.781,2.781,0,0,0-1.278,4.644,2.709,2.709,0,0,0,1.568.792,16.428,16.428,0,0,0,.6,2.24A6.9,6.9,0,0,0,25.59,35.4H22.237A6.244,6.244,0,0,0,16,41.64V52.035a5.55,5.55,0,0,0,5.544,5.544h32.57a3.469,3.469,0,0,0,3.465-3.465V43.026a4.856,4.856,0,0,0-4.851-4.851Zm3.465,4.851v8.318a3.447,3.447,0,0,0-1.567-.657,5.71,5.71,0,0,0-1.492-5.463l-.609-.609-.98.98.609.609a4.317,4.317,0,0,1,1.027,4.474l-.053.006L43.67,52.035H41.356a5.7,5.7,0,0,0-3.172-2.5c-.006-.09-.009-.179-.009-.269A4.327,4.327,0,0,1,39.442,46.2l.609-.609-.98-.98-.609.609a5.714,5.714,0,0,0-1.673,4.039v.01c-.109-.006-.218-.01-.327-.01H35.4V43.026a3.463,3.463,0,0,1,.43-1.672l.01-.019a3.459,3.459,0,0,1,3.025-1.773h2.424l3.961,7.262a.693.693,0,0,0,1.217,0l3.961-7.262h2.3A3.469,3.469,0,0,1,56.192,43.026ZM30.263,51.342H22.93V36.789h2.079v5.544a.693.693,0,0,0,1,.62l2.075-1.037,1.165,2.135a.693.693,0,0,0,1.217,0l1.165-2.135,2.075,1.037a.692.692,0,0,0,.31.073v6.389a2.148,2.148,0,0,0-.794-.152,2.174,2.174,0,0,0-1.535.64ZM35.92,21.117a3.473,3.473,0,0,1,.176,1.1v.8a15.32,15.32,0,0,1-1.206-1.9Zm13.011,18.3-.834,1.53H43.627l-.834-1.528a1.654,1.654,0,0,0,.989-1.521V35.777a6.933,6.933,0,0,0,4.158,0V37.9a1.665,1.665,0,0,0,.99,1.519Zm-22.536-2.3,2.38,2.909-2.38,1.19Zm3.465,3.915.532.266-.532.977-.532-.976Zm1.085-1.007,2.38-2.908v4.1Zm3.766-3.232h2.079v1.854a4.856,4.856,0,0,0-2.079,1.884Zm3.465.049a4.811,4.811,0,0,1,2.7,1.337H38.868a4.891,4.891,0,0,0-.693.05Zm9.165,5.5-1.479,2.711-1.479-2.711ZM45.862,34.71a5.55,5.55,0,0,1-5.544-5.544V26.354A5.843,5.843,0,0,0,45,22.849l.6-1.39.267-.053a1.682,1.682,0,0,1,2.011,1.649,3.074,3.074,0,0,0,2.477,3.011l1.052.207v2.894A5.55,5.55,0,0,1,45.862,34.71ZM42.4,37.8a6.235,6.235,0,0,0-.5-.571,6.344,6.344,0,0,0-.489-.44H42.4Zm-8.27-2.4a7.028,7.028,0,0,0,1.323-1.26,4.881,4.881,0,0,0,.933,1.26Zm-7.9-1.291a5.625,5.625,0,0,0,3.611-1.344,5.624,5.624,0,0,0,3.611,1.344h.079c-.1.084-.211.165-.321.243a5.882,5.882,0,0,1-7.027-.243Zm-.116-1.386a3.127,3.127,0,0,1,2.98-2.629h1.5a3.128,3.128,0,0,1,2.98,2.629h-.117a4.218,4.218,0,0,1-3.1-1.385.693.693,0,0,0-1.014,0,4.218,4.218,0,0,1-3.1,1.385Zm3.746,4.063a7.276,7.276,0,0,0,2.222-.345L29.859,39.16l-2.222-2.716a7.292,7.292,0,0,0,2.222.345Zm8.133-10.97c-.005-.247-.011-.5-.005-.749a7.879,7.879,0,0,1,15.442-2,7.518,7.518,0,0,1,.321,2.189c0,.161-.009.32-.014.477a5.578,5.578,0,0,0,.433,2.887l.887,1.774a3.462,3.462,0,0,1-3.1,5.009H49.327v-.239a6.932,6.932,0,0,0,3.465-6V25.7a.693.693,0,0,0-.559-.68l-1.611-.316a1.685,1.685,0,0,1-1.358-1.65,3.068,3.068,0,0,0-3.67-3.008l-.624.125a.693.693,0,0,0-.5.407L43.729,22.3a4.46,4.46,0,0,1-4.1,2.706.693.693,0,0,0-.693.693v3.465a6.932,6.932,0,0,0,3.465,6V35.4H39.763a3.479,3.479,0,0,1-3.424-2.96.073.073,0,0,0,0-.01,3.522,3.522,0,0,1-.035-.492,3.47,3.47,0,0,1,.365-1.546l.887-1.774A5.623,5.623,0,0,0,37.992,25.819ZM34.077,19.73l.672-1.3a3.247,3.247,0,0,1,.8,1.3Zm-.489-2.075-1.07,2.074h-.426V17.386h.118A3.634,3.634,0,0,1,33.588,17.655Zm-4.576,2.073V17.386h1.694v2.343Zm-1.386-2.342v2.342H27.2l-1.069-2.073a3.634,3.634,0,0,1,1.377-.269ZM24.97,18.427l.67,1.3H24.173a3.248,3.248,0,0,1,.8-1.3Zm-.139,2.685a15.367,15.367,0,0,1-1.208,1.9v-.8a3.468,3.468,0,0,1,.179-1.1Zm-3.287,5.975a1.391,1.391,0,0,1,.693-1.208v.9c0,.518.025,1.039.075,1.557a1.367,1.367,0,0,1-.366-.265A1.39,1.39,0,0,1,21.544,27.088Zm2.283,2.14c-.009-.053-.018-.107-.027-.167a14.872,14.872,0,0,1-.177-2.282v-1.6a16.7,16.7,0,0,0,2.765-4.064l6.946,0A16.67,16.67,0,0,0,36.1,25.177v1.6a14.784,14.784,0,0,1-.126,1.913l-.542,1.084a4.863,4.863,0,0,0-.512,2.167c0,.157.009.315.024.473l-.015.028a4.513,4.513,0,0,0-4.335-3.729h-1.5a4.509,4.509,0,0,0-4.325,3.682,5.442,5.442,0,0,1-.335-.771,14.969,14.969,0,0,1-.608-2.4ZM21.544,56.193a4.163,4.163,0,0,1-4.158-4.158V41.64a4.858,4.858,0,0,1,4.158-4.8v15.2a.693.693,0,0,0,.693.693h7.629l0,.469.029,3Zm9.742,0,0-.383-.034-3.493,1.425-1.439A.774.774,0,0,1,34,51.423v.011l.02,1.3a.693.693,0,0,0,.693.682h2.079a.694.694,0,0,1,.693.693V55.5a.694.694,0,0,1-.693.693Zm11.047,0A4.32,4.32,0,0,1,39.1,55.013c-.411-.551-.144-1.225-.454-1.838a2.1,2.1,0,0,0-1.855-1.141h-1.4l-.009-.617a2.151,2.151,0,0,0-.137-.75.693.693,0,0,1,.157-.019h1.059a4.3,4.3,0,0,1,.879.09l.011,0,.035.008.012,0a4.333,4.333,0,0,1,2.929,2.286.693.693,0,0,0,.62.383h2.079v2.772Zm11.781,0h-9.7V53.329s9.108-1.294,9.206-1.294h.5a2.079,2.079,0,1,1,0,4.158Z" transform="translate(-16 -16)"/>
        <path id="Path_8130" data-name="Path 8130" d="M314.816,137.039a1.039,1.039,0,1,0-1.039,1.039A1.039,1.039,0,0,0,314.816,137.039Z" transform="translate(-287.033 -125.605)"/>
        <path id="Path_8131" data-name="Path 8131" d="M385.776,136a1.039,1.039,0,1,0,1.039,1.039A1.039,1.039,0,0,0,385.776,136Z" transform="translate(-352.796 -125.605)"/>
        <path id="Path_8132" data-name="Path 8132" d="M325.53,176a.87.87,0,0,1-1.7,0h-1.381l-1.1,1.695,1.153.769.639-.959a2.356,2.356,0,0,0,3.1-.016l.65.975,1.153-.769L326.96,176Z" transform="translate(-294.894 -162.141)"/>
      </g>
      <g id="Group_7561" data-name="Group 7561" transform="translate(22928.744 3593.67)">
        <g id="Filled_outline-2" data-name="Filled outline" transform="translate(0 0)">
          <path id="Path_8133" data-name="Path 8133" d="M151.656,40.118H139.12l-.247-2.225a6.887,6.887,0,0,1,.515-3.474,6.887,6.887,0,0,0,.548-3.057l-.077-1.549a5.537,5.537,0,1,1,11.059,0l-.077,1.549a6.887,6.887,0,0,0,.548,3.057,6.887,6.887,0,0,1,.515,3.474Z" transform="translate(-138.224 -23.551)" fill="#92563a"/>
          <path id="Path_8134" data-name="Path 8134" d="M149.432,221.821v9.85H136v-9.85a2.239,2.239,0,0,1,2.239-2.239h2.06a.626.626,0,0,0,.627-.627V216h3.582v2.955a.626.626,0,0,0,.627.627h2.06A2.239,2.239,0,0,1,149.432,221.821Z" transform="translate(-135.552 -204.806)" fill="#fec9a3"/>
          <path id="Path_8135" data-name="Path 8135" d="M216.588,312H211.62l.245,2.686h4.477Z" transform="translate(-206.94 -295.433)" fill="#e0e0de"/>
          <path id="Path_8136" data-name="Path 8136" d="M149.432,282.239v9.85H136v-9.85A2.239,2.239,0,0,1,138.239,280h1.343l.28.982a2.968,2.968,0,0,0,5.708,0l.28-.982h1.343a2.237,2.237,0,0,1,2.239,2.239Z" transform="translate(-135.552 -265.224)" fill="#f59898"/>
          <path id="Path_8137" data-name="Path 8137" d="M227.582,216v2.267a4.035,4.035,0,0,1-3.582,0V216Z" transform="translate(-218.627 -204.806)" fill="#feb784"/>
          <path id="Path_8138" data-name="Path 8138" d="M192.059,82.686v2.239a4.03,4.03,0,0,1-4.029,4.03h-.07A4.03,4.03,0,0,1,184,84.925V82.686a6.074,6.074,0,0,0,2.065-2.339l.173-.347.254.212a11.175,11.175,0,0,0,5.566,2.474Z" transform="translate(-180.866 -76.417)" fill="#fec9a3"/>
          <path id="Path_8139" data-name="Path 8139" d="M258.85,110.894v2.239a4.03,4.03,0,0,1-4.029,4.03h-.07a6.078,6.078,0,0,0,.936-3.25V111.2a6.115,6.115,0,0,0-.143-1.317A11.132,11.132,0,0,0,258.85,110.894Z" transform="translate(-247.656 -104.625)" fill="#fec093"/>
          <path id="Path_8140" data-name="Path 8140" d="M149.432,305.094v9.85H136v-2.251a23.248,23.248,0,0,0,13.251-8.482A2.233,2.233,0,0,1,149.432,305.094Z" transform="translate(-135.552 -288.079)" fill="#ed9191"/>
          <path id="Path_8141" data-name="Path 8141" d="M141.979,31.677l.145-1.3a7.423,7.423,0,0,0,.045-.81,7.288,7.288,0,0,0-.593-2.89,6.485,6.485,0,0,1-.513-2.859l.078-1.55c.005-.111.008-.21.008-.3a5.985,5.985,0,1,0-11.962.3l.078,1.549c.005.107.008.215.008.321a6.407,6.407,0,0,1-.52,2.539,7.348,7.348,0,0,0-.548,3.7l.145,1.3A2.674,2.674,0,0,0,128,33v9.85h.9V33a1.792,1.792,0,0,1,1.791-1.791h1.005l.188.657a3.416,3.416,0,0,0,6.568,0l.188-.657h1.005A1.792,1.792,0,0,1,141.432,33v9.85h.9V33A2.674,2.674,0,0,0,141.979,31.677ZM133.735,33h2.858A2.5,2.5,0,0,1,133.735,33Zm3.852-1.38a2.49,2.49,0,0,1-.2.485h-4.455a2.492,2.492,0,0,1-.2-.485l-.118-.411h.123a1.076,1.076,0,0,0,1.075-1.075v-1.37a4.479,4.479,0,0,0,2.686,0v1.37a1.076,1.076,0,0,0,1.075,1.075h.123Zm-2.423-3.545a3.586,3.586,0,0,1-3.582-3.582v-2a6.54,6.54,0,0,0,1.938-2.218,11.6,11.6,0,0,0,5.226,2.366v1.857a3.586,3.586,0,0,1-3.582,3.582Zm4.477,2.239h-2.06a.179.179,0,0,1-.179-.179V28.366a4.479,4.479,0,0,0,2.239-3.875V22.253a.448.448,0,0,0-.384-.443,10.705,10.705,0,0,1-5.343-2.375l-.254-.212a.448.448,0,0,0-.687.144l-.173.347a5.641,5.641,0,0,1-1.913,2.167.448.448,0,0,0-.2.373v2.239a4.479,4.479,0,0,0,2.239,3.875v1.766a.179.179,0,0,1-.179.179h-2.06a2.678,2.678,0,0,0-1.536.482l-.058-.518a6.451,6.451,0,0,1,.481-3.248,7.3,7.3,0,0,0,.593-2.891c0-.12,0-.243-.009-.365l-.078-1.549a5.089,5.089,0,1,1,10.172-.259c0,.079,0,.164-.007.259l-.078,1.549a7.385,7.385,0,0,0,.584,3.256,6.4,6.4,0,0,1,.52,2.537,6.5,6.5,0,0,1-.039.711l-.058.518A2.677,2.677,0,0,0,139.641,30.312Z" transform="translate(-128 -15.983)"/>
          <path id="Path_8142" data-name="Path 8142" d="M208.672,136a.672.672,0,1,0,.672.672A.672.672,0,0,0,208.672,136Z" transform="translate(-203.523 -129.283)"/>
          <path id="Path_8143" data-name="Path 8143" d="M280.672,136a.672.672,0,1,0,.672.672A.672.672,0,0,0,280.672,136Z" transform="translate(-271.493 -129.283)"/>
          <path id="Path_8144" data-name="Path 8144" d="M233.343,176.448A.448.448,0,0,1,232.9,176H232a1.343,1.343,0,0,0,2.686,0h-.9A.448.448,0,0,1,233.343,176.448Z" transform="translate(-226.179 -167.044)"/>
          <path id="Path_8145" data-name="Path 8145" d="M162.358,343.28V346.7h.9v-3.582a.448.448,0,0,0-.1-.287,3.053,3.053,0,0,1,.39-4.294l-.573-.688A3.95,3.95,0,0,0,162.358,343.28Z" transform="translate(-159.672 -319.84)"/>
          <path id="Path_8146" data-name="Path 8146" d="M315.452,337.854l-.573.688a3.053,3.053,0,0,1,.39,4.294.448.448,0,0,0-.1.287V346.7h.9V343.28A3.95,3.95,0,0,0,315.452,337.854Z" transform="translate(-304.42 -319.84)"/>
        </g>
        <g id="Filled_outline-3" data-name="Filled outline" transform="translate(14.235 0)">
          <path id="Path_8147" data-name="Path 8147" d="M24,274.686l2.686,3.134.9-.9v7.611H38.775v-6.716h3.582V274.9a2.686,2.686,0,0,0-2.443-2.675L37.432,272H30.268l-2.781.309a3.582,3.582,0,0,0-2.137,1.027Z" transform="translate(-15.941 -257.673)" fill="#919c48"/>
          <path id="Path_8148" data-name="Path 8148" d="M88,281.257l2.686,3.134.9-.9v7.611h11.193v-4.271a20.3,20.3,0,0,1-11.743-7.876,3.585,3.585,0,0,0-1.682.946Z" transform="translate(-79.941 -264.243)" fill="#8a9444"/>
          <path id="Path_8149" data-name="Path 8149" d="M27.582,376H24v6.716h3.582Z" transform="translate(-1.166 -355.852)" fill="#fec9a3"/>
          <path id="Path_8150" data-name="Path 8150" d="M311.164,323.134l-4.03,4.477L304,324.925,308.477,320Z" transform="translate(-300.418 -302.986)" fill="#feb784"/>
          <path id="Path_8151" data-name="Path 8151" d="M280.9,344H280v8.507h.9Z" transform="translate(-268.807 -325.643)" fill="#82883a"/>
          <path id="Path_8152" data-name="Path 8152" d="M80.9,344H80v8.507h.9Z" transform="translate(-57.613 -325.643)" fill="#82883a"/>
          <path id="Path_8153" data-name="Path 8153" d="M112,211.582l.157.551a3.562,3.562,0,0,0,6.849,0l.157-.551-.731-.243a.9.9,0,0,1-.612-.85V208h-4.477v2.489a.9.9,0,0,1-.612.85Z" transform="translate(-97.673 -197.254)" fill="#fec9a3"/>
          <g id="Group_7560" data-name="Group 7560" transform="translate(12.089 5.821)">
            <path id="Path_8154" data-name="Path 8154" d="M136,208v2.471a4.113,4.113,0,0,0,4.379.062l.1-.062V208Z" transform="translate(-132.418 -203.075)" fill="#feb784"/>
            <path id="Path_8155" data-name="Path 8155" d="M249.791,120h-.5A1.292,1.292,0,0,0,248,121.292v.1a1.292,1.292,0,0,0,1.292,1.292h.5Z" transform="translate(-248 -120)" fill="#feb784"/>
            <path id="Path_8156" data-name="Path 8156" d="M72.026,120h.441a1.343,1.343,0,0,1,0,2.686H72Z" transform="translate(-62.15 -120)" fill="#feb784"/>
          </g>
          <path id="Path_8157" data-name="Path 8157" d="M96,28.511v1.762a10.856,10.856,0,0,0,.549,3.407,4.166,4.166,0,0,0,1.507,2.066,4.114,4.114,0,0,0,4.562.187,4.163,4.163,0,0,0,1.788-2.253,10.87,10.87,0,0,0,.548-3.407V28.511A4.511,4.511,0,0,0,101.8,24.2a4.458,4.458,0,0,0-4.486,1.123A4.518,4.518,0,0,0,96,28.511Z" transform="translate(-82.568 -23.55)" fill="#fec9a3"/>
          <path id="Path_8158" data-name="Path 8158" d="M137.75,28.515v1.762a10.856,10.856,0,0,0,.549,3.407,4.166,4.166,0,0,0,1.507,2.066,4.114,4.114,0,0,0,4.562.187,4.948,4.948,0,0,1-4.107-4.876v-2.2a4.949,4.949,0,0,1,3.286-4.661,4.458,4.458,0,0,0-4.486,1.123A4.518,4.518,0,0,0,137.75,28.515Z" transform="translate(-124.318 -23.554)" fill="#fec093"/>
          <path id="Path_8159" data-name="Path 8159" d="M208,36.925v-1.97A2.831,2.831,0,0,1,210.687,32l-.095.312A12.044,12.044,0,0,1,208,36.925Z" transform="translate(-194.568 -31.105)" fill="#804a32"/>
          <path id="Path_8160" data-name="Path 8160" d="M98.686,36.925v-1.97A2.83,2.83,0,0,0,96,32l.095.312A12.044,12.044,0,0,0,98.686,36.925Z" transform="translate(-76.3 -31.105)" fill="#804a32"/>
          <path id="Path_8161" data-name="Path 8161" d="M94.128,26.686h5.227A2.041,2.041,0,0,0,101.292,24H96.055a1.926,1.926,0,0,0-1.926,1.926Z" transform="translate(-78.905 -23.552)" fill="#92563a"/>
          <path id="Path_8162" data-name="Path 8162" d="M336,314.686v2.686h4.477v-2.686a.448.448,0,0,1-.448-.448V312h-3.582v2.239A.448.448,0,0,1,336,314.686Z" transform="translate(-331.523 -295.434)" fill="#fec9a3"/>
          <path id="Path_8163" data-name="Path 8163" d="M264,362.051v5.561h12.536v-5.561a1.791,1.791,0,0,0-1.593-1.78L272.507,360a2.239,2.239,0,0,1-4.477,0l-2.436.271A1.792,1.792,0,0,0,264,362.051Z" transform="translate(-263.552 -340.748)" fill="#4d5e78"/>
          <path id="Path_8164" data-name="Path 8164" d="M344,312v1.76a3.587,3.587,0,0,0,3.582,0V312Z" transform="translate(-339.075 -295.434)" fill="#feb784"/>
          <path id="Path_8165" data-name="Path 8165" d="M264,373.256v5.561h12.536v-.21a17.338,17.338,0,0,1-11.878-6.737A1.786,1.786,0,0,0,264,373.256Z" transform="translate(-263.552 -351.953)" fill="#485870"/>
          <path id="Path_8166" data-name="Path 8166" d="M442.686,440H440v3.134h2.686Z" transform="translate(-439.552 -416.27)" fill="#fec9a3"/>
          <path id="Path_8167" data-name="Path 8167" d="M266.686,440H264v3.134h2.686Z" transform="translate(-253.702 -416.27)" fill="#fec9a3"/>
          <path id="Path_8168" data-name="Path 8168" d="M433.119,242.239h.672V240h-.672a1.119,1.119,0,0,0,0,2.239Z" transform="translate(-430.209 -227.464)" fill="#feb784"/>
          <path id="Path_8169" data-name="Path 8169" d="M288.672,240H288v2.239h.672a1.119,1.119,0,0,0,0-2.239Z" transform="translate(-278.15 -227.464)" fill="#feb784"/>
          <path id="Path_8170" data-name="Path 8170" d="M312,179.582v1.791a3.582,3.582,0,0,0,3.582,3.582,3.664,3.664,0,0,0,.454-.028,3.583,3.583,0,0,0,3.128-3.554v-1.791A3.582,3.582,0,0,0,315.582,176c-.079,0-.157,0-.234.008A3.58,3.58,0,0,0,312,179.582Z" transform="translate(-308.866 -167.045)" fill="#fec9a3"/>
          <path id="Path_8171" data-name="Path 8171" d="M367.895,179.714V181.5a3.582,3.582,0,0,0,3.582,3.582,3.667,3.667,0,0,0,.454-.028,4.61,4.61,0,0,1-1.91-3.739v-2.052a4.6,4.6,0,0,1,1.222-3.128A3.58,3.58,0,0,0,367.895,179.714Z" transform="translate(-364.76 -167.177)" fill="#fec093"/>
          <path id="Path_8172" data-name="Path 8172" d="M400,179.582a3.561,3.561,0,0,0,2.239-3.307V176A2.239,2.239,0,0,0,400,178.239Z" transform="translate(-396.866 -167.045)" fill="#f57707"/>
          <path id="Path_8173" data-name="Path 8173" d="M314.239,179.582A3.561,3.561,0,0,1,312,176.275V176a2.239,2.239,0,0,1,2.239,2.239Z" transform="translate(-303.941 -167.045)" fill="#f57707"/>
          <path id="Path_8174" data-name="Path 8174" d="M312.011,170.239h5.317a1.791,1.791,0,0,0,1.791-1.791V168H314.25a2.248,2.248,0,0,0-2.25,2.239Z" transform="translate(-308.821 -159.493)" fill="#f98500"/>
          <path id="Path_8175" data-name="Path 8175" d="M304.9,416H304v4.477h.9Z" transform="translate(-294.15 -393.613)" fill="#404f66"/>
          <path id="Path_8176" data-name="Path 8176" d="M432.9,416H432v4.477h.9Z" transform="translate(-429.314 -393.613)" fill="#404f66"/>
          <path id="Path_8177" data-name="Path 8177" d="M424,346.686h3.582V344.9a.9.9,0,0,0-.9-.9H424.9a.9.9,0,0,0-.9.9Z" transform="translate(-423.552 -325.643)" fill="#fec9a3"/>
          <path id="Path_8178" data-name="Path 8178" d="M200.672,121.343a.672.672,0,1,1,.672-.672A.672.672,0,0,1,200.672,121.343Z" transform="translate(-184.777 -114.179)"/>
          <path id="Path_8179" data-name="Path 8179" d="M128.672,121.343a.672.672,0,1,1,.672-.672A.672.672,0,0,1,128.672,121.343Z" transform="translate(-108.748 -114.179)"/>
          <path id="Path_8180" data-name="Path 8180" d="M154.859,169.924h-.41a6.419,6.419,0,0,1-2.448-.482l.344-.827a5.516,5.516,0,0,0,2.1.413h.41Z" transform="translate(-135.606 -160.074)"/>
          <path id="Path_8181" data-name="Path 8181" d="M392.672,241.343a.672.672,0,1,1,.672-.672A.672.672,0,0,1,392.672,241.343Z" transform="translate(-387.523 -227.464)"/>
          <path id="Path_8182" data-name="Path 8182" d="M336.672,241.343a.672.672,0,1,1,.672-.672A.672.672,0,0,1,336.672,241.343Z" transform="translate(-328.389 -227.464)"/>
          <path id="Path_8183" data-name="Path 8183" d="M362.028,274.491h-.274a3.314,3.314,0,0,1-1.754-.516l.474-.759a2.421,2.421,0,0,0,1.28.38h.274Z" transform="translate(-354.417 -258.82)"/>
          <path id="Path_8184" data-name="Path 8184" d="M16,35.253a1.345,1.345,0,0,1,1.343-1.343h1.791a1.345,1.345,0,0,1,1.268.9l.026,0,.049,0V33.678a4.061,4.061,0,0,1-1.691-2.461,1.567,1.567,0,0,1-.1-3.112v-.912a2.716,2.716,0,0,1,.019-.317.448.448,0,0,1-.019-.131,2.689,2.689,0,0,1,2.686-2.686H26.3a.448.448,0,0,1,.448.448v.448a2.225,2.225,0,0,1-.27,1.065,2.681,2.681,0,0,1,.27,1.174V28.1a1.567,1.567,0,0,1,1.268,2.029l2.217-.246.686-.228a.448.448,0,0,0,.306-.425v-.677a4.593,4.593,0,0,1-1.668-2.287,11.3,11.3,0,0,1-.35-1.325,1.742,1.742,0,0,1-1.565-1.731v-.1a1.743,1.743,0,0,1,1.343-1.694V19.85a3.561,3.561,0,0,1,.823-2.3,3.049,3.049,0,0,1,1.92-1.078c.035-.026.07-.051.106-.075a2.367,2.367,0,0,1,1.317-.4h5.237a.448.448,0,0,1,.425.306,2.459,2.459,0,0,1-.262,2.124,3.66,3.66,0,0,1,.285,1.42v1.576a1.8,1.8,0,0,1,.826,3,1.749,1.749,0,0,1-1.047.516,11.3,11.3,0,0,1-.35,1.328A4.613,4.613,0,0,1,36.6,28.559v.676a.448.448,0,0,0,.306.425l.681.227,2.431.221a3.119,3.119,0,0,1,2.85,3.121v9.636h-.9V36.6H39.281v6.268h-.9V34.357h.9V35.7h2.686V33.228A2.228,2.228,0,0,0,39.932,31l-2.113-.192L37.764,31a4.009,4.009,0,0,1-7.71,0L30,30.814l-2.4.267a3.117,3.117,0,0,0-.984.278,4.031,4.031,0,0,1-1.493,2.2l1.192,1.391.882.1v-.694h.9v.894A2.237,2.237,0,0,1,29.431,37.3v5.561h-.9V40.178H26.745v2.686h-.9V38.387h.9v.9h1.791V37.3A1.342,1.342,0,0,0,27.527,36c-.059-.015-2.172-.255-2.172-.255a2.685,2.685,0,0,1-4.879.988v.308a.448.448,0,0,1-.448.448H16.895v1.791h1.791v-.9h.9v4.477h-.9V40.178H16.895v2.686H16Zm3.582-7.46a3.074,3.074,0,0,0,.646-.6h-.646Zm-1.343,1.863a.671.671,0,0,0,.448.632V29.023a.672.672,0,0,0-.448.632Zm3.134-4.7A1.794,1.794,0,0,0,19.638,26.3h4.868a1.345,1.345,0,0,0,1.343-1.343Zm4.477,2.239a1.794,1.794,0,0,0-.049-.414,2.232,2.232,0,0,1-.667.324,3.094,3.094,0,0,0,.716.689ZM27,29.181a.668.668,0,0,0-.251-.158v1.265A.671.671,0,0,0,27,29.181Zm1.54-6.068v.1a.846.846,0,0,0,.52.78,11.282,11.282,0,0,1-.073-1.272v-.355A.845.845,0,0,0,28.536,23.113Zm1.343-3.262v.709a11.486,11.486,0,0,0,.9-1.459v-.726a2.382,2.382,0,0,1,.073-.585A2.613,2.613,0,0,0,29.879,19.85ZM38.032,16.9H33.149a1.479,1.479,0,0,0-1.479,1.479v.312h4.78A1.595,1.595,0,0,0,38.031,16.9Zm-.093,2.955a2.794,2.794,0,0,0-.089-.7,2.437,2.437,0,0,1-.615.3,11.448,11.448,0,0,0,.7,1.1Zm1.343,3.313a.9.9,0,0,0-.448-.78v.339a11.307,11.307,0,0,1-.071,1.257.881.881,0,0,0,.259-.182A.9.9,0,0,0,39.281,23.164ZM37.412,25.99a10.36,10.36,0,0,0,.383-1.556l0-.015c0-.008,0-.016,0-.024l0-.018a10.44,10.44,0,0,0,.133-1.655v-.734a12.23,12.23,0,0,1-1.653-2.407H31.532a12.22,12.22,0,0,1-1.653,2.407v.734a10.467,10.467,0,0,0,.526,3.267,3.7,3.7,0,0,0,1.345,1.845,3.651,3.651,0,0,0,2.158.7,3.692,3.692,0,0,0,3.5-2.547Zm-3.5,7.024A3.127,3.127,0,0,0,36.9,30.755l.04-.139-.325-.108a1.342,1.342,0,0,1-.918-1.274v-.168a4.567,4.567,0,0,1-3.582,0v.168a1.342,1.342,0,0,1-.919,1.274l-.324.108.04.139A3.127,3.127,0,0,0,33.909,33.014Zm-8.124-2.051c.017-.082.031-.164.04-.242a3.267,3.267,0,0,0,.024-.393v-1.5a3.989,3.989,0,0,1-1.724-1.633H21.306c-.022.04-.045.079-.068.118a3.976,3.976,0,0,1-1.657,1.516v1.5a3.253,3.253,0,0,0,.024.392,3.133,3.133,0,0,0,3.11,2.742,3.185,3.185,0,0,0,.5-.04,3.108,3.108,0,0,0,1.018-.351l.049-.028a3.136,3.136,0,0,0,1.5-2.08Zm-3.07,6.08A1.794,1.794,0,0,0,24.45,35.7a.448.448,0,0,1-.392-.444V34.128a4,4,0,0,1-.7.179,4.086,4.086,0,0,1-.641.05,4.038,4.038,0,0,1-1.342-.23v1.125a.448.448,0,0,1-.392.444A1.794,1.794,0,0,0,22.715,37.043Zm-3.134-1.791a.448.448,0,0,0-.448-.448H17.343a.448.448,0,0,0-.448.448V36.6h2.686Z" transform="translate(-15.999 -16)"/>
        </g>
      </g>
    </g>
  </g>
</svg>
