<svg xmlns="http://www.w3.org/2000/svg" width="40.289" height="40.29" viewBox="0 0 40.289 40.29">
  <g id="_2519057" data-name="2519057" transform="translate(-0.9 -0.9)">
    <path id="Path_8503" data-name="Path 8503" d="M29.072,19.105a1.55,1.55,0,0,0,1.1-.457L32.3,16.519H39.15a1.942,1.942,0,0,0,1.94-1.94V5.526a1.942,1.942,0,0,0-1.94-1.94H25.571V2.293A1.3,1.3,0,0,0,24.278,1H6.441a1.284,1.284,0,0,0-.914.379L1.379,5.526A1.284,1.284,0,0,0,1,6.441V39.8A1.3,1.3,0,0,0,2.293,41.09H24.278A1.3,1.3,0,0,0,25.571,39.8V34.624h6.2L33.9,36.753a1.561,1.561,0,0,0,2.665-1.1V34.624H39.15a1.942,1.942,0,0,0,1.94-1.94V23.631a1.942,1.942,0,0,0-1.939-1.94H25.571V16.519h1.94v1.026A1.563,1.563,0,0,0,29.072,19.105ZM5.526,3.208V5.526H3.208ZM2.293,39.8V6.819H6.819V2.293H24.278V3.705a1.937,1.937,0,0,0-1.293,1.821v9.053A1.937,1.937,0,0,0,24.278,16.4v5.411a1.937,1.937,0,0,0-1.293,1.821v9.053a1.937,1.937,0,0,0,1.293,1.821V39.8ZM39.8,23.631v9.053a.648.648,0,0,1-.647.647H35.27v2.319a.278.278,0,0,1-.457.189L32.3,33.331h-7.38a.648.648,0,0,1-.647-.647V23.631a.648.648,0,0,1,.647-.647H39.151a.647.647,0,0,1,.645.647ZM24.925,15.225a.648.648,0,0,1-.647-.647V5.526a.648.648,0,0,1,.647-.647H39.15a.648.648,0,0,1,.647.647v9.053a.648.648,0,0,1-.647.647H31.77l-2.508,2.508a.278.278,0,0,1-.457-.189V15.225Z" fill="#5e5e5e" stroke="#5e5e5e" stroke-width="0.2"/>
    <path id="Path_8504" data-name="Path 8504" d="M52.238,10.217l-.87-.957-6.656,6.052-1.5-1.5-.914.914L44.669,17.1Z" transform="translate(-14.593 -2.919)" fill="#5e5e5e" stroke="#5e5e5e" stroke-width="0.2"/>
    <path id="Path_8505" data-name="Path 8505" d="M19.225,35H5v5.173H19.225Zm-1.293,3.88H6.293V36.293H17.932Z" transform="translate(-1.414 -12.015)" fill="#5e5e5e" stroke="#5e5e5e" stroke-width="0.2"/>
    <path id="Path_8506" data-name="Path 8506" d="M5,45H19.225v1.293H5Z" transform="translate(-1.414 -15.549)" fill="#5e5e5e" stroke="#5e5e5e" stroke-width="0.2"/>
    <path id="Path_8507" data-name="Path 8507" d="M5,49H21.812v1.293H5Z" transform="translate(-1.414 -16.963)" fill="#5e5e5e" stroke="#5e5e5e" stroke-width="0.2"/>
    <path id="Path_8508" data-name="Path 8508" d="M5,53H21.812v1.293H5Z" transform="translate(-1.414 -18.376)" fill="#5e5e5e" stroke="#5e5e5e" stroke-width="0.2"/>
    <path id="Path_8509" data-name="Path 8509" d="M5,57H8.88v1.293H5Z" transform="translate(-1.414 -19.79)" fill="#5e5e5e" stroke="#5e5e5e" stroke-width="0.2"/>
    <path id="Path_8510" data-name="Path 8510" d="M13,57h3.88v1.293H13Z" transform="translate(-4.241 -19.79)" fill="#5e5e5e" stroke="#5e5e5e" stroke-width="0.2"/>
    <path id="Path_8511" data-name="Path 8511" d="M21,57h3.88v1.293H21Z" transform="translate(-7.068 -19.79)" fill="#5e5e5e" stroke="#5e5e5e" stroke-width="0.2"/>
    <path id="Path_8512" data-name="Path 8512" d="M15.406,7a8.406,8.406,0,1,0,8.406,8.406A8.416,8.416,0,0,0,15.406,7Zm0,15.519a7.086,7.086,0,0,1-5.143-2.213,5.983,5.983,0,0,1,1.918-2l3.225,3.183L18.631,18.3a5.983,5.983,0,0,1,1.918,2,7.086,7.086,0,0,1-5.143,2.213Zm-2.586-9.053a2.586,2.586,0,1,1,2.586,2.586A2.589,2.589,0,0,1,12.819,13.466Zm.6,4.24a5.676,5.676,0,0,1,3.979,0l-1.99,1.964ZM21.4,19.214a7.346,7.346,0,0,0-3.56-2.733,3.88,3.88,0,1,0-4.874,0,7.346,7.346,0,0,0-3.56,2.733,7.113,7.113,0,1,1,11.995,0Z" transform="translate(-2.12 -2.12)" fill="#5e5e5e" stroke="#5e5e5e" stroke-width="0.2"/>
    <path id="Path_8513" data-name="Path 8513" d="M44.207,44.673,46.983,41.9l2.776,2.776.914-.914L47.9,40.983l2.776-2.776-.914-.914-2.776,2.776-2.776-2.776-.914.914,2.776,2.776-2.776,2.776Z" transform="translate(-14.946 -12.826)" fill="#5e5e5e" stroke="#5e5e5e" stroke-width="0.2"/>
  </g>
</svg>
