<svg xmlns="http://www.w3.org/2000/svg" width="113.468" height="87.238" viewBox="0 0 113.468 87.238">
  <g id="Group_8073" data-name="Group 8073" transform="translate(8421 -2203)">
    <g id="Group_7482" data-name="Group 7482" transform="translate(-9832.365 1271)">
      <g id="royalty-crown" transform="translate(1411.365 898.48)">
        <path id="Path_8022" data-name="Path 8022" d="M87.973,59.741a6.193,6.193,0,0,0-6.186,6.186,6.113,6.113,0,0,0,1.164,3.579L71.258,76.928,68.187,70.27a1.858,1.858,0,0,0-2.464-.907l-7.741,3.559a1.9,1.9,0,0,0-.671.549L49.323,61.449a6.185,6.185,0,1,0-4.494,0L36.842,73.472a1.808,1.808,0,0,0-.669-.549l-7.738-3.559a1.863,1.863,0,0,0-2.464.907L22.83,77.059,11.2,69.509a6.116,6.116,0,0,0,1.168-3.586,6.184,6.184,0,1,0-6.184,6.184,6.114,6.114,0,0,0,1.849-.314l15.1,23.961a1.87,1.87,0,0,0,1.574.871H69.455a1.863,1.863,0,0,0,1.573-.871l15.1-23.961a6.17,6.17,0,1,0,1.847-12.051ZM59.531,76.305l6.051-2.783,2.5,5.421L63.068,82.13l-3.832-5.752A2.041,2.041,0,0,0,59.531,76.305ZM47.078,53.236A2.468,2.468,0,1,1,44.612,55.7,2.471,2.471,0,0,1,47.078,53.236ZM28.57,73.522l6.05,2.783a1.318,1.318,0,0,0,.292.068L30.949,82.33l-4.968-3.224ZM3.715,65.928a2.466,2.466,0,1,1,2.466,2.466A2.471,2.471,0,0,1,3.715,65.928ZM68.423,92.912h-42.7L15.561,76.778l14.907,9.672a1.857,1.857,0,0,0,2.561-.533l14.045-21.13L60.974,85.7a1.855,1.855,0,0,0,2.542.542l15.171-9.63ZM87.973,68.4a2.468,2.468,0,1,1,2.464-2.466A2.468,2.468,0,0,1,87.973,68.4Zm-16.507,34.06a1.861,1.861,0,0,1-1.859,1.859H24.55a1.859,1.859,0,0,1,0-3.718H69.607A1.859,1.859,0,0,1,71.466,102.456Z" transform="translate(0 0)" fill="#ef2f42"/>
      </g>
      <ellipse id="Ellipse_53" data-name="Ellipse 53" cx="43.067" cy="43.619" rx="43.067" ry="43.619" transform="translate(1438.699 932)" fill="#ed3042" opacity="0.2"/>
    </g>
  </g>
</svg>
