<svg xmlns="http://www.w3.org/2000/svg" width="300" height="280" viewBox="0 0 300 280">
  <g id="Group_8101" data-name="Group 8101" transform="translate(3056 -9398)">
    <path id="uv5uuuah" d="M290,10H10C4.477,10,0,13.77,0,18.421V281.579C0,286.23,4.477,290,10,290H290c5.523,0,10-3.77,10-8.421V18.421C300,13.77,295.523,10,290,10Z" transform="translate(-3056 9388)" fill="#f2f2f2"/>
    <path id="girl" d="M86.431,918.52v-4.053c-.3-1.987-.614-3.971-.883-5.962-1.849-13.691-3.624-27.392-5.573-41.068a86.461,86.461,0,0,0-2.342-10.276c-2.32-8.586-7.988-14.234-16.246-16.97-6.169-2.044-12.59-3.336-18.919-4.882-.985-.241-1.31-.581-1.257-1.578.457-8.564.733-17.14,1.333-25.694,1-14.194,2.085-28.381,1.569-42.625-.467-12.915-2.189-25.623-6.519-37.884A40.274,40.274,0,0,0,29.2,713.994a55.871,55.871,0,0,0-23.4-15.485,55.965,55.965,0,0,0-15.447-3.2c-.47-.028-.935-.138-1.4-.21h-6.6c-1.745.157-3.491.3-5.235.474-7.97.781-15.711,2.417-22.851,6.229a28.422,28.422,0,0,0-10.432,9.071,2.648,2.648,0,0,1-.494.584c-5.713,4.63-8.928,10.809-11.207,17.65a112.524,112.524,0,0,0-5.456,29.629c-.651,11.932.162,23.806,1.26,35.677s2.628,23.679,2.789,35.608c.029,2.162-.075,4.326-.027,6.487.02.89-.345,1.174-1.142,1.366-5.163,1.24-10.31,2.541-15.47,3.792a17.113,17.113,0,0,0-9.2,6.062,40.558,40.558,0,0,0-9.44,21.394c-1.351,11.016-2.979,22-4.5,32.994-.526,3.81-1.077,7.617-1.628,11.424a7.123,7.123,0,0,1-.261.927v4.053H86.431ZM3.548,830.685c-5.368,5.3-10.621,10.725-15.911,16.109-.279.284-.514.61-.809.964-.406-.365-.681-.592-.934-.841-5.614-5.526-11.208-11.072-16.857-16.562a2.381,2.381,0,0,1-.79-2.394c.422-2.411.743-4.84,1.117-7.341,2.251,1.283,4.338,2.488,6.442,3.664.637.356,1.324.624,1.982.945a13.571,13.571,0,0,0,11.281.631c4.262-1.653,8.493-3.386,12.737-5.086.371-.149.733-.319,1.229-.536.527,2.262.927,4.494,1.587,6.647A3.325,3.325,0,0,1,3.548,830.685Zm-65.2-70.058a31.923,31.923,0,0,1,1.171-3.468c5.348,2.537,10.773,2.885,16.264,2.562a69.231,69.231,0,0,0,20.888-4.408,41.9,41.9,0,0,0,8.149-4.724A115.4,115.4,0,0,0,1.384,737.374c.064.013.166,0,.2.044,3.67,5.117,8.781,8.33,14.4,10.837,2.474,1.1,5,2.078,7.509,3.113a13.553,13.553,0,0,1,1.914.824,6.06,6.06,0,0,0,4.982.922c1.769-.452,3.222.677,3.905,2.478a12.789,12.789,0,0,1,.4,6.409,44.457,44.457,0,0,1-5.475,16.017,4.971,4.971,0,0,1-.716,1.1,8.63,8.63,0,0,0-2.137,4.981c-.844,4.661-3.113,8.737-5.7,12.636A95.326,95.326,0,0,1,9.861,810.03c-4.212,4.387-9.472,7.232-14.989,9.6-2.721,1.169-5.563,2.053-8.318,3.149a7.145,7.145,0,0,1-4.93.042,39.856,39.856,0,0,1-12.439-6.649A70.188,70.188,0,0,1-50.937,791.4a21.781,21.781,0,0,1-2.168-8.243,1.222,1.222,0,0,0-.388-.815c-4.636-3.394-6.734-8.268-7.955-13.637A18.582,18.582,0,0,1-61.651,760.627Z" transform="translate(-2894.067 8730.9)" fill="#d4d4d4" fill-rule="evenodd"/>
  </g>
</svg>
