<svg xmlns="http://www.w3.org/2000/svg" width="122.769" height="124.963" viewBox="0 0 122.769 124.963">
  <g id="Group_7907" data-name="Group 7907" transform="translate(-17042.168 -8440.762)">
    <g id="Oval" transform="translate(17042.168 8440.762)">
      <ellipse id="Color" cx="61.061" cy="62.481" rx="61.061" ry="62.481" transform="translate(0 0)" fill="#fff4dc"/>
    </g>
    <path id="Oval-2" data-name="Oval" d="M4.472,0a4.477,4.477,0,0,0,0,8.954A52.8,52.8,0,0,1,57.236,61.783,52.844,52.844,0,0,1,21.36,111.849a4.476,4.476,0,0,0,2.861,8.484,61.8,61.8,0,0,0,41.959-58.55A61.745,61.745,0,0,0,4.472,0Z" transform="translate(17098.758 8441.103)" fill="#fcb315"/>
    <text id="_46_" data-name="46%" transform="translate(17098.508 8508.64)" font-size="22" font-family="Roboto-Bold, Roboto" font-weight="700"><tspan x="-20.749" y="0">46%</tspan></text>
  </g>
</svg>
