<svg xmlns="http://www.w3.org/2000/svg" xmlns:xlink="http://www.w3.org/1999/xlink" width="436" height="436" viewBox="0 0 436 436">
  <defs>
    <filter id="ds4nh3pw" x="0" y="0" width="436" height="436" filterUnits="userSpaceOnUse">
      <feOffset dy="6" input="SourceAlpha"/>
      <feGaussianBlur stdDeviation="6" result="blur"/>
      <feFlood flood-opacity="0.102"/>
      <feComposite operator="in" in2="blur"/>
      <feComposite in="SourceGraphic"/>
    </filter>
    <clipPath id="clip-path">
      <circle id="ds4nh3pw-2" data-name="ds4nh3pw" cx="200" cy="200" r="200" transform="translate(19438 7724)" fill="#ebebeb"/>
    </clipPath>
  </defs>
  <g id="Group_8107" data-name="Group 8107" transform="translate(-186 -413)">
    <g transform="matrix(1, 0, 0, 1, 186, 413)" filter="url(#ds4nh3pw)">
      <circle id="ds4nh3pw-3" data-name="ds4nh3pw" cx="200" cy="200" r="200" transform="translate(18 12)" fill="#ebebeb"/>
    </g>
    <g id="Mask_Group_162" data-name="Mask Group 162" transform="translate(-19234 -7299)" clip-path="url(#clip-path)">
      <g id="businessman" transform="translate(19358.313 7632.043)">
        <g id="Group_7924" data-name="Group 7924" transform="translate(200.273 231.254)">
          <path id="Path_8436" data-name="Path 8436" d="M411.851,321.347c-1.969-7.713-4.267-15.262-6.564-22.811-2.133-7.385-4.431-14.77-6.728-22.154-3.61-12.144-7.221-24.288-11-36.432-2.954-9.19-6.236-18.216-9.026-27.242-1.805-6.072-6.236-8.862-11.816-10.175a125.949,125.949,0,0,1-34.955-12.8c-1.313-.656-2.626-1.477-3.774-2.133,1.313,2.133.328,3.118-1.477,3.939s-3.446,1.969-5.415,2.954c2.626,1.969,4.923,3.774,7.385,5.744-1.805,2.626-3.61,4.923-5.251,7.385-.821,1.149-1.805,2.133-2.626,3.118-.821,1.477-1.641,3.118-2.626,4.595-5.415,7.549-10.831,15.262-16.247,22.811-.328.492-.821.656-1.149.985-.492.985-1.149,2.133-1.641,3.118l-1.313,1.969h28.883c1.969,0,2.462.492,2.462,2.462-.164,4.923,0,4.923-4.923,4.923H294.186a3.04,3.04,0,0,0-2.79,1.477c-7.221,10.011-14.441,20.021-21.826,30.032-1.805,2.462-3.61,4.923-5.58,7.221a6.947,6.947,0,0,1-1.149.821c-.328.492-.492,1.149-.821,1.641-1.477,2.133-3.774,4.267-4.267,6.564-1.805,7.549-2.954,15.262-4.267,22.975a40.4,40.4,0,0,0-.328,4.267c3.118.328,6.4-1.149,9.518,1.313-.821.328-1.313.821-1.805.821a20.105,20.105,0,0,1-3.118.328c-1.641.164-3.939-.328-4.759.656-.985.985-.656,3.118-.821,4.923-1.313,11.159-2.626,22.483-2.133,33.642.328,6.728,1.149,13.621,2.133,20.349a80.522,80.522,0,0,0,3.939,13.621c.985,2.954.82,6.564,4.595,8.205-.492.492-.985.656-1.313.985l3.446,5.908c1.149,1.641,2.462,3.118,3.61,4.759,1.969,1.805,3.939,3.61,5.908,5.251,6.236,5.087,13.457,7.713,21.334,9.026a94.287,94.287,0,0,0,21.5,1.641c3.282-.164,6.4-.656,9.682-.656a58.085,58.085,0,0,1-7.385,1.313,101.641,101.641,0,0,1-21.17-.821,61.086,61.086,0,0,1-14.277-3.774,43.881,43.881,0,0,1-15.426-11.159c-.164-.164,0-.328-.164-.492-1.149-1.641-2.462-3.118-3.61-4.759L259.4,411.77a14.779,14.779,0,0,0-2.626-.492c-5.744-.492-11.323-.821-17.067-1.313a49.322,49.322,0,0,1-5.251-1.149c-1.969,5.744-3.774,11.159-5.908,16.575a64.887,64.887,0,0,1-4.595,8.862,27.151,27.151,0,0,1-5.744,8.369l-.492-.328c1.969-2.79,3.939-5.415,6.072-8.205a6.859,6.859,0,0,1,.656-1.641,106.5,106.5,0,0,0,8.862-24.124c.821-3.118.821-6.4,1.477-9.518,1.477-6.892,3.446-13.785,4.431-20.842,1.477-9.026,2.462-18.216,3.282-27.242.821-8.7,1.149-17.559,1.641-26.257a54.482,54.482,0,0,0-.328-10.339c-.492-3.939-1.641-7.877-2.3-11.98-1.313-6.728-2.626-13.621-3.939-20.349-1.149-5.58-2.133-11.323-3.118-16.9-1.313-7.549-2.462-15.1-3.774-22.647-.985-5.744-1.969-11.652-2.79-17.4a3.537,3.537,0,0,1,.821-2.79c3.118-3.282,6.4-6.4,9.682-9.354,1.641-1.477,3.61-2.79,5.416-4.267.821-.821,1.477-1.805,2.3-2.79-1.641-.985-3.118-1.805-4.923-2.954a7.135,7.135,0,0,1,.985-1.149c2.954-2.79,5.908-5.58,8.7-8.369a6.6,6.6,0,0,0,1.313-2.626c-.164-.164-.328-.164-.492-.328-.985.328-1.805.492-2.79.821-7.385,2.626-14.606,5.58-22.154,7.713-7.221,1.969-10.667,7.057-12.636,13.621-1.313,4.267-1.805,8.862-2.626,13.293-1.149,6.564-2.3,12.964-3.282,19.529-1.313,9.846-2.626,19.529-3.774,29.375-1.313,11-2.626,22.154-3.282,33.314-.985,15.262-1.641,30.524.985,45.786.821,4.759,1.969,9.518,5.251,13.621a3.648,3.648,0,0,1,.492,2.626c-.492,1.805-1.313,3.446-1.805,5.087-1.149,3.61-2.3,7.221-1.313,11.159,1.969,8.041,3.774,16.247,5.58,24.288a10.623,10.623,0,0,1,.164,3.939c-.985,6.728-2.462,13.457-3.282,20.185-.656,5.415-1.805,11,.821,16.247a23.992,23.992,0,0,0,2.626,3.118c.985-.985,2.133-1.805,3.118-2.79.164,0,0-.328.164-.328,1.149-2.462,2.133-4.923,3.282-7.713,4.923,23.467,9.682,46.77,14.441,70.073.328,0,.656.164.985.164h60.719a2.5,2.5,0,0,0,1.805-.985c.985-1.477,2.3-1.641,4.267-1.641-.492.656-.656,1.149-.985,1.477a17.025,17.025,0,0,1-1.641.656c0,.164,0,.328.164.328h55.468c0-7.221-.164-14.277,0-21.17.164-6.4.492-12.964,2.133-19.365.985-4.1,1.477-8.369,2.133-12.636a5.8,5.8,0,0,0-.164-2.3c-.821.821-1.149,1.805-1.805.328L344.4,434.416c-.492-1.149-.985-2.462-1.477-3.61,9.518,6.072,18.872,11.652,29.7,15.59V431.462a4.847,4.847,0,0,1,.328-2.133l8.369-17.231c4.267-9.026,8.534-18.052,12.308-27.242,4.759-11.652,9.354-23.467,13.457-35.447a161.924,161.924,0,0,0,4.923-19.529A24.768,24.768,0,0,0,411.851,321.347ZM250.206,367.789c1.313-2.133,9.026-2.3,10.667-.164C258.739,369.594,252.175,369.594,250.206,367.789Zm103.88-18.544c-1.313-.164-3.61-2.79-3.446-4.1a3.481,3.481,0,0,1,2.954-2.954c1.313,0,3.939,2.79,3.939,4.267C357.2,347.768,355.4,349.409,354.085,349.245Zm5.744-4.6a4.828,4.828,0,0,1-2.462-2.626,3.074,3.074,0,0,1,1.313-2.3c.492-.328,1.641.328,2.133.492-.656,1.477-1.149,2.462-1.477,3.446a29.168,29.168,0,0,1,3.282-.492C361.306,343.83,360.321,344.814,359.829,344.65Zm11.323,5.744c-1.641,3.939-3.118,8.041-4.431,11.816a94.342,94.342,0,0,1-3.774-20.513c-.164-1.313-1.313-2.462-1.969-3.774a6.647,6.647,0,0,0,1.641.492V293.285h.328c3.118,9.518,6.4,19.036,9.354,28.719.821,2.462,1.969,4.923,1.641,7.713v.164C376.4,337.1,373.942,343.83,371.152,350.394Z" transform="translate(-200.273 -187.6)" fill="#b2b2b2" fill-rule="evenodd"/>
          <path id="Path_8437" data-name="Path 8437" d="M261.3,219.148Z" transform="translate(-161.151 -167.455)" fill="#b2b2b2" fill-rule="evenodd"/>
          <path id="Path_8438" data-name="Path 8438" d="M273.5,201.8Z" transform="translate(-153.33 -178.497)" fill="#b2b2b2" fill-rule="evenodd"/>
          <path id="Path_8439" data-name="Path 8439" d="M238.2,250.7Z" transform="translate(-175.96 -147.149)" fill="#b2b2b2" fill-rule="evenodd"/>
          <path id="Path_8440" data-name="Path 8440" d="M226.7,200.3Z" transform="translate(-183.332 -179.458)" fill="#b2b2b2" fill-rule="evenodd"/>
        </g>
        <path id="Path_8441" data-name="Path 8441" d="M301.836,170.207a4.074,4.074,0,0,1-.164-1.477,47.858,47.858,0,0,0,1.969-16.739,28.89,28.89,0,0,0-6.728-17.724c-3.61-4.267-8.369-7.057-13.457-9.19-9.026-3.774-18.216-6.236-28.062-5.416a21.266,21.266,0,0,0-11.98,4.267,61.256,61.256,0,0,0-7.385,7.221,57.4,57.4,0,0,0-5.415,7.057,21.968,21.968,0,0,0-1.313,4.267c-.164.328-.985.656-1.149,1.313a41.345,41.345,0,0,0-.821,20.021c.656,3.118,1.805,6.236-.164,9.354a2.258,2.258,0,0,0-.164,1.805c.492,3.118,1.149,6.4,1.805,9.518.492,2.3,1.641,4.6,1.477,6.728-.328,4.1-.492,4.6,3.61,5.58,0,.328.164.656.164.985,1.641,7.713,4.267,14.77,10.175,20.185a5.338,5.338,0,0,1,1.641,4.267c-.164,3.774-.328,7.549-.328,11.487,0,2.79.164,2.626,2.79,2.954a9.363,9.363,0,0,1,8.205,7.385c.821,4.1,1.969,8.041,3.118,12.144a61.171,61.171,0,0,1,4.923-4.267,5.552,5.552,0,0,0,2.626-4.431c.164-2.954.985-5.416,4.6-6.564a20.3,20.3,0,0,0,9.026-5.58c5.415-5.908,10.175-12.144,11.98-20.021a24.839,24.839,0,0,0,.328-4.923c0-1.313-.492-2.79-.328-3.939.656-3.118,1.641-6.072,2.3-9.026.328-1.805,1.313-2.3,2.954-2.3,2.462,0,3.446-1.149,2.79-3.118-.821-2.954.164-5.416,1.313-8.041C304.3,179.4,304.462,174.8,301.836,170.207Z" transform="translate(16.802 0)" fill="#b2b2b2" fill-rule="evenodd"/>
        <path id="Path_8442" data-name="Path 8442" d="M239.71,297.947c-1.149,1.149-2.3,2.133-3.61,3.446,1.477-3.282,2.626-6.236,3.939-9.19,3.774-8.862,7.713-17.724,11.487-26.585,3.282-7.713,6.728-15.426,10.011-23.139,2.954-6.728,5.908-13.621,8.862-20.513.821-2.133,2.626-2.626,4.759-3.446.656,2.462,1.313,4.759,1.969,7.549,2.626-4.759,5.087-9.026,7.221-13.293a126.024,126.024,0,0,0,5.251-12.964c.82-2.462.985-5.251,1.477-7.877a22.655,22.655,0,0,0,.492-3.282,13.86,13.86,0,0,0-1.969-9.19,5.827,5.827,0,0,1-.656-1.477,3.516,3.516,0,0,1,.164-.985c.821,1.477,1.313,2.462,1.969,3.61a35.923,35.923,0,0,0,9.846,10.667,8.279,8.279,0,0,1,3.774,5.416c-2.462,1.477-5.087,2.954-7.877,4.595,2.626,2.133,5.087,3.939,7.713,5.908-2.133,2.954-4.267,5.908-6.236,8.862a5.829,5.829,0,0,0-.656,1.477h0a2.586,2.586,0,0,0-1.149,1.149c-5.744,8.041-11.487,16.247-17.231,24.288a26.542,26.542,0,0,0-1.641,2.954h0a2.586,2.586,0,0,0-1.149,1.149c-3.446,4.759-6.728,9.682-10.175,14.441-7.877,10.831-15.918,21.662-23.96,32.493a18.276,18.276,0,0,0-2.626,3.939Z" transform="translate(22.967 36.859)" fill="#b2b2b2" fill-rule="evenodd"/>
        <path id="Path_8443" data-name="Path 8443" d="M232.748,206.326c1.313-.821,2.462-1.641,4.1-2.626-1.969-1.149-3.61-2.133-5.416-3.282,3.282-3.118,6.564-6.236,10.011-9.518.164,1.477.328,2.462.492,3.61a6.475,6.475,0,0,0,.985,2.462,5.456,5.456,0,0,1,.492,5.251c-1.969,5.087-4.1,10.175-5.251,15.59a144.812,144.812,0,0,0-2.954,20.349c-1.805,22.647-2.133,45.293-1.969,67.94a3.741,3.741,0,0,1-.492,1.805c-1.149-6.4-2.462-12.636-3.61-19.036-.656-3.118-1.149-6.236-1.805-9.19l-3.446-18.708c-1.313-7.713-2.79-15.426-4.1-23.139-.821-4.759-1.477-9.682-2.462-14.441-.328-1.805.821-2.79,1.805-3.61,4.431-4.1,8.862-8.205,13.129-12.472a1.418,1.418,0,0,0,.492-.985Z" transform="translate(10.893 45.77)" fill="#b2b2b2" fill-rule="evenodd"/>
        <path id="Path_8444" data-name="Path 8444" d="M291.427,222.6v5.908H256.8a35.151,35.151,0,0,0,3.118-4.267c.821-1.477,1.805-1.641,3.282-1.641h28.226Z" transform="translate(36.237 66.092)" fill="#b2b2b2" fill-rule="evenodd"/>
        <path id="Path_8445" data-name="Path 8445" d="M316.231,286.031c0-.492-.328-.656-.821-.656-1.477-8.862-7.877-16.575-19.529-16.575a22.322,22.322,0,0,0-7.713,1.313c-22.318,3.939-21.006,40.7,4.1,40.7a22.323,22.323,0,0,0,7.713-1.313c9.19-1.641,14.277-8.7,15.59-16.575.328.164.985,0,.985-.492C317.216,290.3,316.559,288.165,316.231,286.031Z" transform="translate(46.223 95.709)" fill="#b2b2b2" fill-rule="evenodd"/>
        <path id="Path_8446" data-name="Path 8446" d="M264.79,387.282c.985-.164,1.805-.164,2.79-.328V384H255.6v3.446h8.205C263.969,387.446,264.462,387.282,264.79,387.282Z" transform="translate(35.468 169.56)" fill="#b2b2b2" fill-rule="evenodd"/>
      </g>
    </g>
  </g>
</svg>
