<svg xmlns="http://www.w3.org/2000/svg" width="38.681" height="38.678" viewBox="0 0 38.681 38.678">
  <path id="heart" d="M11.861,16.321a.561.561,0,0,0,.561-.559.771.771,0,0,1,1.542,0,.561.561,0,0,0,.559.562h0a.561.561,0,0,0,.561-.559,1.893,1.893,0,0,0-1.887-1.9h-.006A1.893,1.893,0,0,0,11.3,15.758a.561.561,0,0,0,.559.562Zm14.1,17.641a47.5,47.5,0,0,1-5.524,2.918,3.155,3.155,0,0,1-2.591,0C10.406,33.529,1.468,27.5,1.127,17.789a10.425,10.425,0,0,1,3-7.686.561.561,0,0,0-.8-.79,11.55,11.55,0,0,0-3.32,8.516C.368,28.111,9.655,34.42,17.382,37.9a4.277,4.277,0,0,0,3.513,0,48.607,48.607,0,0,0,5.655-2.988.561.561,0,1,0-.592-.953Zm5.377-9.439a.561.561,0,0,0-.848-.733,18.215,18.215,0,0,1-3.65,3.074,2.46,2.46,0,0,0-2.29-1.718,15.98,15.98,0,0,0,3.92-3.1.561.561,0,0,0-.848-.733,15.413,15.413,0,0,1-4.484,3.33c-.289.148-.59.292-.9.429a20.964,20.964,0,0,1-11.666-4.221l-.043-.029-.353-.24a.561.561,0,1,0-.628.929l.351.238.043.029c2.941,2,6.6,4.491,14.551,4.491a1.335,1.335,0,1,1,0,2.67A27.871,27.871,0,0,1,14.338,27.24a27.821,27.821,0,0,1-5.9-3.259l-.387-.263a.561.561,0,0,0-.628.929l.385.261a34.526,34.526,0,0,0,3.948,2.409,2.451,2.451,0,0,0,1.549,4.251c.411.02.826.03,1.234.03A23.711,23.711,0,0,0,23.1,30.032q.685.024,1.391.025a2.46,2.46,0,0,0,2.391-1.895,19.9,19.9,0,0,0,4.451-3.639ZM14.541,30.477c-.39,0-.787-.009-1.181-.028a1.334,1.334,0,0,1-.425-2.574q.482.212,1,.412A25.96,25.96,0,0,0,20.121,29.8a22.988,22.988,0,0,1-5.58.677ZM38.275,4.2a4.119,4.119,0,0,0-1.131-2.978A3.919,3.919,0,0,0,34.326,0h-.033a3.986,3.986,0,0,0-2.574.942A3.976,3.976,0,0,0,29.112,0a3.919,3.919,0,0,0-2.819,1.222A4.119,4.119,0,0,0,25.162,4.2a5.792,5.792,0,0,0,.405,1.939,11.072,11.072,0,0,0-6.429,3.236,11.175,11.175,0,0,0-8.064-3.342A11,11,0,0,0,5.706,7.484a.561.561,0,1,0,.557.973,9.882,9.882,0,0,1,4.821-1.3,10.048,10.048,0,0,1,7.634,3.414.561.561,0,0,0,.842,0,9.976,9.976,0,0,1,6.554-3.365A10.919,10.919,0,0,0,31,11.017a1.761,1.761,0,0,0,1.446,0,16.247,16.247,0,0,0,1.726-.9,10.377,10.377,0,0,1,2.983,7.672c-.2,5.568-3.222,10.514-9,14.7a.561.561,0,1,0,.658.908c6.068-4.4,9.251-9.639,9.459-15.57a11.5,11.5,0,0,0-3.153-8.343A6.845,6.845,0,0,0,38.275,4.2ZM31.981,9.994a.639.639,0,0,1-.525,0c-2.3-1.038-5.07-2.892-5.173-5.831A2.991,2.991,0,0,1,27.1,2a2.807,2.807,0,0,1,2.018-.877A2.874,2.874,0,0,1,31.3,2.1a.561.561,0,0,0,.842,0,2.872,2.872,0,0,1,2.177-.974A2.807,2.807,0,0,1,36.334,2a2.991,2.991,0,0,1,.82,2.163C37.051,7.1,34.284,8.956,31.981,9.994ZM19.134,19.581h.008a2.682,2.682,0,0,0,2.008-.92,3.226,3.226,0,0,0,.81-2.156A1.828,1.828,0,0,0,21,14.716a4.082,4.082,0,0,0-1.848-.306,4.08,4.08,0,0,0-1.85.295,1.828,1.828,0,0,0-.973,1.783,3.227,3.227,0,0,0,.8,2.161,2.681,2.681,0,0,0,2.01.933ZM17.8,15.706a3.211,3.211,0,0,1,1.29-.175h.052a3.34,3.34,0,0,1,1.341.183c.183.094.353.254.351.787a2.107,2.107,0,0,1-.523,1.41,1.575,1.575,0,0,1-1.174.549h0a1.574,1.574,0,0,1-1.175-.556,2.107,2.107,0,0,1-.514-1.413c0-.533.172-.692.356-.784Zm5.963.652a.561.561,0,0,0,.561-.559.771.771,0,0,1,1.542,0,.561.561,0,0,0,.559.562h0a.561.561,0,0,0,.561-.559,1.893,1.893,0,1,0-3.785-.012.561.561,0,0,0,.559.562Z" transform="translate(0.202 0.198)" fill="#fff" stroke="#fff" stroke-width="0.4"/>
</svg>
