<svg xmlns="http://www.w3.org/2000/svg" width="87.359" height="87.359" viewBox="0 0 87.359 87.359">
  <g id="_2846040" data-name="2846040" transform="translate(-1 -1)">
    <path id="Path_1242" data-name="Path 1242" d="M7,7H9.818V9.818H7Z" transform="translate(2.454 2.454)" fill="#ed3042"/>
    <path id="Path_1243" data-name="Path 1243" d="M11,7h2.818V9.818H11Z" transform="translate(4.09 2.454)" fill="#ed3042"/>
    <path id="Path_1244" data-name="Path 1244" d="M15,7h2.818V9.818H15Z" transform="translate(5.726 2.454)" fill="#ed3042"/>
    <path id="Path_1245" data-name="Path 1245" d="M57,17h2.818v2.818H57Z" transform="translate(22.905 6.544)" fill="#ed3042"/>
    <path id="Path_1246" data-name="Path 1246" d="M53,17h2.818v2.818H53Z" transform="translate(21.269 6.544)" fill="#ed3042"/>
    <path id="Path_1247" data-name="Path 1247" d="M49,17h2.818v2.818H49Z" transform="translate(19.633 6.544)" fill="#ed3042"/>
    <path id="Path_1248" data-name="Path 1248" d="M85.541,17.908V6.636a2.821,2.821,0,0,0-2.818-2.818H32A2.821,2.821,0,0,0,29.18,1H3.818A2.821,2.821,0,0,0,1,3.818v14.09a2.821,2.821,0,0,0,2.818,2.818H13.1l4.64,4.64a3.4,3.4,0,0,0,5.807-2.405V20.726h2.818V29.18H19.317a9.871,9.871,0,0,0-9.75,8.454H9.454A5.642,5.642,0,0,0,3.818,43.27v5.636a5.642,5.642,0,0,0,5.636,5.636h2.58a24.843,24.843,0,0,0,5.715,7.509l-.954,3.82A16.916,16.916,0,0,0,1,82.723v5.636H48.906V82.723a16.916,16.916,0,0,0-15.8-16.852l-.955-3.82a24.825,24.825,0,0,0,5.716-7.509h2.58a5.618,5.618,0,0,0,4.853-2.818h3.6v5.636H43.27v2.818H68.633V57.361H63V51.725H82.723a2.821,2.821,0,0,0,2.818-2.818V32a2.821,2.821,0,0,0,2.818-2.818V20.726A2.821,2.821,0,0,0,85.541,17.908Zm-64.815,0v5.053a.606.606,0,0,1-1,.413l-5.466-5.466H3.818V3.818H29.18l0,14.09Zm8.454,2.818A2.821,2.821,0,0,0,32,17.908V6.636H82.723V17.908H65.815a2.816,2.816,0,0,0-1.086.218,14.088,14.088,0,0,0-27.094,5.418V29.18H29.18Zm16.908,5.636v-3.22a18.418,18.418,0,0,0,5.636-3.314,18.43,18.43,0,0,0,5.636,3.314v3.22a5.636,5.636,0,1,1-11.272,0Zm14.09,0V21.118l-1.41-.468a15.548,15.548,0,0,1-5.635-3.372V15.09H50.316v2.19a15.531,15.531,0,0,1-5.633,3.37l-1.412.468v5.244A8.443,8.443,0,0,0,46.8,33.219l-.461,1.846-2.493.623a10.085,10.085,0,0,0-3.391,1.565V23.544a11.272,11.272,0,0,1,22.544,0h0l0,5.636H63c0,.07,0,.141.008.21l.007,7.888a10.022,10.022,0,0,0-3.407-1.591l-2.493-.623-.461-1.846a8.443,8.443,0,0,0,3.527-6.856ZM9.454,51.725a2.821,2.821,0,0,1-2.818-2.818V43.27a2.821,2.821,0,0,1,2.818-2.818v3.084a24.927,24.927,0,0,0,1.385,8.188ZM29.49,63l.7,2.818H19.712l.7-2.818Zm16.6,19.726v2.818H40.452V79.9H37.634v5.636H12.272V79.9H9.454v5.636H3.818V82.723a14.106,14.106,0,0,1,14.09-14.09H32A14.106,14.106,0,0,1,46.088,82.723ZM30.071,60.179H19.836a22.025,22.025,0,0,1-7.564-16.642V39.043A7.053,7.053,0,0,1,19.317,32l18.317,0V43.537A22.025,22.025,0,0,1,30.071,60.179Zm13.2-11.272a2.821,2.821,0,0,1-2.818,2.818H39.067a24.926,24.926,0,0,0,1.385-8.188V40.452A2.821,2.821,0,0,1,43.27,43.27ZM43.7,38.681a7,7,0,0,1,.824-.261l4.133-1.033.727-2.907a8.3,8.3,0,0,0,4.677,0l.727,2.907,4.133,1.033a7.236,7.236,0,0,1,3.363,1.9c.039.039.069.087.107.128H45.305a5.673,5.673,0,0,0-1.6-1.771ZM60.179,57.361H51.725V51.725h8.454Zm-14.09-8.454V43.27H82.723v5.636Zm36.634-8.454H65.851c-.007-.011-.013-.023-.02-.035L65.825,32h2.808v2.235a3.4,3.4,0,0,0,5.807,2.405L79.079,32h3.644ZM85.541,29.18H77.912l-5.466,5.466a.606.606,0,0,1-1-.413V29.18H70.042l-4.22,0-.007-8.457H85.541Z" fill="#ed3042"/>
  </g>
</svg>
