<svg xmlns="http://www.w3.org/2000/svg" width="19.406" height="12.547" viewBox="0 0 19.406 12.547">
  <g id="Group_8095" data-name="Group 8095" transform="translate(-13631 -2986)">
    <g id="Group_7753" data-name="Group 7753" transform="translate(-2072.535 -1655)">
      <path id="like" d="M13.473,5.567A3.825,3.825,0,0,0,9.821,1.826,3.63,3.63,0,0,0,6.71,3.618,3.5,3.5,0,0,0,3.675,1.826,3.825,3.825,0,0,0,.023,5.567,3.858,3.858,0,0,0,.137,6.989a6.1,6.1,0,0,0,1.868,3.118l4.7,4.266,4.782-4.266a6.1,6.1,0,0,0,1.868-3.118A3.866,3.866,0,0,0,13.473,5.567Z" transform="translate(15703.535 4639.174)" fill="#ed3042"/>
      <path id="like-2" data-name="like" d="M11.8,5.1A3.35,3.35,0,0,0,8.6,1.826,3.18,3.18,0,0,0,5.878,3.4a3.064,3.064,0,0,0-2.659-1.57A3.35,3.35,0,0,0,.02,5.1a3.379,3.379,0,0,0,.1,1.245A5.341,5.341,0,0,0,1.757,9.079l4.118,3.737,4.189-3.737A5.342,5.342,0,0,0,11.7,6.348,3.386,3.386,0,0,0,11.8,5.1Z" transform="translate(15711.12 4640.174)" fill="#fcb723"/>
    </g>
  </g>
</svg>
