<svg xmlns="http://www.w3.org/2000/svg" width="93.826" height="14.577" viewBox="0 0 93.826 14.577">
  <g id="Group_25" data-name="Group 25" transform="translate(-177 -4564)">
    <g id="Components_Star_Default" data-name="Components/Star/Default" transform="translate(177 4564)">
      <g id="Components_Star_Default-2" data-name="Components/Star/Default">
        <path id="Path" d="M8.132.307l2.061,4.175,4.609.671a.551.551,0,0,1,.306.94L11.772,9.34l.787,4.59a.551.551,0,0,1-.8.581L7.637,12.348,3.515,14.514a.552.552,0,0,1-.8-.582L3.5,9.344.167,6.1a.551.551,0,0,1,.306-.94l4.609-.674L7.142.307a.552.552,0,0,1,.99,0Z" fill="#ffcf5c"/>
      </g>
    </g>
    <g id="Components_Star_Default-3" data-name="Components/Star/Default" transform="translate(196.638 4564)">
      <g id="Components_Star_Default-4" data-name="Components/Star/Default">
        <path id="Path-2" data-name="Path" d="M8.132.307l2.061,4.175,4.609.671a.551.551,0,0,1,.306.94L11.772,9.34l.787,4.59a.551.551,0,0,1-.8.581L7.637,12.348,3.515,14.514a.552.552,0,0,1-.8-.582L3.5,9.344.167,6.1a.551.551,0,0,1,.306-.94l4.609-.674L7.142.307a.552.552,0,0,1,.99,0Z" fill="#ffcf5c"/>
      </g>
    </g>
    <g id="Components_Star_Default-5" data-name="Components/Star/Default" transform="translate(216.276 4564)">
      <g id="Components_Star_Default-6" data-name="Components/Star/Default">
        <path id="Path-3" data-name="Path" d="M8.132.307l2.061,4.175,4.609.671a.551.551,0,0,1,.306.94L11.772,9.34l.787,4.59a.551.551,0,0,1-.8.581L7.637,12.348,3.515,14.514a.552.552,0,0,1-.8-.582L3.5,9.344.167,6.1a.551.551,0,0,1,.306-.94l4.609-.674L7.142.307a.552.552,0,0,1,.99,0Z" fill="#ffcf5c"/>
      </g>
    </g>
    <g id="Components_Star_Default-7" data-name="Components/Star/Default" transform="translate(235.914 4564)">
      <g id="Components_Star_Half" data-name="Components/Star/Half" transform="translate(0)">
        <path id="Path-4" data-name="Path" d="M8.132.307l2.061,4.175,4.609.671a.551.551,0,0,1,.306.94L11.772,9.34l.787,4.59a.551.551,0,0,1-.8.581L7.637,12.348,3.515,14.514a.552.552,0,0,1-.8-.582L3.5,9.344.167,6.1a.551.551,0,0,1,.306-.94l4.609-.674L7.142.307a.552.552,0,0,1,.99,0Z" transform="translate(0)" fill="#ffcf5c"/>
        <path id="Combined_Shape" data-name="Combined Shape" d="M3.259,14.575a.55.55,0,0,0,.256-.064l4.122-2.163V0a.549.549,0,0,0-.495.306L5.081,4.482.472,5.153a.553.553,0,0,0-.445.375.547.547,0,0,0,.139.565L3.5,9.34l-.787,4.59a.551.551,0,0,0,.544.645Z" transform="translate(0 0)" fill="#ffcf5c"/>
      </g>
    </g>
    <path id="Path-5" data-name="Path" d="M8.132.307l2.061,4.175,4.609.671a.551.551,0,0,1,.306.94L11.772,9.34l.787,4.59a.551.551,0,0,1-.8.581L7.637,12.348,3.515,14.514a.552.552,0,0,1-.8-.582L3.5,9.344.167,6.1a.551.551,0,0,1,.306-.94l4.609-.674L7.142.307a.552.552,0,0,1,.99,0Z" transform="translate(255.552 4564)" fill="#ffcf5c"/>
  </g>
</svg>
