<svg xmlns="http://www.w3.org/2000/svg" width="13.295" height="15.717" viewBox="0 0 13.295 15.717">
  <g id="location" transform="translate(-39.451)">
    <g id="Group_28" data-name="Group 28" transform="translate(39.451)">
      <g id="Group_27" data-name="Group 27" transform="translate(0)">
        <path id="Path_1215" data-name="Path 1215" d="M50.8,1.947a6.648,6.648,0,0,0-11.348,4.7c0,3.592,3.4,6.58,5.221,8.185.254.223.473.416.647.579a1.145,1.145,0,0,0,1.559,0c.174-.163.393-.356.647-.579,1.825-1.605,5.221-4.593,5.221-8.185A6.6,6.6,0,0,0,50.8,1.947ZM46.917,14.141c-.259.228-.483.425-.667.6a.222.222,0,0,1-.3,0c-.184-.172-.408-.369-.667-.6-1.715-1.509-4.909-4.318-4.909-7.494a5.727,5.727,0,0,1,11.454,0C51.826,9.823,48.633,12.632,46.917,14.141Z" transform="translate(-39.451)" fill="#fff"/>
      </g>
    </g>
    <g id="Group_30" data-name="Group 30" transform="translate(43.169 3.467)">
      <g id="Group_29" data-name="Group 29" transform="translate(0)">
        <path id="Path_1216" data-name="Path 1216" d="M163.5,112.938a2.93,2.93,0,1,0,2.93,2.93A2.933,2.933,0,0,0,163.5,112.938Zm0,4.938a2.009,2.009,0,1,1,2.009-2.009A2.011,2.011,0,0,1,163.5,117.876Z" transform="translate(-160.57 -112.938)" fill="#fff"/>
      </g>
    </g>
  </g>
</svg>
