<svg id="Group_8059" data-name="Group 8059" xmlns="http://www.w3.org/2000/svg" width="142.398" height="50.126" viewBox="0 0 142.398 50.126">
  <g id="Group_8052" data-name="Group 8052" transform="translate(0 0)">
    <path id="Path_8719" data-name="Path 8719" d="M2847.865,1202.419a.036.036,0,0,1-.017,0,1.4,1.4,0,0,0-.155-.286c-.053-.073-.112-.141-.171-.208-.084-.1-.171-.188-.261-.281-.073-.076-.149-.149-.225-.222s-.146-.135-.219-.205c-.1-.09-.188-.18-.281-.272s-.174-.171-.261-.261c-.07-.073-.138-.152-.205-.23a3.045,3.045,0,0,1-.278-.379,2.088,2.088,0,0,1-.211-.464,1.726,1.726,0,0,1-.081-.509c0-.087,0-.174.006-.261,0-.006,0-.011,0-.017.008-.067.014-.135.022-.2a.014.014,0,0,0,.005-.008c.006-.042.011-.087.02-.129a1.328,1.328,0,0,1,.036-.152,1.342,1.342,0,0,1,.236-.407,1.451,1.451,0,0,1,.315-.3,1.234,1.234,0,0,1,.152-.1c.073-.037.152-.065.228-.1a1.015,1.015,0,0,1,.5-.068c.009,0,.014,0,.023,0,.07.008.143.017.213.022.006,0,.009.006.014.006.034.006.07.008.1.017a1.305,1.305,0,0,1,.177.056,1.478,1.478,0,0,1,.275.18,1.092,1.092,0,0,1,.217.225c.039.053.078.107.115.163a.726.726,0,0,1,.1.222c.017.065.025.129.037.2l.04-.065c.039-.062.073-.126.115-.185a1.345,1.345,0,0,1,.151-.177,2.355,2.355,0,0,1,.242-.194.974.974,0,0,1,.275-.124,1.7,1.7,0,0,1,.264-.056,2.1,2.1,0,0,1,.23-.005.021.021,0,0,0,.011-.006l.157.017.02.008a1.6,1.6,0,0,1,.168.036,1.548,1.548,0,0,1,.393.188,1.346,1.346,0,0,1,.32.3,1.613,1.613,0,0,1,.143.216,1.181,1.181,0,0,1,.107.261.912.912,0,0,1,.037.23c0,.1,0,.205.006.306,0,.008,0,.017,0,.022-.011.1-.022.2-.031.292l-.009.014c-.02.084-.036.172-.056.256a1.418,1.418,0,0,1-.169.391,1.755,1.755,0,0,1-.228.312,2.393,2.393,0,0,1-.3.286c-.1.082-.208.157-.312.236-.042.031-.087.062-.132.09-.073.048-.149.093-.222.138l-.309.183c-.068.039-.138.079-.2.121-.084.053-.166.107-.248.163l-.261.177c-.048.034-.093.067-.137.1-.087.065-.174.126-.259.194-.048.037-.1.079-.143.118C2847.927,1202.337,2847.891,1202.371,2847.865,1202.419Z" transform="translate(-2791.553 -1195.541)" fill="#fcb415" fill-rule="evenodd"/>
    <g id="Group_8048" data-name="Group 8048">
      <path id="Path_8720" data-name="Path 8720" d="M925.2,1258.7l1.787-1.826a7.7,7.7,0,0,0,4.9,1.916,4.158,4.158,0,0,0,2.88-1,3.281,3.281,0,0,0,1.118-2.565q0-1.542-2.11-3.408l-1.812-1.607a17.123,17.123,0,0,1-2.5-2.495,3.429,3.429,0,0,1-.483-1.927,5.3,5.3,0,0,1,2.031-4.147,7.2,7.2,0,0,1,4.846-1.742,10.632,10.632,0,0,1,4.191,1.068l-.643,3.228h-.809c.017-.267.025-.45.025-.553a2.353,2.353,0,0,0-.978-1.967,4.152,4.152,0,0,0-2.585-.745,4.1,4.1,0,0,0-2.79.983,3.093,3.093,0,0,0-1.132,2.436,3.023,3.023,0,0,0,.573,1.787,15.484,15.484,0,0,0,2.385,2.351l1.517,1.312q2.533,2.174,2.534,4.062a5.2,5.2,0,0,1-2.379,4.256,9.213,9.213,0,0,1-5.669,1.776A10.811,10.811,0,0,1,925.2,1258.7Z" transform="translate(-925.2 -1236.891)" fill="#ee3143"/>
      <path id="Path_8721" data-name="Path 8721" d="M1511.165,1439.139h-.233a17.426,17.426,0,0,1-3.495,5.265,5.712,5.712,0,0,1-3.826,2.037q-2.71,0-2.711-3.394a11.414,11.414,0,0,1,2.984-7.329,9.451,9.451,0,0,1,7.535-3.717q1.837,0,3.843.155l-.924,3.807-1.247,6.352a13.329,13.329,0,0,0-.295,1.927q0,.809.759.809,1.285,0,3.832-2.829l-.23,1.2q-2.819,3.022-5.062,3.02-1.867,0-1.868-1.941a13.046,13.046,0,0,1,.309-2.186ZM1512.2,1434a7.822,7.822,0,0,0-3.2-.719q-2.339,0-3.739,2.958a15.042,15.042,0,0,0-1.646,6.287q0,2.019,1.183,2.017,1.1,0,3.18-2.321a26.226,26.226,0,0,0,3.641-5.3Z" transform="translate(-1484.727 -1423.594)" fill="#ee3143"/>
      <path id="Path_8722" data-name="Path 8722" d="M2121.9,1155.48l.952-3.961,1.761-8.883a13.886,13.886,0,0,1,3.489-7.245,8.45,8.45,0,0,1,6.242-2.59,9.235,9.235,0,0,1,2.315.27l-1.762,1.837a6.452,6.452,0,0,0-2.57-.683,3.49,3.49,0,0,0-3.073,1.486,16.568,16.568,0,0,0-1.851,5.652l-1.388,6.984h.205a18.857,18.857,0,0,1,3.627-5.3,5.684,5.684,0,0,1,3.767-2q2.12,0,2.121,2.34a9.535,9.535,0,0,1-.219,1.851l-1.247,6.273a12.969,12.969,0,0,0-.3,1.927c0,.539.253.809.761.809q1.289,0,3.843-2.829l-.23,1.2q-2.819,3.022-5.062,3.02-1.854,0-1.854-1.938a13.522,13.522,0,0,1,.3-2.183l1.258-6.293a6.569,6.569,0,0,0,.141-1.233q0-1.041-.772-1.039-2.444,0-6.813,7.782l-.927,4.585Z" transform="translate(-2088.281 -1132.8)" fill="#ee3143"/>
      <path id="Path_8723" data-name="Path 8723" d="M2465.6,1449.151l1.736-1.812a5.924,5.924,0,0,0,2.675.669q3.367,0,4.436-5.349l1.991-10.041a18.046,18.046,0,0,0,.348-2.534q0-1.079-.823-1.079a8.475,8.475,0,0,0-2.071.449l.155-.8,6.287-2.057-.978,4.113-1.582,7.97a24.479,24.479,0,0,1-1.478,5.15,10.163,10.163,0,0,1-2.341,3.169,8.731,8.731,0,0,1-6.158,2.43A8.26,8.26,0,0,1,2465.6,1449.151Z" transform="translate(-2422.325 -1418.346)" fill="#ee3143"/>
      <path id="Path_8724" data-name="Path 8724" d="M3078.663,1437.349l-.194.989q-4.088,2.853-6.967,2.854a3.786,3.786,0,0,1-2.964-1.278,4.786,4.786,0,0,1-1.138-3.307,10.229,10.229,0,0,1,2.776-6.816q2.777-3.19,5.928-3.191a2.392,2.392,0,0,1,1.851.77,2.841,2.841,0,0,1,.708,2,5.113,5.113,0,0,1-2.52,4.236,10.2,10.2,0,0,1-6.017,1.773l-.014.579q0,3.755,2.75,3.753Q3075.242,1439.714,3078.663,1437.349Zm-8.512-2.75a8.326,8.326,0,0,0,4.5-1.486,3.925,3.925,0,0,0,1.621-3.248q0-1.968-1.427-1.967-1.542,0-2.983,2.051A9.691,9.691,0,0,0,3070.151,1434.6Z" transform="translate(-3007.219 -1418.346)" fill="#ee3143"/>
      <path id="Path_8725" data-name="Path 8725" d="M3586.162,1437.349l-.194.989q-4.087,2.853-6.967,2.854a3.786,3.786,0,0,1-2.964-1.278,4.787,4.787,0,0,1-1.138-3.307,10.242,10.242,0,0,1,2.776-6.816q2.777-3.19,5.927-3.191a2.392,2.392,0,0,1,1.852.77,2.842,2.842,0,0,1,.708,2,5.113,5.113,0,0,1-2.52,4.236,10.2,10.2,0,0,1-6.018,1.773l-.014.579q0,3.755,2.75,3.753Q3582.746,1439.714,3586.162,1437.349Zm-8.509-2.75a8.327,8.327,0,0,0,4.5-1.486,3.924,3.924,0,0,0,1.621-3.248q0-1.968-1.427-1.967-1.542,0-2.984,2.051A9.666,9.666,0,0,0,3577.653,1434.6Z" transform="translate(-3500.461 -1418.346)" fill="#ee3143"/>
      <path id="Path_8726" data-name="Path 8726" d="M4040.359,1441.194l.064-1.747a27.655,27.655,0,0,0-.924-8.006q-.927-2.933-2.505-2.936-1.606,0-3.394,3.082l.374-1.9q2.33-3.084,4.34-3.085,4.467,0,4.467,11.249v.708l1.051-1.273q4.681-5.655,4.683-8.226a3.109,3.109,0,0,0-.845-2.146l2.75-.312a3.164,3.164,0,0,1,.629,1.711,4.575,4.575,0,0,1-.879,2.43,56.512,56.512,0,0,1-3.821,4.77l-4.6,5.36Z" transform="translate(-3946.275 -1418.346)" fill="#ee3143"/>
      <path id="Path_8727" data-name="Path 8727" d="M4745.665,1439.139h-.233a17.427,17.427,0,0,1-3.494,5.265,5.713,5.713,0,0,1-3.827,2.037q-2.709,0-2.711-3.394a11.415,11.415,0,0,1,2.983-7.329,9.45,9.45,0,0,1,7.535-3.717q1.838,0,3.843.155l-.925,3.807-1.247,6.352a13.311,13.311,0,0,0-.295,1.927q0,.809.758.809,1.285,0,3.833-2.829l-.231,1.2q-2.82,3.022-5.063,3.02-1.866,0-1.868-1.941a13.085,13.085,0,0,1,.309-2.186ZM4746.7,1434a7.82,7.82,0,0,0-3.2-.719q-2.339,0-3.739,2.958a15.034,15.034,0,0,0-1.646,6.287q0,2.019,1.182,2.017,1.1,0,3.181-2.321a26.121,26.121,0,0,0,3.641-5.3Z" transform="translate(-4628.359 -1423.594)" fill="#ee3143"/>
      <path id="Path_8728" data-name="Path 8728" d="M5328.284,1440.832l.952-3.961,1.259-6.352a13.035,13.035,0,0,0,.294-1.927c0-.531-.253-.8-.758-.8q-1.26,0-3.832,2.826l.23-1.183q2.8-3.034,5.054-3.034,1.85,0,1.851,1.927a13.235,13.235,0,0,1-.3,2.186l-.628,3.174h.193a19.128,19.128,0,0,1,3.632-5.29,5.685,5.685,0,0,1,3.773-2q2.107,0,2.109,2.34a9.633,9.633,0,0,1-.219,1.851l-1.247,6.273a13.344,13.344,0,0,0-.3,1.927q0,.809.758.809,1.287,0,3.843-2.826l-.244,1.194q-2.8,3.021-5.054,3.02-1.85,0-1.852-1.938a13.017,13.017,0,0,1,.31-2.183l1.247-6.293a6.121,6.121,0,0,0,.154-1.233q0-1.041-.772-1.039-2.457,0-6.812,7.779l-.938,4.59Z" transform="translate(-5202.562 -1418.152)" fill="#ee3143"/>
    </g>
    <g id="Group_8049" data-name="Group 8049" transform="translate(81.288 43.12)">
      <path id="Path_8729" data-name="Path 8729" d="M3821.524,2683.421l-.008-.542v-1.551a2.242,2.242,0,0,1,.4-.028,2.509,2.509,0,0,1,.4.028v5a2.333,2.333,0,0,1-.4.028,2.731,2.731,0,0,1-.4-.028v-1.714l.008-.542-.407.009h-1.233l-.416-.009.008.542v1.714a2.129,2.129,0,0,1-.39.028,2.337,2.337,0,0,1-.385-.028v-5a2.076,2.076,0,0,1,.385-.028,2.426,2.426,0,0,1,.39.028v1.551l-.008.542.416-.008h1.233Z" transform="translate(-3818.7 -2680.918)" fill="#3f4040"/>
      <path id="Path_8730" data-name="Path 8730" d="M3985.059,2732.352a.69.69,0,0,1-.287.388.724.724,0,0,1-.584-.456,1.549,1.549,0,0,1-1.068.5,1.231,1.231,0,0,1-.486-.087,1.039,1.039,0,0,1-.351-.239,1,1,0,0,1-.214-.343,1.159,1.159,0,0,1-.07-.407,1.1,1.1,0,0,1,.385-.907,1.582,1.582,0,0,1,1.023-.307c.121,0,.241,0,.359.011a3.257,3.257,0,0,1,.343.039v-.287c0-.438-.2-.657-.6-.657a3.418,3.418,0,0,0-1.149.287.71.71,0,0,1-.219-.548,3.649,3.649,0,0,1,1.514-.337,1.084,1.084,0,0,1,1.2,1.222v1.5A.8.8,0,0,0,3985.059,2732.352Zm-1.815-.168a1.149,1.149,0,0,0,.863-.438v-.7c-.1-.008-.2-.017-.306-.022s-.219-.009-.337-.009a.762.762,0,0,0-.523.166.555.555,0,0,0-.185.435.6.6,0,0,0,.132.413A.442.442,0,0,0,3983.244,2732.183Z" transform="translate(-3977.412 -2727.278)" fill="#3f4040"/>
      <path id="Path_8731" data-name="Path 8731" d="M4124.782,2731.878a1.7,1.7,0,0,1-.835-.241v1.267a.586.586,0,0,1-.093.371.389.389,0,0,1-.317.113h-.292l-.045-.045v-5.133l.045-.045h.232a.418.418,0,0,1,.447.374,1.369,1.369,0,0,1,1.016-.438,1.047,1.047,0,0,1,.919.511,2.044,2.044,0,0,1,.242.6,3.366,3.366,0,0,1,.083.787,2.647,2.647,0,0,1-.109.789,1.806,1.806,0,0,1-.3.593,1.377,1.377,0,0,1-.449.371A1.15,1.15,0,0,1,4124.782,2731.878Zm-.031-3.141a.966.966,0,0,0-.806.477v1.8a1.8,1.8,0,0,0,.371.194.921.921,0,0,0,.339.07.629.629,0,0,0,.554-.337,2.358,2.358,0,0,0,.018-1.9A.551.551,0,0,0,4124.751,2728.738Z" transform="translate(-4114.646 -2726.403)" fill="#3f4040"/>
      <path id="Path_8732" data-name="Path 8732" d="M4262.882,2731.878a1.692,1.692,0,0,1-.834-.241v1.267a.586.586,0,0,1-.093.371.39.39,0,0,1-.317.113h-.292l-.044-.045v-5.133l.044-.045h.233a.419.419,0,0,1,.447.374,1.37,1.37,0,0,1,1.017-.438,1.049,1.049,0,0,1,.919.511,2.017,2.017,0,0,1,.241.6,3.336,3.336,0,0,1,.085.787,2.63,2.63,0,0,1-.11.789,1.777,1.777,0,0,1-.3.593,1.367,1.367,0,0,1-.449.371A1.149,1.149,0,0,1,4262.882,2731.878Zm-.028-3.141a.967.967,0,0,0-.806.477v1.8a1.807,1.807,0,0,0,.371.194.919.919,0,0,0,.339.07.629.629,0,0,0,.554-.337,1.821,1.821,0,0,0,.208-.961,1.8,1.8,0,0,0-.19-.938A.556.556,0,0,0,4262.854,2728.738Z" transform="translate(-4248.867 -2726.403)" fill="#3f4040"/>
      <path id="Path_8733" data-name="Path 8733" d="M4388.595,2683.051v2.986a1.916,1.916,0,0,1-.376.028,2.172,2.172,0,0,1-.377-.028v-2.68a.467.467,0,0,0-.073-.292.307.307,0,0,0-.25-.087h-.082a1.185,1.185,0,0,1-.036-.27,1.29,1.29,0,0,1,.036-.278,3.719,3.719,0,0,1,.461-.028h.1a.55.55,0,0,1,.435.177A.655.655,0,0,1,4388.595,2683.051Zm-.916-1.312a.692.692,0,0,1-.065-.323c0-.2.037-.317.11-.354a.957.957,0,0,1,.365-.062.705.705,0,0,1,.374.073c.054.045.084.158.087.343a.5.5,0,0,1-.087.337.651.651,0,0,1-.374.081A.682.682,0,0,1,4387.679,2681.739Z" transform="translate(-4371.424 -2680.626)" fill="#3f4040"/>
      <path id="Path_8734" data-name="Path 8734" d="M4470.534,2673.512h.27a.966.966,0,0,1,.064.326.908.908,0,0,1-.022.222,3.66,3.66,0,0,1-.621.051q-.724,0-.725-.753v-4.613l.05-.045h.287a.383.383,0,0,1,.317.112.587.587,0,0,1,.093.368v4C4470.248,2673.4,4470.343,2673.512,4470.534,2673.512Z" transform="translate(-4451.218 -2668.672)" fill="#3f4040"/>
      <path id="Path_8735" data-name="Path 8735" d="M4527.8,2729.817l-.966,3.433a6.07,6.07,0,0,1-.275.787,1.985,1.985,0,0,1-.329.531,1.113,1.113,0,0,1-.438.3,1.64,1.64,0,0,1-.59.1c-.04,0-.1,0-.177-.008s-.157-.014-.232-.025a1.585,1.585,0,0,1-.206-.045c-.059-.017-.087-.04-.087-.07a.961.961,0,0,1,.045-.278.552.552,0,0,1,.124-.233,1.527,1.527,0,0,0,.57.1.657.657,0,0,0,.512-.222,1.832,1.832,0,0,0,.336-.686l.023-.087a.72.72,0,0,1-.366-.093.517.517,0,0,1-.2-.3l-.966-3.2a1.235,1.235,0,0,1,.46-.11c.191,0,.318.113.382.337l.5,1.683c.025.079.059.205.1.385s.1.41.168.691a.058.058,0,0,0,.065.051l.806-3.1c.04-.008.084-.017.135-.022a1.593,1.593,0,0,1,.171-.008,1.742,1.742,0,0,1,.208.011,1.1,1.1,0,0,1,.2.04Z" transform="translate(-4504.672 -2727.958)" fill="#3f4040"/>
      <path id="Path_8736" data-name="Path 8736" d="M4726.67,2686.192l-.009.374c.146-.014.307-.022.483-.022h1.9a1.615,1.615,0,0,1-.022.3.436.436,0,0,1-.5.365h-2.174a.423.423,0,0,1-.326-.129.494.494,0,0,1-.12-.354v-4.481l.05-.045h2.944a1.814,1.814,0,0,1,.022.312.98.98,0,0,1-.059.348h-2.2l.009.475v1.025l.455-.008h1.376a1.17,1.17,0,0,1,.037.326,1.085,1.085,0,0,1-.037.318h-1.376c-.191,0-.342,0-.455-.009Z" transform="translate(-4700.415 -2681.792)" fill="#3f4040"/>
      <path id="Path_8737" data-name="Path 8737" d="M4849.185,2732.754l.863-3a1.6,1.6,0,0,1,.326-.028.939.939,0,0,1,.34.059l.023.028q-.547,1.845-1.126,3.557a2.871,2.871,0,0,1-.5.036.723.723,0,0,1-.4-.081.683.683,0,0,1-.2-.337l-1.011-3.177a1.063,1.063,0,0,1,.432-.11.385.385,0,0,1,.411.323l.492,1.609q.139.438.286,1.062A.064.064,0,0,0,4849.185,2732.754Z" transform="translate(-4818.598 -2727.958)" fill="#3f4040"/>
      <path id="Path_8738" data-name="Path 8738" d="M4975.03,2730.344h-2.152a1.43,1.43,0,0,0,.217.776.753.753,0,0,0,.654.27,1.974,1.974,0,0,0,.472-.064,2.355,2.355,0,0,0,.522-.214.844.844,0,0,1,.242.483,2.342,2.342,0,0,1-1.376.41,1.52,1.52,0,0,1-.7-.146,1.232,1.232,0,0,1-.463-.4,1.739,1.739,0,0,1-.261-.613,3.417,3.417,0,0,1-.082-.764,2.646,2.646,0,0,1,.1-.75,1.8,1.8,0,0,1,.292-.6,1.32,1.32,0,0,1,.472-.39,1.369,1.369,0,0,1,.632-.143,1.579,1.579,0,0,1,.626.118,1.31,1.31,0,0,1,.464.326,1.449,1.449,0,0,1,.289.5,1.968,1.968,0,0,1,.1.626c0,.1,0,.194-.011.289A1.482,1.482,0,0,1,4975.03,2730.344Zm-1.4-1.582c-.464,0-.713.343-.748,1.031h1.478v-.1a1.163,1.163,0,0,0-.179-.677A.627.627,0,0,0,4973.626,2728.762Z" transform="translate(-4939.697 -2726.501)" fill="#3f4040"/>
      <path id="Path_8739" data-name="Path 8739" d="M5104,2730.2a.649.649,0,0,1,.278-.4.855.855,0,0,1,.665.652.988.988,0,0,1,.958-.652,1.8,1.8,0,0,1,.388.045,1.327,1.327,0,0,1-.183.716,1.5,1.5,0,0,0-.3-.037.87.87,0,0,0-.784.556v2.385a1.961,1.961,0,0,1-.376.028,2.194,2.194,0,0,1-.376-.028v-2.512A.976.976,0,0,0,5104,2730.2Z" transform="translate(-5067.892 -2728.055)" fill="#3f4040"/>
      <path id="Path_8740" data-name="Path 8740" d="M5252.492,2685.015l-.438.009h-1l-.424-.009-.388,1.222a1.494,1.494,0,0,1-.328.028,1.44,1.44,0,0,1-.388-.051l-.022-.036,1.655-4.95a2.543,2.543,0,0,1,.447-.028,2.737,2.737,0,0,1,.438.028l1.641,4.95a.7.7,0,0,1-.4.1.52.52,0,0,1-.342-.087.715.715,0,0,1-.177-.323Zm-1.669-.629.374-.008h.733c.2.006.323.008.365.008l-.337-1.062c-.171-.548-.3-.989-.388-1.326h-.036c-.06.27-.155.621-.287,1.062Z" transform="translate(-5209.304 -2680.821)" fill="#3f4040"/>
      <path id="Path_8741" data-name="Path 8741" d="M5406.861,2673.111v-3.073l-.629.014c-.008-.039-.017-.084-.023-.132a1.327,1.327,0,0,1-.009-.146,1.181,1.181,0,0,1,.029-.287l.593.008c-.028-.3-.045-.514-.045-.652a1.359,1.359,0,0,1,.075-.458,1.013,1.013,0,0,1,.574-.6,1.2,1.2,0,0,1,.46-.084,2.614,2.614,0,0,1,.952.169.7.7,0,0,1-.176.511c-.113-.034-.22-.062-.318-.081a1.411,1.411,0,0,0-.275-.028.546.546,0,0,0-.444.166.77.77,0,0,0-.135.495c0,.084.006.171.014.264s.022.2.036.306l1.031-.014c.008.045.017.09.022.135a1.31,1.31,0,0,1,.008.149,1.335,1.335,0,0,1-.008.146.9.9,0,0,1-.022.132l-.98-.014v3.073c-.053.009-.112.017-.177.023s-.129.008-.2.008-.135,0-.2-.008A1.511,1.511,0,0,1,5406.861,2673.111Z" transform="translate(-5361.602 -2667.7)" fill="#3f4040"/>
      <path id="Path_8742" data-name="Path 8742" d="M5497.312,2692.812a1,1,0,0,1,.036.287.927.927,0,0,1-.036.278l-.9-.014v2.183c0,.214.1.321.3.321h.506a.97.97,0,0,1,.059.328,1.065,1.065,0,0,1-.014.219,6.933,6.933,0,0,1-.82.051.674.674,0,0,1-.77-.753v-2.343l-.542.008a1.209,1.209,0,0,1-.028-.275,1.4,1.4,0,0,1,.028-.29l.542.014v-.643a.6.6,0,0,1,.087-.374.385.385,0,0,1,.314-.11h.287l.051.051v1.084Z" transform="translate(-5448.005 -2691.026)" fill="#3f4040"/>
      <path id="Path_8743" data-name="Path 8743" d="M5593.331,2730.344h-2.152a1.418,1.418,0,0,0,.217.776.751.751,0,0,0,.654.27,1.978,1.978,0,0,0,.472-.064,2.384,2.384,0,0,0,.522-.214.847.847,0,0,1,.242.483,2.343,2.343,0,0,1-1.376.41,1.518,1.518,0,0,1-.7-.146,1.238,1.238,0,0,1-.464-.4,1.74,1.74,0,0,1-.261-.613,3.476,3.476,0,0,1-.082-.764,2.663,2.663,0,0,1,.1-.75,1.814,1.814,0,0,1,.292-.6,1.319,1.319,0,0,1,.472-.39,1.371,1.371,0,0,1,.631-.143,1.579,1.579,0,0,1,.627.118,1.306,1.306,0,0,1,.464.326,1.465,1.465,0,0,1,.289.5,1.968,1.968,0,0,1,.1.626c0,.1,0,.194-.012.289A1.519,1.519,0,0,1,5593.331,2730.344Zm-1.4-1.582c-.463,0-.714.343-.748,1.031h1.478v-.1a1.16,1.16,0,0,0-.18-.677A.623.623,0,0,0,5591.926,2728.762Z" transform="translate(-5540.627 -2726.501)" fill="#3f4040"/>
      <path id="Path_8744" data-name="Path 8744" d="M5722.4,2730.2a.652.652,0,0,1,.278-.4.857.857,0,0,1,.666.652.987.987,0,0,1,.958-.652,1.8,1.8,0,0,1,.388.045,1.332,1.332,0,0,1-.182.716,1.5,1.5,0,0,0-.3-.037.869.869,0,0,0-.783.556v2.385a1.954,1.954,0,0,1-.376.028,2.194,2.194,0,0,1-.376-.028v-2.512A.985.985,0,0,0,5722.4,2730.2Z" transform="translate(-5668.919 -2728.055)" fill="#3f4040"/>
      <path id="Path_8745" data-name="Path 8745" d="M5803.667,2829.7a.927.927,0,0,1,.455-.1,1,1,0,0,1,.219.02.669.669,0,0,1,.168.051.181.181,0,0,1,.1.132,1.091,1.091,0,0,1,.025.261,1.272,1.272,0,0,1-.02.253.174.174,0,0,1-.084.135.6.6,0,0,1-.16.056,1.4,1.4,0,0,1-.242.02,1.167,1.167,0,0,1-.238-.02.832.832,0,0,1-.172-.048.169.169,0,0,1-.1-.132,1.329,1.329,0,0,1-.022-.264A.85.85,0,0,1,5803.667,2829.7Z" transform="translate(-5747.837 -2825.052)" fill="#3f4040"/>
      <path id="Path_8746" data-name="Path 8746" d="M5872.167,2829.7a.926.926,0,0,1,.455-.1.989.989,0,0,1,.219.02.667.667,0,0,1,.169.051.182.182,0,0,1,.1.132,1.067,1.067,0,0,1,.025.261,1.306,1.306,0,0,1-.02.253.174.174,0,0,1-.084.135.586.586,0,0,1-.16.056,1.4,1.4,0,0,1-.242.02,1.174,1.174,0,0,1-.239-.02.836.836,0,0,1-.172-.048.169.169,0,0,1-.1-.132,1.294,1.294,0,0,1-.022-.264A.85.85,0,0,1,5872.167,2829.7Z" transform="translate(-5814.413 -2825.052)" fill="#3f4040"/>
      <path id="Path_8747" data-name="Path 8747" d="M5940.767,2829.7a.927.927,0,0,1,.455-.1,1.007,1.007,0,0,1,.22.02.671.671,0,0,1,.168.051.183.183,0,0,1,.1.132,1.067,1.067,0,0,1,.025.261,1.277,1.277,0,0,1-.019.253.174.174,0,0,1-.085.135.58.58,0,0,1-.16.056,1.4,1.4,0,0,1-.242.02,1.174,1.174,0,0,1-.239-.02.845.845,0,0,1-.172-.048.171.171,0,0,1-.1-.132,1.329,1.329,0,0,1-.022-.264A.769.769,0,0,1,5940.767,2829.7Z" transform="translate(-5881.086 -2825.052)" fill="#3f4040"/>
    </g>
    <path id="Path_8748" data-name="Path 8748" d="M2285.91,2396.829c-35.018,2.972-74.593-7.6-105.442,9.858a1.183,1.183,0,0,0,1.166,2.056c30.467-17.238,69.637-6.613,104.223-9.552C2287.363,2399.065,2287.424,2396.7,2285.91,2396.829Z" transform="translate(-2144.635 -2360.827)" fill="#fcb415"/>
    <g id="Group_8051" data-name="Group 8051" transform="translate(117.93 28.214)">
      <g id="Group_8050" data-name="Group 8050">
        <path id="Path_8749" data-name="Path 8749" d="M5123,2276.7l.969-.7.75.961-.992.745Z" transform="translate(-5123 -2272.098)" fill="#ee3143"/>
        <path id="Path_8750" data-name="Path 8750" d="M5238.818,2141.224l-.073.385a5.183,5.183,0,0,1-2.658,1.1,1.475,1.475,0,0,1-1.152-.483,1.844,1.844,0,0,1-.436-1.278,3.864,3.864,0,0,1,1.087-2.641,3.192,3.192,0,0,1,2.391-1.2,2.785,2.785,0,0,1,1.141.253l-.332,1.27h-.306l.014-.073a1.817,1.817,0,0,0,.051-.34c0-.455-.309-.683-.924-.683a1.684,1.684,0,0,0-1.447.927,4.337,4.337,0,0,0-.579,2.332c0,.894.331,1.337,1,1.337A4.042,4.042,0,0,0,5238.818,2141.224Z" transform="translate(-5231.369 -2137.1)" fill="#ee3143"/>
        <path id="Path_8751" data-name="Path 8751" d="M5432.812,2142.8a1.358,1.358,0,0,1-1.079-.506,1.869,1.869,0,0,1-.433-1.261,3.877,3.877,0,0,1,1.076-2.63,3.122,3.122,0,0,1,2.346-1.208,1.461,1.461,0,0,1,1.132.494,1.818,1.818,0,0,1,.444,1.259,3.87,3.87,0,0,1-1.076,2.663A3.206,3.206,0,0,1,5432.812,2142.8Zm.562-.43a1.564,1.564,0,0,0,1.287-.941,4.211,4.211,0,0,0,.556-2.185q0-1.635-1-1.635c-.472,0-.894.323-1.273.969a4.271,4.271,0,0,0-.564,2.186C5432.382,2141.838,5432.711,2142.375,5433.374,2142.375Z" transform="translate(-5422.639 -2137.197)" fill="#ee3143"/>
        <path id="Path_8752" data-name="Path 8752" d="M5625.1,2142.643l.365-1.52.483-2.439a4.925,4.925,0,0,0,.112-.742c0-.205-.1-.306-.292-.306-.324,0-.812.362-1.473,1.084l.09-.455a2.916,2.916,0,0,1,1.941-1.166c.475,0,.711.25.711.747a5.011,5.011,0,0,1-.112.834l-.242,1.222h.07a7.905,7.905,0,0,1,1.38-2.046,2.072,2.072,0,0,1,1.379-.758.712.712,0,0,1,.557.261.977.977,0,0,1,.224.652,3.392,3.392,0,0,1-.084.688l-.236,1.2h.071a7.032,7.032,0,0,1,1.3-2.02,2.038,2.038,0,0,1,1.368-.784q.872,0,.874.927a3.6,3.6,0,0,1-.078.682l-.481,2.411a4.928,4.928,0,0,0-.112.741c0,.208.1.312.292.312.326,0,.818-.362,1.472-1.084l-.09.458a2.928,2.928,0,0,1-1.945,1.16c-.477,0-.716-.247-.716-.745a5.186,5.186,0,0,1,.118-.84l.483-2.408a2.424,2.424,0,0,0,.071-.475c0-.273-.1-.411-.307-.411q-.86,0-2.489,2.964l-.371,1.787-.969.059.775-3.917a2.794,2.794,0,0,0,.065-.475c0-.278-.1-.419-.3-.419-.246,0-.612.29-1.092.868a12.977,12.977,0,0,0-1.411,2.135l-.359,1.748Z" transform="translate(-5610.217 -2137.1)" fill="#ee3143"/>
      </g>
    </g>
  </g>
</svg>
