<svg id="Group_8059" data-name="Group 8059" xmlns="http://www.w3.org/2000/svg" width="336.75" height="118.542" viewBox="0 0 336.75 118.542">
  <g id="Group_8052" data-name="Group 8052" transform="translate(0 0)">
    <path id="Path_8719" data-name="Path 8719" d="M2851.094,1209.33a.086.086,0,0,1-.04-.007,3.321,3.321,0,0,0-.366-.677c-.126-.173-.265-.332-.405-.492-.2-.226-.4-.445-.617-.665-.173-.179-.352-.352-.531-.525s-.345-.319-.518-.485c-.226-.212-.445-.425-.665-.644s-.411-.405-.617-.618c-.166-.173-.325-.359-.485-.545a7.193,7.193,0,0,1-.658-.9,4.924,4.924,0,0,1-.5-1.1,4.082,4.082,0,0,1-.192-1.2c0-.206.006-.412.013-.618,0-.013-.007-.026-.007-.04.02-.159.033-.319.053-.478.006-.007.013-.014.013-.02.013-.1.027-.206.047-.306a2.585,2.585,0,0,1,.644-1.322,3.437,3.437,0,0,1,.745-.711,2.923,2.923,0,0,1,.359-.226c.173-.086.359-.153.538-.226a2.4,2.4,0,0,1,1.183-.159c.02,0,.033-.007.053-.007.166.02.339.04.5.053.014.007.02.013.033.013.08.014.166.02.24.04a3.087,3.087,0,0,1,.418.133,3.527,3.527,0,0,1,.651.425,2.589,2.589,0,0,1,.512.532c.093.126.186.252.272.385a1.711,1.711,0,0,1,.239.525c.04.153.06.306.086.472.034-.053.06-.1.094-.153.093-.146.173-.3.272-.438a3.124,3.124,0,0,1,.359-.419,5.471,5.471,0,0,1,.572-.458,2.3,2.3,0,0,1,.651-.292,4.062,4.062,0,0,1,.625-.133,5.012,5.012,0,0,1,.545-.013.053.053,0,0,0,.027-.013l.372.04a.405.405,0,0,0,.047.02,3.836,3.836,0,0,1,.4.086,3.664,3.664,0,0,1,.93.445,3.187,3.187,0,0,1,.757.7,3.8,3.8,0,0,1,.339.512,2.812,2.812,0,0,1,.252.618,2.162,2.162,0,0,1,.086.545c.007.239.007.485.013.724,0,.02.007.04.007.053-.027.233-.053.465-.073.691-.007.013-.013.02-.02.033-.047.2-.086.405-.133.6a3.355,3.355,0,0,1-.4.923,4.163,4.163,0,0,1-.539.738,5.614,5.614,0,0,1-.7.678c-.239.193-.492.372-.737.558-.1.073-.206.146-.312.213-.173.113-.352.219-.525.325-.246.146-.485.286-.73.432-.16.093-.326.186-.479.286-.2.126-.393.252-.585.385l-.618.419c-.113.08-.219.159-.326.239-.206.153-.412.3-.611.459-.113.086-.226.186-.339.279C2851.24,1209.137,2851.154,1209.217,2851.094,1209.33Z" transform="translate(-2717.923 -1193.066)" fill="#fcb415" fill-rule="evenodd"/>
    <g id="Group_8048" data-name="Group 8048">
      <path id="Path_8720" data-name="Path 8720" d="M925.2,1284.352l4.225-4.318a18.217,18.217,0,0,0,11.586,4.531,9.831,9.831,0,0,0,6.81-2.358,7.759,7.759,0,0,0,2.644-6.065q0-3.647-4.989-8.059l-4.285-3.8a40.491,40.491,0,0,1-5.913-5.9,8.107,8.107,0,0,1-1.143-4.558,12.542,12.542,0,0,1,4.8-9.806,17.037,17.037,0,0,1,11.46-4.119,25.143,25.143,0,0,1,9.912,2.525l-1.521,7.633h-1.913c.04-.631.06-1.063.06-1.309a5.566,5.566,0,0,0-2.312-4.651,9.819,9.819,0,0,0-6.112-1.761,9.7,9.7,0,0,0-6.6,2.325,7.316,7.316,0,0,0-2.677,5.76,7.147,7.147,0,0,0,1.355,4.225,36.628,36.628,0,0,0,5.64,5.561l3.588,3.1q5.989,5.142,5.993,9.607,0,5.869-5.627,10.065a21.786,21.786,0,0,1-13.407,4.2A25.564,25.564,0,0,1,925.2,1284.352Z" transform="translate(-925.2 -1232.785)" fill="#ee3143"/>
      <path id="Path_8721" data-name="Path 8721" d="M1525.176,1448.881h-.552a41.2,41.2,0,0,1-8.265,12.45q-4.833,4.823-9.048,4.817-6.408,0-6.411-8.025,0-8.849,7.056-17.333,7.295-8.79,17.818-8.79,4.345,0,9.089.366l-2.186,9-2.95,15.021a31.526,31.526,0,0,0-.7,4.558q0,1.913,1.794,1.913,3.039,0,9.062-6.69l-.545,2.83q-6.667,7.146-11.972,7.142-4.415,0-4.418-4.59a30.832,30.832,0,0,1,.731-5.169Zm2.445-12.158a18.5,18.5,0,0,0-7.567-1.7q-5.531,0-8.843,7-3.886,8.271-3.893,14.868,0,4.774,2.8,4.77,2.611,0,7.521-5.488a62.031,62.031,0,0,0,8.61-12.543Z" transform="translate(-1462.653 -1412.122)" fill="#ee3143"/>
      <path id="Path_8722" data-name="Path 8722" d="M2121.9,1186.434l2.252-9.368,4.165-21.007q2.193-11,8.251-17.134a19.985,19.985,0,0,1,14.762-6.125,21.835,21.835,0,0,1,5.474.638l-4.166,4.345a15.252,15.252,0,0,0-6.079-1.614,8.253,8.253,0,0,0-7.268,3.514q-2.431,3.518-4.377,13.367l-3.283,16.516h.485a44.6,44.6,0,0,1,8.577-12.523q4.8-4.733,8.908-4.73,5.013,0,5.016,5.534a22.545,22.545,0,0,1-.518,4.378l-2.949,14.835a30.671,30.671,0,0,0-.7,4.558c0,1.275.6,1.913,1.8,1.913q3.049,0,9.088-6.69l-.544,2.83q-6.667,7.145-11.972,7.142-4.385,0-4.385-4.584a32.013,32.013,0,0,1,.7-5.162l2.976-14.882a15.535,15.535,0,0,0,.333-2.917c0-1.641-.612-2.458-1.827-2.458q-5.78,0-16.111,18.4l-2.192,10.843Z" transform="translate(-2042.396 -1132.8)" fill="#ee3143"/>
      <path id="Path_8723" data-name="Path 8723" d="M2465.6,1479.929l4.106-4.285a14.006,14.006,0,0,0,6.325,1.581q7.962,0,10.49-12.649l4.711-23.744a42.738,42.738,0,0,0,.823-5.992q0-2.551-1.946-2.551a20.051,20.051,0,0,0-4.9,1.063l.365-1.887,14.869-4.864-2.312,9.727-3.74,18.848a57.889,57.889,0,0,1-3.495,12.178,24.035,24.035,0,0,1-5.534,7.494,20.649,20.649,0,0,1-14.563,5.747A19.533,19.533,0,0,1,2465.6,1479.929Z" transform="translate(-2363.261 -1407.081)" fill="#ee3143"/>
      <path id="Path_8724" data-name="Path 8724" d="M3094.034,1452.019l-.458,2.338q-9.667,6.747-16.477,6.75a8.952,8.952,0,0,1-7.009-3.023,11.316,11.316,0,0,1-2.691-7.819q0-8.57,6.563-16.118t14.019-7.547a5.658,5.658,0,0,1,4.378,1.821,6.721,6.721,0,0,1,1.674,4.737q0,5.83-5.959,10.019a24.125,24.125,0,0,1-14.229,4.192l-.034,1.369q0,8.879,6.5,8.876Q3085.946,1457.612,3094.034,1452.019Zm-20.13-6.5q6.807-.548,10.643-3.515a9.282,9.282,0,0,0,3.834-7.68q0-4.654-3.375-4.651-3.648,0-7.056,4.85A22.927,22.927,0,0,0,3073.9,1445.515Z" transform="translate(-2925.081 -1407.081)" fill="#ee3143"/>
      <path id="Path_8725" data-name="Path 8725" d="M3601.534,1452.019l-.458,2.338q-9.667,6.747-16.477,6.75a8.952,8.952,0,0,1-7.009-3.023,11.321,11.321,0,0,1-2.691-7.819q0-8.57,6.565-16.118t14.018-7.547a5.655,5.655,0,0,1,4.378,1.821,6.721,6.721,0,0,1,1.674,4.737q0,5.83-5.959,10.019a24.128,24.128,0,0,1-14.23,4.192l-.034,1.369q0,8.879,6.5,8.876Q3593.456,1457.612,3601.534,1452.019Zm-20.124-6.5q6.806-.548,10.643-3.515a9.281,9.281,0,0,0,3.833-7.68q0-4.654-3.375-4.651-3.647,0-7.055,4.85A22.857,22.857,0,0,0,3581.411,1445.515Z" transform="translate(-3398.864 -1407.081)" fill="#ee3143"/>
      <path id="Path_8726" data-name="Path 8726" d="M4049.584,1461.113l.153-4.132q0-12-2.186-18.934t-5.926-6.943q-3.8,0-8.025,7.288l.883-4.5q5.511-7.295,10.263-7.295,10.564,0,10.564,26.6v1.674l2.485-3.01q11.071-13.373,11.074-19.452a7.353,7.353,0,0,0-2-5.076l6.5-.738a7.481,7.481,0,0,1,1.488,4.046,10.818,10.818,0,0,1-2.08,5.747,133.651,133.651,0,0,1-9.035,11.281l-10.876,12.676Z" transform="translate(-3827.091 -1407.081)" fill="#ee3143"/>
      <path id="Path_8727" data-name="Path 8727" d="M4759.675,1448.881h-.552a41.184,41.184,0,0,1-8.264,12.45q-4.833,4.823-9.049,4.817-6.406,0-6.411-8.025,0-8.849,7.056-17.333,7.293-8.79,17.817-8.79,4.347,0,9.089.366l-2.186,9-2.95,15.021a31.52,31.52,0,0,0-.7,4.558q0,1.913,1.793,1.913,3.04,0,9.063-6.69l-.544,2.83q-6.667,7.146-11.973,7.142-4.414,0-4.418-4.59a31.011,31.011,0,0,1,.731-5.169Zm2.445-12.158a18.5,18.5,0,0,0-7.567-1.7q-5.531,0-8.843,7-3.886,8.271-3.894,14.868,0,4.774,2.8,4.77,2.612,0,7.522-5.488a61.777,61.777,0,0,0,8.609-12.543Z" transform="translate(-4482.265 -1412.122)" fill="#ee3143"/>
      <path id="Path_8728" data-name="Path 8728" d="M5331.129,1460.528l2.252-9.367,2.977-15.021a30.688,30.688,0,0,0,.7-4.557c0-1.256-.6-1.887-1.793-1.887q-2.98,0-9.062,6.684l.544-2.8q6.628-7.175,11.952-7.175,4.375,0,4.377,4.557a31.24,31.24,0,0,1-.7,5.169l-1.487,7.507h.458a45.226,45.226,0,0,1,8.591-12.51q4.794-4.723,8.922-4.73,4.983,0,4.989,5.534a22.813,22.813,0,0,1-.519,4.378l-2.95,14.835a31.7,31.7,0,0,0-.7,4.557q0,1.914,1.794,1.913,3.04,0,9.088-6.683l-.578,2.823q-6.626,7.145-11.952,7.142-4.375,0-4.378-4.584a30.806,30.806,0,0,1,.732-5.162l2.95-14.882a14.479,14.479,0,0,0,.365-2.917q0-2.461-1.828-2.458-5.809,0-16.11,18.4l-2.219,10.855Z" transform="translate(-5033.814 -1406.894)" fill="#ee3143"/>
    </g>
    <g id="Group_8049" data-name="Group 8049" transform="translate(192.233 101.973)">
      <path id="Path_8729" data-name="Path 8729" d="M3825.377,2686.316l-.02-1.282v-3.667a5.254,5.254,0,0,1,.937-.066,5.9,5.9,0,0,1,.937.066v11.825a5.575,5.575,0,0,1-.937.066,6.442,6.442,0,0,1-.937-.066v-4.053l.02-1.282-.963.02H3821.5l-.984-.02.02,1.282v4.053a5.1,5.1,0,0,1-.923.066,5.5,5.5,0,0,1-.911-.066v-11.825a4.85,4.85,0,0,1,.911-.066,5.721,5.721,0,0,1,.923.066v3.667l-.02,1.282.984-.019h2.916Z" transform="translate(-3818.7 -2680.397)" fill="#3f4040"/>
      <path id="Path_8730" data-name="Path 8730" d="M3989.235,2736.926a1.635,1.635,0,0,1-.678.917,1.715,1.715,0,0,1-1.381-1.077,3.658,3.658,0,0,1-2.525,1.176,2.917,2.917,0,0,1-1.149-.206,2.46,2.46,0,0,1-.83-.565,2.351,2.351,0,0,1-.505-.811,2.761,2.761,0,0,1-.166-.963,2.593,2.593,0,0,1,.911-2.146,3.742,3.742,0,0,1,2.418-.725c.285,0,.571.007.85.027a7.722,7.722,0,0,1,.811.094v-.678c0-1.037-.472-1.555-1.422-1.555a8.082,8.082,0,0,0-2.717.678,1.677,1.677,0,0,1-.519-1.295,8.622,8.622,0,0,1,3.581-.8,2.563,2.563,0,0,1,2.836,2.89v3.548A1.881,1.881,0,0,0,3989.235,2736.926Zm-4.292-.4a2.718,2.718,0,0,0,2.04-1.037v-1.648c-.232-.02-.471-.039-.724-.052s-.518-.02-.8-.02a1.8,1.8,0,0,0-1.236.392,1.309,1.309,0,0,0-.438,1.03,1.425,1.425,0,0,0,.312.977A1.046,1.046,0,0,0,3984.943,2736.527Z" transform="translate(-3971.151 -2724.928)" fill="#3f4040"/>
      <path id="Path_8731" data-name="Path 8731" d="M4126.94,2737.035a4.005,4.005,0,0,1-1.974-.571v3a1.391,1.391,0,0,1-.219.876.92.92,0,0,1-.75.266h-.69l-.106-.106v-12.138l.106-.106h.551a.989.989,0,0,1,1.056.883,3.239,3.239,0,0,1,2.4-1.036,2.475,2.475,0,0,1,2.173,1.208,4.8,4.8,0,0,1,.572,1.409,7.978,7.978,0,0,1,.2,1.86,6.27,6.27,0,0,1-.258,1.866,4.265,4.265,0,0,1-.718,1.4,3.276,3.276,0,0,1-1.063.877A2.713,2.713,0,0,1,4126.94,2737.035Zm-.074-7.427a2.284,2.284,0,0,0-1.906,1.129v4.252a4.235,4.235,0,0,0,.877.458,2.174,2.174,0,0,0,.8.167,1.49,1.49,0,0,0,1.31-.8,4.313,4.313,0,0,0,.492-2.272,4.253,4.253,0,0,0-.452-2.219A1.3,1.3,0,0,0,4126.867,2729.608Z" transform="translate(-4102.97 -2724.088)" fill="#3f4040"/>
      <path id="Path_8732" data-name="Path 8732" d="M4265.04,2737.035a4,4,0,0,1-1.973-.571v3a1.381,1.381,0,0,1-.22.876.917.917,0,0,1-.75.266h-.691l-.1-.106v-12.138l.1-.106h.551a.992.992,0,0,1,1.058.883,3.234,3.234,0,0,1,2.4-1.036,2.478,2.478,0,0,1,2.172,1.208,4.731,4.731,0,0,1,.571,1.409,7.975,7.975,0,0,1,.2,1.86,6.2,6.2,0,0,1-.261,1.866,4.192,4.192,0,0,1-.718,1.4,3.236,3.236,0,0,1-1.062.877A2.713,2.713,0,0,1,4265.04,2737.035Zm-.067-7.427a2.288,2.288,0,0,0-1.906,1.129v4.252a4.259,4.259,0,0,0,.877.458,2.184,2.184,0,0,0,.8.167,1.489,1.489,0,0,0,1.31-.8,4.313,4.313,0,0,0,.491-2.272,4.248,4.248,0,0,0-.451-2.219A1.312,1.312,0,0,0,4264.973,2729.608Z" transform="translate(-4231.896 -2724.088)" fill="#3f4040"/>
      <path id="Path_8733" data-name="Path 8733" d="M4390.224,2685.85v7.063a4.562,4.562,0,0,1-.891.066,5.1,5.1,0,0,1-.89-.066v-6.338a1.1,1.1,0,0,0-.173-.69.724.724,0,0,0-.592-.206h-.193a2.826,2.826,0,0,1-.085-.638,3.084,3.084,0,0,1,.085-.658,8.981,8.981,0,0,1,1.091-.066h.239a1.3,1.3,0,0,1,1.029.418A1.554,1.554,0,0,1,4390.224,2685.85Zm-2.166-3.1a1.647,1.647,0,0,1-.153-.764q0-.708.26-.837a2.255,2.255,0,0,1,.863-.146,1.663,1.663,0,0,1,.884.172c.126.107.2.373.205.811a1.181,1.181,0,0,1-.205.8,1.541,1.541,0,0,1-.884.192A1.616,1.616,0,0,1,4388.058,2682.747Z" transform="translate(-4349.618 -2680.116)" fill="#3f4040"/>
      <path id="Path_8734" data-name="Path 8734" d="M4471.945,2680.081h.638a2.293,2.293,0,0,1,.153.771,2.212,2.212,0,0,1-.053.524,8.62,8.62,0,0,1-1.469.12c-1.143,0-1.713-.591-1.713-1.78v-10.91l.119-.105h.678a.9.9,0,0,1,.75.265,1.387,1.387,0,0,1,.22.871v9.454C4471.268,2679.821,4471.493,2680.081,4471.945,2680.081Z" transform="translate(-4426.264 -2668.634)" fill="#3f4040"/>
      <path id="Path_8735" data-name="Path 8735" d="M4532.308,2729.979l-2.285,8.119a14.5,14.5,0,0,1-.652,1.86,4.694,4.694,0,0,1-.776,1.256,2.644,2.644,0,0,1-1.037.711,3.877,3.877,0,0,1-1.4.226c-.092,0-.23-.007-.417-.02s-.372-.033-.551-.06a3.537,3.537,0,0,1-.484-.106c-.141-.04-.208-.094-.208-.166a2.268,2.268,0,0,1,.107-.658,1.3,1.3,0,0,1,.292-.551,3.608,3.608,0,0,0,1.35.225,1.553,1.553,0,0,0,1.209-.524,4.324,4.324,0,0,0,.8-1.622l.054-.206a1.7,1.7,0,0,1-.864-.219,1.219,1.219,0,0,1-.465-.718l-2.286-7.567a2.928,2.928,0,0,1,1.089-.26c.453,0,.751.266.9.8l1.175,3.98c.06.186.139.485.239.911s.24.97.4,1.634a.136.136,0,0,0,.152.119l1.908-7.322a3.022,3.022,0,0,1,.318-.053,3.712,3.712,0,0,1,.405-.02,4.155,4.155,0,0,1,.493.027,2.759,2.759,0,0,1,.478.093Z" transform="translate(-4477.609 -2725.58)" fill="#3f4040"/>
      <path id="Path_8736" data-name="Path 8736" d="M4727.721,2691.64l-.021.884c.346-.033.725-.053,1.144-.053h4.483a3.832,3.832,0,0,1-.052.711,1.031,1.031,0,0,1-1.176.864h-5.143a1,1,0,0,1-.771-.305,1.169,1.169,0,0,1-.285-.837v-10.6l.12-.106h6.962a4.3,4.3,0,0,1,.054.737,2.333,2.333,0,0,1-.14.824h-5.2l.021,1.123v2.425l1.076-.019h3.255a2.794,2.794,0,0,1,.087.77,2.592,2.592,0,0,1-.087.751H4728.8q-.678,0-1.076-.02Z" transform="translate(-4665.629 -2681.237)" fill="#3f4040"/>
      <path id="Path_8737" data-name="Path 8737" d="M4851.485,2736.922l2.04-7.1a3.767,3.767,0,0,1,.771-.067,2.221,2.221,0,0,1,.8.14l.054.066q-1.294,4.364-2.664,8.411a6.776,6.776,0,0,1-1.176.086,1.711,1.711,0,0,1-.943-.192,1.613,1.613,0,0,1-.479-.8l-2.391-7.515a2.517,2.517,0,0,1,1.022-.259.91.91,0,0,1,.971.764l1.163,3.806q.328,1.036.677,2.511A.151.151,0,0,0,4851.485,2736.922Z" transform="translate(-4779.15 -2725.581)" fill="#3f4040"/>
      <path id="Path_8738" data-name="Path 8738" d="M4979.029,2733.269h-5.089a3.362,3.362,0,0,0,.512,1.834,1.778,1.778,0,0,0,1.548.638,4.637,4.637,0,0,0,1.116-.152,5.544,5.544,0,0,0,1.235-.506,2.014,2.014,0,0,1,.572,1.143,5.542,5.542,0,0,1-3.255.97,3.59,3.59,0,0,1-1.661-.346,2.927,2.927,0,0,1-1.1-.95,4.07,4.07,0,0,1-.617-1.448,8.089,8.089,0,0,1-.194-1.807,6.3,6.3,0,0,1,.24-1.774,4.288,4.288,0,0,1,.69-1.409,3.142,3.142,0,0,1,1.117-.923,3.245,3.245,0,0,1,1.5-.339,3.734,3.734,0,0,1,1.482.279,3.107,3.107,0,0,1,1.1.771,3.461,3.461,0,0,1,.684,1.176,4.658,4.658,0,0,1,.232,1.481c0,.233-.007.459-.027.684A3.493,3.493,0,0,1,4979.029,2733.269Zm-3.322-3.74q-1.644,0-1.767,2.438h3.5v-.226a2.748,2.748,0,0,0-.425-1.6A1.478,1.478,0,0,0,4975.707,2729.529Z" transform="translate(-4895.472 -2724.181)" fill="#3f4040"/>
      <path id="Path_8739" data-name="Path 8739" d="M5104,2730.75a1.533,1.533,0,0,1,.657-.95,2.021,2.021,0,0,1,1.574,1.542,2.336,2.336,0,0,1,2.266-1.542,4.261,4.261,0,0,1,.917.107,3.151,3.151,0,0,1-.432,1.694,3.505,3.505,0,0,0-.711-.087,2.06,2.06,0,0,0-1.854,1.316v5.641a4.562,4.562,0,0,1-.889.066,5.142,5.142,0,0,1-.89-.066v-5.94A2.312,2.312,0,0,0,5104,2730.75Z" transform="translate(-5018.61 -2725.675)" fill="#3f4040"/>
      <path id="Path_8740" data-name="Path 8740" d="M5256.575,2690.222l-1.036.02h-2.372l-1-.02-.917,2.89a3.539,3.539,0,0,1-.777.067,3.389,3.389,0,0,1-.917-.12l-.053-.086,3.913-11.706a6.06,6.06,0,0,1,1.057-.066,6.481,6.481,0,0,1,1.036.066l3.88,11.706a1.655,1.655,0,0,1-.937.24,1.234,1.234,0,0,1-.81-.206,1.692,1.692,0,0,1-.418-.764Zm-3.945-1.488.883-.02h1.735c.471.013.764.02.863.02l-.8-2.511q-.606-1.943-.917-3.135h-.085c-.141.638-.366,1.468-.679,2.511Z" transform="translate(-5154.443 -2680.303)" fill="#3f4040"/>
      <path id="Path_8741" data-name="Path 8741" d="M5407.763,2680.5v-7.268l-1.488.033c-.02-.092-.041-.2-.054-.312a2.928,2.928,0,0,1-.021-.345,2.858,2.858,0,0,1,.067-.678l1.4.02c-.067-.7-.106-1.216-.106-1.541a3.165,3.165,0,0,1,.179-1.083,2.452,2.452,0,0,1,.525-.857,2.4,2.4,0,0,1,.831-.564,2.831,2.831,0,0,1,1.088-.2,6.206,6.206,0,0,1,2.252.4,1.665,1.665,0,0,1-.417,1.208c-.266-.08-.519-.146-.751-.192a3.373,3.373,0,0,0-.651-.067,1.292,1.292,0,0,0-1.051.392,1.821,1.821,0,0,0-.318,1.17c0,.2.014.406.033.625s.053.465.086.724l2.438-.033c.02.107.04.213.054.32a2.976,2.976,0,0,1,.019.352,3.034,3.034,0,0,1-.019.345,2.1,2.1,0,0,1-.054.312l-2.319-.033v7.268c-.126.02-.266.04-.418.053s-.306.019-.464.019-.32-.006-.466-.019A3.577,3.577,0,0,1,5407.763,2680.5Z" transform="translate(-5300.733 -2667.701)" fill="#3f4040"/>
      <path id="Path_8742" data-name="Path 8742" d="M5500.33,2694.331a2.323,2.323,0,0,1,.085.678,2.158,2.158,0,0,1-.085.658l-2.132-.033v5.162c0,.5.238.758.71.758h1.2a2.291,2.291,0,0,1,.139.777,2.633,2.633,0,0,1-.033.518,16.233,16.233,0,0,1-1.939.12,1.593,1.593,0,0,1-1.821-1.781v-5.541l-1.282.02a2.8,2.8,0,0,1-.066-.651,3.225,3.225,0,0,1,.066-.685l1.282.034v-1.521a1.431,1.431,0,0,1,.206-.884.911.911,0,0,1,.745-.259h.678l.12.119v2.564Z" transform="translate(-5383.727 -2690.106)" fill="#3f4040"/>
      <path id="Path_8743" data-name="Path 8743" d="M5597.33,2733.269h-5.089a3.354,3.354,0,0,0,.512,1.834,1.777,1.777,0,0,0,1.547.638,4.641,4.641,0,0,0,1.116-.152,5.6,5.6,0,0,0,1.236-.506,2.013,2.013,0,0,1,.571,1.143,5.541,5.541,0,0,1-3.255.97,3.589,3.589,0,0,1-1.661-.346,2.923,2.923,0,0,1-1.1-.95,4.106,4.106,0,0,1-.618-1.448,8.178,8.178,0,0,1-.192-1.807,6.3,6.3,0,0,1,.239-1.774,4.3,4.3,0,0,1,.691-1.409,3.13,3.13,0,0,1,1.116-.923,3.244,3.244,0,0,1,1.494-.339,3.733,3.733,0,0,1,1.482.279,3.09,3.09,0,0,1,1.1.771,3.452,3.452,0,0,1,.684,1.176,4.631,4.631,0,0,1,.233,1.481c0,.233-.006.459-.027.684A3.528,3.528,0,0,1,5597.33,2733.269Zm-3.322-3.74c-1.1,0-1.687.811-1.767,2.438h3.495v-.226a2.744,2.744,0,0,0-.426-1.6A1.469,1.469,0,0,0,5594.007,2729.529Z" transform="translate(-5472.696 -2724.181)" fill="#3f4040"/>
      <path id="Path_8744" data-name="Path 8744" d="M5722.4,2730.75a1.54,1.54,0,0,1,.658-.95,2.024,2.024,0,0,1,1.576,1.542,2.331,2.331,0,0,1,2.264-1.542,4.272,4.272,0,0,1,.917.107,3.147,3.147,0,0,1-.432,1.694,3.506,3.506,0,0,0-.711-.087,2.056,2.056,0,0,0-1.853,1.316v5.641a4.584,4.584,0,0,1-.891.066,5.146,5.146,0,0,1-.89-.066v-5.94A2.332,2.332,0,0,0,5722.4,2730.75Z" transform="translate(-5595.926 -2725.675)" fill="#3f4040"/>
      <path id="Path_8745" data-name="Path 8745" d="M5803.759,2829.839a2.189,2.189,0,0,1,1.075-.239,2.347,2.347,0,0,1,.519.046,1.569,1.569,0,0,1,.4.12.43.43,0,0,1,.232.312,2.582,2.582,0,0,1,.06.618,3.063,3.063,0,0,1-.046.6.414.414,0,0,1-.2.319,1.447,1.447,0,0,1-.379.133,3.324,3.324,0,0,1-.572.046,2.785,2.785,0,0,1-.563-.046,1.917,1.917,0,0,1-.406-.113.4.4,0,0,1-.226-.312,3.169,3.169,0,0,1-.053-.625A2,2,0,0,1,5803.759,2829.839Z" transform="translate(-5671.731 -2818.844)" fill="#3f4040"/>
      <path id="Path_8746" data-name="Path 8746" d="M5872.259,2829.839a2.189,2.189,0,0,1,1.076-.239,2.351,2.351,0,0,1,.519.046,1.543,1.543,0,0,1,.4.12.432.432,0,0,1,.234.312,2.512,2.512,0,0,1,.06.618,3.016,3.016,0,0,1-.047.6.41.41,0,0,1-.2.319,1.412,1.412,0,0,1-.379.133,3.314,3.314,0,0,1-.571.046,2.821,2.821,0,0,1-.565-.046,1.967,1.967,0,0,1-.405-.113.4.4,0,0,1-.225-.312,3.052,3.052,0,0,1-.054-.625A2,2,0,0,1,5872.259,2829.839Z" transform="translate(-5735.68 -2818.844)" fill="#3f4040"/>
      <path id="Path_8747" data-name="Path 8747" d="M5940.859,2829.839a2.192,2.192,0,0,1,1.076-.239,2.36,2.36,0,0,1,.519.046,1.594,1.594,0,0,1,.4.12.436.436,0,0,1,.231.312,2.508,2.508,0,0,1,.06.618,3.115,3.115,0,0,1-.045.6.415.415,0,0,1-.2.319,1.425,1.425,0,0,1-.379.133,3.331,3.331,0,0,1-.572.046,2.807,2.807,0,0,1-.564-.046,1.946,1.946,0,0,1-.406-.113.4.4,0,0,1-.226-.312,3.207,3.207,0,0,1-.053-.625A1.816,1.816,0,0,1,5940.859,2829.839Z" transform="translate(-5799.723 -2818.844)" fill="#3f4040"/>
    </g>
    <path id="Path_8748" data-name="Path 8748" d="M2430.621,2397.518c-82.813,7.029-176.4-17.965-249.355,23.313-3.135,1.774-.385,6.643,2.757,4.863,72.05-40.765,164.682-15.639,246.471-22.588C2434.055,2402.806,2434.2,2397.213,2430.621,2397.518Z" transform="translate(-2096.527 -2312.38)" fill="#fcb415"/>
    <g id="Group_8051" data-name="Group 8051" transform="translate(278.885 66.722)">
      <g id="Group_8050" data-name="Group 8050">
        <path id="Path_8749" data-name="Path 8749" d="M5123,2277.655l2.292-1.655,1.774,2.272-2.346,1.761Z" transform="translate(-5123 -2266.772)" fill="#ee3143"/>
        <path id="Path_8750" data-name="Path 8750" d="M5244.712,2146.853l-.172.91q-3.828,2.591-6.286,2.591a3.486,3.486,0,0,1-2.724-1.143,4.359,4.359,0,0,1-1.03-3.022,9.133,9.133,0,0,1,2.573-6.245,7.546,7.546,0,0,1,5.652-2.844,6.586,6.586,0,0,1,2.7.6l-.783,3h-.725l.034-.173a4.306,4.306,0,0,0,.12-.8c0-1.076-.731-1.615-2.186-1.615a3.983,3.983,0,0,0-3.421,2.192,10.267,10.267,0,0,0-1.368,5.515c0,2.113.783,3.163,2.358,3.163A9.565,9.565,0,0,0,5244.712,2146.853Z" transform="translate(-5227.093 -2137.1)" fill="#ee3143"/>
        <path id="Path_8751" data-name="Path 8751" d="M5434.874,2150.454a3.212,3.212,0,0,1-2.551-1.2,4.42,4.42,0,0,1-1.022-2.983,9.164,9.164,0,0,1,2.544-6.219,7.381,7.381,0,0,1,5.547-2.857,3.454,3.454,0,0,1,2.677,1.169,4.3,4.3,0,0,1,1.05,2.977,9.149,9.149,0,0,1-2.545,6.3A7.581,7.581,0,0,1,5434.874,2150.454Zm1.329-1.016q1.724,0,3.043-2.226a9.962,9.962,0,0,0,1.316-5.169q0-3.866-2.358-3.867c-1.117,0-2.113.765-3.009,2.293a10.076,10.076,0,0,0-1.336,5.168C5433.858,2148.169,5434.636,2149.438,5436.2,2149.438Z" transform="translate(-5410.818 -2137.193)" fill="#ee3143"/>
        <path id="Path_8752" data-name="Path 8752" d="M5626.2,2150.208l.863-3.594,1.144-5.767a11.584,11.584,0,0,0,.265-1.754c0-.485-.232-.724-.69-.724-.764,0-1.92.857-3.481,2.565l.212-1.076c1.693-1.834,3.228-2.757,4.59-2.757,1.123,0,1.682.591,1.682,1.767a11.712,11.712,0,0,1-.266,1.973l-.572,2.89h.166a18.63,18.63,0,0,1,3.262-4.837,4.9,4.9,0,0,1,3.262-1.793,1.684,1.684,0,0,1,1.316.617,2.308,2.308,0,0,1,.531,1.542,8.043,8.043,0,0,1-.2,1.628l-.558,2.843h.167a16.641,16.641,0,0,1,3.063-4.777,4.821,4.821,0,0,1,3.235-1.853q2.063,0,2.066,2.193a8.535,8.535,0,0,1-.186,1.614l-1.136,5.7a11.58,11.58,0,0,0-.266,1.753c0,.492.232.738.691.738q1.156,0,3.481-2.564l-.212,1.083q-2.552,2.741-4.6,2.744c-1.128,0-1.694-.585-1.694-1.761a12.232,12.232,0,0,1,.279-1.987l1.143-5.693a5.767,5.767,0,0,0,.167-1.123c0-.646-.239-.971-.724-.971q-2.032,0-5.886,7.01l-.877,4.226-2.293.139,1.834-9.262a6.71,6.71,0,0,0,.152-1.123c0-.657-.232-.99-.7-.99-.583,0-1.448.685-2.583,2.053a30.655,30.655,0,0,0-3.336,5.049l-.85,4.133Z" transform="translate(-5590.996 -2137.1)" fill="#ee3143"/>
      </g>
    </g>
  </g>
</svg>
