<svg xmlns="http://www.w3.org/2000/svg" width="212.223" height="74.706" viewBox="0 0 212.223 74.706">
  <g id="Group_8060" data-name="Group 8060" transform="translate(11704.622 -48.797)">
    <path id="Path_8753" data-name="Path 8753" d="M2849.025,4756.3a.057.057,0,0,1-.025,0,2.1,2.1,0,0,0-.23-.427c-.079-.109-.167-.209-.255-.31-.125-.142-.255-.28-.389-.418-.109-.113-.222-.222-.335-.331s-.218-.2-.327-.306c-.142-.134-.281-.269-.419-.407s-.26-.255-.389-.389c-.1-.108-.205-.226-.306-.343a4.512,4.512,0,0,1-.415-.565,3.109,3.109,0,0,1-.314-.69,2.581,2.581,0,0,1-.121-.758c0-.13,0-.26.008-.39,0-.008,0-.017,0-.024.012-.1.021-.2.034-.3,0,0,.008-.008.008-.013.008-.062.017-.13.03-.193a1.974,1.974,0,0,1,.054-.226,2.008,2.008,0,0,1,.352-.608,2.177,2.177,0,0,1,.469-.447,1.867,1.867,0,0,1,.226-.143c.109-.054.226-.1.339-.142a1.5,1.5,0,0,1,.745-.1c.012,0,.021,0,.033,0,.1.013.214.025.318.033.009,0,.013.009.021.009.051.008.1.013.151.025a1.912,1.912,0,0,1,.264.083,2.221,2.221,0,0,1,.41.268,1.61,1.61,0,0,1,.323.335c.059.08.117.159.172.243a1.087,1.087,0,0,1,.151.331c.025.1.038.192.054.3l.059-.1c.059-.092.109-.188.172-.276a1.977,1.977,0,0,1,.226-.264,3.5,3.5,0,0,1,.36-.29,1.471,1.471,0,0,1,.41-.184,2.476,2.476,0,0,1,.394-.083,3.225,3.225,0,0,1,.343-.009.03.03,0,0,0,.017-.008l.234.025.03.012a2.466,2.466,0,0,1,.251.055,2.306,2.306,0,0,1,.586.28,2,2,0,0,1,.477.44,2.369,2.369,0,0,1,.213.322,1.765,1.765,0,0,1,.159.39,1.361,1.361,0,0,1,.054.343c0,.151,0,.305.008.456,0,.012,0,.025,0,.034-.017.146-.033.293-.046.435,0,.009-.009.013-.013.021-.029.125-.054.255-.084.381a2.113,2.113,0,0,1-.251.582,2.635,2.635,0,0,1-.339.465,3.531,3.531,0,0,1-.444.427c-.151.122-.31.234-.465.352-.063.046-.13.092-.2.134-.109.071-.222.138-.331.205l-.46.272c-.1.059-.205.118-.3.18-.126.079-.247.159-.368.243l-.389.264c-.071.05-.138.1-.205.151-.13.1-.26.188-.385.289-.071.055-.143.117-.213.176C2849.117,4756.18,2849.063,4756.23,2849.025,4756.3Z" transform="translate(-14469.722 -4697.254)" fill="#fcb415" fill-rule="evenodd"/>
    <path id="Path_8754" data-name="Path 8754" d="M925.2,4819.314l2.663-2.721a11.483,11.483,0,0,0,7.3,2.855,6.2,6.2,0,0,0,4.292-1.486,4.89,4.89,0,0,0,1.666-3.823q0-2.3-3.144-5.078l-2.7-2.4a25.536,25.536,0,0,1-3.726-3.718,5.109,5.109,0,0,1-.72-2.872,7.9,7.9,0,0,1,3.027-6.18,10.738,10.738,0,0,1,7.222-2.6,15.849,15.849,0,0,1,6.247,1.591l-.959,4.811h-1.206c.025-.4.038-.67.038-.825a3.507,3.507,0,0,0-1.457-2.931,6.187,6.187,0,0,0-3.852-1.109,6.113,6.113,0,0,0-4.158,1.465,4.609,4.609,0,0,0-1.687,3.63,4.5,4.5,0,0,0,.854,2.663,23.092,23.092,0,0,0,3.555,3.5l2.261,1.955q3.774,3.241,3.777,6.054a7.742,7.742,0,0,1-3.546,6.343,13.727,13.727,0,0,1-8.449,2.646A16.159,16.159,0,0,1,925.2,4819.314Z" transform="translate(-12629.822 -4738.019)" fill="#fff"/>
    <path id="Path_8755" data-name="Path 8755" d="M1516.2,4994.039h-.348a25.965,25.965,0,0,1-5.208,7.846q-3.046,3.041-5.7,3.036-4.038,0-4.04-5.058,0-5.577,4.447-10.924a14.086,14.086,0,0,1,11.229-5.539q2.738,0,5.728.23l-1.377,5.673-1.859,9.467a19.869,19.869,0,0,0-.44,2.872q0,1.206,1.13,1.206,1.915,0,5.711-4.216l-.343,1.784q-4.2,4.5-7.545,4.5-2.782,0-2.784-2.894a19.445,19.445,0,0,1,.461-3.257Zm1.541-7.666a11.668,11.668,0,0,0-4.769-1.072q-3.485,0-5.573,4.409a22.423,22.423,0,0,0-2.454,9.37q0,3.009,1.763,3.006,1.645,0,4.74-3.458a39.1,39.1,0,0,0,5.426-7.9Z" transform="translate(-13181.418 -4922.076)" fill="#fff"/>
    <path id="Path_8756" data-name="Path 8756" d="M2121.9,4718l1.419-5.9,2.625-13.239q1.382-6.933,5.2-10.8a12.6,12.6,0,0,1,9.3-3.86,13.78,13.78,0,0,1,3.45.4l-2.625,2.738a9.614,9.614,0,0,0-3.831-1.018,5.2,5.2,0,0,0-4.581,2.215q-1.532,2.216-2.759,8.424l-2.069,10.409h.306a28.1,28.1,0,0,1,5.406-7.893q3.027-2.983,5.614-2.98,3.159,0,3.161,3.487a14.2,14.2,0,0,1-.326,2.759l-1.859,9.349a19.339,19.339,0,0,0-.44,2.873c0,.8.377,1.206,1.135,1.206q1.922,0,5.728-4.217l-.343,1.784q-4.2,4.5-7.545,4.5-2.763,0-2.763-2.89a20.157,20.157,0,0,1,.44-3.253l1.875-9.379a9.79,9.79,0,0,0,.209-1.837q0-1.552-1.151-1.55-3.642,0-10.153,11.6l-1.382,6.833Z" transform="translate(-13776.418 -4635.402)" fill="#fff"/>
    <path id="Path_8757" data-name="Path 8757" d="M2465.6,5011.608l2.587-2.7a8.829,8.829,0,0,0,3.986,1q5.017,0,6.611-7.972l2.969-14.963a26.958,26.958,0,0,0,.519-3.777q0-1.608-1.227-1.607a12.6,12.6,0,0,0-3.086.67l.23-1.189,9.37-3.065-1.457,6.13-2.357,11.878a36.481,36.481,0,0,1-2.2,7.674,15.141,15.141,0,0,1-3.488,4.722,13.014,13.014,0,0,1-9.177,3.622A12.282,12.282,0,0,1,2465.6,5011.608Z" transform="translate(-14105.728 -4916.901)" fill="#fff"/>
    <path id="Path_8758" data-name="Path 8758" d="M3084.186,4994.019l-.289,1.474q-6.092,4.251-10.384,4.254a5.642,5.642,0,0,1-4.417-1.905,7.133,7.133,0,0,1-1.7-4.928,15.243,15.243,0,0,1,4.137-10.157q4.139-4.754,8.834-4.756a3.566,3.566,0,0,1,2.759,1.147,4.235,4.235,0,0,1,1.055,2.985q0,3.673-3.756,6.313a15.2,15.2,0,0,1-8.968,2.642l-.021.862q0,5.6,4.1,5.594Q3079.088,4997.544,3084.186,4994.019Zm-12.686-4.1a12.406,12.406,0,0,0,6.707-2.215,5.849,5.849,0,0,0,2.416-4.839q0-2.933-2.127-2.931-2.3,0-4.447,3.056A14.432,14.432,0,0,0,3071.5,4989.92Z" transform="translate(-14682.331 -4916.901)" fill="#fff"/>
    <path id="Path_8759" data-name="Path 8759" d="M3591.685,4994.019l-.289,1.474q-6.092,4.251-10.384,4.254a5.642,5.642,0,0,1-4.417-1.905,7.136,7.136,0,0,1-1.7-4.928,15.263,15.263,0,0,1,4.137-10.157q4.139-4.754,8.834-4.756a3.566,3.566,0,0,1,2.759,1.147,4.236,4.236,0,0,1,1.055,2.985q0,3.673-3.756,6.313a15.2,15.2,0,0,1-8.968,2.642l-.021.862q0,5.6,4.1,5.594Q3586.594,4997.544,3591.685,4994.019Zm-12.682-4.1a12.407,12.407,0,0,0,6.707-2.215,5.843,5.843,0,0,0,2.416-4.839q0-2.933-2.127-2.931-2.3,0-4.447,3.056A14.392,14.392,0,0,0,3579,4989.92Z" transform="translate(-15168.582 -4916.901)" fill="#fff"/>
    <path id="Path_8760" data-name="Path 8760" d="M4043.674,4999.651l.1-2.6a41.221,41.221,0,0,0-1.377-11.933q-1.382-4.371-3.734-4.376-2.393,0-5.058,4.594l.557-2.835q3.473-4.6,6.468-4.6,6.657,0,6.657,16.765v1.055l1.566-1.9q6.977-8.428,6.979-12.259a4.632,4.632,0,0,0-1.26-3.2l4.1-.465a4.715,4.715,0,0,1,.938,2.55,6.816,6.816,0,0,1-1.311,3.622,84.1,84.1,0,0,1-5.694,7.109l-6.866,7.993Z" transform="translate(-15608.078 -4916.806)" fill="#fff"/>
    <path id="Path_8761" data-name="Path 8761" d="M4750.7,4994.039h-.347a25.969,25.969,0,0,1-5.208,7.846q-3.046,3.041-5.7,3.036-4.038,0-4.04-5.058,0-5.577,4.446-10.924a14.087,14.087,0,0,1,11.229-5.539q2.739,0,5.728.23l-1.377,5.673-1.859,9.467a19.881,19.881,0,0,0-.439,2.872q0,1.206,1.13,1.206,1.915,0,5.711-4.216l-.344,1.784q-4.2,4.5-7.545,4.5-2.782,0-2.784-2.894a19.5,19.5,0,0,1,.461-3.257Zm1.541-7.666a11.667,11.667,0,0,0-4.769-1.072q-3.485,0-5.573,4.409a22.424,22.424,0,0,0-2.453,9.37q0,3.009,1.762,3.006,1.646,0,4.74-3.458a38.931,38.931,0,0,0,5.426-7.9Z" transform="translate(-16280.494 -4922.076)" fill="#fff"/>
    <path id="Path_8762" data-name="Path 8762" d="M5329.306,4999.308l1.419-5.9,1.876-9.466a19.372,19.372,0,0,0,.439-2.872q0-1.187-1.13-1.189-1.878,0-5.711,4.211l.343-1.762q4.177-4.522,7.532-4.522,2.758,0,2.759,2.872a19.723,19.723,0,0,1-.44,3.257l-.937,4.731h.289a28.487,28.487,0,0,1,5.414-7.884q3.021-2.977,5.623-2.981,3.141,0,3.144,3.488a14.373,14.373,0,0,1-.327,2.759l-1.859,9.349a19.974,19.974,0,0,0-.439,2.872q0,1.206,1.13,1.206,1.916,0,5.728-4.211l-.364,1.779q-4.176,4.5-7.532,4.5-2.757,0-2.759-2.889a19.422,19.422,0,0,1,.461-3.253l1.859-9.379a9.11,9.11,0,0,0,.23-1.838q0-1.551-1.152-1.549-3.661,0-10.153,11.594l-1.4,6.85Z" transform="translate(-16846.559 -4916.709)" fill="#fff"/>
    <g id="Group_8054" data-name="Group 8054" transform="translate(-11583.476 113.061)">
      <path id="Path_8763" data-name="Path 8763" d="M3822.908,6235.861l-.013-.808v-2.312a3.348,3.348,0,0,1,.59-.041,3.776,3.776,0,0,1,.59.041v7.453a3.488,3.488,0,0,1-.59.042,4.1,4.1,0,0,1-.59-.042v-2.554l.013-.808-.607.013h-1.838l-.62-.013.012.808v2.554a3.191,3.191,0,0,1-.582.042,3.5,3.5,0,0,1-.574-.042v-7.453a3.091,3.091,0,0,1,.574-.041,3.657,3.657,0,0,1,.582.041v2.312l-.012.808.62-.013h1.838Z" transform="translate(-3818.7 -6232.131)" fill="#fff"/>
      <path id="Path_8764" data-name="Path 8764" d="M3986.56,6285.4a1.03,1.03,0,0,1-.427.578,1.081,1.081,0,0,1-.871-.679,2.306,2.306,0,0,1-1.591.742,1.835,1.835,0,0,1-.724-.13,1.537,1.537,0,0,1-.523-.356,1.475,1.475,0,0,1-.318-.511,1.735,1.735,0,0,1-.1-.607,1.632,1.632,0,0,1,.574-1.352,2.358,2.358,0,0,1,1.524-.457c.18,0,.36,0,.536.017a4.788,4.788,0,0,1,.511.059v-.427c0-.653-.3-.98-.9-.98a5.086,5.086,0,0,0-1.712.428,1.059,1.059,0,0,1-.327-.817,5.444,5.444,0,0,1,2.257-.5,1.616,1.616,0,0,1,1.788,1.821v2.236A1.19,1.19,0,0,0,3986.56,6285.4Zm-2.7-.251a1.713,1.713,0,0,0,1.285-.653v-1.039c-.146-.013-.3-.025-.457-.033s-.326-.013-.5-.013a1.134,1.134,0,0,0-.779.247.826.826,0,0,0-.276.649.9.9,0,0,0,.2.615A.657.657,0,0,0,3983.855,6285.145Z" transform="translate(-3975.163 -6277.833)" fill="#fff"/>
      <path id="Path_8765" data-name="Path 8765" d="M4125.558,6285.131a2.524,2.524,0,0,1-1.244-.36v1.888a.879.879,0,0,1-.138.553.58.58,0,0,1-.473.167h-.435l-.067-.067v-7.649l.067-.067h.347a.623.623,0,0,1,.666.557,2.039,2.039,0,0,1,1.515-.653,1.56,1.56,0,0,1,1.37.762,3.02,3.02,0,0,1,.36.887,5.033,5.033,0,0,1,.125,1.173,3.95,3.95,0,0,1-.163,1.176,2.678,2.678,0,0,1-.452.884,2.072,2.072,0,0,1-.67.553A1.711,1.711,0,0,1,4125.558,6285.131Zm-.046-4.681a1.439,1.439,0,0,0-1.2.711v2.68a2.674,2.674,0,0,0,.553.289,1.366,1.366,0,0,0,.506.1.939.939,0,0,0,.825-.5,2.715,2.715,0,0,0,.31-1.432,2.68,2.68,0,0,0-.285-1.4A.819.819,0,0,0,4125.511,6280.45Z" transform="translate(-4110.451 -6276.971)" fill="#fff"/>
      <path id="Path_8766" data-name="Path 8766" d="M4263.657,6285.131a2.522,2.522,0,0,1-1.243-.36v1.888a.873.873,0,0,1-.139.553.578.578,0,0,1-.473.167h-.436l-.066-.067v-7.649l.066-.067h.348a.624.624,0,0,1,.666.557,2.038,2.038,0,0,1,1.516-.653,1.565,1.565,0,0,1,1.369.762,3.006,3.006,0,0,1,.359.887,5,5,0,0,1,.126,1.173,3.918,3.918,0,0,1-.164,1.176,2.632,2.632,0,0,1-.452.884,2.053,2.053,0,0,1-.669.553A1.712,1.712,0,0,1,4263.657,6285.131Zm-.042-4.681a1.441,1.441,0,0,0-1.2.711v2.68a2.686,2.686,0,0,0,.553.289,1.368,1.368,0,0,0,.506.1.939.939,0,0,0,.825-.5,2.72,2.72,0,0,0,.31-1.432,2.676,2.676,0,0,0-.284-1.4A.827.827,0,0,0,4263.615,6280.45Z" transform="translate(-4242.77 -6276.971)" fill="#fff"/>
      <path id="Path_8767" data-name="Path 8767" d="M4389.18,6235.453v4.451a2.861,2.861,0,0,1-.561.042,3.246,3.246,0,0,1-.561-.042v-3.994a.691.691,0,0,0-.109-.436.456.456,0,0,0-.373-.129h-.122a1.785,1.785,0,0,1-.054-.4,1.931,1.931,0,0,1,.054-.415,5.553,5.553,0,0,1,.687-.042h.151a.821.821,0,0,1,.649.264A1,1,0,0,1,4389.18,6235.453Zm-1.365-1.951a1.035,1.035,0,0,1-.1-.481c0-.3.055-.473.164-.527a1.407,1.407,0,0,1,.544-.093,1.047,1.047,0,0,1,.557.109c.08.067.125.234.129.511a.743.743,0,0,1-.129.5.965.965,0,0,1-.557.121A1.018,1.018,0,0,1,4387.815,6233.5Z" transform="translate(-4363.59 -6231.843)" fill="#fff"/>
      <path id="Path_8768" data-name="Path 8768" d="M4471.041,6227.171h.4a1.444,1.444,0,0,1,.1.486,1.378,1.378,0,0,1-.033.331,5.414,5.414,0,0,1-.926.075c-.72,0-1.08-.372-1.08-1.122v-6.875l.075-.067H4470a.57.57,0,0,1,.473.167.874.874,0,0,1,.138.548v5.958C4470.614,6227.008,4470.756,6227.171,4471.041,6227.171Z" transform="translate(-4442.252 -6219.962)" fill="#fff"/>
      <path id="Path_8769" data-name="Path 8769" d="M4529.42,6281.277l-1.44,5.116a9.1,9.1,0,0,1-.411,1.172,2.965,2.965,0,0,1-.49.792,1.668,1.668,0,0,1-.653.448,2.464,2.464,0,0,1-.879.142c-.059,0-.146,0-.264-.013s-.234-.021-.347-.038a2.094,2.094,0,0,1-.306-.067c-.088-.025-.13-.059-.13-.1a1.434,1.434,0,0,1,.067-.415.829.829,0,0,1,.184-.347,2.274,2.274,0,0,0,.85.142.98.98,0,0,0,.762-.33,2.73,2.73,0,0,0,.5-1.022l.034-.13a1.065,1.065,0,0,1-.545-.138.769.769,0,0,1-.293-.452l-1.44-4.769a1.831,1.831,0,0,1,.687-.164c.285,0,.474.167.57.5l.741,2.508c.038.117.087.306.15.574s.151.611.251,1.03a.086.086,0,0,0,.1.075l1.2-4.614a1.9,1.9,0,0,1,.2-.034,2.373,2.373,0,0,1,.255-.013,2.692,2.692,0,0,1,.31.017,1.817,1.817,0,0,1,.3.059Z" transform="translate(-4494.95 -6278.505)" fill="#fff"/>
      <path id="Path_8770" data-name="Path 8770" d="M4727.048,6239.55l-.013.556c.218-.021.457-.033.72-.033h2.826a2.391,2.391,0,0,1-.033.448.65.65,0,0,1-.741.544h-3.241a.629.629,0,0,1-.486-.193.736.736,0,0,1-.179-.527v-6.678l.075-.067h4.388a2.718,2.718,0,0,1,.034.465,1.46,1.46,0,0,1-.088.519h-3.274l.013.708v1.528l.678-.012h2.051a1.764,1.764,0,0,1,.055.485,1.638,1.638,0,0,1-.055.474h-2.051c-.285,0-.511,0-.678-.013Z" transform="translate(-4687.917 -6232.993)" fill="#fff"/>
      <path id="Path_8771" data-name="Path 8771" d="M4850.012,6285.651l1.285-4.472a2.384,2.384,0,0,1,.486-.042,1.4,1.4,0,0,1,.506.088l.034.042q-.816,2.751-1.679,5.3a4.259,4.259,0,0,1-.741.054,1.075,1.075,0,0,1-.594-.122,1.012,1.012,0,0,1-.3-.5l-1.507-4.735a1.576,1.576,0,0,1,.644-.164.573.573,0,0,1,.612.481l.732,2.4q.207.653.427,1.583A.1.1,0,0,0,4850.012,6285.651Z" transform="translate(-4804.425 -6278.504)" fill="#fff"/>
      <path id="Path_8772" data-name="Path 8772" d="M4976.467,6282.795h-3.208a2.124,2.124,0,0,0,.323,1.156,1.121,1.121,0,0,0,.975.4,2.9,2.9,0,0,0,.7-.1,3.513,3.513,0,0,0,.779-.318,1.27,1.27,0,0,1,.36.721,3.5,3.5,0,0,1-2.052.611,2.268,2.268,0,0,1-1.047-.218,1.845,1.845,0,0,1-.69-.6,2.578,2.578,0,0,1-.389-.913,5.128,5.128,0,0,1-.122-1.139,3.96,3.96,0,0,1,.151-1.118,2.687,2.687,0,0,1,.435-.888,1.969,1.969,0,0,1,.7-.582,2.042,2.042,0,0,1,.942-.213,2.345,2.345,0,0,1,.934.176,1.956,1.956,0,0,1,.691.485,2.183,2.183,0,0,1,.431.741,2.933,2.933,0,0,1,.146.934c0,.146,0,.289-.017.431A2.193,2.193,0,0,1,4976.467,6282.795Zm-2.093-2.357q-1.036,0-1.114,1.537h2.2v-.143a1.732,1.732,0,0,0-.268-1.009A.93.93,0,0,0,4974.374,6280.438Z" transform="translate(-4923.809 -6277.067)" fill="#fff"/>
      <path id="Path_8773" data-name="Path 8773" d="M5104,6281.7a.967.967,0,0,1,.415-.6,1.274,1.274,0,0,1,.992.972,1.472,1.472,0,0,1,1.428-.972,2.7,2.7,0,0,1,.578.067,1.982,1.982,0,0,1-.272,1.068,2.131,2.131,0,0,0-.448-.055,1.3,1.3,0,0,0-1.168.829v3.555a2.859,2.859,0,0,1-.561.042,3.25,3.25,0,0,1-.561-.042v-3.743A1.469,1.469,0,0,0,5104,6281.7Z" transform="translate(-5050.187 -6278.504)" fill="#fff"/>
      <path id="Path_8774" data-name="Path 8774" d="M5253.959,6238.286l-.653.013h-1.5l-.632-.013-.578,1.821a2.245,2.245,0,0,1-.49.042,2.139,2.139,0,0,1-.578-.075l-.034-.054,2.466-7.378a3.8,3.8,0,0,1,.666-.042,4.061,4.061,0,0,1,.653.042l2.445,7.378a1.053,1.053,0,0,1-.59.15.778.778,0,0,1-.51-.13,1.065,1.065,0,0,1-.264-.481Zm-2.487-.938.557-.012h1.093c.3.008.481.012.544.012l-.5-1.583q-.382-1.225-.578-1.977h-.054c-.088.4-.23.925-.428,1.583Z" transform="translate(-5189.594 -6232.035)" fill="#fff"/>
      <path id="Path_8775" data-name="Path 8775" d="M5407.185,6227.164v-4.581l-.938.021c-.012-.058-.025-.125-.034-.2a1.91,1.91,0,0,1-.013-.218,1.8,1.8,0,0,1,.042-.427l.884.013c-.042-.444-.067-.767-.067-.971a2,2,0,0,1,.113-.683,1.506,1.506,0,0,1,.854-.9,1.8,1.8,0,0,1,.686-.125,3.918,3.918,0,0,1,1.419.251,1.051,1.051,0,0,1-.263.762c-.167-.051-.327-.092-.473-.122a2.169,2.169,0,0,0-.41-.042.814.814,0,0,0-.662.247,1.146,1.146,0,0,0-.2.736c0,.126.009.255.021.394s.033.293.054.457l1.537-.021c.013.067.025.134.034.2a1.888,1.888,0,0,1,.012.222,1.928,1.928,0,0,1-.012.218,1.308,1.308,0,0,1-.034.2l-1.461-.021v4.581c-.079.012-.167.025-.264.033s-.192.012-.292.012-.2,0-.293-.012A2.177,2.177,0,0,1,5407.185,6227.164Z" transform="translate(-5339.734 -6219.1)" fill="#fff"/>
      <path id="Path_8776" data-name="Path 8776" d="M5498.4,6244.759a1.475,1.475,0,0,1,.054.427,1.367,1.367,0,0,1-.054.415l-1.344-.021v3.253c0,.318.15.477.448.477h.753a1.441,1.441,0,0,1,.088.49,1.641,1.641,0,0,1-.021.327,10.222,10.222,0,0,1-1.222.075,1,1,0,0,1-1.147-1.122v-3.492l-.808.013a1.764,1.764,0,0,1-.042-.411,2.034,2.034,0,0,1,.042-.431l.808.021v-.959a.9.9,0,0,1,.13-.557.573.573,0,0,1,.469-.164h.427l.075.076v1.616Z" transform="translate(-5424.912 -6242.096)" fill="#fff"/>
      <path id="Path_8777" data-name="Path 8777" d="M5594.768,6282.795h-3.208a2.12,2.12,0,0,0,.323,1.156,1.121,1.121,0,0,0,.976.4,2.9,2.9,0,0,0,.7-.1,3.542,3.542,0,0,0,.779-.318,1.27,1.27,0,0,1,.36.721,3.5,3.5,0,0,1-2.051.611,2.265,2.265,0,0,1-1.047-.218,1.846,1.846,0,0,1-.691-.6,2.587,2.587,0,0,1-.389-.913,5.157,5.157,0,0,1-.122-1.139,3.978,3.978,0,0,1,.151-1.118,2.707,2.707,0,0,1,.436-.888,1.968,1.968,0,0,1,.7-.582,2.044,2.044,0,0,1,.942-.213,2.345,2.345,0,0,1,.934.176,1.947,1.947,0,0,1,.691.485,2.182,2.182,0,0,1,.431.741,2.919,2.919,0,0,1,.147.934c0,.146,0,.289-.017.431A2.23,2.23,0,0,1,5594.768,6282.795Zm-2.094-2.357c-.69,0-1.063.511-1.114,1.537h2.2v-.143a1.728,1.728,0,0,0-.269-1.009A.925.925,0,0,0,5592.674,6280.438Z" transform="translate(-5516.222 -6277.067)" fill="#fff"/>
      <path id="Path_8778" data-name="Path 8778" d="M5722.4,6281.7a.969.969,0,0,1,.415-.6,1.275,1.275,0,0,1,.993.972,1.47,1.47,0,0,1,1.427-.972,2.707,2.707,0,0,1,.578.067,1.982,1.982,0,0,1-.272,1.068,2.133,2.133,0,0,0-.448-.055,1.3,1.3,0,0,0-1.167.829v3.555a2.866,2.866,0,0,1-.562.042,3.254,3.254,0,0,1-.561-.042v-3.743A1.481,1.481,0,0,0,5722.4,6281.7Z" transform="translate(-5642.695 -6278.504)" fill="#fff"/>
      <path id="Path_8779" data-name="Path 8779" d="M5803.7,6381.15a1.382,1.382,0,0,1,.678-.15,1.5,1.5,0,0,1,.327.03.988.988,0,0,1,.251.075.272.272,0,0,1,.146.2,1.616,1.616,0,0,1,.038.389,1.906,1.906,0,0,1-.029.377.26.26,0,0,1-.125.2.9.9,0,0,1-.239.083,2.148,2.148,0,0,1-.361.025,2.185,2.185,0,0,1-.355-.025,1.2,1.2,0,0,1-.256-.071.253.253,0,0,1-.143-.2,1.99,1.99,0,0,1-.033-.394A1.266,1.266,0,0,1,5803.7,6381.15Z" transform="translate(-5720.495 -6374.222)" fill="#fff"/>
      <path id="Path_8780" data-name="Path 8780" d="M5872.2,6381.15a1.383,1.383,0,0,1,.678-.15,1.493,1.493,0,0,1,.327.03.982.982,0,0,1,.251.075.271.271,0,0,1,.147.2,1.592,1.592,0,0,1,.038.389,1.9,1.9,0,0,1-.03.377.259.259,0,0,1-.125.2.9.9,0,0,1-.239.083,2.14,2.14,0,0,1-.36.025,2.2,2.2,0,0,1-.356-.025,1.225,1.225,0,0,1-.255-.071.251.251,0,0,1-.142-.2,1.949,1.949,0,0,1-.034-.394A1.266,1.266,0,0,1,5872.2,6381.15Z" transform="translate(-5786.126 -6374.222)" fill="#fff"/>
      <path id="Path_8781" data-name="Path 8781" d="M5940.8,6381.15a1.384,1.384,0,0,1,.678-.15,1.5,1.5,0,0,1,.327.03,1,1,0,0,1,.251.075.274.274,0,0,1,.146.2,1.592,1.592,0,0,1,.038.389,1.953,1.953,0,0,1-.028.377.261.261,0,0,1-.126.2.9.9,0,0,1-.239.083,2.146,2.146,0,0,1-.36.025,2.193,2.193,0,0,1-.356-.025,1.208,1.208,0,0,1-.255-.071.253.253,0,0,1-.142-.2,1.985,1.985,0,0,1-.034-.394A1.151,1.151,0,0,1,5940.8,6381.15Z" transform="translate(-5851.854 -6374.222)" fill="#fff"/>
    </g>
    <path id="Path_8782" data-name="Path 8782" d="M2337.9,5948.376c-52.189,4.429-111.17-11.322-157.146,14.692a1.763,1.763,0,0,0,1.738,3.065c45.406-25.691,103.784-9.856,155.329-14.236C2340.065,5951.713,2340.157,5948.188,2337.9,5948.376Z" transform="translate(-13831.974 -5845.928)" fill="#fcb415"/>
    <g id="Group_8056" data-name="Group 8056" transform="translate(-11528.866 90.842)">
      <g id="Group_8055" data-name="Group 8055">
        <path id="Path_8783" data-name="Path 8783" d="M5123,5828.442l1.444-1.042,1.118,1.432-1.478,1.11Z" transform="translate(-5123 -5821.581)" fill="#fff"/>
        <path id="Path_8784" data-name="Path 8784" d="M5240.936,5694.646l-.108.574a7.724,7.724,0,0,1-3.961,1.632,2.2,2.2,0,0,1-1.716-.72,2.751,2.751,0,0,1-.649-1.905,5.757,5.757,0,0,1,1.621-3.936,4.755,4.755,0,0,1,3.563-1.792,4.15,4.15,0,0,1,1.7.376l-.494,1.893h-.456l.021-.109a2.713,2.713,0,0,0,.076-.507c0-.679-.461-1.018-1.378-1.018a2.511,2.511,0,0,0-2.156,1.382,6.47,6.47,0,0,0-.862,3.475c0,1.332.494,1.993,1.486,1.993A6.053,6.053,0,0,0,5240.936,5694.646Z" transform="translate(-5229.833 -5688.496)" fill="#fff"/>
        <path id="Path_8785" data-name="Path 8785" d="M5433.553,5696.853a2.024,2.024,0,0,1-1.608-.753,2.786,2.786,0,0,1-.645-1.879,5.774,5.774,0,0,1,1.6-3.919,4.65,4.65,0,0,1,3.5-1.8,2.176,2.176,0,0,1,1.687.736,2.708,2.708,0,0,1,.662,1.876,5.763,5.763,0,0,1-1.6,3.969A4.777,4.777,0,0,1,5433.553,5696.853Zm.837-.64a2.33,2.33,0,0,0,1.918-1.4,6.283,6.283,0,0,0,.829-3.258q0-2.437-1.486-2.437c-.7,0-1.332.482-1.9,1.445a6.352,6.352,0,0,0-.842,3.257C5432.912,5695.417,5433.4,5696.212,5434.39,5696.212Z" transform="translate(-5418.392 -5688.496)" fill="#fff"/>
        <path id="Path_8786" data-name="Path 8786" d="M5625.5,5696.662l.544-2.265.721-3.634a7.334,7.334,0,0,0,.167-1.105c0-.306-.146-.456-.435-.456-.481,0-1.21.54-2.194,1.616l.134-.679a4.35,4.35,0,0,1,2.893-1.737c.708,0,1.06.373,1.06,1.114a7.392,7.392,0,0,1-.167,1.243l-.36,1.822h.1a11.733,11.733,0,0,1,2.056-3.049,3.086,3.086,0,0,1,2.056-1.13,1.06,1.06,0,0,1,.829.39,1.452,1.452,0,0,1,.334.971,5.041,5.041,0,0,1-.125,1.025l-.352,1.793h.1a10.486,10.486,0,0,1,1.93-3.011,3.04,3.04,0,0,1,2.039-1.168q1.3,0,1.3,1.381a5.374,5.374,0,0,1-.117,1.018l-.716,3.592a7.266,7.266,0,0,0-.167,1.105c0,.31.146.465.436.465q.728,0,2.194-1.617l-.134.683a4.365,4.365,0,0,1-2.9,1.729c-.711,0-1.067-.368-1.067-1.109a7.684,7.684,0,0,1,.176-1.252l.72-3.588a3.633,3.633,0,0,0,.1-.708c0-.406-.151-.611-.457-.611q-1.281,0-3.709,4.417l-.553,2.663-1.445.088,1.156-5.836a4.242,4.242,0,0,0,.1-.708c0-.415-.146-.624-.44-.624-.368,0-.913.431-1.628,1.294a19.322,19.322,0,0,0-2.1,3.181l-.536,2.6Z" transform="translate(-5603.312 -5688.4)" fill="#fff"/>
      </g>
    </g>
  </g>
</svg>
