<svg id="notification" xmlns="http://www.w3.org/2000/svg" width="39.961" height="39.961" viewBox="0 0 39.961 39.961">
  <path id="Path_5649" data-name="Path 5649" d="M15.3,39.961a5.864,5.864,0,0,0,5.736-4.683h9.484V33.421A5.134,5.134,0,0,0,29,29.767a2.808,2.808,0,0,1-.828-2V21.006a10.354,10.354,0,0,0,1.171.067A10.537,10.537,0,1,0,21.251,3.8a12.825,12.825,0,0,0-4.783-1.4V0H14.127V2.395A12.926,12.926,0,0,0,2.341,15.219V27.769a2.808,2.808,0,0,1-.828,2A5.134,5.134,0,0,0,0,33.421v1.857H9.562A5.864,5.864,0,0,0,15.3,39.961Zm0-2.341a3.517,3.517,0,0,1-3.311-2.342h6.622A3.517,3.517,0,0,1,15.3,37.619ZM29.346,2.341a8.2,8.2,0,1,1,0,16.39,8.493,8.493,0,0,1-3.676-.873l-2.177.544v-2.17a8.349,8.349,0,0,1-2.341-5.7A8.2,8.2,0,0,1,29.346,2.341ZM3.169,31.423a5.134,5.134,0,0,0,1.514-3.654V15.219A10.6,10.6,0,0,1,19.954,5.765a10.428,10.428,0,0,0,1.2,11.333v4.3l4.318-1.08c.121.048.243.094.365.137v7.309a5.134,5.134,0,0,0,1.514,3.654,2.806,2.806,0,0,1,.787,1.514H2.383a2.805,2.805,0,0,1,.787-1.514Z" transform="translate(0)" fill="#fff"/>
  <path id="Path_5650" data-name="Path 5650" d="M301,120h2.341v2.341H301Z" transform="translate(-277.507 -110.634)" fill="#fff"/>
  <path id="Path_5651" data-name="Path 5651" d="M361,120h2.341v2.341H361Z" transform="translate(-332.825 -110.634)" fill="#fff"/>
  <path id="Path_5652" data-name="Path 5652" d="M421,120h2.341v2.341H421Z" transform="translate(-388.142 -110.634)" fill="#fff"/>
</svg>
