<svg xmlns="http://www.w3.org/2000/svg" width="41.889" height="40.492" viewBox="0 0 41.889 40.492">
  <g id="_1035074" data-name="1035074" transform="translate(0 -8.531)">
    <g id="Group_7986" data-name="Group 7986" transform="translate(0 8.531)">
      <g id="Group_7985" data-name="Group 7985" transform="translate(0 0)">
        <path id="Path_8489" data-name="Path 8489" d="M38.4,8.531H3.491A3.5,3.5,0,0,0,0,12.022V36.456a3.5,3.5,0,0,0,3.491,3.491h11.17v3.491H11.17a2.094,2.094,0,0,0-2.094,2.094v1.4a.7.7,0,0,0,.7.7H29.03a23.355,23.355,0,0,0,2.041,1.305.7.7,0,0,0,.69,0c10.012-5.682,10.127-15,10.127-15.4V12.022A3.5,3.5,0,0,0,38.4,8.531ZM3.491,38.551A2.094,2.094,0,0,1,1.4,36.456V34.362h19.6a17.221,17.221,0,0,0,.988,4.189Zm.7-5.585V29.475H9.774v3.491Zm18.372,6.981a18.725,18.725,0,0,0,2.108,3.491H16.057V39.947ZM10.472,46.23v-.7a.7.7,0,0,1,.7-.7H25.84c.436.472.916.938,1.433,1.4h-16.8Zm30.02-12.7c0,.357-.135,8.7-9.076,13.985A19.9,19.9,0,0,1,26.7,43.705a.622.622,0,0,0-.07-.082A17.458,17.458,0,0,1,23.708,39.1a.687.687,0,0,0-.1-.231,14.924,14.924,0,0,1-1.268-5.33V24.588a.7.7,0,0,1,.7-.7H39.794a.7.7,0,0,1,.7.7Zm0-10.911a2.069,2.069,0,0,0-.7-.128H23.038a2.094,2.094,0,0,0-2.094,2.094v.7H4.189a.7.7,0,1,0,0,1.4H20.944v6.283H13.963V29.475H18.85a.7.7,0,1,0,0-1.4H13.963a1.4,1.4,0,0,0-1.4,1.4v3.491h-1.4V29.475a1.4,1.4,0,0,0-1.4-1.4H4.189a1.4,1.4,0,0,0-1.4,1.4v3.491H1.4V12.022A2.094,2.094,0,0,1,3.491,9.927H38.4a2.094,2.094,0,0,1,2.094,2.094v10.6Z" transform="translate(0 -8.531)" fill="#fff"/>
        <path id="Path_8490" data-name="Path 8490" d="M48.963,42.568a6.283,6.283,0,0,0-3.951,11.169v0l.013.01a6.255,6.255,0,0,0,7.855.013l.034-.025a6.283,6.283,0,0,0-3.951-11.169ZM46.182,52.874h0A2.793,2.793,0,0,1,47.628,50.6a2.687,2.687,0,0,0,2.67,0,2.793,2.793,0,0,1,1.444,2.275A4.862,4.862,0,0,1,46.182,52.874Zm1.383-4.713a1.4,1.4,0,1,1,1.4,1.4A1.4,1.4,0,0,1,47.565,48.161Zm5.359,3.546a4.189,4.189,0,0,0-1.589-2.1,2.764,2.764,0,0,0,.419-1.448,2.793,2.793,0,0,0-5.585,0,2.764,2.764,0,0,0,.419,1.448A4.189,4.189,0,0,0,45,51.707a4.886,4.886,0,1,1,7.925,0Z" transform="translate(-39.188 -39.783)" fill="#fff"/>
        <path id="Path_8491" data-name="Path 8491" d="M234.278,68.264H214.032a.7.7,0,0,0,0,1.4h20.246a.7.7,0,1,0,0-1.4Z" transform="translate(-195.881 -63.377)" fill="#fff"/>
        <path id="Path_8492" data-name="Path 8492" d="M234.278,102.4H214.032a.7.7,0,0,0,0,1.4h20.246a.7.7,0,1,0,0-1.4Z" transform="translate(-195.881 -94.719)" fill="#fff"/>
        <path id="Path_8493" data-name="Path 8493" d="M221.013,136.531h-6.981a.7.7,0,0,0,0,1.4h6.981a.7.7,0,1,0,0-1.4Z" transform="translate(-195.881 -126.059)" fill="#fff"/>
        <path id="Path_8494" data-name="Path 8494" d="M382.271,213.331a.7.7,0,1,0,0,1.4v6.842c0,.263-.178,6.508-6.676,10.938a.7.7,0,1,0,.786,1.153,15.89,15.89,0,0,0,7.286-12.081v-6.851A1.4,1.4,0,0,0,382.271,213.331Z" transform="translate(-344.571 -196.576)" fill="#fff"/>
        <path id="Path_8495" data-name="Path 8495" d="M291.529,221.58v-6.851h7.68a.7.7,0,0,0,0-1.4h-7.68a1.4,1.4,0,0,0-1.4,1.4v6.851a14.884,14.884,0,0,0,2.925,7.889.7.7,0,1,0,1.131-.82A13.593,13.593,0,0,1,291.529,221.58Z" transform="translate(-266.396 -196.577)" fill="#fff"/>
        <path id="Path_8496" data-name="Path 8496" d="M349.6,272.2a.7.7,0,0,0-.987,0l-5.179,5.179-.815-.815a.7.7,0,0,0-.987.987l1.309,1.309a.7.7,0,0,0,.987,0l5.672-5.672A.7.7,0,0,0,349.6,272.2Z" transform="translate(-313.505 -250.445)" fill="#fff"/>
      </g>
    </g>
  </g>
</svg>
