<svg xmlns="http://www.w3.org/2000/svg" width="79.201" height="79.236" viewBox="0 0 79.201 79.236">
  <g id="Page-1" transform="translate(0.003 0.03)">
    <g id="_014---Connections" data-name="014---Connections" transform="translate(-0.003 -0.03)">
      <path id="Shape" d="M17.28,53H13.32a1.32,1.32,0,0,0,0,2.64h3.96a1.32,1.32,0,1,0,0-2.64Z" transform="translate(2.523 15.677)" fill="#fff"/>
      <circle id="Oval" cx="1.32" cy="1.32" r="1.32" transform="translate(6.603 68.677)" fill="#fff"/>
      <circle id="Oval-2" data-name="Oval" cx="1.32" cy="1.32" r="1.32" transform="translate(10.563 68.677)" fill="#fff"/>
      <path id="Shape-2" data-name="Shape" d="M68.318,1.01A11.844,11.844,0,0,0,56.744,15.529H52.172a11.879,11.879,0,1,0-23.146,0H24.453a11.879,11.879,0,1,0-20.6,5.057,6.336,6.336,0,0,0-.209,1.543V64.367A2.64,2.64,0,0,0,1,67.007v3.96a9.25,9.25,0,0,0,9.24,9.24H70.957a9.25,9.25,0,0,0,9.24-9.24v-3.96a2.64,2.64,0,0,0-2.64-2.64V22.129a6.336,6.336,0,0,0-.209-1.543A11.864,11.864,0,0,0,68.318,1.01Zm0,2.64A9.222,9.222,0,0,1,75.81,18.274a7.905,7.905,0,0,0-3-3.966,5.28,5.28,0,1,0-8.983,0,7.905,7.905,0,0,0-3,3.966,9.222,9.222,0,0,1,7.5-14.625ZM63.063,20.479a5.28,5.28,0,0,1,2.73-4.3,5.08,5.08,0,0,0,5.05,0,5.28,5.28,0,0,1,2.73,4.3,9.192,9.192,0,0,1-10.509,0Zm5.255-6.27a2.64,2.64,0,1,1,1.867-.773,2.64,2.64,0,0,1-1.867.773Zm-10.625,3.96a11.944,11.944,0,0,0,4.629,4.958L50.674,33.674a15.768,15.768,0,0,0-8.755-3.559V24.691a11.891,11.891,0,0,0,9.306-6.522ZM32.679,56.423a7.887,7.887,0,0,1,3.564-6.576,7.887,7.887,0,0,0,8.712,0,7.887,7.887,0,0,1,3.564,6.576A13.1,13.1,0,0,1,32.679,56.423Zm7.92-7.9a5.28,5.28,0,1,1,5.28-5.28A5.28,5.28,0,0,1,40.6,48.527Zm10.284,5.615A10.5,10.5,0,0,0,46.923,48a7.92,7.92,0,1,0-12.637,0,10.5,10.5,0,0,0-3.96,6.14,13.2,13.2,0,1,1,20.567,0ZM40.6,14.209a2.64,2.64,0,1,1,1.867-.773,2.64,2.64,0,0,1-1.867.773Zm-2.525,1.968a5.08,5.08,0,0,0,5.05,0,5.28,5.28,0,0,1,2.73,4.3,9.192,9.192,0,0,1-10.509,0A5.28,5.28,0,0,1,38.074,16.177ZM40.6,3.65a9.222,9.222,0,0,1,7.492,14.625,7.905,7.905,0,0,0-3-3.966,5.28,5.28,0,1,0-8.983,0,7.905,7.905,0,0,0-3,3.966A9.222,9.222,0,0,1,40.6,3.65ZM29.974,18.169a11.891,11.891,0,0,0,9.306,6.522v5.425a15.768,15.768,0,0,0-8.755,3.564L18.877,23.132a11.944,11.944,0,0,0,4.629-4.963ZM12.88,14.209a2.64,2.64,0,1,1,1.867-.773,2.64,2.64,0,0,1-1.867.773Zm-2.525,1.968a5.08,5.08,0,0,0,5.05,0,5.28,5.28,0,0,1,2.73,4.3,9.192,9.192,0,0,1-10.509,0A5.28,5.28,0,0,1,10.355,16.177ZM12.88,3.65a9.222,9.222,0,0,1,7.492,14.625,7.905,7.905,0,0,0-3-3.966,5.28,5.28,0,1,0-8.983,0,7.905,7.905,0,0,0-3,3.966A9.222,9.222,0,0,1,12.88,3.65ZM77.557,70.966a6.608,6.608,0,0,1-6.6,6.6H10.24a6.608,6.608,0,0,1-6.6-6.6v-3.96H26.08v1.32a5.28,5.28,0,0,0,5.28,5.28H49.839a5.28,5.28,0,0,0,5.28-5.28v-1.32H77.557ZM28.72,67.007H52.478v1.32a2.64,2.64,0,0,1-2.64,2.64H31.359a2.64,2.64,0,0,1-2.64-2.64ZM53.8,64.367H6.281V22.76a11.806,11.806,0,0,0,9.939,1.523L28.642,35.531a15.839,15.839,0,1,0,23.915,0L64.978,24.283a11.806,11.806,0,0,0,9.939-1.523V64.367Z" transform="translate(-0.997 -0.97)" fill="#fff"/>
      <path id="Shape-3" data-name="Shape" d="M9.32,42.64h1.32a1.32,1.32,0,1,0,0-2.64H9.32a1.32,1.32,0,0,0,0,2.64Z" transform="translate(1.243 11.518)" fill="#fff"/>
      <path id="Shape-4" data-name="Shape" d="M16.96,40H14.32a1.32,1.32,0,0,0,0,2.64h2.64a1.32,1.32,0,1,0,0-2.64Z" transform="translate(2.843 11.518)" fill="#fff"/>
      <path id="Shape-5" data-name="Shape" d="M18.56,44H9.32a1.32,1.32,0,0,0,0,2.64h9.24a1.32,1.32,0,0,0,0-2.64Z" transform="translate(1.243 12.797)" fill="#fff"/>
      <path id="Shape-6" data-name="Shape" d="M46.32,42.64h1.32a1.32,1.32,0,1,0,0-2.64H46.32a1.32,1.32,0,0,0,0,2.64Z" transform="translate(13.081 11.518)" fill="#fff"/>
      <path id="Shape-7" data-name="Shape" d="M53.96,40H51.32a1.32,1.32,0,0,0,0,2.64h2.64a1.32,1.32,0,0,0,0-2.64Z" transform="translate(14.681 11.518)" fill="#fff"/>
      <path id="Shape-8" data-name="Shape" d="M55.56,44H46.32a1.32,1.32,0,0,0,0,2.64h9.24a1.32,1.32,0,0,0,0-2.64Z" transform="translate(13.081 12.797)" fill="#fff"/>
    </g>
  </g>
</svg>
