<svg xmlns="http://www.w3.org/2000/svg" width="38.262" height="38.265" viewBox="0 0 38.262 38.265">
  <g id="Page-1" transform="translate(0.1 0.103)">
    <g id="_001---Degree" data-name="001---Degree" transform="translate(0 0)">
      <path id="Shape" d="M37.221,6.419,19.465.075a1.3,1.3,0,0,0-.867,0L.847,6.419a1.269,1.269,0,0,0,0,2.387l8.672,3.1V15.86c0,2.466,8.542,2.537,9.515,2.537s9.515-.071,9.515-2.537V11.9l1.9-.676v1.459a1.269,1.269,0,0,0,1.269,1.269H32.99a1.269,1.269,0,0,0,1.269-1.269v-1.9a1.876,1.876,0,0,0-.207-.844l3.172-1.134a1.269,1.269,0,0,0,0-2.387Zm-9.94,8.045c-2.416-1.1-7.508-1.142-8.247-1.142s-5.83.042-8.247,1.142V8.937c.381-.488,3.372-1.325,8.247-1.325s7.866.836,8.247,1.325Zm-8.247,2.664c-4.694,0-7.642-.775-8.193-1.269.551-.494,3.5-1.269,8.193-1.269s7.642.775,8.193,1.269C26.676,16.353,23.728,17.128,19.034,17.128ZM30.75,9.773l-2.2.785V8.882c0-2.466-8.542-2.537-9.515-2.537s-9.515.071-9.515,2.537v1.675L1.272,7.613,19.043,1.269,31.721,5.8V9A1.907,1.907,0,0,0,30.75,9.773Zm2.24,2.915H31.721v-1.9a.634.634,0,1,1,1.269,0Zm0-3.715V6.253L36.8,7.613Z" transform="translate(-0.003 -0.001)" fill="#6d6d6d" stroke="#6d6d6d" stroke-width="0.2"/>
      <path id="Shape-2" data-name="Shape" d="M36.159,31a.62.62,0,0,0-.114.01,106.217,106.217,0,0,1-17.014,1.259A106.218,106.218,0,0,1,2.017,31.01.715.715,0,0,0,1.9,31c-.444,0-1.9.5-1.9,6.978s1.459,6.978,1.9,6.978a.722.722,0,0,0,.114-.011,99.214,99.214,0,0,1,13.068-1.191l-1.238,2.97a1.264,1.264,0,0,0,1.677,1.628l.485-.207.21.483a1.262,1.262,0,0,0,1.167.769H17.4a1.264,1.264,0,0,0,1.163-.792l1.1-2.638,1.1,2.628a1.269,1.269,0,0,0,1.167.8h.019a1.26,1.26,0,0,0,1.162-.761l.212-.487.478.2a1.264,1.264,0,0,0,1.68-1.636l-1.214-2.912a96.72,96.72,0,0,1,11.781,1.142.621.621,0,0,0,.11.008c.444,0,1.9-.5,1.9-6.978S36.6,31,36.159,31Zm-15.1,2.518a13.36,13.36,0,0,1,.457,2.967,4.4,4.4,0,0,0-4.416.41,17.138,17.138,0,0,0-.436-3.382q1.153.024,2.364.024C19.724,33.537,20.4,33.53,21.061,33.518Zm-1.4,10.169a3.172,3.172,0,1,1,3.172-3.172A3.172,3.172,0,0,1,19.665,43.687ZM1.9,32.586a17.792,17.792,0,0,1,.634,5.392A17.792,17.792,0,0,1,1.9,43.37a17.792,17.792,0,0,1-.634-5.392A17.792,17.792,0,0,1,1.9,32.586ZM3.185,43.478a17.716,17.716,0,0,0,.622-5.5,17.706,17.706,0,0,0-.622-5.5,111.3,111.3,0,0,0,12.158,1,16.33,16.33,0,0,1,.518,4.5c0,.092,0,.18,0,.268a4.395,4.395,0,0,0-.2,4.156l-.028.067a110.483,110.483,0,0,0-12.439,1.01Zm14.2,4.65-.463-1.066a.634.634,0,0,0-.832-.33l-1.068.472,1.488-3.566a4.436,4.436,0,0,0,2.241,1.224Zm5.853-1.4a.634.634,0,0,0-.832.33l-.469,1.055-1.36-3.256a4.441,4.441,0,0,0,2.242-1.225l1.484,3.552Zm12.793-3.077a102.734,102.734,0,0,0-12.307-1.142L23.68,42.4a4.415,4.415,0,0,0-.855-5,17.657,17.657,0,0,0-.453-3.908A105.888,105.888,0,0,0,36.032,32.3c.294.5.761,2.477.761,5.678S36.323,43.156,36.032,43.656Z" transform="translate(0 -11.335)" fill="#6d6d6d" stroke="#6d6d6d" stroke-width="0.2"/>
    </g>
  </g>
</svg>
