<svg xmlns="http://www.w3.org/2000/svg" width="14.998" height="14.998" viewBox="0 0 14.998 14.998">
  <g id="Page-1" transform="translate(0.1 0.1)">
    <g id="_015---Email-Address" data-name="015---Email-Address" transform="translate(0 0)">
      <path id="Shape" d="M14.571,5.893l0,0a1.225,1.225,0,0,0-.179-.2L11.673,3.256a4.434,4.434,0,0,0-8.548,0L.41,5.689A1.233,1.233,0,0,0,0,6.608v6.958A1.235,1.235,0,0,0,1.233,14.8H13.565A1.235,1.235,0,0,0,14.8,13.566V6.608a1.234,1.234,0,0,0-.224-.707s0-.006,0-.008Zm-.266.715v6.958a.736.736,0,0,1-.126.413L9.009,10.235l5.266-3.822A.736.736,0,0,1,14.3,6.608ZM7.4.494A3.946,3.946,0,1,1,3.453,4.44,3.946,3.946,0,0,1,7.4.494ZM2.979,4.048c-.011.129-.02.26-.02.392a4.439,4.439,0,1,0,8.879,0c0-.132-.008-.262-.02-.391L14,6l-6.18,4.486a.741.741,0,0,1-.855.01l-.656-.453,0,0L.658,6.147a.727.727,0,0,1,.081-.09Zm-2.36,9.93a.736.736,0,0,1-.126-.413V6.632l5.257,3.629Zm.614.327a.731.731,0,0,1-.187-.027l5.135-3.72.5.347a1.234,1.234,0,0,0,1.425-.017l.48-.349,5.163,3.739a.731.731,0,0,1-.187.027Z" transform="translate(0 -0.001)" fill="#fff" stroke="#fff" stroke-width="0.2"/>
      <path id="Shape-2" data-name="Shape" d="M16.269,8.8a3.452,3.452,0,0,0,5.623,1.1.247.247,0,0,0-.349-.349,2.949,2.949,0,0,1-.941.634A2.961,2.961,0,1,1,22.41,7.457v.617a.617.617,0,0,1-1.233,0v-2.1a.247.247,0,0,0-.493,0v.274a1.726,1.726,0,1,0,.108,2.291A1.108,1.108,0,0,0,22.9,8.073V7.457A3.453,3.453,0,1,0,16.269,8.8ZM19.45,8.69a1.233,1.233,0,1,1,1.233-1.233A1.233,1.233,0,0,1,19.45,8.69Z" transform="translate(-12.051 -3.017)" fill="#fff" stroke="#fff" stroke-width="0.2"/>
    </g>
  </g>
</svg>
