<svg xmlns="http://www.w3.org/2000/svg" width="72" height="72" viewBox="0 0 72 72">
  <g id="Group_8159" data-name="Group 8159" transform="translate(-11902 -10671)">
    <circle id="Ellipse_424" data-name="Ellipse 424" cx="36" cy="36" r="36" transform="translate(11902 10671)" opacity="0.1"/>
    <g id="_2464105" data-name="2464105" transform="translate(11914 10682)">
      <g id="Group_8157" data-name="Group 8157" transform="translate(1.742 1.742)">
        <g id="Group_8133" data-name="Group 8133" transform="translate(22.258 27.734)">
          <path id="Path_8811" data-name="Path 8811" d="M45.1,47.564l-.482,1.922-1.744.438a4.549,4.549,0,0,0-3.45,4.415v.208A17.7,17.7,0,0,1,32,56.163v-8.9a8.9,8.9,0,0,0,8.844-7.879l.082.007a4.509,4.509,0,0,0-.022.453V40.4a5.667,5.667,0,0,0,1.773,4.133l.527.5a3.713,3.713,0,0,0,1.009,1.885A3.6,3.6,0,0,0,45.1,47.564Z" transform="translate(-32 -39.38)" fill="#aab2bd"/>
        </g>
        <g id="Group_8134" data-name="Group 8134" transform="translate(14.097 30.271)">
          <path id="Path_8812" data-name="Path 8812" d="M29.161,48.142v8.9a17.7,17.7,0,0,1-7.419-1.617V55.22a4.545,4.545,0,0,0-.735-2.471v-.007L21,42.948V42.8A8.9,8.9,0,0,0,29.161,48.142Z" transform="translate(-21 -42.8)" fill="#aab2bd"/>
        </g>
        <g id="Group_8135" data-name="Group 8135" transform="translate(6.841 9.341)">
          <path id="Path_8813" data-name="Path 8813" d="M24.894,17.424l-.482,1.922-1.744.438a4.549,4.549,0,0,0-3.45,4.415v2.834c-.1.156-.2.312-.3.475l-7.7-4.452A17.818,17.818,0,0,1,22.683,14.59l.319.3a3.713,3.713,0,0,0,1.009,1.885,3.6,3.6,0,0,0,.883.645Z" transform="translate(-11.22 -14.59)" fill="#aab2bd"/>
        </g>
        <g id="Group_8136" data-name="Group 8136" transform="translate(4.607 17.806)">
          <path id="Path_8814" data-name="Path 8814" d="M10.443,26l7.7,4.452A8.848,8.848,0,0,0,16.957,34.9c0,.237.007.467.03.7H16.98a6.575,6.575,0,0,0-1.239-1.706A6.66,6.66,0,0,0,8.21,32.559,17.426,17.426,0,0,1,10.443,26Z" transform="translate(-8.21 -26)" fill="#aab2bd"/>
        </g>
        <g id="Group_8137" data-name="Group 8137" transform="translate(29.974 17.806)">
          <path id="Path_8815" data-name="Path 8815" d="M52.245,31.935H48.039a4.458,4.458,0,0,0-4.429,4l-.082-.007a9.26,9.26,0,0,0,.059-1.024A8.848,8.848,0,0,0,42.4,30.452L50.1,26a17.612,17.612,0,0,1,2.144,5.935Z" transform="translate(-42.4 -26)" fill="#aab2bd"/>
        </g>
        <g id="Group_8138" data-name="Group 8138" transform="translate(24.002 9.341)">
          <path id="Path_8816" data-name="Path 8816" d="M48.024,23.055l-7.7,4.452c-.1-.163-.193-.319-.3-.475V24.2a4.549,4.549,0,0,0-3.45-4.415l-1.744-.438-.482-1.922a3.7,3.7,0,0,0,1.892-2.53l.319-.3A17.836,17.836,0,0,1,48.024,23.055Z" transform="translate(-34.35 -14.59)" fill="#aab2bd"/>
        </g>
        <g id="Group_8139" data-name="Group 8139" transform="translate(16.323 0)">
          <path id="Path_8817" data-name="Path 8817" d="M35.871,6.452v.556A5.667,5.667,0,0,1,34.1,11.141l-.208.2-.319.3a3.5,3.5,0,0,0,.074-.742V9.212a.752.752,0,0,0-.5-.7,7.664,7.664,0,0,1-3-1.855l-.2-.2-.2.2a7.664,7.664,0,0,1-3,1.855.752.752,0,0,0-.5.7V10.9a3.5,3.5,0,0,0,.074.742l-.319-.3-.208-.2A5.667,5.667,0,0,1,24,7.008V6.452A4.452,4.452,0,0,1,28.452,2h2.968a4.453,4.453,0,0,1,1.988.467,4.332,4.332,0,0,1,1.573,1.313A4.446,4.446,0,0,1,35.871,6.452Z" transform="translate(-24 -2)" fill="#b27946"/>
        </g>
        <g id="Group_8140" data-name="Group 8140" transform="translate(0.742 23.742)">
          <path id="Path_8818" data-name="Path 8818" d="M9.677,38.452A8.812,8.812,0,0,1,6.205,40.6l-.237.082V42.9a3.7,3.7,0,0,0,1.966,3.272L7.452,48.1l-1.306.326-.438.111a4.561,4.561,0,0,0-2.115,1.195A4.622,4.622,0,0,0,3,50.456V40.677a6.673,6.673,0,0,1,11.4-4.719,6.672,6.672,0,0,1,1.959,4.57v.148l.007,9.794a4.387,4.387,0,0,0-.6-.742,4.561,4.561,0,0,0-2.115-1.195l-.438-.111L11.9,48.1l-.482-1.922a3.6,3.6,0,0,0,.883-.645A3.726,3.726,0,0,0,13.387,42.9V40.677L13.15,40.6A8.812,8.812,0,0,1,9.677,38.452Z" transform="translate(-3 -34)" fill="#b27946"/>
        </g>
        <g id="Group_8141" data-name="Group 8141" transform="translate(31.161 23.742)">
          <path id="Path_8819" data-name="Path 8819" d="M48.971,38.5l-.007.007-.49.119a2.974,2.974,0,0,0-2.248,2.879V42.9a3.5,3.5,0,0,0,.074.742l-.527-.5A5.667,5.667,0,0,1,44,39.008v-.556A4.509,4.509,0,0,1,44.022,38a4.458,4.458,0,0,1,4.429-4h5.935a1.488,1.488,0,0,1,1.484,1.484v3.524A5.667,5.667,0,0,1,54.1,43.141l-.527.5a3.5,3.5,0,0,0,.074-.742V41.219a1.491,1.491,0,0,0-1.276-1.469l-1.714-.245A2.534,2.534,0,0,1,48.971,38.5Z" transform="translate(-44 -34)" fill="#b27946"/>
        </g>
        <g id="Group_8142" data-name="Group 8142" transform="translate(22.258 14.097)">
          <path id="Path_8820" data-name="Path 8820" d="M39.419,25.852v2.834A8.9,8.9,0,0,0,32,24.71L34.226,21l1.744.438a4.549,4.549,0,0,1,3.45,4.415Z" transform="translate(-32 -21)" fill="#ff826e"/>
        </g>
        <g id="Group_8143" data-name="Group 8143" transform="translate(14.839 14.097)">
          <path id="Path_8821" data-name="Path 8821" d="M27.194,21l2.226,3.71A8.9,8.9,0,0,0,22,28.686V25.852a4.549,4.549,0,0,1,3.45-4.415Z" transform="translate(-22 -21)" fill="#ff826e"/>
        </g>
        <g id="Group_8144" data-name="Group 8144" transform="translate(29.677 37.839)">
          <path id="Path_8822" data-name="Path 8822" d="M49.419,56.71v2.968H42V57.852a4.549,4.549,0,0,1,3.45-4.415L47.194,53Z" transform="translate(-42 -53)" fill="#4fc1e9"/>
        </g>
        <g id="Group_8145" data-name="Group 8145" transform="translate(37.097 37.839)">
          <path id="Path_8823" data-name="Path 8823" d="M59.419,57.852v1.825H52V56.71L54.226,53l1.744.438a4.549,4.549,0,0,1,3.45,4.415Z" transform="translate(-52 -53)" fill="#4fc1e9"/>
        </g>
        <g id="Group_8146" data-name="Group 8146" transform="translate(13.355 17.806)">
          <path id="Path_8824" data-name="Path 8824" d="M21.187,30.452c.1-.163.193-.319.3-.475a8.909,8.909,0,0,1,14.839,0c.1.156.2.312.3.475A8.848,8.848,0,0,1,37.806,34.9a9.259,9.259,0,0,1-.059,1.024,8.9,8.9,0,0,1-17.005,2.537,6.62,6.62,0,0,0-.72-2.864h.007c-.022-.23-.03-.46-.03-.7a8.848,8.848,0,0,1,1.187-4.452Z" transform="translate(-20 -26)" fill="#e6e9ed"/>
        </g>
        <g id="Group_8147" data-name="Group 8147" transform="translate(16.323 20.774)">
          <path id="Path_8825" data-name="Path 8825" d="M35.871,35.194v1.491l-1.328.438a.745.745,0,0,0-.467.453c-.015.045-.037.089-.052.126a.783.783,0,0,0,0,.645l.631,1.261-1.046,1.046-1.261-.631a.783.783,0,0,0-.645,0c-.037.015-.082.037-.126.052a.745.745,0,0,0-.453.467l-.438,1.328h-1.5l-.438-1.328a.745.745,0,0,0-.453-.467c-.045-.015-.089-.037-.126-.052a.783.783,0,0,0-.645,0l-1.261.631-1.046-1.046.631-1.261a.783.783,0,0,0,0-.645c-.015-.037-.037-.082-.052-.126a.745.745,0,0,0-.467-.453L24,36.685v-1.5l1.328-.438A.745.745,0,0,0,25.8,34.3c.015-.045.037-.089.052-.126a.783.783,0,0,0,0-.645l-.631-1.261,1.046-1.046,1.261.623a.756.756,0,0,0,.645.007c.037-.015.082-.037.126-.052a.745.745,0,0,0,.453-.467L29.186,30h1.5l.438,1.328a.745.745,0,0,0,.453.467c.045.015.089.037.126.052a.756.756,0,0,0,.645-.007l1.261-.623,1.046,1.046-.631,1.261a.783.783,0,0,0,0,.645c.015.037.037.082.052.126a.745.745,0,0,0,.467.453Zm-4.452.742a1.484,1.484,0,1,0-1.484,1.484A1.488,1.488,0,0,0,31.419,35.935Z" transform="translate(-24 -30)" fill="#fcd770"/>
        </g>
        <g id="Group_8148" data-name="Group 8148" transform="translate(0 38.165)">
          <path id="Path_8826" data-name="Path 8826" d="M7.357,56.081l2.063,3.71H2V57.966a4.546,4.546,0,0,1,.742-2.493,4.622,4.622,0,0,1,.594-.727A4.561,4.561,0,0,1,5.45,53.551l.438-.111Z" transform="translate(-2 -53.44)" fill="#5cd6b3"/>
        </g>
        <g id="Group_8149" data-name="Group 8149" transform="translate(7.419 38.165)">
          <path id="Path_8827" data-name="Path 8827" d="M19.419,58.174v1.617H12l2.063-3.71,1.469-2.641.438.111a4.561,4.561,0,0,1,2.115,1.195,4.387,4.387,0,0,1,.6.742V55.5a4.545,4.545,0,0,1,.735,2.471Z" transform="translate(-12 -53.44)" fill="#5cd6b3"/>
        </g>
        <g id="Group_8150" data-name="Group 8150" transform="translate(5.357 40.806)">
          <path id="Path_8828" data-name="Path 8828" d="M13.345,57l-2.063,3.71L9.22,57Z" transform="translate(-9.22 -57)" fill="#ffeaa7"/>
        </g>
        <g id="Group_8151" data-name="Group 8151" transform="translate(20.032 12.175)">
          <path id="Path_8829" data-name="Path 8829" d="M32.969,18.41l.482,1.922-2.226,3.71L29,20.332l.482-1.922a3.691,3.691,0,0,0,3.487,0Z" transform="translate(-29 -18.41)" fill="#f5e0cd"/>
        </g>
        <g id="Group_8152" data-name="Group 8152" transform="translate(33.387 28.245)">
          <path id="Path_8830" data-name="Path 8830" d="M54.419,42.785V44.47a3.5,3.5,0,0,1-.074.742,3.7,3.7,0,0,1-1.892,2.53,3.742,3.742,0,0,1-4.37-.645,3.713,3.713,0,0,1-1.009-1.885A3.5,3.5,0,0,1,47,44.47V43.075A2.974,2.974,0,0,1,49.248,40.2l.49-.119.007-.007a2.534,2.534,0,0,0,1.684,1l1.714.245a1.491,1.491,0,0,1,1.276,1.469Z" transform="translate(-47 -40.07)" fill="#f5e0cd"/>
        </g>
        <g id="Group_8153" data-name="Group 8153" transform="translate(34.871 35.917)">
          <path id="Path_8831" data-name="Path 8831" d="M52.969,50.41l.482,1.922-2.226,3.71L49,52.332l.482-1.922a3.691,3.691,0,0,0,3.487,0Z" transform="translate(-49 -50.41)" fill="#f5e0cd"/>
        </g>
        <g id="Group_8154" data-name="Group 8154" transform="translate(18.548 4.452)">
          <path id="Path_8832" data-name="Path 8832" d="M34.419,10.76v1.692a3.5,3.5,0,0,1-.074.742,3.7,3.7,0,0,1-1.892,2.53,3.742,3.742,0,0,1-4.37-.645,3.713,3.713,0,0,1-1.009-1.885A3.5,3.5,0,0,1,27,12.452V10.76a.752.752,0,0,1,.5-.7,7.664,7.664,0,0,0,3-1.855l.2-.2.2.2a7.664,7.664,0,0,0,3,1.855.752.752,0,0,1,.5.7Z" transform="translate(-27 -8)" fill="#f5e0cd"/>
        </g>
        <g id="Group_8155" data-name="Group 8155" transform="translate(3.71 28.194)">
          <path id="Path_8833" data-name="Path 8833" d="M14.419,42.226v2.226a3.726,3.726,0,0,1-1.083,2.626,3.713,3.713,0,0,1-4.37.645A3.7,3.7,0,0,1,7,44.452V42.226l.237-.082A8.812,8.812,0,0,0,10.71,40a8.812,8.812,0,0,0,3.472,2.144Z" transform="translate(-7 -40)" fill="#f5e0cd"/>
        </g>
        <g id="Group_8156" data-name="Group 8156" transform="translate(3.888 35.917)">
          <path id="Path_8834" data-name="Path 8834" d="M14.3,52.658,12.834,55.3H8.709L7.24,52.658l1.306-.326.482-1.922a3.691,3.691,0,0,0,3.487,0L13,52.332Z" transform="translate(-7.24 -50.41)" fill="#f5e0cd"/>
        </g>
      </g>
      <g id="Group_8158" data-name="Group 8158" transform="translate(1 1)">
        <path id="Path_8835" data-name="Path 8835" d="M31.226,39.452A2.226,2.226,0,1,0,29,37.226,2.229,2.229,0,0,0,31.226,39.452Zm0-2.968a.742.742,0,1,1-.742.742A.743.743,0,0,1,31.226,36.484Z" transform="translate(-8.226 -9.774)"/>
        <path id="Path_8836" data-name="Path 8836" d="M24.848,37.593l.073.168L24.059,39.5l1.8,1.8,1.759-.851.174.068.438,1.33c.17.509.17.509,2.2.51h.538l.638-1.85.162-.072L33.5,41.3l1.8-1.8-.85-1.758.068-.173,1.839-.608V34.935c0-.539,0-.539-1.84-1.146l-.081-.2.863-1.738-1.8-1.8-1.759.851-.174-.068L30.961,29H28.394l-.638,1.85-.162.072-1.738-.864-1.8,1.8.85,1.758-.068.173L23,34.395v2.566Zm-.364-2.125.821-.27a1.51,1.51,0,0,0,.923-.89l.044-.106a1.5,1.5,0,0,0-.021-1.268l-.388-.783.29-.29.783.388a1.5,1.5,0,0,0,1.268.021l.105-.044a1.507,1.507,0,0,0,.89-.923l.269-.82h.419l.27.821a1.5,1.5,0,0,0,.882.92l.112.047a1.5,1.5,0,0,0,1.269-.021l.783-.388.29.29-.388.783a1.5,1.5,0,0,0-.022,1.267l.044.106a1.5,1.5,0,0,0,.922.89l.822.272v.418l-.821.27a1.51,1.51,0,0,0-.923.89l-.044.106a1.5,1.5,0,0,0,.021,1.268l.388.783-.29.29-.783-.388a1.5,1.5,0,0,0-1.268-.021l-.105.044a1.507,1.507,0,0,0-.89.923l-.27.82h-.42l-.27-.819a1.5,1.5,0,0,0-.882-.92l-.112-.047a1.5,1.5,0,0,0-1.269.021l-.783.388-.29-.29.388-.783a1.5,1.5,0,0,0,.022-1.267l-.044-.106a1.509,1.509,0,0,0-.923-.89l-.819-.272Z" transform="translate(-6.677 -8.226)"/>
        <path id="Path_8837" data-name="Path 8837" d="M45.449,40.69a5.3,5.3,0,0,0-2.46-1.393l-1.312-.328L41.433,38a4.46,4.46,0,0,0,1.7-2.476l.377-.359a6.47,6.47,0,0,0,1.669-2.629,6.4,6.4,0,0,0,.332-2.04V26.968a2.229,2.229,0,0,0-2.226-2.226H42.164A18.435,18.435,0,0,0,29.327,10.684a6.36,6.36,0,0,0,1.35-3.932V6.194A5.195,5.195,0,0,0,25.484,1H22.516a5.194,5.194,0,0,0-5.194,5.194v.558a6.361,6.361,0,0,0,1.352,3.934,18.6,18.6,0,0,0-13,14.928,7.425,7.425,0,0,0-3.937,6.548V41.74A5.26,5.26,0,0,0,1,44.435V47H17.323V45.759a18.581,18.581,0,0,0,13.355,0V47H47V44.435a5.264,5.264,0,0,0-1.551-3.745ZM40.27,39.463l-1.431,2.385-1.431-2.386.2-.8a4.361,4.361,0,0,0,2.462,0Zm-9.578,4.685a16.885,16.885,0,0,1-5.95,1.349V38.059A9.649,9.649,0,0,0,32.6,32.8a6.477,6.477,0,0,0,1.563,2.365l.377.359A4.46,4.46,0,0,0,36.244,38L36,38.969l-1.312.328a5.281,5.281,0,0,0-4,4.851Zm-14.853-15.7a8.165,8.165,0,1,1,.724,3.358,7.352,7.352,0,0,0-.7-2.817c-.012-.18-.021-.358-.021-.541Zm14.839-6.944a9.611,9.611,0,0,0-5.422-2.61l1.324-2.207,1.211.3a3.813,3.813,0,0,1,2.888,3.7ZM24,13.613a2.971,2.971,0,0,1-2.968-2.968V8.954A8.451,8.451,0,0,0,24,7.226a8.456,8.456,0,0,0,2.968,1.728v1.691A2.971,2.971,0,0,1,24,13.613ZM24,15.1a4.407,4.407,0,0,0,1.231-.177l.2.8L24,18.106,22.569,15.72l.2-.8A4.407,4.407,0,0,0,24,15.1Zm-2.579,1.6L22.745,18.9a9.613,9.613,0,0,0-5.422,2.61v-.815a3.813,3.813,0,0,1,2.888-3.7Zm-4.83,25.065-.007-7.142a9.647,9.647,0,0,0,6.674,3.452V45.5a16.889,16.889,0,0,1-5.95-1.349A5.242,5.242,0,0,0,16.591,41.757Zm25.215-7.37a2.968,2.968,0,0,1-5.935,0V32.994a2.223,2.223,0,0,1,1.685-2.159l.062-.016a3.3,3.3,0,0,0,1.835.907l1.716.246a.743.743,0,0,1,.637.733Zm2.226-7.419v3.526a4.9,4.9,0,0,1-.742,2.6v-.39a2.237,2.237,0,0,0-1.911-2.2l-1.716-.246A1.833,1.833,0,0,1,38.1,28.452H36.613a3.269,3.269,0,0,0,.18,1.069,3.705,3.705,0,0,0-2.405,3.474v.1a4.9,4.9,0,0,1-.742-2.6v-.558a3.714,3.714,0,0,1,3.71-3.71H43.29A.743.743,0,0,1,44.032,26.968Zm-6.677-2.226a5.177,5.177,0,0,0-3.9,1.78,9.531,9.531,0,0,0-.762-2.23l6.454-3.726a17.042,17.042,0,0,1,1.507,4.176H37.355ZM38.4,19.281l-6.239,3.6V20.693a5.3,5.3,0,0,0-4.012-5.138l-1.312-.328-.243-.972a4.461,4.461,0,0,0,1.665-2.32A16.961,16.961,0,0,1,38.4,19.281ZM18.806,6.194a3.71,3.71,0,0,1,3.71-3.71h2.968a3.711,3.711,0,0,1,3.71,3.71v.558a4.9,4.9,0,0,1-.742,2.6v-.4a1.48,1.48,0,0,0-1.014-1.407,6.974,6.974,0,0,1-2.71-1.676L24,5.144l-.727.727a6.956,6.956,0,0,1-2.71,1.675,1.483,1.483,0,0,0-1.015,1.408v.4a4.9,4.9,0,0,1-.742-2.6Zm.934,5.743a4.466,4.466,0,0,0,1.665,2.319l-.243.972-1.312.328a5.3,5.3,0,0,0-4.012,5.138v2.189l-6.22-3.592a17.08,17.08,0,0,1,10.122-7.355ZM8.876,20.577l6.436,3.716a9.541,9.541,0,0,0-.835,2.7A7.337,7.337,0,0,0,7.291,24.99a16.926,16.926,0,0,1,1.585-4.414Zm.286,5.649A5.943,5.943,0,0,1,15.1,32.162l.009,7.974a5.285,5.285,0,0,0-1.794-.838L12,38.969,11.756,38a4.446,4.446,0,0,0,1.857-3.61V31.626l-.743-.248A8.179,8.179,0,0,1,9.9,29.6V27.71H8.419V29.6a8.178,8.178,0,0,1-2.966,1.775l-.743.247v2.761A4.446,4.446,0,0,0,6.567,38l-.243.972L5.012,39.3a5.281,5.281,0,0,0-1.786.832V32.161a5.942,5.942,0,0,1,5.935-5.935Zm1.625,15.581H7.536L6.75,40.392l.8-.2.383-1.531a4.363,4.363,0,0,0,2.462,0l.383,1.531.8.2ZM9.962,43.29l-.8,1.44-.8-1.44Zm-.8-12.344a9.7,9.7,0,0,0,2.968,1.745v1.7a2.968,2.968,0,1,1-5.935,0v-1.7A9.7,9.7,0,0,0,9.161,30.947ZM2.484,44.435a3.794,3.794,0,0,1,2.781-3.664L7.9,45.516H2.484Zm13.355,1.081H10.422l2.636-4.745a3.794,3.794,0,0,1,2.781,3.664Zm16.323-1.081a3.813,3.813,0,0,1,2.888-3.7l1.21-.3L38.1,43.5v2.02H32.161Zm13.355,1.081H39.581V43.5l1.837-3.062,1.211.3a3.813,3.813,0,0,1,2.888,3.7Z" transform="translate(-1 -1)"/>
      </g>
    </g>
  </g>
</svg>
