<svg xmlns="http://www.w3.org/2000/svg" width="38.199" height="38.322" viewBox="0 0 38.199 38.322">
  <g id="_1087916" data-name="1087916" transform="translate(0.101 0.1)">
    <g id="Group_7943" data-name="Group 7943" transform="translate(0)">
      <g id="Group_7942" data-name="Group 7942" transform="translate(0)">
        <path id="Path_8466" data-name="Path 8466" d="M36.306,3.806H23.619V2.537A2.545,2.545,0,0,0,21.082,0H3.321A2.545,2.545,0,0,0,.784,2.537V16.492c0,6.978,6.66,6.978,8.88,6.978a.634.634,0,1,0,0-1.269,2.545,2.545,0,0,1-2.537-2.537V19.41a2.668,2.668,0,0,1,2.664-2.284h8.754V18.4H12.836a.6.6,0,0,0-.634.634A5.7,5.7,0,0,0,13.724,22.9a6.132,6.132,0,0,0-.254,1.84,6.41,6.41,0,0,0,3.806,5.836c0,.381-.19,1.142-1.9,1.142A3.141,3.141,0,0,0,12.2,34.888v3.172H13.47V34.888a1.884,1.884,0,0,1,1.776-1.9l3.108,1.522a4.4,4.4,0,0,0,.825.317v3.235h1.269V34.824a3.14,3.14,0,0,0,.825-.254l3.108-1.522a1.884,1.884,0,0,1,1.776,1.9v3.172h1.269V34.951a3.141,3.141,0,0,0-3.172-3.172c-1.713,0-1.9-.761-1.9-1.142a6.313,6.313,0,0,0,3.806-6.026v-.444a5.027,5.027,0,0,0-.634-2.537h4.25a2.668,2.668,0,0,1,2.664,2.284A2.559,2.559,0,0,1,30.153,26.7H29.9a.634.634,0,0,0,0,1.269c2.22,0,8.88,0,8.88-6.978V6.343A2.452,2.452,0,0,0,36.306,3.806ZM9.791,15.858a3.966,3.966,0,0,0-3.933,3.425,3.989,3.989,0,0,0,.761,2.664c-3.108-.634-4.567-2.347-4.567-5.455V2.537A1.272,1.272,0,0,1,3.321,1.269H21.082a1.272,1.272,0,0,1,1.269,1.269V14.589a1.272,1.272,0,0,1-1.269,1.269Zm3.742,3.806h6.914a4.438,4.438,0,0,1,4.377,3.806H17.911A4.438,4.438,0,0,1,13.534,19.664ZM21.526,29.5a.609.609,0,0,0-.444.571v.381A2.232,2.232,0,0,0,22.351,32.6l-1.649.825a2.318,2.318,0,0,1-1.84,0L17.276,32.6a2.232,2.232,0,0,0,1.269-2.157V30.13a.609.609,0,0,0-.444-.571,5.136,5.136,0,0,1-3.362-4.821,3.9,3.9,0,0,1,.063-.888,5.744,5.744,0,0,0,3.108.888h6.978A4.994,4.994,0,0,1,21.526,29.5Zm16.048-8.563c0,3.108-1.459,4.821-4.567,5.455a3.989,3.989,0,0,0,.761-2.664A3.919,3.919,0,0,0,29.836,20.3H24.7a5.671,5.671,0,0,0-4.25-1.9h-.634V17.127h1.269a2.545,2.545,0,0,0,2.537-2.537V5.075H36.306a1.272,1.272,0,0,1,1.269,1.269Z" transform="translate(-0.784)" fill="#ed3042" stroke="#ed3042" stroke-width="0.2"/>
      </g>
    </g>
    <g id="Group_7945" data-name="Group 7945" transform="translate(5.075 2.537)">
      <g id="Group_7944" data-name="Group 7944">
        <path id="Path_8467" data-name="Path 8467" d="M74.3,36.44h-.634a.6.6,0,0,1-.634-.634V33.9a1.9,1.9,0,1,0-3.806,0v1.9a.6.6,0,0,1-.634.634.6.6,0,0,0-.634-.634H65.418a.6.6,0,0,0-.634.634v6.978a.6.6,0,0,0,.634.634h2.537a.6.6,0,0,0,.634-.634H74.3a1.869,1.869,0,0,0,1.9-1.9V38.343A1.869,1.869,0,0,0,74.3,36.44Zm-6.977,6.343H66.053V37.075h1.269Zm7.612-1.269a.6.6,0,0,1-.634.634H68.59v-4.44a1.869,1.869,0,0,0,1.9-1.9V33.9a.634.634,0,1,1,1.269,0v1.9a1.869,1.869,0,0,0,1.9,1.9H74.3a.6.6,0,0,1,.634.634Z" transform="translate(-64.784 -32)" fill="#ed3042" stroke="#ed3042" stroke-width="0.2"/>
      </g>
    </g>
    <g id="Group_7947" data-name="Group 7947" transform="translate(24.104 6.343)">
      <g id="Group_7946" data-name="Group 7946">
        <path id="Path_8468" data-name="Path 8468" d="M315.567,80H313.03a.6.6,0,0,0-.634.634h-5.709a1.869,1.869,0,0,0-1.9,1.9v3.172a1.869,1.869,0,0,0,1.9,1.9h.634a.6.6,0,0,1,.634.634v1.9a1.9,1.9,0,0,0,3.806,0v-1.9a.6.6,0,0,1,.634-.634.6.6,0,0,0,.634.634h2.537a.6.6,0,0,0,.634-.634V80.634A.6.6,0,0,0,315.567,80ZM312.4,86.343a1.869,1.869,0,0,0-1.9,1.9v1.9a.634.634,0,1,1-1.269,0v-1.9a1.869,1.869,0,0,0-1.9-1.9h-.634a.6.6,0,0,1-.634-.634V82.537a.6.6,0,0,1,.634-.634H312.4Zm2.537.634h-1.269V81.269h1.269Z" transform="translate(-304.784 -80)" fill="#ed3042" stroke="#ed3042" stroke-width="0.2"/>
      </g>
    </g>
    <g id="Group_7949" data-name="Group 7949" transform="translate(23.169 16.778)">
      <g id="Group_7948" data-name="Group 7948" transform="translate(0 0)">
        <rect id="Rectangle_7037" data-name="Rectangle 7037" width="2.854" height="0.951" fill="#ed3042" stroke="#ed3042" stroke-width="0.2"/>
      </g>
    </g>
    <g id="Group_7951" data-name="Group 7951" transform="translate(15.224 2.537)">
      <g id="Group_7950" data-name="Group 7950">
        <path id="Path_8469" data-name="Path 8469" d="M194.687,32.634V32h-1.269v.634h-.634V33.9h.634v.634h1.269V33.9h.634V32.634Z" transform="translate(-192.784 -32)" fill="#ed3042" stroke="#ed3042" stroke-width="0.2"/>
      </g>
    </g>
  </g>
</svg>
