<svg xmlns="http://www.w3.org/2000/svg" width="25.677" height="25.677" viewBox="0 0 25.677 25.677">
  <path id="Path_1199" data-name="Path 1199" d="M25.267.42l0,0,0,0a1.384,1.384,0,0,0-1.5-.31L.892,9.043a1.4,1.4,0,0,0,.323,2.7l11.177,1.507a.047.047,0,0,1,.04.041L13.94,24.463a1.385,1.385,0,0,0,1.223,1.2,1.477,1.477,0,0,0,.175.01,1.382,1.382,0,0,0,1.3-.892L25.578,1.917A1.384,1.384,0,0,0,25.267.42ZM1.355,10.354c0-.036.006-.041.03-.05l21.4-8.366L12.774,11.946C12.709,11.927,1.4,10.4,1.4,10.4,1.371,10.392,1.36,10.39,1.355,10.354ZM15.374,24.293c-.009.023-.013.034-.05.03s-.038-.016-.041-.041c0,0-1.532-11.313-1.551-11.378L23.74,2.9Z" transform="translate(0 -0.001)" fill="#fff"/>
</svg>
