<svg xmlns="http://www.w3.org/2000/svg" width="50.716" height="45.252" viewBox="0 0 50.716 45.252">
  <g id="Group_8068" data-name="Group 8068" transform="translate(6051.796 -2602)">
    <g id="_2885615" data-name="2885615" transform="translate(-6051.796 2574.464)">
      <g id="Group_57" data-name="Group 57" transform="translate(0.744 28.28)">
        <path id="Path_1271" data-name="Path 1271" d="M73.948,117.316a2.366,2.366,0,0,1,2.366,2.366v30.989H31.935V119.682a2.366,2.366,0,0,1,2.366-2.366Z" transform="translate(-29.51 -109.152)" fill="#5f99d7"/>
        <path id="Path_1272" data-name="Path 1272" d="M40.96,117.316H34.3a2.366,2.366,0,0,0-2.366,2.366v30.989h6.659V119.682A2.366,2.366,0,0,1,40.96,117.316Z" transform="translate(-29.51 -109.152)" fill="#3c87d0"/>
        <path id="Path_1273" data-name="Path 1273" d="M87.362,117.316h33.379V142.5H87.362Z" transform="translate(-79.438 -109.152)" fill="#3c87d0"/>
        <path id="Path_1274" data-name="Path 1274" d="M100.359,147.7v25.141a.386.386,0,0,1-.386.386H62.32a.386.386,0,0,1-.386-.386V147.7a.386.386,0,0,1,.386-.386H99.973A.386.386,0,0,1,100.359,147.7Z" transform="translate(-56.533 -136.174)" fill="#dff6fd"/>
        <path id="Path_1275" data-name="Path 1275" d="M65.616,147.316h-3.3a.386.386,0,0,0-.386.386v25.141a.386.386,0,0,0,.386.386h3.3V147.316Z" transform="translate(-56.533 -136.175)" fill="#c8effe"/>
        <g id="Group_56" data-name="Group 56" transform="translate(0 0)">
          <path id="Path_1276" data-name="Path 1276" d="M54.054,442.207H10.174A2.674,2.674,0,0,1,7.5,439.534v-.621a.438.438,0,0,1,.438-.438H56.29a.438.438,0,0,1,.438.438v.621A2.674,2.674,0,0,1,54.054,442.207Z" transform="translate(-7.5 -398.444)" fill="#7bacdf"/>
          <path id="Path_1277" data-name="Path 1277" d="M16.182,439.535v-.621a.438.438,0,0,1,.438-.438H7.938a.438.438,0,0,0-.438.438v.621a2.674,2.674,0,0,0,2.674,2.674h8.682A2.674,2.674,0,0,1,16.182,439.535Z" transform="translate(-7.5 -398.445)" fill="#5f99d7"/>
          <path id="Path_1278" data-name="Path 1278" d="M87.362,147.316h33.379V173.23H87.362Z" transform="translate(-79.438 -136.175)" fill="#99e6fc"/>
          <path id="Path_1279" data-name="Path 1279" d="M136.773,122.037V91.743a1.259,1.259,0,0,0-1.259-1.259H108.622a1.259,1.259,0,0,0-1.259,1.259v30.294Z" transform="translate(-97.454 -84.982)" fill="#dff6fd"/>
          <path id="Path_1280" data-name="Path 1280" d="M159.787,98.615h1.721l1.178,1.178a3.06,3.06,0,0,0,4.328,0l1.178-1.178h1.721a4.935,4.935,0,0,0,4.929-4.929v-3.2H154.858v3.2A4.935,4.935,0,0,0,159.787,98.615Z" transform="translate(-140.236 -84.982)" fill="#c8effe"/>
          <path id="Path_1281" data-name="Path 1281" d="M187.93,35.037H177.8a2.945,2.945,0,0,0-2.945,2.945V43.74a2.945,2.945,0,0,0,2.945,2.945h2.543l1.759,1.759a1.076,1.076,0,0,0,1.521,0l1.759-1.759h2.543a2.945,2.945,0,0,0,2.945-2.945V37.982A2.945,2.945,0,0,0,187.93,35.037Z" transform="translate(-158.253 -35.037)" fill="#f37c7c"/>
          <g id="Group_55" data-name="Group 55" transform="translate(16.606 0)">
            <path id="Path_1282" data-name="Path 1282" d="M178.68,44.221V37.983a3.2,3.2,0,0,1,1.814-2.946H177.8a2.945,2.945,0,0,0-2.945,2.945V43.74a2.945,2.945,0,0,0,2.945,2.945h1.95A3.293,3.293,0,0,1,178.68,44.221Z" transform="translate(-174.859 -35.037)" fill="#ee6161"/>
          </g>
          <path id="Path_1283" data-name="Path 1283" d="M221.378,73.236l2.727-2.727a2.016,2.016,0,1,0-2.851-2.851l-.343.343-.416-.4a2.016,2.016,0,0,0-2.823.028l-.028.028a2.016,2.016,0,0,0,0,2.851l2.727,2.727A.711.711,0,0,0,221.378,73.236Z" transform="translate(-196.261 -63.863)" fill="#f3f0f3"/>
          <circle id="Ellipse_94" data-name="Ellipse 94" cx="4.735" cy="4.735" r="4.735" transform="translate(13.585 16.083)" fill="#c8effe"/>
        </g>
        <path id="Path_1284" data-name="Path 1284" d="M169.236,374.853v-3.133a.57.57,0,0,0-.57-.57H148.433a.57.57,0,0,0-.57.57v3.133Z" transform="translate(-133.935 -337.798)" fill="#c8effe"/>
      </g>
      <g id="Group_58" data-name="Group 58" transform="translate(0 27.536)">
        <path id="Path_1285" data-name="Path 1285" d="M49.535,141.682H48.292V112.925a3.114,3.114,0,0,0-3.11-3.11H43.04a.744.744,0,0,0,0,1.488h2.141a1.624,1.624,0,0,1,1.622,1.622v28.757H3.913V112.925A1.624,1.624,0,0,1,5.535,111.3H7.676a.744.744,0,0,0,0-1.488H5.535a3.114,3.114,0,0,0-3.11,3.11v28.757H1.182A1.183,1.183,0,0,0,0,142.864v.621A3.422,3.422,0,0,0,3.418,146.9H47.3a3.422,3.422,0,0,0,3.418-3.418v-.621A1.183,1.183,0,0,0,49.535,141.682Zm-.307,1.8a1.932,1.932,0,0,1-1.929,1.929H3.418a1.932,1.932,0,0,1-1.929-1.929v-.314h47.74Z" transform="translate(0 -101.651)"/>
        <path id="Path_1286" data-name="Path 1286" d="M55.923,114.539V90.113h.786a.744.744,0,1,0,0-1.488H55.179a.744.744,0,0,0-.744.744v25.914a.744.744,0,0,0,.744.744H93.6a.744.744,0,0,0,.744-.744v-6.1a.744.744,0,1,0-1.488,0v5.36H89.841V84.989a2.005,2.005,0,0,0-2-2H85.376a.744.744,0,0,0,0,1.488h2.462a.515.515,0,0,1,.515.515v29.549H85.823v-2.389a1.316,1.316,0,0,0-1.315-1.315H64.276a1.316,1.316,0,0,0-1.315,1.315v2.389H60.431V84.989a.515.515,0,0,1,.515-.515h2.462a.744.744,0,0,0,0-1.488H60.945a2.005,2.005,0,0,0-2,2v29.549Zm8.526-2.215H84.334v2.215H64.45Z" transform="translate(-49.034 -77.484)"/>
        <path id="Path_1287" data-name="Path 1287" d="M428.54,157.942a.744.744,0,0,0,.744-.744V140.559a.744.744,0,0,0-.744-.744h-1.531a.744.744,0,1,0,0,1.488h.786V157.2A.744.744,0,0,0,428.54,157.942Z" transform="translate(-383.969 -128.674)"/>
        <path id="Path_1288" data-name="Path 1288" d="M171.046,40.672h2.235l1.541,1.541a1.822,1.822,0,0,0,2.574,0l1.541-1.541h2.235a3.693,3.693,0,0,0,3.689-3.689V31.225a3.693,3.693,0,0,0-3.689-3.689h-5.037a.744.744,0,1,0,0,1.488h5.037a2.2,2.2,0,0,1,2.2,2.2v5.758a2.2,2.2,0,0,1-2.2,2.2h-2.543a.744.744,0,0,0-.526.218l-1.759,1.759a.332.332,0,0,1-.469,0L174.115,39.4a.744.744,0,0,0-.526-.218h-2.543a2.2,2.2,0,0,1-2.2-2.2V31.225a2.2,2.2,0,0,1,2.2-2.2h1.918a.744.744,0,1,0,0-1.488h-1.918a3.693,3.693,0,0,0-3.689,3.689v5.758A3.693,3.693,0,0,0,171.046,40.672Z" transform="translate(-150.751 -27.536)"/>
        <path id="Path_1289" data-name="Path 1289" d="M210.375,60.427a2.764,2.764,0,0,0,0,3.9l2.727,2.727a1.456,1.456,0,0,0,2.059,0l2.727-2.727a2.761,2.761,0,0,0-3.726-4.067,2.776,2.776,0,0,0-3.758.134Zm1.052,1.053.029-.029a1.279,1.279,0,0,1,1.781-.018l.416.4a.744.744,0,0,0,1.042-.01l.343-.343a1.272,1.272,0,1,1,1.8,1.8l-2.7,2.7-2.7-2.7A1.273,1.273,0,0,1,211.427,61.48Z" transform="translate(-188.773 -56.415)"/>
        <path id="Path_1290" data-name="Path 1290" d="M137.153,196.717a.744.744,0,0,0,1.422-.44,4,4,0,1,1,1.625,2.156.744.744,0,0,0-.818,1.244,5.469,5.469,0,1,0-2.229-2.96Z" transform="translate(-123.324 -173.536)"/>
        <path id="Path_1291" data-name="Path 1291" d="M276.768,238.08a.744.744,0,0,0-.744-.744h-8.866a.744.744,0,1,0,0,1.488h8.866A.744.744,0,0,0,276.768,238.08Z" transform="translate(-239.979 -216.519)"/>
        <path id="Path_1292" data-name="Path 1292" d="M156.5,329.653a.744.744,0,1,0,0,1.488h1.151a.744.744,0,1,0,0-1.488Z" transform="translate(-140.305 -299.675)"/>
        <path id="Path_1293" data-name="Path 1293" d="M330.51,329.653a.744.744,0,1,0,0,1.488h1.151a.744.744,0,1,0,0-1.488Z" transform="translate(-297.045 -299.675)"/>
        <path id="Path_1294" data-name="Path 1294" d="M194.992,329.653a.744.744,0,1,0,0,1.488h10.639a.744.744,0,1,0,0-1.488Z" transform="translate(-174.974 -299.675)"/>
      </g>
    </g>
  </g>
</svg>
