<svg xmlns="http://www.w3.org/2000/svg" width="13.467" height="13.486" viewBox="0 0 13.467 13.486">
  <g id="phone-call" transform="translate(-0.344)">
    <g id="Group_31" data-name="Group 31" transform="translate(0.344 0)">
      <path id="Path_1217" data-name="Path 1217" d="M10.993,34.98a1.326,1.326,0,0,0-.962-.441,1.372,1.372,0,0,0-.973.438l-.9.9c-.074-.04-.148-.077-.219-.114-.1-.051-.2-.1-.282-.151a9.776,9.776,0,0,1-2.343-2.135,5.767,5.767,0,0,1-.769-1.213c.233-.213.45-.435.66-.649l.239-.242a1.306,1.306,0,0,0,0-1.97l-.777-.777c-.088-.088-.179-.179-.265-.27-.171-.176-.35-.359-.535-.529a1.347,1.347,0,0,0-.954-.418,1.394,1.394,0,0,0-.968.418l-.006.006-.968.976A2.082,2.082,0,0,0,.356,30.13a4.99,4.99,0,0,0,.364,2.112A12.255,12.255,0,0,0,2.9,35.874a13.394,13.394,0,0,0,4.46,3.492,6.949,6.949,0,0,0,2.5.74c.06,0,.122.006.179.006a2.145,2.145,0,0,0,1.642-.706c0-.006.009-.009.011-.014a6.47,6.47,0,0,1,.5-.515c.122-.117.248-.239.37-.367a1.42,1.42,0,0,0,.43-.985,1.368,1.368,0,0,0-.438-.976Zm1.019,3s0,0,0,0c-.111.12-.225.228-.347.347a7.484,7.484,0,0,0-.549.569,1.372,1.372,0,0,1-1.07.453c-.043,0-.088,0-.131,0a6.173,6.173,0,0,1-2.22-.666,12.644,12.644,0,0,1-4.2-3.29,11.555,11.555,0,0,1-2.049-3.413,4.064,4.064,0,0,1-.319-1.782,1.307,1.307,0,0,1,.393-.845l.971-.971a.647.647,0,0,1,.433-.2.609.609,0,0,1,.416.2l.009.009c.174.162.339.33.512.509l.27.276.777.777a.543.543,0,0,1,0,.882c-.083.083-.162.165-.245.245-.239.245-.467.472-.714.694-.006.006-.011.009-.014.014a.581.581,0,0,0-.148.646l.009.026a6.238,6.238,0,0,0,.919,1.5l0,0a10.447,10.447,0,0,0,2.528,2.3,3.887,3.887,0,0,0,.35.191c.1.051.2.1.282.151l.034.02a.617.617,0,0,0,.282.071.609.609,0,0,0,.433-.2l.973-.973a.644.644,0,0,1,.43-.213.58.58,0,0,1,.41.208l.006.006,1.568,1.568A.563.563,0,0,1,12.012,37.977Z" transform="translate(-0.344 -26.626)" fill="#fff"/>
      <path id="Path_1218" data-name="Path 1218" d="M245.26,86.688a3.663,3.663,0,0,1,2.983,2.983.382.382,0,0,0,.379.319.508.508,0,0,0,.065-.006A.385.385,0,0,0,249,89.54a4.429,4.429,0,0,0-3.609-3.609.386.386,0,0,0-.444.313A.38.38,0,0,0,245.26,86.688Z" transform="translate(-237.982 -83.48)" fill="#fff"/>
      <path id="Path_1219" data-name="Path 1219" d="M255.165,5.949A7.294,7.294,0,0,0,249.222.006a.384.384,0,1,0-.125.757,6.515,6.515,0,0,1,5.311,5.311.382.382,0,0,0,.379.319.508.508,0,0,0,.065-.006A.377.377,0,0,0,255.165,5.949Z" transform="translate(-241.704 0)" fill="#fff"/>
    </g>
  </g>
</svg>
