<svg xmlns="http://www.w3.org/2000/svg" width="113.488" height="87.238" viewBox="0 0 113.488 87.238">
  <g id="Group_8072" data-name="Group 8072" transform="translate(8815.999 -2203)">
    <g id="Group_7481" data-name="Group 7481" transform="translate(-9917.344 1271)">
      <g id="royal-crown-outline" transform="translate(1101.345 898.479)">
        <path id="Path_8023" data-name="Path 8023" d="M88.006,59.746a6.2,6.2,0,0,0-6.184,6.189,6.116,6.116,0,0,0,1.165,3.58L63.1,82.14,49.349,61.455a6.189,6.189,0,1,0-4.5,0L30.967,82.346,11.205,69.524a6.173,6.173,0,1,0-5.018,2.6,6.1,6.1,0,0,0,1.85-.315l15.1,23.972a1.868,1.868,0,0,0,1.578.872H69.485a1.869,1.869,0,0,0,1.574-.872l15.1-23.972A6.1,6.1,0,0,0,94.2,65.936,6.2,6.2,0,0,0,88.006,59.746ZM47.1,53.238a2.469,2.469,0,1,1-2.467,2.47A2.476,2.476,0,0,1,47.1,53.238ZM3.715,65.936A2.467,2.467,0,1,1,6.182,68.4,2.472,2.472,0,0,1,3.715,65.936Zm64.734,27H25.737L15.565,76.791l14.913,9.676a1.859,1.859,0,0,0,2.562-.533L47.092,64.8,61,85.717a1.861,1.861,0,0,0,2.547.542L78.72,76.625ZM88.006,68.406a2.469,2.469,0,1,1,2.47-2.467A2.465,2.465,0,0,1,88.006,68.406ZM71.493,102.48a1.862,1.862,0,0,1-1.86,1.859H24.558a1.86,1.86,0,0,1,0-3.719H69.633A1.86,1.86,0,0,1,71.493,102.48Z" transform="translate(0)" fill="#ef2f42"/>
      </g>
      <ellipse id="Ellipse_53" data-name="Ellipse 53" cx="43.067" cy="43.619" rx="43.067" ry="43.619" transform="translate(1128.699 932)" fill="#ed3042" opacity="0.2"/>
    </g>
  </g>
</svg>
