<svg xmlns="http://www.w3.org/2000/svg" width="70.633" height="71.319" viewBox="0 0 70.633 71.319">
  <g id="Group_7979" data-name="Group 7979" transform="translate(-665 -1416)">
    <g id="Group_7959" data-name="Group 7959" transform="translate(-4832.138 -8156.842)">
      <g id="Group_7958" data-name="Group 7958" transform="translate(5497.15 9572.842)">
        <rect id="Rectangle_7038" data-name="Rectangle 7038" width="8.024" height="22.77" transform="translate(0 48.548)" fill="#af0011"/>
        <rect id="Rectangle_7039" data-name="Rectangle 7039" width="22.77" height="8.024" transform="translate(47.85)" fill="#af0011"/>
      </g>
      <path id="Path_8471" data-name="Path 8471" d="M1938.812,230.518l70.609-71.307-.012-.012h-25.07a5.1,5.1,0,0,0-3.634,1.525l-40.395,40.794a5.222,5.222,0,0,0-1.51,3.67v25.33Z" transform="translate(3558.338 9413.642)" fill="#ed3042"/>
    </g>
    <g id="Group_7960" data-name="Group 7960" transform="translate(1 -1)">
      <g id="crown" transform="translate(641.512 1430.014) rotate(-43)">
        <g id="Group_7822" data-name="Group 7822" transform="translate(5.422 49.269)">
          <g id="Group_7821" data-name="Group 7821">
            <path id="Path_8389" data-name="Path 8389" d="M246.22,449a.22.22,0,1,0,.22.22A.22.22,0,0,0,246.22,449Z" transform="translate(-246 -449)" fill="#fff" stroke="#fff" stroke-width="0.1"/>
          </g>
        </g>
        <g id="Group_7824" data-name="Group 7824" transform="translate(5.422 41.312)">
          <g id="Group_7823" data-name="Group 7823" transform="translate(0 0)">
            <path id="Path_8390" data-name="Path 8390" d="M246.22,0c-.122,0-.22.058-.22.129V.979c0,.071.1.129.22.129s.22-.058.22-.129V.129C246.441.058,246.342,0,246.22,0Z" transform="translate(-246)" fill="#fff" stroke="#fff" stroke-width="0.1"/>
          </g>
        </g>
        <g id="Group_7826" data-name="Group 7826" transform="translate(0.904 42.04)">
          <g id="Group_7825" data-name="Group 7825" transform="translate(0 0)">
            <path id="Path_8391" data-name="Path 8391" d="M42.622,92.31l-1.245-1.245a.22.22,0,0,0-.312.312l1.245,1.245a.22.22,0,0,0,.312-.312Z" transform="translate(-41 -91)" fill="#fff" stroke="#fff" stroke-width="0.1"/>
          </g>
        </g>
        <g id="Group_7828" data-name="Group 7828" transform="translate(8.695 42.038)">
          <g id="Group_7827" data-name="Group 7827">
            <path id="Path_8392" data-name="Path 8392" d="M396.113,91.006a.22.22,0,0,0-.312,0l-1.247,1.247a.22.22,0,0,0,.312.312l1.247-1.247A.22.22,0,0,0,396.113,91.006Z" transform="translate(-394.49 -90.941)" fill="#fff" stroke="#fff" stroke-width="0.1"/>
          </g>
        </g>
        <g id="Group_7830" data-name="Group 7830" transform="translate(0 42.591)">
          <g id="Group_7829" data-name="Group 7829" transform="translate(0 0)">
            <path id="Path_8393" data-name="Path 8393" d="M11.241,146.974a.22.22,0,0,0-.177-.089,1.443,1.443,0,0,0-1.129.543.882.882,0,1,0-.755,1.592l-.041.049a1.431,1.431,0,0,1-2.017.087l-.109-.109a.882.882,0,0,0-.27-1.721H6.722a1.133,1.133,0,0,0-.008-.481,1.1,1.1,0,0,0-2.152.481H4.54a.882.882,0,0,0-.27,1.721l-.109.109a1.432,1.432,0,0,1-2.017-.087L2.1,149.02a.882.882,0,1,0-.755-1.592,1.443,1.443,0,0,0-1.129-.543.22.22,0,0,0-.211.284l1.369,4.565H1.234a.22.22,0,1,0,0,.441h.22v1.234a.662.662,0,0,0,.661.661H9.169a.662.662,0,0,0,.661-.661v-1.234h.22a.22.22,0,1,0,0-.441H9.906l1.369-4.565A.22.22,0,0,0,11.241,146.974Zm-1.852,5.708H6.524a.22.22,0,1,0,0,.441H9.389v.287a.221.221,0,0,1-.22.22H2.116a.221.221,0,0,1-.22-.22v-.287H4.761a.22.22,0,1,0,0-.441H1.9v-.507H9.389Zm.056-.948H1.839L.532,147.375a1,1,0,0,1,.569.472.221.221,0,0,0,.35.049.437.437,0,0,1,.313-.13.441.441,0,1,1-.049.879.22.22,0,0,0-.2.36l.287.346a1.871,1.871,0,0,0,2.667.117l.443-.443a.22.22,0,0,0-.156-.376H4.54a.441.441,0,1,1,0-.882h.338a.22.22,0,0,0,.191-.331.662.662,0,1,1,1.146,0,.22.22,0,0,0,.191.331h.338a.441.441,0,1,1,0,.882h-.22a.22.22,0,0,0-.156.376l.443.443a1.871,1.871,0,0,0,2.667-.117l.287-.346a.22.22,0,0,0-.2-.36l-.049,0a.441.441,0,1,1,0-.882.437.437,0,0,1,.313.13.22.22,0,0,0,.35-.049,1,1,0,0,1,.569-.472Z" transform="translate(0 -146.003)" fill="#fff" stroke="#fff" stroke-width="0.1"/>
          </g>
        </g>
        <g id="Group_7832" data-name="Group 7832" transform="translate(4.761 46.117)">
          <g id="Group_7831" data-name="Group 7831" transform="translate(0 0)">
            <path id="Path_8394" data-name="Path 8394" d="M216.882,306a.882.882,0,1,0,.882.882A.883.883,0,0,0,216.882,306Zm0,1.322a.441.441,0,1,1,.441-.441A.441.441,0,0,1,216.882,307.322Z" transform="translate(-216 -306)" fill="#fff" stroke="#fff" stroke-width="0.1"/>
          </g>
        </g>
      </g>
      <text id="premium" transform="translate(686.327 1457.244) rotate(-45)" fill="#fff" font-size="8" font-family="Roboto-Medium, Roboto" font-weight="500" letter-spacing="0.05em"><tspan x="0" y="0">PREMIUM</tspan></text>
    </g>
  </g>
</svg>
