<svg xmlns="http://www.w3.org/2000/svg" width="33.985" height="33.985" viewBox="0 0 33.985 33.985">
  <g id="preview" transform="translate(0.2 0.2)">
    <g id="Group_7880" data-name="Group 7880" transform="translate(3.41)">
      <g id="Group_7879" data-name="Group 7879">
        <path id="Path_8413" data-name="Path 8413" d="M81.5,24.533H78.352a.656.656,0,0,0,0,1.312h2.493V29.78a2.493,2.493,0,0,1-4.985,0V.656A.656.656,0,0,0,75.2,0H52.637a.656.656,0,0,0-.656.656V3.739a.656.656,0,0,0,1.312,0V1.312H74.547V29.78a3.788,3.788,0,0,0,.934,2.493h-19.7a2.5,2.5,0,0,1-2.493-2.493V24.8a.656.656,0,1,0-1.312,0V29.78a3.809,3.809,0,0,0,3.8,3.8H78.352a3.809,3.809,0,0,0,3.8-3.8V25.189A.656.656,0,0,0,81.5,24.533Z" transform="translate(-51.981)" fill="#fff" stroke="#fff" stroke-width="0.4"/>
      </g>
    </g>
    <g id="Group_7882" data-name="Group 7882" transform="translate(3.41 21.122)">
      <g id="Group_7881" data-name="Group 7881">
        <path id="Path_8414" data-name="Path 8414" d="M53.1,322.192a.656.656,0,1,0,.192.464A.661.661,0,0,0,53.1,322.192Z" transform="translate(-51.979 -322)" fill="#fff" stroke="#fff" stroke-width="0.4"/>
      </g>
    </g>
    <g id="Group_7884" data-name="Group 7884" transform="translate(0 8.626)">
      <g id="Group_7883" data-name="Group 7883">
        <path id="Path_8415" data-name="Path 8415" d="M19.858,136.555a19.941,19.941,0,0,0-2.16-2.048,12.09,12.09,0,0,0-7.3-3,12.1,12.1,0,0,0-7.3,2.99,19.539,19.539,0,0,0-2.162,2.048C0,137.576,0,137.739,0,137.927s0,.339.935,1.372a19.949,19.949,0,0,0,2.16,2.048,12.09,12.09,0,0,0,7.3,3,12.1,12.1,0,0,0,7.3-2.99,19.533,19.533,0,0,0,2.162-2.048c.935-1.035.935-1.2.935-1.386S20.794,137.588,19.858,136.555ZM16.678,140.5A10.673,10.673,0,0,1,10.4,143.04c-4.328,0-7.941-3.945-8.919-5.122a17.588,17.588,0,0,1,2.638-2.56,10.673,10.673,0,0,1,6.281-2.543c4.328,0,7.941,3.945,8.919,5.122A17.584,17.584,0,0,1,16.678,140.5Z" transform="translate(0 -131.503)" fill="#fff" stroke="#fff" stroke-width="0.4"/>
      </g>
    </g>
    <g id="Group_7886" data-name="Group 7886" transform="translate(6.575 11.229)">
      <g id="Group_7885" data-name="Group 7885">
        <path id="Path_8416" data-name="Path 8416" d="M106.855,172.4c-.03-.034-.061-.068-.094-.1s-.067-.064-.1-.094a3.829,3.829,0,1,0,.2.2Zm-2.105.826a.765.765,0,0,1,1.051-.029l.062.062a.765.765,0,1,1-1.113-.033Zm-.692,4.285a2.51,2.51,0,0,1-.435-4.981,2.078,2.078,0,0,0,2.907,2.907A2.513,2.513,0,0,1,104.059,177.511Z" transform="translate(-100.237 -171.179)" fill="#fff" stroke="#fff" stroke-width="0.4"/>
      </g>
    </g>
    <g id="Group_7888" data-name="Group 7888" transform="translate(9.74 2.624)">
      <g id="Group_7887" data-name="Group 7887">
        <path id="Path_8417" data-name="Path 8417" d="M149.146,40a.656.656,0,0,0-.656.656v2.972a.656.656,0,0,0,1.312,0V40.656A.656.656,0,0,0,149.146,40Z" transform="translate(-148.49 -40)" fill="#fff" stroke="#fff" stroke-width="0.4"/>
      </g>
    </g>
    <g id="Group_7890" data-name="Group 7890" transform="translate(5.361 5.549)">
      <g id="Group_7889" data-name="Group 7889">
        <path id="Path_8418" data-name="Path 8418" d="M84.044,85.979l-1.2-1.194a.656.656,0,0,0-.927.928l1.2,1.194a.656.656,0,0,0,.927-.928Z" transform="translate(-81.729 -84.593)" fill="#fff" stroke="#fff" stroke-width="0.4"/>
      </g>
    </g>
    <g id="Group_7892" data-name="Group 7892" transform="translate(12.85 5.55)">
      <g id="Group_7891" data-name="Group 7891">
        <path id="Path_8419" data-name="Path 8419" d="M198.289,84.8a.656.656,0,0,0-.928,0l-1.271,1.272a.656.656,0,1,0,.928.927l1.271-1.272A.656.656,0,0,0,198.289,84.8Z" transform="translate(-195.899 -84.611)" fill="#fff" stroke="#fff" stroke-width="0.4"/>
      </g>
    </g>
    <g id="Group_7894" data-name="Group 7894" transform="translate(7.346 23.483)">
      <g id="Group_7893" data-name="Group 7893">
        <path id="Path_8420" data-name="Path 8420" d="M127.34,358H112.647a.656.656,0,0,0-.656.656V363.9a.656.656,0,0,0,.656.656H127.34A.656.656,0,0,0,128,363.9v-5.248A.656.656,0,0,0,127.34,358Zm-.656,5.248H113.3v-3.936h13.382Z" transform="translate(-111.991 -358)" fill="#fff" stroke="#fff" stroke-width="0.4"/>
      </g>
    </g>
    <g id="Group_7896" data-name="Group 7896" transform="translate(17.973 20.335)">
      <g id="Group_7895" data-name="Group 7895">
        <path id="Path_8421" data-name="Path 8421" d="M278.722,310h-4.066a.656.656,0,1,0,0,1.312h4.066a.656.656,0,1,0,0-1.312Z" transform="translate(-274 -310)" fill="#fff" stroke="#fff" stroke-width="0.4"/>
      </g>
    </g>
    <g id="Group_7898" data-name="Group 7898" transform="translate(20.761 17.186)">
      <g id="Group_7897" data-name="Group 7897">
        <path id="Path_8422" data-name="Path 8422" d="M318.43,262h-1.279a.656.656,0,1,0,0,1.312h1.279a.656.656,0,1,0,0-1.312Z" transform="translate(-316.495 -262)" fill="#fff" stroke="#fff" stroke-width="0.4"/>
      </g>
    </g>
    <g id="Group_7900" data-name="Group 7900" transform="translate(19.252 6.691)">
      <g id="Group_7899" data-name="Group 7899">
        <path id="Path_8423" data-name="Path 8423" d="M296.943,102h-2.787a.656.656,0,1,0,0,1.312h2.787a.656.656,0,0,0,0-1.312Z" transform="translate(-293.5 -102)" fill="#fff" stroke="#fff" stroke-width="0.4"/>
      </g>
    </g>
    <g id="Group_7902" data-name="Group 7902" transform="translate(19.252 3.542)">
      <g id="Group_7901" data-name="Group 7901">
        <path id="Path_8424" data-name="Path 8424" d="M296.943,54h-2.787a.656.656,0,1,0,0,1.312h2.787a.656.656,0,0,0,0-1.312Z" transform="translate(-293.5 -54)" fill="#fff" stroke="#fff" stroke-width="0.4"/>
      </g>
    </g>
    <g id="Group_7904" data-name="Group 7904" transform="translate(19.252 9.839)">
      <g id="Group_7903" data-name="Group 7903">
        <path id="Path_8425" data-name="Path 8425" d="M296.943,150h-2.787a.656.656,0,1,0,0,1.312h2.787a.656.656,0,0,0,0-1.312Z" transform="translate(-293.5 -150)" fill="#fff" stroke="#fff" stroke-width="0.4"/>
      </g>
    </g>
  </g>
</svg>
