<svg xmlns="http://www.w3.org/2000/svg" width="24.572" height="30.718" viewBox="0 0 24.572 30.718">
  <g id="_30872" data-name="30872" transform="translate(-23.391)">
    <path id="Path_8470" data-name="Path 8470" d="M44.18,10.048a7.081,7.081,0,0,0-.74-.26V6.178C43.44,2.425,40.542,0,36.055,0S28.67,2.425,28.67,6.178V9.522a7,7,0,0,0-1.5.531,7.308,7.308,0,0,0-3.777,6.4,7.018,7.018,0,0,0,.337,2.17C24.9,23.895,34.809,30.172,35.234,30.436l.443.282.443-.282C36.544,30.172,46.449,23.9,47.6,18.7a7.047,7.047,0,0,0,.366-2.252A7.314,7.314,0,0,0,44.18,10.048ZM30.337,6.177c0-4.184,4.376-4.51,5.717-4.51s5.717.324,5.717,4.51v3.1a7.341,7.341,0,0,0-6.095,1.834,7.344,7.344,0,0,0-5.341-1.846V6.176h0ZM46,18.262c-.806,3.62-7.345,8.536-10.318,10.482C32.7,26.8,26.16,21.878,25.335,18.186a5.634,5.634,0,0,1,9.7-5.333l.642.772.642-.771a5.729,5.729,0,0,1,7.06-1.347A5.649,5.649,0,0,1,46.3,16.449,5.8,5.8,0,0,1,46,18.262Zm-.741-1.812a4.494,4.494,0,0,1-.228,1.406.415.415,0,0,1-.394.285.373.373,0,0,1-.13-.019.413.413,0,0,1-.263-.526,3.8,3.8,0,0,0,.188-1.144,3.778,3.778,0,0,0-3.77-3.769.416.416,0,0,1,0-.832,4.6,4.6,0,0,1,4.6,4.6Zm-7.479,1.208a2.081,2.081,0,0,1-.92,1.689l.724,3.8H33.765l.61-3.883a2.061,2.061,0,0,1-.8-1.6,2.1,2.1,0,1,1,4.2,0Z" fill="#fff"/>
  </g>
</svg>
