<svg xmlns="http://www.w3.org/2000/svg" width="49.395" height="49.394" viewBox="0 0 49.395 49.394">
  <g id="feedback" transform="translate(0.1 0.1)">
    <path id="Path_8290" data-name="Path 8290" d="M24.6,116.663a23.212,23.212,0,0,1-10.685-2.609l-.157-.082H4.42v-9.1l-.09-.163A23.162,23.162,0,0,1,8.113,77.247L7.087,76.235a24.6,24.6,0,0,0-4.108,29.011v10.168H13.4a24.607,24.607,0,0,0,28.053-4l-.988-1.049a23.063,23.063,0,0,1-15.871,6.3Z" transform="translate(0 -68.91)" fill="#ed3042" stroke="#ed3042" stroke-width="0.2"/>
    <path id="Path_8291" data-name="Path 8291" d="M118.757,7.2a24.6,24.6,0,0,0-33.83-.9l.963,1.072a23.155,23.155,0,0,1,32.333,33.1l1.049.988A24.595,24.595,0,0,0,118.757,7.2Z" transform="translate(-76.767)" fill="#ed3042" stroke="#ed3042" stroke-width="0.2"/>
    <path id="Path_8292" data-name="Path 8292" d="M290.625,197.168a2.991,2.991,0,0,0-2.988-2.988h-8.756v1.441h8.756a1.549,1.549,0,0,1,1.547,1.547c0,1.435-1.411,1.547-1.844,1.547h-2.273v1.441h2.273a1.5,1.5,0,0,1,1.5,1.5c0,1.108-.915,1.5-1.771,1.5h-2V204.6h2a1.465,1.465,0,0,1,1.463,1.463c0,.9-.387,1.463-2.316,1.463h-1.151v1.441h1.151a1.463,1.463,0,1,1,0,2.926h-3.739v1.441h3.739a2.9,2.9,0,0,0,2.243-4.748c.056-.026.111-.053.165-.082a2.566,2.566,0,0,0,1.349-2.442,2.9,2.9,0,0,0-.863-2.064,2.793,2.793,0,0,0,1.171-2.343,2.935,2.935,0,0,0-.879-2.1,2.827,2.827,0,0,0,1.22-2.394Z" transform="translate(-252.085 -175.523)" fill="#ed3042" stroke="#ed3042" stroke-width="0.2"/>
    <path id="Path_8293" data-name="Path 8293" d="M100.971,308.328h8.647v-1.441h3.826l2.812,1.96h3.965v-1.441h-3.512l-2.812-1.96h-4.278v-5.6h-1.441v7.044h-5.765v-3.6h-1.441Z" transform="translate(-91.269 -271.032)" fill="#ed3042" stroke="#ed3042" stroke-width="0.2"/>
    <path id="Path_8294" data-name="Path 8294" d="M100.971,102.443v11.927h1.441V103.884h5.765v7.044h1.441v-5.6h2.8l4.1-6.733V93.883h1.547a1.548,1.548,0,0,1,1.547,1.547v5.346h1.441V95.43a2.991,2.991,0,0,0-2.988-2.988h-2.988v5.746l-3.472,5.7h-1.992v-1.441Z" transform="translate(-91.269 -83.56)" fill="#ed3042" stroke="#ed3042" stroke-width="0.2"/>
    <path id="Path_8295" data-name="Path 8295" d="M256,30v1.441c.482,0,.972.018,1.458.053l.1-1.437C257.041,30.019,256.516,30,256,30Z" transform="translate(-231.403 -27.118)" fill="#ed3042" stroke="#ed3042" stroke-width="0.2"/>
    <path id="Path_8296" data-name="Path 8296" d="M303.015,53.72h1.441a21.716,21.716,0,0,0-18.672-21.5l-.2,1.427A20.348,20.348,0,0,1,303.015,53.72Z" transform="translate(-258.144 -29.123)" fill="#ed3042" stroke="#ed3042" stroke-width="0.2"/>
    <path id="Path_8297" data-name="Path 8297" d="M145.971,256.527h1.441v4.324h-1.441Z" transform="translate(-131.946 -231.879)" fill="#ed3042" stroke="#ed3042" stroke-width="0.2"/>
    <path id="Path_8298" data-name="Path 8298" d="M145.971,226.527h1.441v1.441h-1.441Z" transform="translate(-131.946 -204.762)" fill="#ed3042" stroke="#ed3042" stroke-width="0.2"/>
    <path id="Path_8299" data-name="Path 8299" d="M91,439H92.44v1.441H91Z" transform="translate(-82.256 -396.82)" fill="#ed3042" stroke="#ed3042" stroke-width="0.2"/>
    <path id="Path_8300" data-name="Path 8300" d="M61,439H62.44v1.441H61Z" transform="translate(-55.138 -396.82)" fill="#ed3042" stroke="#ed3042" stroke-width="0.2"/>
  </g>
</svg>
