<svg xmlns="http://www.w3.org/2000/svg" width="37.573" height="40.034" viewBox="0 0 37.573 40.034">
  <g id="_2065064" data-name="2065064" transform="translate(-15.681 0.05)">
    <path id="Path_8240" data-name="Path 8240" d="M48.819,0H47.1a.585.585,0,0,0,0,1.17h1.717a3.213,3.213,0,0,1,3.215,3.2V17.911a3.213,3.213,0,0,1-3.215,3.2H46.872a.585.585,0,0,0-.355.12l-3.573,2.733V21.7a.585.585,0,0,0-.585-.585H35.24a3.2,3.2,0,0,1-1.637-.446V14.1a3.569,3.569,0,0,0-1.578-2.96V4.373a3.213,3.213,0,0,1,3.215-3.2h8.2a.585.585,0,0,0,0-1.17h-8.2a4.384,4.384,0,0,0-4.385,4.373v6.254a3.586,3.586,0,0,0-.834-.1H19.313A3.581,3.581,0,0,0,15.731,14.1v1.263a.585.585,0,0,0,1.17,0V14.1a2.41,2.41,0,0,1,2.412-2.4H30.021a2.41,2.41,0,0,1,2.412,2.4v6.8a.585.585,0,0,0,0,.155v3.721c0,.074,0,.147-.011.22H31.215a2.714,2.714,0,0,0-2.667,2.22.586.586,0,0,0-.152.085l-2.616,2.02V27.764a.585.585,0,0,0-.585-.585H19.313a2.41,2.41,0,0,1-2.412-2.4v-5.9a.585.585,0,0,0-1.17,0v5.9a3.581,3.581,0,0,0,3.582,3.572h5.3v2.163a.594.594,0,0,0,.942.463L28.5,28.7v6.581a2.711,2.711,0,0,0,2.712,2.705H34.8v1.365a.594.594,0,0,0,.942.463l2.368-1.828h.7a2.711,2.711,0,0,0,2.712-2.705V34.239a.585.585,0,0,0-1.17,0v1.039a1.54,1.54,0,0,1-1.542,1.535h-.9a.585.585,0,0,0-.357.122l-1.583,1.222V37.4a.585.585,0,0,0-.585-.585H31.215a1.54,1.54,0,0,1-1.542-1.535V27.7a1.54,1.54,0,0,1,1.542-1.535h7.6A1.54,1.54,0,0,1,40.356,27.7v2.872a.585.585,0,0,0,1.17,0V27.7A2.711,2.711,0,0,0,38.814,25H33.6c0-.073.007-3.028.007-3.028a4.378,4.378,0,0,0,1.637.315h6.534v2.867a.594.594,0,0,0,.94.465l4.356-3.332h1.749A4.384,4.384,0,0,0,53.2,17.911V4.373A4.384,4.384,0,0,0,48.819,0Z" fill="#5e5e5e" stroke="#5e5e5e" stroke-width="0.1"/>
    <path id="Path_8241" data-name="Path 8241" d="M274.811,54.6a1.219,1.219,0,0,0-1.5,1.165,3.437,3.437,0,0,1-.86,2.275l-1.612,1.824a.584.584,0,0,0-.49-.266H267.2a.585.585,0,0,0-.585.585v7.079a.585.585,0,0,0,.585.585h3.146a.585.585,0,0,0,.532-.342,4.087,4.087,0,0,0,2.126.6h5.56a1.531,1.531,0,0,0,1.511-1.585c-.018-.375,0-5.415,0-5.527a1.514,1.514,0,0,0-1.511-1.512l-2.891-.009.12-.284a4.567,4.567,0,0,0-.241-4.019,1.192,1.192,0,0,0-.746-.568Zm-5.046,12.076h-1.976V60.765h1.976Zm8.8-6.027a.343.343,0,0,1,.343.343c0,.111,0,.413,0,.823-.009,2.261-.014,4.4,0,4.759a.342.342,0,0,1-.342.36h-5.56a2.913,2.913,0,0,1-1.827-.647l-.246-.2V61.521l2.394-2.709a4.606,4.606,0,0,0,1.153-3.049.033.033,0,0,1,.06-.016,3.391,3.391,0,0,1,.179,2.984l-.462,1.093a.585.585,0,0,0,.537.813Z" transform="translate(-231.321 -50.276)" fill="#5e5e5e" stroke="#5e5e5e" stroke-width="0.1"/>
    <path id="Path_8242" data-name="Path 8242" d="M73.036,198.724a.585.585,0,0,0,0,1.17H74.76l-.322,1.948a.585.585,0,1,0,1.154.191l.354-2.139h1.411l-.322,1.948a.585.585,0,1,0,1.154.191l.354-2.139H80.89a.585.585,0,0,0,0-1.17H78.736l.236-1.427H80.89a.585.585,0,0,0,0-1.17H79.166l.322-1.948a.585.585,0,1,0-1.154-.191l-.354,2.139H76.569l.322-1.948a.585.585,0,0,0-1.154-.191l-.354,2.139H73.036a.585.585,0,1,0,0,1.17H75.19l-.236,1.427Zm3.339-1.427h1.411l-.236,1.427H76.139Z" transform="translate(-52.296 -178.407)" fill="#5e5e5e" stroke="#5e5e5e" stroke-width="0.1"/>
    <path id="Path_8243" data-name="Path 8243" d="M223.241,368.9a1.967,1.967,0,0,0-1.731-.389,2.176,2.176,0,0,0-1.623,2.2,2.872,2.872,0,0,0,.864,2.056,8.581,8.581,0,0,0,2.223,1.533.585.585,0,0,0,.548,0c1.853-.982,3.087-1.969,3.087-3.589a2.162,2.162,0,0,0-1.681-2.184A1.961,1.961,0,0,0,223.241,368.9Zm2.2,1.807c0,.874-.58,1.52-2.191,2.407-1.611-.887-2.191-1.533-2.191-2.407a1,1,0,0,1,.729-1.059.876.876,0,0,1,.206-.025.807.807,0,0,1,.736.471.585.585,0,0,0,1.05-.021.76.76,0,0,1,.9-.408A.989.989,0,0,1,225.439,370.711Z" transform="translate(-188.233 -339.72)" fill="#5e5e5e" stroke="#5e5e5e" stroke-width="0.1"/>
  </g>
</svg>
