<svg xmlns="http://www.w3.org/2000/svg" width="40.953" height="43.699" viewBox="0 0 40.953 43.699">
  <g id="recommendation-letter" transform="translate(0.1 0.1)">
    <g id="Group_7342" data-name="Group 7342" transform="translate(0)">
      <path id="Path_5655" data-name="Path 5655" d="M56.278,383.643a.637.637,0,0,0-.637.637v8.993h-38.2V384.28a.637.637,0,0,0-1.274,0v9.631a.637.637,0,0,0,.637.637H56.278a.637.637,0,0,0,.637-.637V384.28a.637.637,0,0,0-.637-.637Z" transform="translate(-16.163 -351.049)" fill="#ed3042" stroke="#ed3042" stroke-width="0.2"/>
      <path id="Path_5656" data-name="Path 5656" d="M56.615,19.352a.636.636,0,0,0-.337-.1h0l-2.795,0V13.824a.637.637,0,1,0-1.274,0v7.351L36.539,28.844,20.869,21.15V1.274H52.207v9.575a.637.637,0,1,0,1.274,0V.637A.637.637,0,0,0,52.844,0H20.232a.637.637,0,0,0-.637.637V19.228l-2.795,0h0a.634.634,0,0,0-.637.636V30.256a.637.637,0,0,0,1.274,0V20.884l18.821,9.242a.637.637,0,0,0,.561,0L55.64,20.914v9.342a.637.637,0,0,0,1.274,0V19.893A.638.638,0,0,0,56.615,19.352Z" transform="translate(-16.162)" fill="#ed3042" stroke="#ed3042" stroke-width="0.2"/>
      <path id="Path_5657" data-name="Path 5657" d="M55.133,402.256a.637.637,0,0,0,.637-.637v-6.008a.637.637,0,0,0-.637-.637H49.125a.637.637,0,0,0-.637.637v6.008a.637.637,0,0,0,.637.637Zm-5.37-6.007H54.5v4.733H49.762Z" transform="translate(-45.742 -361.417)" fill="#ed3042" stroke="#ed3042" stroke-width="0.2"/>
      <path id="Path_5658" data-name="Path 5658" d="M155.192,434.634h3.433a.637.637,0,1,0,0-1.274h-3.433a.637.637,0,0,0,0,1.274Z" transform="translate(-142.797 -396.542)" fill="#ed3042" stroke="#ed3042" stroke-width="0.2"/>
      <path id="Path_5659" data-name="Path 5659" d="M155.192,396.248h5.149a.637.637,0,0,0,0-1.274h-5.149a.637.637,0,0,0,0,1.274Z" transform="translate(-142.797 -361.417)" fill="#ed3042" stroke="#ed3042" stroke-width="0.2"/>
      <path id="Path_5660" data-name="Path 5660" d="M167.795,136.588a8.19,8.19,0,1,0-8.19-8.19A8.2,8.2,0,0,0,167.795,136.588Zm-4.676-3.1a5.286,5.286,0,0,1,9.353,0,6.9,6.9,0,0,1-9.353,0Zm2.1-6.676a2.581,2.581,0,1,1,2.581,2.581A2.584,2.584,0,0,1,165.214,126.811Zm2.581-5.328a6.911,6.911,0,0,1,5.572,11,6.552,6.552,0,0,0-3.189-2.649,3.856,3.856,0,1,0-4.765,0,6.553,6.553,0,0,0-3.189,2.649,6.911,6.911,0,0,1,5.572-11Z" transform="translate(-147.418 -109.996)" fill="#ed3042" stroke="#ed3042" stroke-width="0.2"/>
      <path id="Path_5661" data-name="Path 5661" d="M224.571,34.225a.922.922,0,0,0-.749-.632l-1.1-.159-.49-.992a.928.928,0,0,0-1.664,0l-.49.992-1.1.159a.928.928,0,0,0-.514,1.583l.792.772-.187,1.09a.927.927,0,0,0,1.347.978l.979-.515.979.515a.928.928,0,0,0,1.347-.978l-.187-1.091.792-.772A.922.922,0,0,0,224.571,34.225Zm-2.047.938a.928.928,0,0,0-.267.822l.1.578-.519-.273a.928.928,0,0,0-.864,0l-.519.273.1-.578a.928.928,0,0,0-.267-.821l-.42-.41.581-.084a.928.928,0,0,0,.7-.508l.26-.526.26.526a.928.928,0,0,0,.7.508l.581.084Z" transform="translate(-201.028 -29.212)" fill="#ed3042"/>
      <path id="Path_5662" data-name="Path 5662" d="M317.506,55.439a.922.922,0,0,0-.749-.632l-1.095-.159-.49-.992a.928.928,0,0,0-1.664,0l-.49.992-1.1.159a.928.928,0,0,0-.514,1.583l.792.772-.187,1.091a.927.927,0,0,0,1.346.978l.979-.515.979.515a.928.928,0,0,0,1.347-.978l-.187-1.091.792-.772A.922.922,0,0,0,317.506,55.439Zm-2.047.938a.928.928,0,0,0-.267.821l.1.578-.519-.273a.928.928,0,0,0-.864,0l-.519.273.1-.578a.927.927,0,0,0-.267-.821l-.42-.41.581-.084a.928.928,0,0,0,.7-.508l.26-.526.26.526a.928.928,0,0,0,.7.507l.581.084Z" transform="translate(-286.068 -48.623)" fill="#ed3042"/>
      <path id="Path_5663" data-name="Path 5663" d="M126.511,59.16a.922.922,0,0,0,.977.071l.979-.515.979.515a.928.928,0,0,0,1.347-.978l-.187-1.091.792-.772a.928.928,0,0,0-.514-1.583l-1.1-.159-.49-.992a.922.922,0,0,0-.832-.517h0a.922.922,0,0,0-.832.517l-.49.992-1.1.159a.928.928,0,0,0-.514,1.583l.792.772-.187,1.091A.923.923,0,0,0,126.511,59.16Zm1-3.278a.928.928,0,0,0,.7-.508l.26-.526.26.526a.928.928,0,0,0,.7.508l.581.084-.42.41a.928.928,0,0,0-.267.822l.1.578L128.9,57.5a.928.928,0,0,0-.864,0l-.519.273.1-.578a.928.928,0,0,0-.267-.821l-.42-.41Z" transform="translate(-115.987 -48.623)" fill="#ed3042"/>
    </g>
  </g>
</svg>
