<svg xmlns="http://www.w3.org/2000/svg" width="20" height="20" viewBox="0 0 20 20">
  <g id="document" transform="translate(0 -540.36)">
    <g id="Group_5" data-name="Group 5" transform="translate(0 540.36)">
      <g id="Group_4" data-name="Group 4" transform="translate(0 0)">
        <path id="Path_18" data-name="Path 18" d="M62.11,713.88h9.123a.41.41,0,0,0,0-.82H62.11a.41.41,0,0,0,0,.82Z" transform="translate(-59.171 -705.982)" fill="#fff"/>
        <path id="Path_19" data-name="Path 19" d="M66.671,835.06H62.11a.41.41,0,0,0,0,.82h4.561a.41.41,0,0,0,0-.82Z" transform="translate(-59.171 -822.982)" fill="#fff"/>
        <path id="Path_20" data-name="Path 20" d="M66.671,896.06H62.11a.41.41,0,1,0,0,.82h4.561a.41.41,0,1,0,0-.82Z" transform="translate(-59.171 -881.482)" fill="#fff"/>
        <path id="Path_21" data-name="Path 21" d="M62.11,774.88h9.123a.41.41,0,0,0,0-.82H62.11a.41.41,0,0,0,0,.82Z" transform="translate(-59.171 -764.482)" fill="#fff"/>
        <path id="Path_22" data-name="Path 22" d="M19.881,549.434l-1.873-1.873a.406.406,0,0,0-.291-.119.423.423,0,0,0-.291.119l-1.176,1.176v-3.443a.031.031,0,0,0,0-.021s0-.012,0-.016,0-.012,0-.016,0-.012,0-.02,0-.012,0-.016,0-.012-.008-.016,0-.012-.008-.016,0-.012-.008-.016-.008-.012-.012-.016,0-.008-.008-.012-.012-.02-.02-.029l-3.746-4.59c-.008-.012-.02-.021-.029-.033l-.008-.008c-.008-.008-.016-.012-.025-.021s-.008,0-.012-.008-.016-.012-.025-.016-.008,0-.012-.008l-.025-.012a.015.015,0,0,0-.012,0l-.029-.012s-.008,0-.012,0-.02,0-.029-.008-.008,0-.012,0a.09.09,0,0,0-.033,0h-.012c-.016,0-.029,0-.045,0H.41a.411.411,0,0,0-.41.41v19.18a.411.411,0,0,0,.41.41H15.84a.411.411,0,0,0,.41-.41v-6.316l3.627-3.611a.452.452,0,0,0,.123-.3h0A.423.423,0,0,0,19.881,549.434ZM12.5,541.9l2.475,3.033H12.5Zm2.943,17.623H.82V541.167H11.684v4.18a.411.411,0,0,0,.41.41H15.43v3.8l-4.193,4.193a.071.071,0,0,0-.016.02s-.008.008-.008.012a.675.675,0,0,0-.045.07v0c0,.012-.012.025-.016.037l-1.123,2.967a.407.407,0,0,0,.094.434.413.413,0,0,0,.291.119.423.423,0,0,0,.143-.025l3-1.123h0a.207.207,0,0,1,.029-.012s.008,0,.012,0a.086.086,0,0,0,.025-.016s.008,0,.012-.008.016-.012.025-.016.008,0,.012-.008.012-.012.02-.016.008-.008.012-.008l1.738-1.729v5.086Zm-3.754-4.762.967.951-1.549.582Zm1.709.533-1.291-1.271,5.6-5.6,1.3,1.3Z" transform="translate(0 -540.36)" fill="#fff"/>
      </g>
    </g>
  </g>
</svg>
