<svg xmlns="http://www.w3.org/2000/svg" width="87.216" height="87.216" viewBox="0 0 87.216 87.216">
  <g id="_2654394" data-name="2654394" transform="translate(-1 -1)">
    <path id="Path_1236" data-name="Path 1236" d="M60.082,31.948a28.336,28.336,0,0,0-2.988.163A27.988,27.988,0,0,0,29.134,1a28.134,28.134,0,0,0,0,56.268,28.4,28.4,0,0,0,2.977-.173A28.132,28.132,0,1,0,60.082,31.948ZM29.134,54.455A25.486,25.486,0,1,1,54.2,32.576a27.771,27.771,0,0,0-2.978.823A22.581,22.581,0,1,0,33.4,51.221a28.17,28.17,0,0,0-.823,2.977A25.56,25.56,0,0,1,29.134,54.455ZM34.7,48.019a19.627,19.627,0,0,1-19.569-5.054,4.18,4.18,0,0,1,3.317-3.517l5.195-1.054a5.7,5.7,0,0,0,.927-.367l4.561,6.122,4.57-6.135a6.011,6.011,0,0,0,1.025.407l5.087,1.027a4.165,4.165,0,0,1,.882.294,28.243,28.243,0,0,0-6,8.277ZM22.1,29.134a1.407,1.407,0,0,1,0-2.813Zm1.1-5.627H22.1a4.16,4.16,0,0,0-1.065.153,6.511,6.511,0,0,1,6.209-8.594h3.78a6.511,6.511,0,0,1,6.208,8.594,4.16,4.16,0,0,0-1.065-.153H32.28a11.969,11.969,0,0,1-5.33-1.259l-.3-.148h-.332A4.2,4.2,0,0,0,23.2,23.507Zm12.97,2.813a1.407,1.407,0,0,1,0,2.813Zm-2.813,2.813a4.22,4.22,0,1,1-8.44,0V26.321a1.41,1.41,0,0,1,1.138-1.381,14.816,14.816,0,0,0,6.227,1.381h1.075Zm-6.385,6.657a6.409,6.409,0,0,0,4.331,0c.079.136.163.27.255.4L29.134,39.44l-2.42-3.247C26.8,36.062,26.889,35.929,26.969,35.791Zm15.994,2.014a6.951,6.951,0,0,0-2.591-1.114l-4.98-1a2.8,2.8,0,0,1-1.646-1.29,7.045,7.045,0,0,0,1.823-2.452h.6a4.21,4.21,0,0,0,3.451-6.637,9.344,9.344,0,0,0-8.595-13.057h-3.78A9.345,9.345,0,0,0,18.65,25.312,4.209,4.209,0,0,0,22.1,31.948h.6A7.041,7.041,0,0,0,24.522,34.4a2.7,2.7,0,0,1-1.54,1.262L17.895,36.69a6.96,6.96,0,0,0-4.869,3.739,19.691,19.691,0,1,1,34.989-5.722,28.228,28.228,0,0,0-5.051,3.1ZM60.082,85.4A25.321,25.321,0,1,1,85.4,60.082,25.35,25.35,0,0,1,60.082,85.4Z" fill="#ed3042"/>
    <path id="Path_1237" data-name="Path 1237" d="M57.743,28.232l2.767-.512c-.186-1-.412-2-.674-2.979l-2.718.729C57.361,26.377,57.571,27.307,57.743,28.232Z" transform="translate(22.824 9.656)" fill="#ed3042"/>
    <path id="Path_1238" data-name="Path 1238" d="M43.22,12.44A4.2,4.2,0,0,0,46.3,11.084,36.909,36.909,0,0,1,63.647,31.2l2.653-.937A39.742,39.742,0,0,0,47.414,8.493c.006-.091.027-.18.027-.273a4.22,4.22,0,1,0-4.22,4.22Zm0-5.627A1.407,1.407,0,1,1,41.813,8.22,1.409,1.409,0,0,1,43.22,6.813Z" transform="translate(15.455 1.22)" fill="#ed3042"/>
    <path id="Path_1239" data-name="Path 1239" d="M7.238,36.777l-2.767.512c.186,1,.412,2,.674,2.979l2.718-.729c-.243-.907-.453-1.837-.625-2.763Z" transform="translate(1.412 14.551)" fill="#ed3042"/>
    <path id="Path_1240" data-name="Path 1240" d="M28.673,59.423a4.2,4.2,0,0,0-3.081,1.356A36.921,36.921,0,0,1,8.246,40.667L5.593,41.6A39.742,39.742,0,0,0,24.479,63.37c-.006.091-.027.18-.027.273a4.22,4.22,0,1,0,4.22-4.22Zm0,5.627a1.407,1.407,0,1,1,1.407-1.407A1.409,1.409,0,0,1,28.673,65.049Z" transform="translate(1.868 16.133)" fill="#ed3042"/>
    <path id="Path_1241" data-name="Path 1241" d="M65.741,34.649h0a5.6,5.6,0,0,0-5.018-1.554,5.8,5.8,0,0,0-3.048,1.664l-15.607,15.6-4.354-4.355a5.807,5.807,0,0,0-3.047-1.661,5.632,5.632,0,0,0-6.572,6.571,5.8,5.8,0,0,0,1.664,3.048L38.089,62.3a5.622,5.622,0,0,0,7.956,0L65.631,42.713A5.8,5.8,0,0,0,67.3,39.665a5.6,5.6,0,0,0-1.554-5.016Zm-1.215,4.518a3.059,3.059,0,0,1-.883,1.557L44.056,60.31a2.879,2.879,0,0,1-3.978,0l-8.332-8.332a3.069,3.069,0,0,1-.883-1.559,2.819,2.819,0,0,1,2.767-3.352A2.766,2.766,0,0,1,35.724,48l6.343,6.343,17.6-17.6a3.069,3.069,0,0,1,1.559-.883,2.821,2.821,0,0,1,3.3,3.3Z" transform="translate(10.981 13.015)" fill="#ed3042"/>
  </g>
</svg>
