<svg xmlns="http://www.w3.org/2000/svg" width="25.366" height="30.642" viewBox="0 0 25.366 30.642">
  <g id="save-file" transform="translate(-44.193 0.25)">
    <path id="Path_5623" data-name="Path 5623" d="M106.2,151.632h1.549a.445.445,0,0,0,0-.89H106.2a1.405,1.405,0,0,0-1.4,1.4v2.009a1.405,1.405,0,0,0,1.4,1.4h6.6a1.405,1.405,0,0,0,1.4-1.4v-2.009a1.405,1.405,0,0,0-1.4-1.4h-3.273a.445.445,0,0,0,0,.89H112.8a.514.514,0,0,1,.513.513v2.009a.514.514,0,0,1-.513.513h-6.6a.514.514,0,0,1-.513-.513v-2.009A.514.514,0,0,1,106.2,151.632Z" transform="translate(-56.769 -141.794)" fill="#fff" stroke="#fff" stroke-width="0.5"/>
    <path id="Path_5624" data-name="Path 5624" d="M291.971,164.685h3.507a.445.445,0,0,0,0-.89h-3.507a.445.445,0,1,0,0,.89Z" transform="translate(-232.416 -154.072)" fill="#fff" stroke="#fff" stroke-width="0.5"/>
    <path id="Path_5625" data-name="Path 5625" d="M291.971,204.7h3.507a.445.445,0,0,0,0-.89h-3.507a.445.445,0,1,0,0,.89Z" transform="translate(-232.416 -191.715)" fill="#fff" stroke="#fff" stroke-width="0.5"/>
    <path id="Path_5626" data-name="Path 5626" d="M105.24,258.965H114.5a.445.445,0,1,0,0-.89H105.24a.445.445,0,1,0,0,.89Z" transform="translate(-56.769 -242.755)" fill="#fff" stroke="#fff" stroke-width="0.5"/>
    <path id="Path_5627" data-name="Path 5627" d="M105.24,298.985H114.5a.445.445,0,1,0,0-.89H105.24a.445.445,0,1,0,0,.89Z" transform="translate(-56.769 -280.399)" fill="#fff" stroke="#fff" stroke-width="0.5"/>
    <path id="Path_5628" data-name="Path 5628" d="M105.24,360.193h4.629a.445.445,0,1,0,0-.89H105.24a.445.445,0,1,0,0,.89Z" transform="translate(-56.769 -337.974)" fill="#fff" stroke="#fff" stroke-width="0.5"/>
    <path id="Path_5629" data-name="Path 5629" d="M105.24,400.212H114.5a.445.445,0,0,0,0-.89H105.24a.445.445,0,0,0,0,.89Z" transform="translate(-56.769 -375.617)" fill="#fff" stroke="#fff" stroke-width="0.5"/>
    <path id="Path_5630" data-name="Path 5630" d="M67.612,15.32h-.641V1.765A1.767,1.767,0,0,0,65.207,0H51.872A2.6,2.6,0,0,0,50.03.76L45.22,5.24l-.011.011A2.6,2.6,0,0,0,44.443,7.1V21.513a.445.445,0,1,0,.89,0V7.1c0-.047,0-.094.006-.14H49.9a1.832,1.832,0,0,0,1.83-1.83V.9c.046,0,.093-.006.14-.006H65.207a.876.876,0,0,1,.875.875V15.32H61.52a1.7,1.7,0,0,0-1.491.888q-.02.036-.038.073a1.686,1.686,0,0,0-.168.735v5.161a4.74,4.74,0,0,0,6.257,4.493v1.707a.876.876,0,0,1-.875.875h-19a.876.876,0,0,1-.875-.875V23.294a.445.445,0,0,0-.89,0v5.083a1.767,1.767,0,0,0,1.765,1.765h19a1.767,1.767,0,0,0,1.765-1.765v-1.9a.442.442,0,0,0-.042-.188,4.744,4.744,0,0,0,2.379-4.109V17.016a1.7,1.7,0,0,0-1.7-1.7ZM50.841,5.129a.941.941,0,0,1-.94.94H45.676a1.744,1.744,0,0,1,.157-.182l4.809-4.48.011-.011a1.747,1.747,0,0,1,.188-.162ZM67.612,16.21a.807.807,0,0,1,.806.806v.336h-7.7v-.336a.807.807,0,0,1,.806-.806Zm.806,5.967a3.852,3.852,0,1,1-7.7,0V18.242h7.7v3.935Z" transform="translate(0)" fill="#fff" stroke="#fff" stroke-width="0.5"/>
    <path id="Path_5631" data-name="Path 5631" d="M350.146,334.7a.445.445,0,0,0,.323.217.45.45,0,0,0,.062,0,.445.445,0,0,0,.309-.124l2.922-2.813a.445.445,0,0,0-.618-.641l-2.513,2.42-.683-1.174a.445.445,0,0,0-.77.448Z" transform="translate(-286.588 -311.552)" fill="#fff" stroke="#fff" stroke-width="0.5"/>
  </g>
</svg>
