<svg xmlns="http://www.w3.org/2000/svg" width="37.046" height="42.604" viewBox="0 0 37.046 42.604">
  <g id="Group_8069" data-name="Group 8069" transform="translate(6334.875 -2604.843)">
    <g id="_2885625" data-name="2885625" transform="translate(-6368.252 2604.843)">
      <g id="Group_53" data-name="Group 53" transform="translate(34.001 0.625)">
        <path id="Path_1249" data-name="Path 1249" d="M75.022,7.505H42.53a1.652,1.652,0,0,0-1.653,1.652v1.951l2.84,4.761H73.593l3.082-4.761V9.157A1.652,1.652,0,0,0,75.022,7.505Z" transform="translate(-40.877 -7.505)" fill="#5f99d7"/>
        <path id="Path_1250" data-name="Path 1250" d="M47.606,9.157A1.652,1.652,0,0,1,49.259,7.5H42.53a1.652,1.652,0,0,0-1.653,1.652v1.951l2.84,4.761h3.89Z" transform="translate(-40.877 -7.505)" fill="#3c87d0"/>
        <g id="XMLID_250_" transform="translate(0 3.603)">
          <g id="Group_49" data-name="Group 49">
            <g id="Group_48" data-name="Group 48">
              <path id="Path_1251" data-name="Path 1251" d="M76.675,50.785V87.572a.965.965,0,0,1-.965.965H41.842a.965.965,0,0,1-.965-.965V50.785Z" transform="translate(-40.877 -50.785)" fill="#dff6fd"/>
            </g>
          </g>
        </g>
        <path id="Path_1252" data-name="Path 1252" d="M48.572,88.537a.965.965,0,0,1-.965-.965V50.785H40.877V87.572a.965.965,0,0,0,.965.965h6.729Z" transform="translate(-40.877 -47.182)" fill="#c8effe"/>
        <g id="XMLID_251_" transform="translate(7.301 8.045)">
          <g id="Group_50" data-name="Group 50">
            <circle id="Ellipse_93" data-name="Ellipse 93" cx="10.568" cy="10.568" r="10.568" fill="#fee97d"/>
          </g>
        </g>
        <path id="Path_1253" data-name="Path 1253" d="M133.237,114.713a10.571,10.571,0,0,1,8.237-10.31,10.568,10.568,0,1,0,0,20.619A10.572,10.572,0,0,1,133.237,114.713Z" transform="translate(-121.276 -96.1)" fill="#fee45a"/>
        <path id="Path_1254" data-name="Path 1254" d="M394.429,318.286h-1.6a.834.834,0,0,1-.834-.834v-1.6a.834.834,0,0,1,.834-.834h1.6a.834.834,0,0,1,.834.834v1.6A.834.834,0,0,1,394.429,318.286Z" transform="translate(-362.763 -289.416)" fill="#c8effe"/>
        <g id="Group_52" data-name="Group 52" transform="translate(11.795 10.847)">
          <g id="Group_51" data-name="Group 51" transform="translate(0 10.246)">
            <path id="Path_1255" data-name="Path 1255" d="M194.77,264.721V267a10.571,10.571,0,0,1-12.213.047v-2.323a1.474,1.474,0,0,1,.736-1.276l3.811-2.2.786-.366H189.2l1.019.366,3.811,2.2A1.474,1.474,0,0,1,194.77,264.721Z" transform="translate(-182.557 -260.875)" fill="#f37c7c"/>
          </g>
          <path id="Path_1256" data-name="Path 1256" d="M190.223,261.241l-.894-.321.358.74-1.7.822v-1.607h-.1l-.786.366-3.811,2.2a1.474,1.474,0,0,0-.736,1.276v2.323a10.542,10.542,0,0,0,2.363,1.247v-2a1.474,1.474,0,0,1,.736-1.276l1.206-.7a2.558,2.558,0,0,1,1.514-.317q.121.011.245.011a2.77,2.77,0,0,0,2.693-2.135Z" transform="translate(-182.557 -250.629)" fill="#ee6161"/>
          <path id="Path_1257" data-name="Path 1257" d="M240.216,220.266a1.517,1.517,0,0,1-3.035,0v-4.087h3.035v4.087Z" transform="translate(-232.634 -209.654)" fill="#ffe5c2"/>
          <path id="Path_1258" data-name="Path 1258" d="M218.737,138.226h-4.017l-1.246-.409a.28.28,0,0,0-.368.266v3.454l1.262,1.911h4.539c.6-.925,1.259-1.911,1.259-1.911v-1.881A1.431,1.431,0,0,0,218.737,138.226Z" transform="translate(-210.564 -137.802)" fill="#a79ba7"/>
          <path id="Path_1259" data-name="Path 1259" d="M214.942,142.868l-.061.006v-2.7a.9.9,0,0,1,1.142-.789l.533.175h3.608a1.43,1.43,0,0,0-1.426-1.33h-4.017l-1.246-.409a.28.28,0,0,0-.368.266v3.454l1.262,1.912h.957Z" transform="translate(-210.564 -137.803)" fill="#918291"/>
          <path id="Path_1260" data-name="Path 1260" d="M238.706,247.207a4.069,4.069,0,0,0,1.508-.288v-.789H237.18v1.557a1.543,1.543,0,0,0,1.257,1.531,1.508,1.508,0,0,0,.819-.085,1.517,1.517,0,0,1-.959-1.41V247.6a.4.4,0,0,1,.406-.4Z" transform="translate(-232.633 -237.112)" fill="#fed2a4"/>
          <path id="Path_1261" data-name="Path 1261" d="M213.107,182.665v2.247a3.513,3.513,0,0,0,.473,1.765l.372-.592,1.159,1.778,2.033.328h.6l.471-.123a3.53,3.53,0,0,0,1.951-3.157v-2.247Z" transform="translate(-210.564 -178.93)" fill="#ffe5c2"/>
          <path id="Path_1262" data-name="Path 1262" d="M214.883,184.545v-1.879h-1.776v2.247a3.53,3.53,0,0,0,5.11,3.157A3.53,3.53,0,0,1,214.883,184.545Z" transform="translate(-210.564 -178.931)" fill="#fed2a4"/>
        </g>
      </g>
      <g id="Group_54" data-name="Group 54" transform="translate(33.377)">
        <path id="Path_1263" data-name="Path 1263" d="M124.388,100.763a.624.624,0,0,0-.877.1,11.073,11.073,0,0,0-2.437,6.972,11.192,11.192,0,1,0,4.461-8.942.624.624,0,1,0,.752,1,9.941,9.941,0,0,1,12.743,15.226v-.955a2.1,2.1,0,0,0-1.048-1.817l-.242-.14a.624.624,0,1,0-.625,1.081l.242.14a.852.852,0,0,1,.425.736V116.1a9.932,9.932,0,0,1-1.525.837v-.651a.624.624,0,0,0-1.249,0v1.1a9.962,9.962,0,0,1-5.5-.005v-1.1a.624.624,0,0,0-1.249,0v.643a9.946,9.946,0,0,1-1.441-.786v-1.986a.853.853,0,0,1,.425-.736l3.1-1.792a2.141,2.141,0,0,0,3.853-.037l.569.329a.624.624,0,0,0,.625-1.081l-.988-.572v-.658a4.156,4.156,0,0,0,2.022-3.564v-4.128a2.057,2.057,0,0,0-2.055-2.055h-3.917L129.3,99.49a.9.9,0,0,0-1.187.859v5.7a4.156,4.156,0,0,0,2,3.554v.716l-3.5,2.024a2.105,2.105,0,0,0-1.048,1.817v1.016a9.935,9.935,0,0,1-1.081-13.536A.624.624,0,0,0,124.388,100.763Zm5.766.322a.625.625,0,0,0,.195.031h4.016a.807.807,0,0,1,.806.806v1.257H129.36v-2.355Zm-.794,3.343h5.812v1.622a2.906,2.906,0,0,1-5.812,0Zm2.906,5.777a4.149,4.149,0,0,0,.884-.1v.571a.893.893,0,1,1-1.786,0v-.575A4.156,4.156,0,0,0,132.266,110.205Z" transform="translate(-113.773 -88.597)"/>
        <path id="Path_1264" data-name="Path 1264" d="M387.553,307.516h-1.6a1.46,1.46,0,0,0-1.458,1.458v1.6a1.46,1.46,0,0,0,1.458,1.458h1.6a1.46,1.46,0,0,0,1.458-1.458v-1.6A1.46,1.46,0,0,0,387.553,307.516Zm.21,3.06a.21.21,0,0,1-.21.21h-1.6a.21.21,0,0,1-.209-.21v-1.6a.21.21,0,0,1,.209-.21h1.6a.21.21,0,0,1,.21.21Z" transform="translate(-355.262 -281.915)"/>
        <path id="Path_1265" data-name="Path 1265" d="M90.394,394.813a.624.624,0,0,0,0-1.249H88.855a.624.624,0,0,0,0,1.249Z" transform="translate(-83.664 -360.8)"/>
        <path id="Path_1266" data-name="Path 1266" d="M393.207,393.564h-1.538a.624.624,0,1,0,0,1.249h1.538a.624.624,0,1,0,0-1.249Z" transform="translate(-361.268 -360.8)"/>
        <path id="Path_1267" data-name="Path 1267" d="M136.168,393.564a.624.624,0,1,0,0,1.249h18.75a.624.624,0,0,0,0-1.249Z" transform="translate(-127.039 -360.8)"/>
        <path id="Path_1268" data-name="Path 1268" d="M117.721,437.538H91.165a.624.624,0,0,0,0,1.249h26.555a.624.624,0,0,0,0-1.249Z" transform="translate(-85.782 -401.113)"/>
        <path id="Path_1269" data-name="Path 1269" d="M68.147,0H35.654a2.279,2.279,0,0,0-2.277,2.277V27.595a.624.624,0,0,0,1.249,0V4.852H69.175V41.98a.624.624,0,0,0,1.249,0V2.277A2.279,2.279,0,0,0,68.147,0ZM34.626,3.6V2.277a1.029,1.029,0,0,1,1.028-1.028H68.147a1.029,1.029,0,0,1,1.028,1.028V3.6H34.626Z" transform="translate(-33.377)"/>
        <path id="Path_1270" data-name="Path 1270" d="M34,355.932a.624.624,0,0,0-.624.624V368.28a.624.624,0,1,0,1.249,0V356.556A.624.624,0,0,0,34,355.932Z" transform="translate(-33.378 -326.3)"/>
      </g>
    </g>
  </g>
</svg>
