<svg xmlns="http://www.w3.org/2000/svg" width="32.266" height="32.266" viewBox="0 0 32.266 32.266">
  <g id="search-interface-symbol" transform="translate(-0.006)">
    <g id="_x34__4_" transform="translate(0.006)">
      <g id="Group_7396" data-name="Group 7396" transform="translate(0)">
        <path id="Path_5756" data-name="Path 5756" d="M31.966,30.511l-8.331-8.2a13.177,13.177,0,0,0,3.522-8.954A13.47,13.47,0,0,0,13.581,0,13.468,13.468,0,0,0,.006,13.359,13.468,13.468,0,0,0,13.581,26.719a13.652,13.652,0,0,0,8.545-2.983l8.363,8.23a1.056,1.056,0,0,0,1.477,0A1.017,1.017,0,0,0,31.966,30.511ZM13.581,24.663a11.4,11.4,0,0,1-11.487-11.3,11.4,11.4,0,0,1,11.487-11.3,11.4,11.4,0,0,1,11.487,11.3A11.4,11.4,0,0,1,13.581,24.663Z" transform="translate(-0.006 0)" fill="#fff"/>
      </g>
    </g>
  </g>
</svg>
