<svg xmlns="http://www.w3.org/2000/svg" width="36" height="36" viewBox="0 0 36 36">
  <g id="Group_8087" data-name="Group 8087" transform="translate(-8818 -2498)">
    <g id="email_2_" data-name="email(2)" transform="translate(8818 2498)">
      <path id="Path_5708" data-name="Path 5708" d="M424.515,176.512l-.091.051-5.408,4.343-.016-.02V176h4.43a1.4,1.4,0,0,1,1.085.512Zm0,0" transform="translate(-389.539 -163.624)" fill="#4dbbeb"/>
      <path id="Path_5709" data-name="Path 5709" d="M158.229,11.407V30.274L161.621,33l.007.009,3.476-2.9,3.476,2.9.007-.009,7.995-6.42-.016-.02V11.407A1.406,1.406,0,0,0,175.159,10H159.636a1.406,1.406,0,0,0-1.406,1.406Zm0,0" transform="translate(-147.104 -9.297)" fill="#f37c7c"/>
      <path id="Path_5710" data-name="Path 5710" d="M170.063,60.031A7.031,7.031,0,1,1,163.031,53,7.031,7.031,0,0,1,170.063,60.031Zm0,0" transform="translate(-145.031 -49.273)" fill="#fff"/>
      <path id="Path_5711" data-name="Path 5711" d="M218.992,57.277a7.033,7.033,0,0,0,0,13.461,7.033,7.033,0,0,0,0-13.461Zm0,0" transform="translate(-198.953 -53.25)" fill="#f37c7c" opacity="0.25"/>
      <path id="Path_5712" data-name="Path 5712" d="M44.183,257l-5.408,4.342-7.995,6.421-.007.008-3.476-2.9-3.476,2.9-.007-.008-7.995-6.421L10.413,257l-.091-.051a1.4,1.4,0,0,0-.321.894v14.93a1.407,1.407,0,0,0,1.406,1.406H43.189a1.407,1.407,0,0,0,1.406-1.406v-14.93a1.4,1.4,0,0,0-.321-.894Zm0,0" transform="translate(-9.298 -238.882)" fill="#bee7f4"/>
      <path id="Path_5713" data-name="Path 5713" d="M20.085,176v4.885l-.016.02-5.408-4.343-.091-.051A1.4,1.4,0,0,1,15.655,176Zm0,0" transform="translate(-13.546 -163.625)" fill="#4dbbeb"/>
      <path id="Path_5714" data-name="Path 5714" d="M157.953,429H146.7a.7.7,0,1,0,0,1.406h11.25a.7.7,0,1,0,0-1.406Zm0,0" transform="translate(-135.734 -398.835)"/>
      <path id="Path_5715" data-name="Path 5715" d="M153.734,58.469A7.734,7.734,0,1,0,146,50.734,7.743,7.743,0,0,0,153.734,58.469Zm0-14.063a6.328,6.328,0,1,1-6.328,6.328A6.335,6.335,0,0,1,153.734,44.406Zm0,0" transform="translate(-135.734 -39.976)"/>
      <path id="Path_5716" data-name="Path 5716" d="M35.519,12.441a2.1,2.1,0,0,0-1.628-.769H30.164V2.11A2.112,2.112,0,0,0,28.055,0H7.945A2.112,2.112,0,0,0,5.836,2.11v9.563H2.109A2.11,2.11,0,0,0,0,13.782v20.11a2.1,2.1,0,0,0,.618,1.491l0,0,.005.005A2.094,2.094,0,0,0,2.109,36H33.891a2.1,2.1,0,0,0,1.475-.6l.007-.007.009-.008A2.1,2.1,0,0,0,36,33.891V13.782a2.115,2.115,0,0,0-.481-1.341ZM1.406,14.074l12.01,9.644L1.406,33.728ZM14.975,24.25,18,21.728l3.025,2.521L33.438,34.595H2.562Zm7.61-.532,12.01-9.644V33.728Zm11-10.639-3.423,2.749V13.079ZM7.242,2.11a.7.7,0,0,1,.7-.7h20.11a.7.7,0,0,1,.7.7V16.957L21.482,22.8,18.45,20.273a.7.7,0,0,0-.9,0L14.518,22.8,7.242,16.957ZM5.836,15.827,2.413,13.079H5.836Zm0,0"/>
      <path id="Path_5717" data-name="Path 5717" d="M199.019,128.419a.7.7,0,0,0,.994,0l4.219-4.219a.7.7,0,1,0-.994-.994l-3.722,3.722-2.315-2.315a.7.7,0,0,0-.994.994Zm0,0" transform="translate(-182.219 -114.351)"/>
      <path id="Path_5718" data-name="Path 5718" d="M346.7,429a.7.7,0,1,0,.7.7A.7.7,0,0,0,346.7,429Zm0,0" transform="translate(-321.672 -398.835)"/>
    </g>
  </g>
</svg>
