<svg xmlns="http://www.w3.org/2000/svg" width="19.986" height="21.448" viewBox="0 0 19.986 21.448">
  <g id="_3075919" data-name="3075919" transform="translate(-16.493 0.137)">
    <path id="Path_7933" data-name="Path 7933" d="M36.108,8.357h0L32.99,5.447V4.086a.311.311,0,0,0-.623,0v7.365l-5.154,4.81a1.068,1.068,0,0,1-1.453,0l-5.154-4.81V2.374A.377.377,0,0,1,20.982,2H31.99a.377.377,0,0,1,.376.377V2.84a.311.311,0,1,0,.623,0V2.374a1,1,0,0,0-1-1H28.626L27.638.452a1.693,1.693,0,0,0-2.3,0l-.988.922H20.982a1,1,0,0,0-1,1V5.447L16.868,8.354h0a1,1,0,0,0-.322.735V19.574a1.689,1.689,0,0,0,1.687,1.687h1.441a.311.311,0,0,0,0-.623H18.23a1.066,1.066,0,0,1-1.065-1.065V9.092l8.169,7.624a1.693,1.693,0,0,0,2.3,0l8.169-7.624V19.574a1.066,1.066,0,0,1-1.065,1.065H20.917a.311.311,0,1,0,0,.623H34.742a1.689,1.689,0,0,0,1.687-1.687V9.092a1,1,0,0,0-.322-.735ZM25.76.908a1.068,1.068,0,0,1,1.453,0l.5.467H25.26Zm-5.777,9.961L17.535,8.584,19.983,6.3v4.57ZM32.99,6.3l2.448,2.285L32.99,10.869Z" transform="translate(0 0)" fill="#fff" stroke="#fff" stroke-width="0.1"/>
    <path id="Path_7934" data-name="Path 7934" d="M351.629,432.69a1,1,0,0,0,0-2h-2.752a1,1,0,0,0,0,2Zm-3.129-1a.377.377,0,0,1,.376-.376h2.752a.377.377,0,0,1,0,.753h-2.752A.377.377,0,0,1,348.5,431.69Z" transform="translate(-317.575 -412.805)" fill="#fff" stroke="#fff" stroke-width="0.1"/>
    <path id="Path_7935" data-name="Path 7935" d="M232.91,229.454a1,1,0,1,0,1,1A1,1,0,0,0,232.91,229.454Zm0,1.376a.376.376,0,1,1,.376-.376A.377.377,0,0,1,232.91,230.83Z" transform="translate(-206.424 -218.925)" fill="#fff" stroke="#fff" stroke-width="0.1"/>
    <path id="Path_7936" data-name="Path 7936" d="M202.153,68.32a2.376,2.376,0,1,0-3.375-2.155,1,1,0,0,0,2,0,.368.368,0,0,1,.12-.275.378.378,0,0,1,.286-.1.385.385,0,0,1,.347.347.378.378,0,0,1-.233.378,1.844,1.844,0,0,0-1.142,1.715v.688a1,1,0,1,0,2,0v-.6Zm-.334-.534a.473.473,0,0,0-.289.442v.688a.377.377,0,1,1-.753,0v-.688a1.223,1.223,0,0,1,.756-1.139,1,1,0,0,0,.618-1,1.013,1.013,0,0,0-.926-.925l-.071,0a1,1,0,0,0-1,1,.376.376,0,1,1-.753,0,1.753,1.753,0,1,1,2.418,1.622Z" transform="translate(-174.667 -60.139)" fill="#fff" stroke="#fff" stroke-width="0.1"/>
  </g>
</svg>
