<svg xmlns="http://www.w3.org/2000/svg" width="38.979" height="38.571" viewBox="0 0 38.979 38.571">
  <g id="_3314735" data-name="3314735" transform="translate(0.1 -2.599)">
    <path id="Path_8245" data-name="Path 8245" d="M137.431,149.567h4.645a.568.568,0,0,0,0-1.136h-4.645a.568.568,0,0,0,0,1.136Z" transform="translate(-126.497 -134.694)" fill="#5e5e5e" stroke="#5e5e5e" stroke-width="0.2"/>
    <path id="Path_8246" data-name="Path 8246" d="M137.431,211.81h16.4a.568.568,0,1,0,0-1.136h-16.4a.568.568,0,0,0,0,1.136Z" transform="translate(-126.497 -192.222)" fill="#5e5e5e" stroke="#5e5e5e" stroke-width="0.2"/>
    <path id="Path_8247" data-name="Path 8247" d="M137.431,249.155h16.4a.568.568,0,1,0,0-1.136h-16.4a.568.568,0,1,0,0,1.136Z" transform="translate(-126.497 -226.739)" fill="#5e5e5e" stroke="#5e5e5e" stroke-width="0.2"/>
    <circle id="Ellipse_425" data-name="Ellipse 425" cx="0.627" cy="0.627" r="0.627" transform="translate(17.12 14.306) rotate(-45)" fill="#5e5e5e" stroke="#5e5e5e" stroke-width="0.2"/>
    <path id="Path_8248" data-name="Path 8248" d="M379.787,55.574a1.246,1.246,0,0,0,1.741,0l1.966-1.966a2.3,2.3,0,0,0-2.836-3.59,2.287,2.287,0,0,0-2.864.333,2.318,2.318,0,0,0,.027,3.256ZM378.6,51.149a1.167,1.167,0,0,1,.832-.345,1.154,1.154,0,0,1,.676.216.934.934,0,0,0,1.093,0,1.151,1.151,0,0,1,.479-.2,1.167,1.167,0,0,1,1.029.33,1.178,1.178,0,0,1-.022,1.656l-1.966,1.966a.1.1,0,0,1-.134,0L378.625,52.8a1.178,1.178,0,0,1-.021-1.656Z" transform="translate(-348.574 -43.405)" fill="#5e5e5e" stroke="#5e5e5e" stroke-width="0.2"/>
    <path id="Path_8249" data-name="Path 8249" d="M38.78,12.977V5.812A3.116,3.116,0,0,0,35.668,2.7H28.5a3.116,3.116,0,0,0-3.113,3.113v3.1h-.707l-1.8-1.4a5.784,5.784,0,0,0-7.1,0l-1.809,1.4H8.244a2.438,2.438,0,0,0-2.435,2.435v3.9l-3.57,2.772A5.751,5.751,0,0,0,0,22.594V38.935a2.159,2.159,0,0,0,1.379,2,2.129,2.129,0,0,0,.757.139H29.947a.568.568,0,1,0,0-1.136H23.618V37.923a.568.568,0,0,0-.568-.568H15.58a.568.568,0,0,0-.568.568v2.011H2.589l14.44-7.79a.568.568,0,0,0-.539-1L1.238,39.372a.991.991,0,0,1-.1-.437V22.678A1.008,1.008,0,0,1,2.614,21.8l15.678,8.557h0l17.746,9.574H32.618a.568.568,0,1,0,0,1.136h3.876a2.159,2.159,0,0,0,2.006-1.4,2.131,2.131,0,0,0,.13-.734V22.591a5.752,5.752,0,0,0-2.236-4.57L33.91,16.09h1.758a3.116,3.116,0,0,0,3.113-3.113ZM16.473,8.409a4.649,4.649,0,0,1,5.708,0l.65.505H15.819ZM8.244,10.052H25.957a.568.568,0,0,0,.568-.568V5.812A1.979,1.979,0,0,1,28.5,3.835h7.167a1.979,1.979,0,0,1,1.976,1.976v7.166a1.979,1.979,0,0,1-1.976,1.976H28.5a1.979,1.979,0,0,1-1.976-1.976v-.836a.568.568,0,0,0-.568-.568h0a.568.568,0,0,0-.568.568v.837A3.116,3.116,0,0,0,28.5,16.09h3.184v6.781L19.794,29.361a1,1,0,0,1-.957,0L6.945,22.871V11.351a1.3,1.3,0,0,1,1.3-1.3Zm29.25,12.626V38.935a.992.992,0,0,1-.1.438L20.51,30.265l15.5-8.463a1.008,1.008,0,0,1,1.479.877ZM16.148,38.491h6.334v1.443H16.148ZM1.575,20.617a4.638,4.638,0,0,1,1.361-1.7l2.873-2.231v5.563L3.158,20.8a2.115,2.115,0,0,0-1.583-.187Zm35.481,0a2.116,2.116,0,0,0-1.585.187l-2.65,1.446V16.683L35.7,18.918A4.644,4.644,0,0,1,37.056,20.617Z" transform="translate(0)" fill="#5e5e5e" stroke="#5e5e5e" stroke-width="0.2"/>
  </g>
</svg>
