<svg xmlns="http://www.w3.org/2000/svg" width="47.356" height="44.195" viewBox="0 0 47.356 44.195">
  <path id="Shape" d="M43.623,5.3a13.68,13.68,0,0,0-19.361-.563l-.6.566A13.695,13.695,0,0,0,3.735,24.095l1.349,1.429a4,4,0,0,0,4.179,5.548,3.977,3.977,0,0,0,4.429,4.693,3.977,3.977,0,0,0,4.428,4.692A4.01,4.01,0,0,0,24.813,44.1c4.5-4.253,4.363-4.04,4.789-4.757a3.986,3.986,0,0,0,5.713-4.087,3.989,3.989,0,0,0,4.691-4.434,4.009,4.009,0,0,0,3.6-6.734A13.655,13.655,0,0,0,43.623,5.3ZM7,28.783a2.441,2.441,0,0,1,.1-3.446l4.1-3.875a2.437,2.437,0,0,1,3.345,3.546l-4.1,3.875A2.439,2.439,0,0,1,7,28.783Zm4.429,4.693a2.44,2.44,0,0,1,.1-3.446l4.1-3.875A2.437,2.437,0,1,1,18.976,29.7l-4.1,3.876a2.44,2.44,0,0,1-3.444-.1Zm4.428,4.692a2.441,2.441,0,0,1,.1-3.445l4.1-3.875a2.437,2.437,0,0,1,3.345,3.539l-4.1,3.875a2.437,2.437,0,0,1-3.445-.1Zm7.873,4.793a2.437,2.437,0,1,1-3.345-3.545l4.1-3.876a2.437,2.437,0,0,1,3.345,3.546ZM42.4,28.662a2.43,2.43,0,0,1-3.444-.1L28.436,17.417A.79.79,0,0,0,27.288,18.5L37.809,29.645a2.437,2.437,0,1,1-3.544,3.346L23.745,21.845A.79.79,0,0,0,22.6,22.929L33.113,34.071a2.434,2.434,0,0,1-2.991,3.777,3.984,3.984,0,0,0-3.844-4.556c-.868-.023-.553.305-.53-.563a4.014,4.014,0,0,0-3.9-4.13c-.868-.028-.556.316-.53-.563a4.015,4.015,0,0,0-3.9-4.13c-.874-.024-.556.323-.53-.563a4.02,4.02,0,0,0-6.77-3.036C4.477,25.634,6.424,23.8,6,24.195L4.884,23.011A12.115,12.115,0,1,1,22.515,6.39l-6.464,6.1a3.276,3.276,0,0,0-1.006,2.239c-.079,3.242,4.743,5.283,7.689,2.494l5.891-5.56a.789.789,0,0,1,1.116.032L42.5,25.217a2.436,2.436,0,0,1-.1,3.445Zm.135-5.707L30.889,10.616a2.368,2.368,0,0,0-3.347-.1l-5.892,5.561a3.236,3.236,0,0,1-4.583-.141,1.624,1.624,0,0,1,.07-2.3l8.209-7.753A12.117,12.117,0,0,1,42.533,22.955Z" transform="translate(-0.004 -0.999)" fill="#ed3042"/>
</svg>
