<svg xmlns="http://www.w3.org/2000/svg" width="30.616" height="30.647" viewBox="0 0 30.616 30.647">
  <g id="_3629516" data-name="3629516" transform="translate(-0.16 0.1)">
    <path id="Path_8448" data-name="Path 8448" d="M100.841,91.682a10.421,10.421,0,0,0-2.918-7.252.445.445,0,0,0-.643.617A9.567,9.567,0,1,1,95.9,83.859a.445.445,0,0,0,.515-.727,10.471,10.471,0,1,0,4.425,8.55Z" transform="translate(-74.909 -76.387)" fill="#ed3042" stroke="#ed3042" stroke-width="0.2"/>
    <path id="Path_8449" data-name="Path 8449" d="M123.319,134.787a7.248,7.248,0,0,1-.825-.83.445.445,0,1,0-.68.575,8.064,8.064,0,1,0-1.117-1.724.445.445,0,0,0,.8-.386,7.138,7.138,0,0,1-.706-3.113,7.2,7.2,0,1,1,11.881,5.475,5.811,5.811,0,0,0-2.719-1.629v-.812a3.852,3.852,0,0,0,.817-.657.445.445,0,1,0-.648-.612,2.9,2.9,0,0,1-2.128.918,2.931,2.931,0,0,1-2.928-2.928V127.8h5.855v1.264a2.961,2.961,0,0,1-.048.527.445.445,0,1,0,.877.159,3.846,3.846,0,0,0,.063-.687v-1.71h0v0l-.022-3.312a.631.631,0,0,0-1.02-.492l-.433.339h-3.31a2.856,2.856,0,0,0-2.852,2.852v2.326a3.82,3.82,0,0,0,1.86,3.277v.815a5.811,5.811,0,0,0-2.721,1.631Zm3.713-10.01H130.5a.446.446,0,0,0,.275-.095l.137-.107.015,2.334H125.07v-.171a1.964,1.964,0,0,1,1.961-1.962Zm4.927,10.547a7.2,7.2,0,0,1-7.924,0,4.92,4.92,0,0,1,2.084-1.267,1.958,1.958,0,0,0,3.757,0A4.92,4.92,0,0,1,131.959,135.324ZM128,132.883a3.838,3.838,0,0,0,1.067-.151v.775a1.067,1.067,0,1,1-2.135,0v-.777A3.806,3.806,0,0,0,128,132.883Z" transform="translate(-112.537 -114.015)" fill="#ed3042" stroke="#ed3042" stroke-width="0.2"/>
    <path id="Path_8450" data-name="Path 8450" d="M333.254,5.589a.445.445,0,0,0,.511-.368,4.475,4.475,0,0,1,1.5-2.67c.038-.032.077-.063.115-.094A3.015,3.015,0,0,0,335.91,5.6a4.244,4.244,0,0,0-.711.568.445.445,0,1,0,.628.632,3.34,3.34,0,0,1,.814-.594,3.012,3.012,0,0,0,3.076,0,3.35,3.35,0,0,1,1.792,2.733,4.452,4.452,0,0,1-2.585,1.419.445.445,0,0,0,.073.885.451.451,0,0,0,.074-.006,5.362,5.362,0,1,0-6.185-6.157A.445.445,0,0,0,333.254,5.589Zm2.794-1.984a2.13,2.13,0,1,1,2.13,2.13A2.133,2.133,0,0,1,336.047,3.605Zm6.6,2.342a4.48,4.48,0,0,1-.441,1.944A4.251,4.251,0,0,0,340.446,5.6a3.014,3.014,0,0,0,.527-3.138A4.465,4.465,0,0,1,342.65,5.947Z" transform="translate(-312.864 -0.549)" fill="#ed3042" stroke="#ed3042" stroke-width="0.2"/>
    <path id="Path_8451" data-name="Path 8451" d="M4.731,10.651a.445.445,0,1,0,.147-.879A4.452,4.452,0,0,1,2.295,8.356a3.351,3.351,0,0,1,1.79-2.7,3.012,3.012,0,0,0,3.076,0,3.337,3.337,0,0,1,.809.589A.445.445,0,1,0,8.6,5.61a4.249,4.249,0,0,0-.7-.561,3.015,3.015,0,0,0,.5-3.195c.05.039.1.079.147.12a4.474,4.474,0,0,1,1.5,2.686.445.445,0,0,0,.88-.139,5.363,5.363,0,1,0-6.188,6.129Zm-1.239-7.6a2.13,2.13,0,1,1,2.13,2.13A2.133,2.133,0,0,1,3.493,3.056Zm-.642-1.2a3.013,3.013,0,0,0,.505,3.192A4.251,4.251,0,0,0,1.6,7.322,4.478,4.478,0,0,1,2.85,1.858Z" transform="translate(0 0)" fill="#ed3042" stroke="#ed3042" stroke-width="0.2"/>
    <path id="Path_8452" data-name="Path 8452" d="M339.37,334.4a.445.445,0,0,0-.205.865l.011,0a2.13,2.13,0,1,1-2.472,3.217.445.445,0,0,0-.732.508,3.02,3.02,0,0,0,.215.274,4.251,4.251,0,0,0-1.761,2.29,4.464,4.464,0,0,1-.366-1.125.445.445,0,1,0-.876.161,5.357,5.357,0,1,0,6.187-6.194Zm-.915,9.689a4.468,4.468,0,0,1-3.33-1.487,3.351,3.351,0,0,1,1.792-2.728,3.012,3.012,0,0,0,3.077,0,3.351,3.351,0,0,1,1.792,2.724A4.461,4.461,0,0,1,338.456,344.088Zm4.029-2.533a4.251,4.251,0,0,0-1.762-2.288,3.008,3.008,0,0,0,.56-3.052,4.364,4.364,0,0,1,1.644,3.4A4.446,4.446,0,0,1,342.485,341.554Z" transform="translate(-313.142 -314.531)" fill="#ed3042" stroke="#ed3042" stroke-width="0.2"/>
    <path id="Path_8453" data-name="Path 8453" d="M10.538,340.148a.445.445,0,0,0-.519.357,4.458,4.458,0,0,1-.365,1.119,4.252,4.252,0,0,0-1.762-2.289,3.034,3.034,0,0,0,.209-.265.445.445,0,0,0-.73-.51A2.13,2.13,0,1,1,4.9,335.339l.011,0a.445.445,0,0,0-.212-.863,5.331,5.331,0,1,0,6.2,6.2.445.445,0,0,0-.357-.519Zm-7.744-3.862a3.007,3.007,0,0,0,.561,3.048,4.251,4.251,0,0,0-1.761,2.289,4.445,4.445,0,0,1-.443-1.939A4.362,4.362,0,0,1,2.794,336.286Zm2.829,7.87a4.462,4.462,0,0,1-3.33-1.491,3.351,3.351,0,0,1,1.792-2.724,3.012,3.012,0,0,0,3.077,0,3.351,3.351,0,0,1,1.792,2.727A4.469,4.469,0,0,1,5.623,344.155Z" transform="translate(0 -314.598)" fill="#ed3042" stroke="#ed3042" stroke-width="0.2"/>
  </g>
</svg>
