<svg xmlns="http://www.w3.org/2000/svg" width="100.627" height="87.238" viewBox="0 0 100.627 87.238">
  <g id="Group_8071" data-name="Group 8071" transform="translate(9214 -2175)">
    <g id="Group_7483" data-name="Group 7483" transform="translate(-9927.496 1263)">
      <ellipse id="Ellipse_53" data-name="Ellipse 53" cx="43.067" cy="43.619" rx="43.067" ry="43.619" transform="translate(727.989 912)" fill="#ed3042" opacity="0.2"/>
      <g id="royal-crown-outline-with-three-little-balls-on-top" transform="translate(713.496 908.478)">
        <path id="Path_8024" data-name="Path 8024" d="M71.535,39.914a7.067,7.067,0,1,0-11.76,5.239l-8.913,3.206L38.778,33.984a7.074,7.074,0,1,0-5.987-.037L20.677,48.354l-8.912-3.2a7.056,7.056,0,1,0-6.369,1.6V65.908a1.72,1.72,0,0,0,1.719,1.719h57.3a1.72,1.72,0,0,0,1.719-1.719V46.754A7.049,7.049,0,0,0,71.535,39.914ZM35.819,23.966a3.629,3.629,0,1,1-3.631,3.629A3.63,3.63,0,0,1,35.819,23.966ZM3.442,39.914a3.629,3.629,0,1,1,3.631,3.629A3.634,3.634,0,0,1,3.442,39.914ZM62.7,64.193H8.838V47.759L20.638,52a1.717,1.717,0,0,0,1.9-.515L35.769,35.753,49,51.488A1.728,1.728,0,0,0,50.9,52l11.8-4.244V64.193Zm1.768-20.65A3.629,3.629,0,1,1,68.1,39.914,3.636,3.636,0,0,1,64.471,43.543ZM66.14,72.916a1.721,1.721,0,0,1-1.719,1.719H7.119a1.719,1.719,0,0,1,0-3.438h57.3A1.719,1.719,0,0,1,66.14,72.916Z" transform="translate(0)" fill="#ed3042"/>
      </g>
    </g>
  </g>
</svg>
