<svg id="Group_7298" data-name="Group 7298" xmlns="http://www.w3.org/2000/svg" width="23.307" height="25.229" viewBox="0 0 23.307 25.229">
  <g id="left-arrow-line-symbol" transform="translate(0 0)">
    <g id="_x37_" transform="translate(0 0)">
      <g id="Group_7297" data-name="Group 7297">
        <path id="Path_5635" data-name="Path 5635" d="M177.308,12.616,165.47,1.8a1.057,1.057,0,0,1,1.5-1.493l12.6,11.506a1.04,1.04,0,0,1,.3.8,1.039,1.039,0,0,1-.3.8l-12.6,11.506a1.057,1.057,0,0,1-1.5-1.493Z" transform="translate(-165.16 0)" fill="#fff"/>
      </g>
    </g>
  </g>
  <g id="left-arrow-line-symbol-2" data-name="left-arrow-line-symbol" transform="translate(8.601 0)">
    <g id="_x37_2" data-name="_x37_" transform="translate(0 0)">
      <g id="Group_7297-2" data-name="Group 7297">
        <path id="Path_5635-2" data-name="Path 5635" d="M177.308,12.616,165.47,1.8a1.057,1.057,0,0,1,1.5-1.493l12.6,11.506a1.04,1.04,0,0,1,.3.8,1.039,1.039,0,0,1-.3.8l-12.6,11.506a1.057,1.057,0,0,1-1.5-1.493Z" transform="translate(-165.16 0)" fill="#fff"/>
      </g>
    </g>
  </g>
</svg>
