<svg xmlns="http://www.w3.org/2000/svg" width="44.511" height="44.469" viewBox="0 0 44.511 44.469">
  <g id="Group_8067" data-name="Group 8067" transform="translate(5753.662 -2603.34)">
    <g id="_2885434" data-name="2885434" transform="translate(-5753.662 2603.1)">
      <g id="Group_63" data-name="Group 63" transform="translate(0.652 0.892)">
        <path id="Path_1295" data-name="Path 1295" d="M18.31,243.4l.005-2.737a3.481,3.481,0,0,0,1.306-2.72v-1.779a3.489,3.489,0,0,0-6.977,0v1.779a3.481,3.481,0,0,0,1.311,2.724V243.4l-4.91,4.228a.687.687,0,0,0-.239.521v2.266a.617.617,0,0,0,.507.607,38.515,38.515,0,0,0,6.1.6l8.189-.349v-3.44Z" transform="translate(-8.692 -213.119)" fill="#deecf1"/>
        <path id="Path_1296" data-name="Path 1296" d="M11.141,250.811v-2.266a.687.687,0,0,1,.239-.521l4.421-3.807a1.407,1.407,0,0,0,.489-1.066v-1.458a1.429,1.429,0,0,0-.374-.977,3.474,3.474,0,0,1-.936-2.377V236.56a3.489,3.489,0,0,1,2.866-3.432,3.488,3.488,0,0,0-5.2,3.038v1.779a3.481,3.481,0,0,0,1.311,2.724V243.4l-4.91,4.228a.687.687,0,0,0-.239.521v2.365a.507.507,0,0,0,.507.507q1.065.192,2.138.321a.617.617,0,0,1-.309-.534Z" transform="translate(-8.692 -213.121)" fill="#cbe5e8"/>
        <path id="Path_1297" data-name="Path 1297" d="M41.715,18.77l1.054,2.042a.56.56,0,0,0,.992.006L44.85,18.77h.342a5.515,5.515,0,1,0,0-11.03H13.015a5.515,5.515,0,1,0,0,11.03h.342l1.089,2.048a.56.56,0,0,0,.992-.006l1.054-2.042Z" transform="translate(-7.5 -7.74)" fill="#ffe2e9"/>
        <g id="Group_59" data-name="Group 59" transform="translate(0 0)">
          <path id="Path_1298" data-name="Path 1298" d="M21.372,18.705h-.342A5.515,5.515,0,0,1,20.183,7.74H13.015a5.515,5.515,0,0,0,0,11.03h.342l1.089,2.048a.56.56,0,0,0,.992-.006l1.054-2.042h4.914Z" transform="translate(-7.5 -7.74)" fill="#febece"/>
        </g>
        <path id="Path_1299" data-name="Path 1299" d="M116.766,57.8a.87.87,0,1,0,.71-.71A.871.871,0,0,0,116.766,57.8Z" transform="translate(-107.255 -52.788)"/>
        <path id="Path_1300" data-name="Path 1300" d="M202.694,57.946a.869.869,0,1,0,.869-.869A.87.87,0,0,0,202.694,57.946Z" transform="translate(-185.724 -52.788)"/>
        <path id="Path_1301" data-name="Path 1301" d="M376.961,57.946a.869.869,0,1,0-.869.869A.87.87,0,0,0,376.961,57.946Z" transform="translate(-343.252 -52.788)"/>
        <path id="Path_1302" data-name="Path 1302" d="M289.282,57.946a.869.869,0,1,0,.869-.869A.87.87,0,0,0,289.282,57.946Z" transform="translate(-264.784 -52.788)"/>
        <path id="Path_1303" data-name="Path 1303" d="M349.226,242.568l-4.618-3.873.005-2.737a3.481,3.481,0,0,0,1.306-2.72v-1.779a3.489,3.489,0,1,0-6.977,0v1.779a3.481,3.481,0,0,0,1.311,2.724v2.733l-4.91,4.228a.687.687,0,0,0-.239.521v2.365a.507.507,0,0,0,.507.507,38.518,38.518,0,0,0,6.1.6l7.009-.3a1.231,1.231,0,0,0,1.179-1.23v-1.382A1.87,1.87,0,0,0,349.226,242.568Z" transform="translate(-306.622 -208.823)" fill="#deecf1"/>
        <path id="Path_1304" data-name="Path 1304" d="M337.966,246.587a.507.507,0,0,1-.507-.507v-2.365a.687.687,0,0,1,.239-.521l4.356-3.751a1.594,1.594,0,0,0,.554-1.208v-1.321a1.586,1.586,0,0,0-.409-1.065,3.474,3.474,0,0,1-.9-2.34v-1.779a3.491,3.491,0,0,1,2.686-3.395,3.49,3.49,0,0,0-5.041,3.125v1.779a3.481,3.481,0,0,0,1.311,2.724V238.7l-4.91,4.228a.687.687,0,0,0-.239.521v2.365a.507.507,0,0,0,.507.507q1.8.323,3.613.473C338.8,246.729,338.384,246.662,337.966,246.587Z" transform="translate(-306.621 -208.824)" fill="#cbe5e8"/>
        <g id="XMLID_193_" transform="translate(9.291 28.168)">
          <g id="Group_60" data-name="Group 60" transform="translate(0 0)">
            <path id="Path_1305" data-name="Path 1305" d="M138.906,342.952v3.057a.722.722,0,0,1-.722.722H115.09a.722.722,0,0,1-.722-.722v-3.057a7.091,7.091,0,0,1,2.742-5.6l6.276-4.876.619-.587,5.134-.154.749.741,6.276,4.876A7.091,7.091,0,0,1,138.906,342.952Z" transform="translate(-114.368 -331.733)" fill="#5f99d7"/>
          </g>
        </g>
        <path id="Path_1306" data-name="Path 1306" d="M130.808,333.189l-.921-.716-.749-.741-1.57.047-3.564.107-.619.587-6.276,4.876a7.091,7.091,0,0,0-2.742,5.6v3.057a.722.722,0,0,0,.722.722h3.071v-2.386a7.091,7.091,0,0,1,2.742-5.6l1.042-.81a3.728,3.728,0,0,1,3.311-.665,4.99,4.99,0,0,0,6.216-3.563Z" transform="translate(-105.076 -303.564)" fill="#3c87d0"/>
        <path id="Path_1307" data-name="Path 1307" d="M224.6,263.355a3.25,3.25,0,0,1-6.5,0v-7.322h6.5v7.322Z" transform="translate(-199.792 -234.447)" fill="#ffe5c2"/>
        <path id="Path_1308" data-name="Path 1308" d="M192.512,115.4v-1.571a4.288,4.288,0,0,0-4.288-4.288H182.3l-.563-1.078a.432.432,0,0,0-.624-.159,4.737,4.737,0,0,0-2.1,3.933V115.4l1.464,4.043h10.456Z" transform="translate(-164.103 -99.499)" fill="#a79ba7"/>
        <g id="Group_61" data-name="Group 61" transform="translate(14.911 8.737)">
          <path id="Path_1309" data-name="Path 1309" d="M182.413,115.929v-3.163a4.736,4.736,0,0,1,1.265-3.221H182.3l-.563-1.078a.432.432,0,0,0-.624-.159,4.737,4.737,0,0,0-2.1,3.933V115.4l1.464,4.043h3.209Z" transform="translate(-179.015 -108.236)" fill="#918291"/>
        </g>
        <g id="Group_62" data-name="Group 62" transform="translate(14.911 15.282)">
          <path id="Path_1310" data-name="Path 1310" d="M221.451,263.219a8.443,8.443,0,0,0,3.15-.606v-6.578h-6.5v7.322a3.251,3.251,0,0,0,4.4,3.042c-.727-.273-1.332-1.356-1.7-2.2a.7.7,0,0,1,.648-.983Z" transform="translate(-214.702 -249.73)" fill="#fed2a4"/>
          <path id="Path_1311" data-name="Path 1311" d="M179.014,184.143v3.99l.983.2.429,3.168,4.859,3,2.04.226,1.561-.225a6.747,6.747,0,0,0,3.625-5.982v-4.377A36.8,36.8,0,0,0,179.014,184.143Z" transform="translate(-179.014 -183.519)" fill="#ffe5c2"/>
          <path id="Path_1312" data-name="Path 1312" d="M182.413,189.362v-4.1q-1.7.156-3.4.473v4.377a6.749,6.749,0,0,0,6.749,6.749,6.828,6.828,0,0,0,3.129-.768A6.76,6.76,0,0,1,182.413,189.362Z" transform="translate(-179.015 -185.111)" fill="#fed2a4"/>
        </g>
      </g>
      <g id="Group_64" data-name="Group 64" transform="translate(0 0.24)">
        <path id="Path_1313" data-name="Path 1313" d="M129.718,125.921l-6.025-4.68v-1.96a7.4,7.4,0,0,0,3.6-6.347v-5.948a4.945,4.945,0,0,0-4.94-4.94h-5.53l-.381-.728a1.084,1.084,0,0,0-1.565-.4,5.381,5.381,0,0,0-2.386,4.475v7.539a7.4,7.4,0,0,0,.33,2.192.652.652,0,0,0,1.246-.386,6.1,6.1,0,0,1-.272-1.806V109.1a36.3,36.3,0,0,1,12.194,0v3.829a6.1,6.1,0,0,1-10.7,4,.652.652,0,0,0-.984.856,7.419,7.419,0,0,0,1.582,1.369v2.084l-6.025,4.68a7.7,7.7,0,0,0-2.994,6.117v3.779a.652.652,0,1,0,1.3,0v-3.779a6.4,6.4,0,0,1,2.49-5.087l5.41-4.2a3.9,3.9,0,0,0,7.434,0l5.41,4.2a6.4,6.4,0,0,1,2.49,5.087v3.779a.652.652,0,1,0,1.3,0v-3.779a7.7,7.7,0,0,0-2.994-6.117Zm-15.924-18.14v-2.386a4.078,4.078,0,0,1,1.608-3.249l.446.854a.652.652,0,0,0,.578.35h5.925a3.64,3.64,0,0,1,3.636,3.636v.8A37.593,37.593,0,0,0,113.794,107.781Zm6,16.377a2.6,2.6,0,0,1-2.6-2.6v-1.735a7.391,7.391,0,0,0,5.2.076v1.66A2.6,2.6,0,0,1,119.791,124.158Z" transform="translate(-97.579 -91.999)"/>
        <path id="Path_1314" data-name="Path 1314" d="M164.009,458.054a.652.652,0,0,0-.652.652v3.363a.652.652,0,0,0,1.3,0v-3.363A.652.652,0,0,0,164.009,458.054Z" transform="translate(-149.155 -418.252)"/>
        <path id="Path_1315" data-name="Path 1315" d="M333.27,458.054a.652.652,0,0,0-.652.652v3.363a.652.652,0,0,0,1.3,0v-3.363A.652.652,0,0,0,333.27,458.054Z" transform="translate(-303.7 -418.252)"/>
        <path id="Path_1316" data-name="Path 1316" d="M2.622,241.276l4.91-4.228a.652.652,0,0,0,.227-.494v-1.609a4.125,4.125,0,0,0,3.052,0v1.609a.652.652,0,0,0,.227.494L12.3,238.14a.652.652,0,0,0,.851-.988l-1.042-.9v-2.139a4.129,4.129,0,0,0,1.311-3.019v-1.779a4.141,4.141,0,0,0-8.281,0V231.1a4.129,4.129,0,0,0,1.311,3.019v2.139l-4.683,4.033a1.338,1.338,0,0,0-.465,1.015v2.266a1.268,1.268,0,0,0,1.044,1.249,39.268,39.268,0,0,0,6.205.611h.012a.652.652,0,0,0,.012-1.3,37.98,37.98,0,0,1-5.969-.585V241.3A.035.035,0,0,1,2.622,241.276Zm3.825-11.958a2.837,2.837,0,0,1,5.673,0V231.1a2.837,2.837,0,1,1-5.673,0Z" transform="translate(-1.192 -205.621)"/>
        <path id="Path_1317" data-name="Path 1317" d="M378.246,236.554a.652.652,0,0,0,.226.494l1.079.929a.652.652,0,1,0,.851-.988l-.853-.734v-2.139a4.129,4.129,0,0,0,1.311-3.019v-1.779a4.141,4.141,0,0,0-8.281,0V231.1a4.129,4.129,0,0,0,1.311,3.019v2.139l-1.042.9a.652.652,0,0,0,.851.988l1.268-1.092a.652.652,0,0,0,.227-.494v-1.609a4.125,4.125,0,0,0,3.052,0v1.609Zm-1.526-2.62a2.84,2.84,0,0,1-2.837-2.837v-1.779a2.837,2.837,0,0,1,5.673,0V231.1A2.84,2.84,0,0,1,376.72,233.933Z" transform="translate(-340.187 -205.621)"/>
        <path id="Path_1318" data-name="Path 1318" d="M428.4,382.08l-1.686-1.452a.652.652,0,1,0-.851.988l1.686,1.452a.036.036,0,0,1,.012.027v2.236a37.983,37.983,0,0,1-5.969.585.652.652,0,0,0,.012,1.3h.012a39.283,39.283,0,0,0,6.205-.611,1.268,1.268,0,0,0,1.044-1.249v-2.266A1.339,1.339,0,0,0,428.4,382.08Z" transform="translate(-384.359 -347.413)"/>
        <path id="Path_1319" data-name="Path 1319" d="M355.215,38.687h-.342a.652.652,0,0,0-.576.346l-1.007,1.893-.973-1.886a.652.652,0,0,0-.579-.353H347.7a.652.652,0,1,0,0,1.3h3.646l.871,1.689a1.209,1.209,0,0,0,1.069.656h.008a1.209,1.209,0,0,0,1.07-.643l.905-1.7a6.167,6.167,0,0,0,5.192-9.415.652.652,0,0,0-1.108.688,4.862,4.862,0,0,1-4.134,7.423Z" transform="translate(-316.871 -27.658)" fill="#ef4973"/>
        <path id="Path_1320" data-name="Path 1320" d="M6.117,12.574l.905,1.7a1.209,1.209,0,0,0,1.07.643H8.1a1.209,1.209,0,0,0,1.07-.656l.871-1.689h3.117a.652.652,0,1,0,0-1.3H9.644a.652.652,0,0,0-.579.353l-.973,1.886L7.085,11.616a.652.652,0,0,0-.576-.346H6.167a4.863,4.863,0,1,1,0-9.726H38.344a4.867,4.867,0,0,1,2.337.6A.652.652,0,1,0,41.309,1,6.175,6.175,0,0,0,38.344.24H6.167a6.167,6.167,0,0,0-.05,12.334Z" transform="translate(0 -0.24)" fill="#ef4973"/>
      </g>
    </g>
  </g>
</svg>
