<svg xmlns="http://www.w3.org/2000/svg" width="38.732" height="38.733" viewBox="0 0 38.732 38.733">
  <g id="team" transform="translate(-1 -1)">
    <path id="Path_8250" data-name="Path 8250" d="M34.982,27.766a5.615,5.615,0,0,0-4-10.378V1.625A.624.624,0,0,0,30.362,1H10.371a.624.624,0,0,0-.625.625V17.388a5.617,5.617,0,0,0-4,10.378A7.5,7.5,0,0,0,1,34.735v4.373a.624.624,0,0,0,.625.625H15.369a.624.624,0,0,0,.625-.625V35.984h8.746v3.124a.624.624,0,0,0,.625.625H39.108a.624.624,0,0,0,.625-.625V34.735A7.5,7.5,0,0,0,34.982,27.766Zm-2.746-.528a4.377,4.377,0,0,1-4.324-3.751A6.7,6.7,0,0,0,32.5,21.613,3.127,3.127,0,0,0,35.36,23.49h1.2A4.377,4.377,0,0,1,32.236,27.238Zm4.323-5h-1.2a1.876,1.876,0,0,1-1.874-1.874.625.625,0,0,0-1.066-.442l-.734.734a5.438,5.438,0,0,1-3.772,1.579,4.367,4.367,0,0,1,8.646,0ZM11,2.249H29.737V17.836a5.612,5.612,0,0,0-.242,9.933,7.522,7.522,0,0,0-1.935,1.12,7.523,7.523,0,0,0-4.446-4.872,5.623,5.623,0,1,0-5.493,0,7.521,7.521,0,0,0-4.446,4.872,7.516,7.516,0,0,0-1.935-1.121A5.612,5.612,0,0,0,11,17.836Zm9.631,15.616a3.127,3.127,0,0,0,2.864,1.877h1.2a4.367,4.367,0,0,1-8.647,0A6.7,6.7,0,0,0,20.626,17.865Zm-4.582.625a4.367,4.367,0,0,1,8.646,0h-1.2a1.876,1.876,0,0,1-1.874-1.874.625.625,0,0,0-1.066-.442l-.734.734a5.437,5.437,0,0,1-3.771,1.579Zm10.57,13.746H14.119V30.987a6.247,6.247,0,0,1,12.494,0ZM14.119,33.485H26.614v1.249H14.119ZM8.5,18.492A4.377,4.377,0,0,1,12.82,22.24h-1.2a1.876,1.876,0,0,1-1.874-1.874.625.625,0,0,0-1.066-.442l-.734.734a5.438,5.438,0,0,1-3.772,1.579A4.377,4.377,0,0,1,8.5,18.492Zm-4.324,5a6.7,6.7,0,0,0,4.584-1.874A3.127,3.127,0,0,0,11.62,23.49h1.2a4.367,4.367,0,0,1-8.647,0Zm10.571,15H2.249V34.735A6.238,6.238,0,0,1,12.9,30.319c-.019.22-.034.442-.034.667V35.36a.624.624,0,0,0,.625.625h1.249Zm23.739,0H25.989v-2.5h1.249a.624.624,0,0,0,.625-.625V30.987c0-.226-.014-.447-.034-.668a6.239,6.239,0,0,1,10.654,4.416Z" transform="translate(0 0)" fill="#fff"/>
    <path id="Path_8251" data-name="Path 8251" d="M19.625,8.748h2.5a.624.624,0,0,0,.625-.625v-2.5A.624.624,0,0,0,22.124,5h-2.5A.624.624,0,0,0,19,5.625v2.5A.624.624,0,0,0,19.625,8.748Zm.625-2.5H21.5V7.5H20.249Z" transform="translate(-6.755 -1.501)" fill="#fff"/>
    <path id="Path_8252" data-name="Path 8252" d="M22.124,16.748a.624.624,0,0,0,.625-.625v-2.5A.624.624,0,0,0,22.124,13h-2.5a.624.624,0,0,0-.625.625v2.5a.624.624,0,0,0,.625.625Zm-1.874-2.5H21.5V15.5H20.249Z" transform="translate(-6.755 -4.503)" fill="#fff"/>
    <path id="Path_8253" data-name="Path 8253" d="M27,5H38.245V6.249H27Z" transform="translate(-9.757 -1.501)" fill="#fff"/>
    <path id="Path_8254" data-name="Path 8254" d="M27,9H38.245v1.249H27Z" transform="translate(-9.757 -3.002)" fill="#fff"/>
    <path id="Path_8255" data-name="Path 8255" d="M27,13H38.245v1.249H27Z" transform="translate(-9.757 -4.503)" fill="#fff"/>
    <path id="Path_8256" data-name="Path 8256" d="M27,17H38.245v1.249H27Z" transform="translate(-9.757 -6.004)" fill="#fff"/>
  </g>
</svg>
