<svg id="timetable" xmlns="http://www.w3.org/2000/svg" width="31.779" height="31.779" viewBox="0 0 31.779 31.779">
  <path id="Path_8376" data-name="Path 8376" d="M29.917,18.139V2.855a.931.931,0,0,0-.931-.931H24.269V.931a.931.931,0,1,0-1.862,0v.993H18.682V.931a.931.931,0,0,0-1.862,0v.993H13.1V.931a.931.931,0,0,0-1.862,0v.993H7.51V.931a.931.931,0,0,0-1.862,0v.993H.931A.931.931,0,0,0,0,2.855V27.124a.931.931,0,0,0,.931.931h15.5a8.376,8.376,0,1,0,13.481-9.915ZM5.648,3.786v.931a.931.931,0,0,0,1.862,0V3.786h3.724v.931a.931.931,0,1,0,1.862,0V3.786H16.82v.931a.931.931,0,0,0,1.862,0V3.786h3.724v.931a.931.931,0,1,0,1.862,0V3.786h3.786V7.51H1.862V3.786ZM1.862,26.193V9.372H28.055v7.064A8.369,8.369,0,0,0,16.37,18.845a.925.925,0,0,0-.418-.1H14.089a.931.931,0,1,0,0,1.862H15.5a8.31,8.31,0,0,0-.427,1.862h-.983a.931.931,0,1,0,0,1.862h.983a8.3,8.3,0,0,0,.427,1.862ZM23.4,29.917A6.517,6.517,0,1,1,29.917,23.4,6.524,6.524,0,0,1,23.4,29.917Zm0,0" fill="#80a5e5"/>
  <path id="Path_8377" data-name="Path 8377" d="M366.655,305.724h-2.793v-2.793a.931.931,0,0,0-1.862,0v3.724a.931.931,0,0,0,.931.931h3.724a.931.931,0,0,0,0-1.862Zm0,0" transform="translate(-339.531 -283.255)" fill="#80a5e5"/>
  <path id="Path_8378" data-name="Path 8378" d="M93.793,182H91.931a.931.931,0,1,0,0,1.862h1.862a.931.931,0,1,0,0-1.862Zm0,0" transform="translate(-85.352 -170.704)" fill="#80a5e5"/>
  <path id="Path_8379" data-name="Path 8379" d="M93.793,242H91.931a.931.931,0,1,0,0,1.862h1.862a.931.931,0,1,0,0-1.862Zm0,0" transform="translate(-85.352 -226.98)" fill="#80a5e5"/>
  <path id="Path_8380" data-name="Path 8380" d="M93.793,302H91.931a.931.931,0,1,0,0,1.862h1.862a.931.931,0,1,0,0-1.862Zm0,0" transform="translate(-85.352 -283.255)" fill="#80a5e5"/>
  <path id="Path_8381" data-name="Path 8381" d="M212.931,183.862h1.862a.931.931,0,0,0,0-1.862h-1.862a.931.931,0,0,0,0,1.862Zm0,0" transform="translate(-198.842 -170.704)" fill="#80a5e5"/>
  <path id="Path_8382" data-name="Path 8382" d="M212.931,243.862h1.862a.931.931,0,0,0,0-1.862h-1.862a.931.931,0,0,0,0,1.862Zm0,0" transform="translate(-198.842 -226.98)" fill="#80a5e5"/>
  <path id="Path_8383" data-name="Path 8383" d="M93.793,362H91.931a.931.931,0,0,0,0,1.862h1.862a.931.931,0,0,0,0-1.862Zm0,0" transform="translate(-85.352 -339.531)" fill="#80a5e5"/>
  <path id="Path_8384" data-name="Path 8384" d="M332.931,183.862h1.862a.931.931,0,1,0,0-1.862h-1.862a.931.931,0,1,0,0,1.862Zm0,0" transform="translate(-311.393 -170.704)" fill="#80a5e5"/>
</svg>
