<svg xmlns="http://www.w3.org/2000/svg" width="39.842" height="35.28" viewBox="0 0 39.842 35.28">
  <g id="_685669" data-name="685669" transform="translate(0 -24)">
    <g id="Group_7922" data-name="Group 7922" transform="translate(0 24)">
      <g id="Group_7921" data-name="Group 7921">
        <circle id="Ellipse_437" data-name="Ellipse 437" cx="2.737" cy="2.737" r="2.737" transform="translate(12.28 8.706)" fill="#fff"/>
        <path id="Path_8434" data-name="Path 8434" d="M37.485,45.518a8.429,8.429,0,0,0-4.714-2.243V29.36a5.473,5.473,0,0,0-1.559-3.8A5.312,5.312,0,0,0,27.41,24H5.36a5.473,5.473,0,0,0-3.8,1.559A5.312,5.312,0,0,0,0,29.36v22.7a5.473,5.473,0,0,0,1.559,3.8,5.312,5.312,0,0,0,3.8,1.559H26.688a8.043,8.043,0,0,0,10.8-11.9ZM2.015,29.36A3.182,3.182,0,0,1,3,27.041a3.336,3.336,0,0,1,2.357-.988H27.41A3.375,3.375,0,0,1,30.756,29.4V41.26l-5.627-5.627a1.021,1.021,0,0,0-1.445,0l-8.478,8.516L9.466,38.371a1.021,1.021,0,0,0-1.445,0L2.015,44.453ZM5.322,55.478V55.4a3.336,3.336,0,0,1-2.357-.988,3.47,3.47,0,0,1-.95-2.357V47.343l6.729-6.767,5.741,5.741a1.057,1.057,0,0,0,1.445,0L24.407,37.8l5.551,5.589-.342.114a3.531,3.531,0,0,0-.494.152c-.152.038-.3.114-.456.152a1.138,1.138,0,0,0-.3.152,3.533,3.533,0,0,0-.38.19l-.57.342c-.114.076-.19.114-.3.19-.076.038-.114.076-.19.114a4.587,4.587,0,0,0-.912.8,8.042,8.042,0,0,0-2.357,5.7,8.358,8.358,0,0,0,.19,1.673c.038.152.076.266.114.418.114.38.228.76.38,1.141v.038a6.973,6.973,0,0,0,.494.912Zm30.68,0a6.014,6.014,0,0,1-8.4.076c-.152-.152-.3-.342-.456-.494-.114-.114-.228-.266-.342-.38a3.61,3.61,0,0,1-.38-.646c-.076-.152-.152-.266-.228-.418a3.211,3.211,0,0,1-.19-.646c-.038-.152-.114-.342-.152-.494a6.292,6.292,0,0,1-.114-1.217A6.1,6.1,0,0,1,27.487,47a5.878,5.878,0,0,1,4.258-1.749A6.1,6.1,0,0,1,36,47a5.942,5.942,0,0,1,1.749,4.258A6.08,6.08,0,0,1,36,55.478Z" transform="translate(0 -24)" fill="#fff"/>
        <path id="Path_8435" data-name="Path 8435" d="M302.687,264.7a1.327,1.327,0,0,0-.342-.228A1.111,1.111,0,0,0,302,264.4h-.076a1.111,1.111,0,0,0-.342.076.9.9,0,0,0-.342.228l-2.357,2.357a1.022,1.022,0,0,0,1.445,1.445l.608-.608v4.182a1.026,1.026,0,1,0,2.053,0V267.9l.608.608a1.022,1.022,0,0,0,1.445-1.445Z" transform="translate(-270.22 -241.552)" fill="#fff"/>
      </g>
    </g>
  </g>
</svg>
