<svg xmlns="http://www.w3.org/2000/svg" xmlns:xlink="http://www.w3.org/1999/xlink" width="190" height="190" viewBox="0 0 190 190">
  <defs>
    <filter id="Ellipse_353" x="0" y="0" width="190" height="190" filterUnits="userSpaceOnUse">
      <feOffset dy="6" input="SourceAlpha"/>
      <feGaussianBlur stdDeviation="6" result="blur"/>
      <feFlood flood-opacity="0.161"/>
      <feComposite operator="in" in2="blur"/>
      <feComposite in="SourceGraphic"/>
    </filter>
  </defs>
  <g id="Group_7674" data-name="Group 7674" transform="translate(-7969.128 1527.872)">
    <g transform="matrix(1, 0, 0, 1, 7969.13, -1527.87)" filter="url(#Ellipse_353)">
      <circle id="Ellipse_353-2" data-name="Ellipse 353" cx="77" cy="77" r="77" transform="translate(18 12)" fill="#fcb315"/>
    </g>
    <circle id="Ellipse_354" data-name="Ellipse 354" cx="69" cy="69" r="69" transform="translate(7995.128 -1507.872)" fill="#fff"/>
    <g id="man" transform="translate(8015.036 -1493.898)" opacity="0.2">
      <path id="Path_5664" data-name="Path 5664" d="M165.724,248.292l9.784,32.359.535-.074c.89-3.636,1.807-7.266,2.634-10.916.091-.4-.386-.91-.51-1.392-.824-3.187-1.736-6.358-2.391-9.58a3.081,3.081,0,0,1,3.235-3.538c2.167-.016,4.334-.016,6.5.015a3.1,3.1,0,0,1,2.595,3.89c-.81,3.307-1.818,6.566-2.736,9.848a1.623,1.623,0,0,0-.107.75c.872,3.637,1.767,7.27,2.656,10.9l.546.067L198.3,248.1a6.217,6.217,0,0,1,.754.168c6.8,2.233,13.61,4.412,20.371,6.744a37.981,37.981,0,0,1,6.619,3c3.622,2.1,4.9,5.706,4.922,9.586.031,5.99-.3,11.983-.624,17.968a3.88,3.88,0,0,1-1.5,2.148c-24.959,21.593-59.105,25.277-88.521,4.3-4.635-3.306-7.923-6.734-7.178-12.949.364-3.034-.309-6.179-.271-9.27.1-8.174,2.1-11.339,10.356-14.327C150.626,252.794,158.22,250.663,165.724,248.292Z" transform="translate(-132.873 -178.009)" fill="#fcb315" fill-rule="evenodd"/>
      <path id="Path_5665" data-name="Path 5665" d="M199.017,76.891l-4.148-3.31.2-.516c3.31,0,6.634.188,9.926-.058a61.581,61.581,0,0,0,8.153-1.427,24.019,24.019,0,0,1,19.369,3.854c1.361.941,2,2.926,2.978,4.425a3.753,3.753,0,0,0,.877,1.2c3.72,2.313,4.945,5.88,4.918,9.976-.017,2.693-.332,5.384-.526,8.275,2.109.849,2.428,2.824,2.188,4.947-.536,4.737-1.255,9.423-4.605,13.2a4.058,4.058,0,0,0-.625,1.622c-1.526,5.656-3.718,10.99-7.6,15.478-7.7,8.891-19.693,8.893-27.389,0-3.883-4.487-6.081-9.82-7.6-15.479a4.143,4.143,0,0,0-.626-1.622c-3.487-4.031-4.252-8.951-4.617-13.991-.131-1.818.355-3.416,2.361-4.125C190.793,90.654,191.083,82.529,199.017,76.891Zm36.674,25.653c-.095-.981-.123-1.758-.252-2.517-1.619-9.529-4.926-11.051-11.875-10.916a4.3,4.3,0,0,1-2.465-.886c-8.17-6.181-22.618-.034-23.065,9.865-.066,1.465-.256,2.924-.4,4.51-.612-.305-1.012-.52-1.425-.706-2.8-1.263-4.578-.3-4.334,2.712a33.987,33.987,0,0,0,1.719,7.827c.369,1.116,1.675,1.908,2.5,2.893a5.936,5.936,0,0,1,1.263,1.89c1.126,3.7,1.639,7.679,3.3,11.106,5.8,11.946,20.5,13.819,28.942,3.961,2.791-3.258,4.176-7.1,5.154-11.179.606-2.531.729-4.957,3.274-7.067,2.989-2.478,3.279-6.755,2.881-10.674-.182-1.786-1.676-2.507-3.377-1.831A18.983,18.983,0,0,0,235.691,102.544Z" transform="translate(-167.309 -70.979)" fill="#fcb315" fill-rule="evenodd"/>
    </g>
  </g>
</svg>
