<svg xmlns="http://www.w3.org/2000/svg" width="38.512" height="34.886" viewBox="0 0 38.512 34.886">
  <g id="_2950678" data-name="2950678" transform="translate(0.15 -24.039)">
    <g id="Group_7997" data-name="Group 7997" transform="translate(0 24.089)">
      <path id="Path_8522" data-name="Path 8522" d="M91.61,161.133a.56.56,0,0,0-.561-.56H75.44a.561.561,0,1,0,0,1.121H91.05A.56.56,0,0,0,91.61,161.133Z" transform="translate(-69.284 -150.373)" fill="#fff" stroke="#fff" stroke-width="0.3"/>
      <path id="Path_8523" data-name="Path 8523" d="M88.408,229.5H75.44a.561.561,0,1,0,0,1.121H88.408a.561.561,0,0,0,0-1.121Z" transform="translate(-69.284 -214.145)" fill="#fff" stroke="#fff" stroke-width="0.3"/>
      <path id="Path_8524" data-name="Path 8524" d="M88.408,298.419H75.44a.561.561,0,0,0,0,1.121H88.408a.561.561,0,0,0,0-1.121Z" transform="translate(-69.284 -277.918)" fill="#fff" stroke="#fff" stroke-width="0.3"/>
      <path id="Path_8525" data-name="Path 8525" d="M304.939,38.347a7.933,7.933,0,0,1-2.966-6.2v-.664a4.891,4.891,0,0,0-2.568-4.3v-.77a2.319,2.319,0,0,0-4.638,0v.77a4.892,4.892,0,0,0-2.568,4.3v.664a7.933,7.933,0,0,1-2.966,6.2,1.3,1.3,0,0,0,.81,2.312h3.583a3.64,3.64,0,0,0,6.92,0h3.583a1.3,1.3,0,0,0,.81-2.312Zm-9.052-11.938a1.2,1.2,0,1,1,2.4,0v.333a4.888,4.888,0,0,0-2.4,0Zm1.2,15.638a2.52,2.52,0,0,1-2.251-1.388h4.5A2.52,2.52,0,0,1,297.085,42.046Zm7.043-2.509H290.042a.177.177,0,0,1-.107-.318,9.049,9.049,0,0,0,3.383-7.075v-.664a3.766,3.766,0,0,1,7.533,0v.664a9.049,9.049,0,0,0,3.384,7.076.177.177,0,0,1-.107.318Z" transform="translate(-267.164 -24.089)" fill="#fff" stroke="#fff" stroke-width="0.1"/>
      <path id="Path_8526" data-name="Path 8526" d="M33.3,90.233a.56.56,0,0,0-.56.561v4.8a3.368,3.368,0,0,1-3.364,3.364h-17a1.825,1.825,0,0,0-1.262.5l-6.066,5.758.893-4.961a1.105,1.105,0,0,0-1.088-1.3H4.485A3.368,3.368,0,0,1,1.121,95.59V80.271a3.368,3.368,0,0,1,3.364-3.364h19.49a.561.561,0,0,0,0-1.121H4.485A4.49,4.49,0,0,0,0,80.271V95.59a4.49,4.49,0,0,0,4.485,4.485h.353l-.964,5.35a.985.985,0,0,0,1.648.889l6.367-6.044a.709.709,0,0,1,.49-.2h17a4.49,4.49,0,0,0,4.485-4.485v-4.8a.561.561,0,0,0-.561-.56Z" transform="translate(0 -71.923)" fill="#fff" stroke="#fff" stroke-width="0.3"/>
    </g>
  </g>
</svg>
