<svg xmlns="http://www.w3.org/2000/svg" width="38.57" height="35.486" viewBox="0 0 38.57 35.486">
  <g id="Group_8086" data-name="Group 8086" transform="translate(-8817 -2634)">
    <g id="agenda" transform="translate(8817 2634)">
      <path id="Path_5731" data-name="Path 5731" d="M99.375,10.02h25.2V44h-25.2Zm0,0" transform="translate(-91.889 -9.265)" fill="#ece9e8"/>
      <path id="Path_5732" data-name="Path 5732" d="M36.242,24.021v-14H41V44H36.242V29.757" transform="translate(-33.512 -9.265)" fill="#999fed"/>
      <path id="Path_5733" data-name="Path 5733" d="M433.941,10.02h5.192v5.468h-5.192Zm0,0" transform="translate(-401.251 -9.265)" fill="#ff6c6c"/>
      <path id="Path_5734" data-name="Path 5734" d="M433.941,83.5h5.192v5.468h-5.192Zm0,0" transform="translate(-401.251 -77.21)" fill="#ffde55"/>
      <path id="Path_5735" data-name="Path 5735" d="M433.941,156.086h5.192v5.468h-5.192Zm0,0" transform="translate(-401.251 -144.328)" fill="#2fc0f0"/>
      <path id="Path_5736" data-name="Path 5736" d="M239.59,191.184l.935,2.367a1.229,1.229,0,0,0,2.215.056l1.1-2.414" transform="translate(-221.541 -176.782)" fill="#f2d1a5"/>
      <path id="Path_5737" data-name="Path 5737" d="M179.344,202.16h2.294v-4.3a6.366,6.366,0,0,0-4.268-6.01l-1.226-.428a1.3,1.3,0,0,0-.021-.229l-1.1,2.414a1.229,1.229,0,0,1-2.215-.056l-.935-2.367a1.288,1.288,0,0,0-.022.238l-1.226.428a6.366,6.366,0,0,0-4.268,6.01v4.3Zm0,0" transform="translate(-153.827 -176.781)" fill="#999fed"/>
      <path id="Path_5738" data-name="Path 5738" d="M220.977,74.573h-.509a3.488,3.488,0,0,1-3.488-3.488V68.234a3.488,3.488,0,0,1,3.488-3.488h.509a3.488,3.488,0,0,1,3.488,3.488v2.851A3.488,3.488,0,0,1,220.977,74.573Zm0,0" transform="translate(-200.634 -59.868)" fill="#f2d1a5"/>
      <path id="Path_5739" data-name="Path 5739" d="M220.883,64.746h-.306a3.509,3.509,0,0,0-3.589,3.423c0,.486.361.068.822.22a2.743,2.743,0,0,0,2.093.034,5.142,5.142,0,0,1,3.65-.371.537.537,0,0,0,.164.009c.463-.04.779-.127.681-.582a3.552,3.552,0,0,0-3.516-2.733Zm0,0" transform="translate(-200.642 -59.869)" fill="#ff7037"/>
      <path id="Path_5740" data-name="Path 5740" d="M38.57.755A.755.755,0,0,0,37.816,0H2.664a.755.755,0,0,0-.755.755V3.146H.755a.755.755,0,0,0,0,1.51H1.909v8.129H.755a.755.755,0,1,0,0,1.51H1.909v.461a.755.755,0,0,0,1.51,0v-.461H5.041a.755.755,0,1,0,0-1.51H3.418V4.656H5.041a.755.755,0,1,0,0-1.51H3.418V1.51H6.665V33.976H3.418V32.193H5.041a.755.755,0,0,0,0-1.51H3.418V22.554H5.041a.755.755,0,1,0,0-1.51H3.418v-.552a.755.755,0,0,0-1.51,0v.552H.755a.755.755,0,1,0,0,1.51H1.909v8.129H.755a.755.755,0,0,0,0,1.51H1.909v2.538a.755.755,0,0,0,.755.755h29.96a.755.755,0,0,0,.755-.755V17.981h4.438a.755.755,0,0,0,.755-.755V6.291c0-.011,0-.023,0-.034s0-.023,0-.034Zm-5.192,6.29h3.683V11H33.378Zm3.683-1.577H33.378V1.51h3.683ZM31.868,33.976H8.174V1.51H31.868Zm5.192-17.5H33.378V12.513h3.683Zm0,0" transform="translate(0)"/>
      <path id="Path_5741" data-name="Path 5741" d="M156.208,366.057h5.649a.755.755,0,1,0,0-1.51h-5.649a.755.755,0,1,0,0,1.51Zm0,0" transform="translate(-143.743 -337.085)"/>
      <path id="Path_5742" data-name="Path 5742" d="M167.505,397.613h-11.3a.755.755,0,0,0,0,1.51h11.3a.755.755,0,0,0,0-1.51Zm0,0" transform="translate(-143.742 -367.66)"/>
      <path id="Path_5743" data-name="Path 5743" d="M25.287,225.314a.755.755,0,0,0,1.4-.566l-.018-.045a.755.755,0,1,0-1.4.566Zm0,0" transform="translate(-23.314 -207.339)"/>
      <path id="Path_5744" data-name="Path 5744" d="M167.467,64.964l-.439-.153a4.229,4.229,0,0,0,1.232-2.986V58.973a4.277,4.277,0,0,0-.06-.71,1.594,1.594,0,0,0-.03-.2,4.058,4.058,0,0,0-.741-1.605,4.239,4.239,0,0,0-3.412-1.724h-.509a4.239,4.239,0,0,0-3.438,1.76,4.046,4.046,0,0,0-.8,2.417s0,.009,0,.014,0,.034,0,.051v2.851a4.23,4.23,0,0,0,1.276,3.029l-.315.11a7.128,7.128,0,0,0-4.775,6.723v4.3a.755.755,0,0,0,.755.755h15.28a.755.755,0,0,0,.755-.755v-4.3a7.128,7.128,0,0,0-4.775-6.723Zm-6.692-3.139V59.9a4.376,4.376,0,0,0,1.261.208,2.944,2.944,0,0,0,1.2-.251,4.376,4.376,0,0,1,3.183-.326,1.27,1.27,0,0,0,.328.027v2.269a2.736,2.736,0,0,1-2.733,2.733h-.509A2.736,2.736,0,0,1,160.776,61.825Zm3.141-5.584a2.907,2.907,0,0,1,2.251,1.049l.022.029c.012.015.023.031.035.047a2.732,2.732,0,0,1,.352.652,5.841,5.841,0,0,0-3.943.453,2,2,0,0,1-1.555-.059,1.438,1.438,0,0,0-.233-.055,2.727,2.727,0,0,1,.459-1,2.89,2.89,0,0,1,2.305-1.118Zm-.408,9.827h.509a4.265,4.265,0,0,0,.673-.054L164.2,67.1a.474.474,0,0,1-.842-.021l-.416-1.052A4.25,4.25,0,0,0,163.509,66.067Zm7.223,9.164H168.26V72.007a.755.755,0,0,0-1.51,0v3.225h-6V72.007a.755.755,0,0,0-1.51,0v3.225h-2.279V71.687a5.617,5.617,0,0,1,3.763-5.3l.644-.225.589,1.49.014.032a1.984,1.984,0,0,0,3.575.09l.015-.031.725-1.6.684.238a5.617,5.617,0,0,1,3.762,5.3Zm0,0" transform="translate(-143.742 -50.608)"/>
      <path id="Path_5745" data-name="Path 5745" d="M275.353,365.8a.755.755,0,0,0,.7-1.038l-.018-.045a.755.755,0,1,0-1.4.566l.018.045A.755.755,0,0,0,275.353,365.8Zm0,0" transform="translate(-253.895 -336.804)"/>
    </g>
  </g>
</svg>
