<svg xmlns="http://www.w3.org/2000/svg" width="22" height="22" viewBox="0 0 22 22">
  <g id="Group_8094" data-name="Group 8094" transform="translate(-1316 -1272)">
    <g id="Group_7414" data-name="Group 7414" transform="translate(1316 1272)">
      <path id="Path_7930" data-name="Path 7930" d="M21.321,15a4.821,4.821,0,1,0,4.821,4.821A4.821,4.821,0,0,0,21.321,15Zm-2.566,7.811a3.279,3.279,0,0,1,5.131,0A3.925,3.925,0,0,1,18.755,22.811Zm5.733-.649a4.157,4.157,0,0,0-6.334,0,3.944,3.944,0,1,1,6.334,0Z" transform="translate(-10.321 -8.821)" fill="#fff"/>
      <path id="Path_7931" data-name="Path 7931" d="M25.534,19a1.534,1.534,0,1,0,1.534,1.534A1.534,1.534,0,0,0,25.534,19Zm0,2.191a.657.657,0,1,1,.657-.657A.657.657,0,0,1,25.534,21.191Z" transform="translate(-14.534 -11.075)" fill="#fff"/>
      <path id="Path_7932" data-name="Path 7932" d="M23.18,10.68A1.32,1.32,0,0,0,24.5,9.36V5.84a1.32,1.32,0,0,0-1.32-1.32h-.44V3.2A2.2,2.2,0,0,0,20.54,1H5.58A1.32,1.32,0,0,0,4.26,2.32v2.2H3.82a1.32,1.32,0,1,0,0,2.64h.44v3.52H3.82a1.32,1.32,0,1,0,0,2.64h.44v3.52H3.82a1.32,1.32,0,1,0,0,2.64h.44v2.2A1.32,1.32,0,0,0,5.58,23H20.54a2.2,2.2,0,0,0,2.2-2.2V19.48h.44a1.32,1.32,0,0,0,1.32-1.32V14.64a1.32,1.32,0,0,0-1.32-1.32h-.44V10.68Zm0-5.28a.44.44,0,0,1,.44.44V9.36a.44.44,0,0,1-.44.44h-.44V5.4Zm-19.8.44a.44.44,0,0,1,.44-.44H5.58a.44.44,0,1,1,0,.88H3.82A.44.44,0,0,1,3.38,5.84Zm0,6.16a.44.44,0,0,1,.44-.44H5.58a.44.44,0,1,1,0,.88H3.82A.44.44,0,0,1,3.38,12Zm0,6.16a.44.44,0,0,1,.44-.44H5.58a.44.44,0,0,1,0,.88H3.82A.44.44,0,0,1,3.38,18.16ZM21.86,20.8a1.32,1.32,0,0,1-1.32,1.32H5.58a.44.44,0,0,1-.44-.44v-2.2h.44a1.32,1.32,0,1,0,0-2.64H5.14V13.32h.44a1.32,1.32,0,1,0,0-2.64H5.14V7.16h.44a1.32,1.32,0,1,0,0-2.64H5.14V2.32a.44.44,0,0,1,.44-.44H20.54A1.32,1.32,0,0,1,21.86,3.2Zm1.32-6.6a.44.44,0,0,1,.44.44v3.52a.44.44,0,0,1-.44.44h-.44V14.2Z" transform="translate(-2.5 -1)" fill="#fff"/>
    </g>
  </g>
</svg>
