<svg xmlns="http://www.w3.org/2000/svg" width="40.497" height="36.968" viewBox="0 0 40.497 36.968">
  <g id="Group_8093" data-name="Group 8093" transform="translate(-88.4 -674.9)">
    <path id="Path_8210" data-name="Path 8210" d="M0,48.5V81.584a3.688,3.688,0,0,0,3.684,3.684H36.613A3.688,3.688,0,0,0,40.3,81.584V48.5ZM38.823,81.584a2.213,2.213,0,0,1-2.21,2.21H3.684a2.213,2.213,0,0,1-2.21-2.21V56.506h37.35Zm0-26.552H1.474V49.974h37.35Z" transform="translate(88.5 626.5)" fill="#fff" stroke="#fff" stroke-width="0.2"/>
    <g id="Group_7580" data-name="Group 7580" transform="translate(98.334 678.266)">
      <g id="Group_7579" data-name="Group 7579">
        <rect id="Rectangle_6998" data-name="Rectangle 6998" width="22.129" height="1.474" fill="#fff" stroke="#fff" stroke-width="0.2"/>
      </g>
    </g>
    <g id="Group_7582" data-name="Group 7582" transform="translate(123 678.266)">
      <g id="Group_7581" data-name="Group 7581">
        <rect id="Rectangle_6999" data-name="Rectangle 6999" width="1.474" height="1.474" fill="#fff" stroke="#fff" stroke-width="0.2"/>
      </g>
    </g>
    <g id="Group_7588" data-name="Group 7588" transform="translate(92 678.266)">
      <g id="Group_7587" data-name="Group 7587">
        <rect id="Rectangle_7001" data-name="Rectangle 7001" width="1.474" height="1.474" fill="#fff" stroke="#fff" stroke-width="0.2"/>
      </g>
    </g>
    <g id="Group_7590" data-name="Group 7590" transform="translate(94.945 678.266)">
      <g id="Group_7589" data-name="Group 7589">
        <rect id="Rectangle_7002" data-name="Rectangle 7002" width="1.474" height="1.474" fill="#fff" stroke="#fff" stroke-width="0.2"/>
      </g>
    </g>
    <g id="Group_7584" data-name="Group 7584" transform="translate(93 686)">
      <g id="Group_7583" data-name="Group 7583">
        <path id="Path_8211" data-name="Path 8211" d="M58.75,158v14.9H74.106V158Zm10.994,13.539H62.93v-.863a3.407,3.407,0,0,1,6.815,0Zm-5.452-7.678a2.044,2.044,0,1,1,2.044,2.044A2.047,2.047,0,0,1,64.293,163.861Zm8.45,7.678H71.107v-.863a4.774,4.774,0,0,0-2.56-4.225,3.407,3.407,0,1,0-4.422,0,4.774,4.774,0,0,0-2.56,4.225v.863H60.113V159.363h12.63Z" transform="translate(-58.75 -158)" fill="#fff" stroke="#fff" stroke-width="0.2"/>
      </g>
    </g>
    <g id="Group_7626" data-name="Group 7626" transform="translate(1.18 0.069)">
      <g id="Group_7594" data-name="Group 7594" transform="translate(91.82 703.931)">
        <g id="Group_7593" data-name="Group 7593">
          <rect id="Rectangle_7004" data-name="Rectangle 7004" width="1.474" height="1.474" fill="#fff" stroke="#fff" stroke-width="0.2"/>
        </g>
      </g>
      <g id="Group_7596" data-name="Group 7596" transform="translate(97.715 703.931)">
        <g id="Group_7595" data-name="Group 7595">
          <rect id="Rectangle_7005" data-name="Rectangle 7005" width="1.474" height="1.474" fill="#fff" stroke="#fff" stroke-width="0.2"/>
        </g>
      </g>
      <g id="Group_7598" data-name="Group 7598" transform="translate(94.768 703.931)">
        <g id="Group_7597" data-name="Group 7597">
          <rect id="Rectangle_7006" data-name="Rectangle 7006" width="1.474" height="1.474" fill="#fff" stroke="#fff" stroke-width="0.2"/>
        </g>
      </g>
    </g>
    <g id="Group_7606" data-name="Group 7606" transform="translate(114.568 694.319)">
      <g id="Group_7605" data-name="Group 7605">
        <rect id="Rectangle_7010" data-name="Rectangle 7010" width="1.474" height="1.474" fill="#fff" stroke="#fff" stroke-width="0.2"/>
      </g>
    </g>
    <g id="Group_7610" data-name="Group 7610" transform="translate(117.516 694.319)">
      <g id="Group_7609" data-name="Group 7609">
        <rect id="Rectangle_7012" data-name="Rectangle 7012" width="5.403" height="1.474" fill="#fff" stroke="#fff" stroke-width="0.2"/>
      </g>
    </g>
    <g id="Group_7612" data-name="Group 7612" transform="translate(116.041 697.978)">
      <g id="Group_7611" data-name="Group 7611">
        <rect id="Rectangle_7013" data-name="Rectangle 7013" width="6.877" height="1.474" fill="#fff" stroke="#fff" stroke-width="0.2"/>
      </g>
    </g>
    <g id="Group_7614" data-name="Group 7614" transform="translate(112 697.978)">
      <g id="Group_7613" data-name="Group 7613">
        <rect id="Rectangle_7014" data-name="Rectangle 7014" width="2.947" height="1.474" fill="#fff" stroke="#fff" stroke-width="0.2"/>
      </g>
    </g>
    <g id="Group_7616" data-name="Group 7616" transform="translate(117.516 687)">
      <g id="Group_7615" data-name="Group 7615">
        <rect id="Rectangle_7015" data-name="Rectangle 7015" width="5.403" height="1.474" fill="#fff" stroke="#fff" stroke-width="0.2"/>
      </g>
    </g>
    <g id="Group_7620" data-name="Group 7620" transform="translate(114.568 687)">
      <g id="Group_7619" data-name="Group 7619">
        <rect id="Rectangle_7017" data-name="Rectangle 7017" width="1.474" height="1.474" fill="#fff" stroke="#fff" stroke-width="0.2"/>
      </g>
    </g>
    <g id="Group_7624" data-name="Group 7624" transform="translate(112 690.659)">
      <g id="Group_7623" data-name="Group 7623">
        <rect id="Rectangle_7019" data-name="Rectangle 7019" width="11.297" height="1.474" fill="#fff" stroke="#fff" stroke-width="0.2"/>
      </g>
    </g>
    <g id="Group_7631" data-name="Group 7631" transform="translate(112 694.319)">
      <g id="Group_7605-2" data-name="Group 7605">
        <rect id="Rectangle_7010-2" data-name="Rectangle 7010" width="1.474" height="1.474" fill="#fff" stroke="#fff" stroke-width="0.2"/>
      </g>
    </g>
    <g id="Group_7632" data-name="Group 7632" transform="translate(112 687)">
      <g id="Group_7605-3" data-name="Group 7605">
        <rect id="Rectangle_7010-3" data-name="Rectangle 7010" width="1.474" height="1.474" fill="#fff" stroke="#fff" stroke-width="0.2"/>
      </g>
    </g>
    <g id="Group_7633" data-name="Group 7633" transform="translate(103.363 704)">
      <g id="Group_7623-2" data-name="Group 7623">
        <rect id="Rectangle_7019-2" data-name="Rectangle 7019" width="19.934" height="1.474" fill="#fff" stroke="#fff" stroke-width="0.2"/>
      </g>
    </g>
  </g>
</svg>
