<svg xmlns="http://www.w3.org/2000/svg" width="40.21" height="40.21" viewBox="0 0 40.21 40.21">
  <g id="Group_8088" data-name="Group 8088" transform="translate(-9221.895 -2630.895)">
    <g id="change" transform="translate(9221.895 2630.895)">
      <g id="Group_7393" data-name="Group 7393" transform="translate(0.785 0.785)">
        <path id="Path_5719" data-name="Path 5719" d="M271.424,262a9.424,9.424,0,1,0,9.424,9.424A9.425,9.425,0,0,0,271.424,262Z" transform="translate(-242.209 -242.209)" fill="#eefaff"/>
        <path id="Path_5720" data-name="Path 5720" d="M19.424,10a9.424,9.424,0,1,0,9.424,9.424A9.425,9.425,0,0,0,19.424,10Z" transform="translate(-10 -10)" fill="#eefaff"/>
        <path id="Path_5721" data-name="Path 5721" d="M290.137,43.854l-4.712,6.283-4.712-6.283h1.571V42.283A6.283,6.283,0,0,0,276,36h6.283a6.283,6.283,0,0,1,6.283,6.283v1.571Z" transform="translate(-255.109 -33.958)" fill="#b3f1ff"/>
        <path id="Path_5722" data-name="Path 5722" d="M331.424,426.712v.309a9.433,9.433,0,0,1-9.424,0v-.309a4.712,4.712,0,0,1,9.424,0Z" transform="translate(-297.497 -389.643)" fill="#ff7b79"/>
        <circle id="Ellipse_364" data-name="Ellipse 364" cx="3.5" cy="3.5" r="3.5" transform="translate(25.32 24.32)" fill="#fce8d0"/>
        <path id="Path_5723" data-name="Path 5723" d="M70.136,310.137H63.854a6.283,6.283,0,0,1-6.283-6.283v-1.571H56L60.712,296l4.712,6.283H63.854v1.571A6.283,6.283,0,0,0,70.136,310.137Z" transform="translate(-52.387 -273.539)" fill="#b3f1ff"/>
        <path id="Path_5724" data-name="Path 5724" d="M79.424,174.712v.309a9.433,9.433,0,0,1-9.424,0v-.309a4.712,4.712,0,1,1,9.424,0Z" transform="translate(-65.288 -157.434)" fill="#ffda8f"/>
        <circle id="Ellipse_365" data-name="Ellipse 365" cx="3.5" cy="3.5" r="3.5" transform="translate(6.32 4.32)" fill="#c3906d"/>
      </g>
      <g id="Group_7394" data-name="Group 7394">
        <path id="Path_5725" data-name="Path 5725" d="M87.854,63.927a3.927,3.927,0,1,0-3.927,3.927A3.931,3.931,0,0,0,87.854,63.927Zm-3.927,2.356a2.356,2.356,0,1,1,2.356-2.356A2.359,2.359,0,0,1,83.927,66.283Z" transform="translate(-73.717 -55.288)"/>
        <path id="Path_5726" data-name="Path 5726" d="M10.21,20.419A10.21,10.21,0,1,0,0,10.21,10.219,10.219,0,0,0,10.21,20.419ZM6.287,17.907a3.926,3.926,0,0,1,7.846,0,8.643,8.643,0,0,1-7.846,0ZM10.21,1.571A8.637,8.637,0,0,1,15.6,16.961a5.5,5.5,0,0,0-10.773,0A8.637,8.637,0,0,1,10.21,1.571Z"/>
        <path id="Path_5727" data-name="Path 5727" d="M339.854,315.927a3.927,3.927,0,1,0-3.927,3.927A3.931,3.931,0,0,0,339.854,315.927Zm-3.927,2.356a2.356,2.356,0,1,1,2.356-2.356A2.359,2.359,0,0,1,335.927,318.283Z" transform="translate(-305.926 -287.497)"/>
        <path id="Path_5728" data-name="Path 5728" d="M262.21,252a10.21,10.21,0,1,0,10.21,10.21A10.221,10.221,0,0,0,262.21,252Zm-3.923,17.907a3.926,3.926,0,0,1,7.846,0,8.643,8.643,0,0,1-7.846,0Zm9.309-.946a5.5,5.5,0,0,0-10.773,0,8.639,8.639,0,1,1,10.773,0Z" transform="translate(-232.209 -232.209)"/>
        <path id="Path_5729" data-name="Path 5729" d="M60.922,300.137a5.5,5.5,0,0,1-5.5-5.5v-.785h.785a.785.785,0,0,0,.628-1.257l-4.712-6.283a.785.785,0,0,0-1.257,0L46.157,292.6a.785.785,0,0,0,.628,1.257h.785v.785a7.076,7.076,0,0,0,7.068,7.068h6.283a.785.785,0,1,0,0-1.571Zm-6.283,0a5.5,5.5,0,0,1-5.5-5.5v-1.571a.785.785,0,0,0-.785-.785l3.141-4.189,3.141,4.189a.785.785,0,0,0-.785.785v1.571a7.058,7.058,0,0,0,2.63,5.5Z" transform="translate(-42.387 -263.539)"/>
        <path id="Path_5730" data-name="Path 5730" d="M266.785,27.571a5.5,5.5,0,0,1,5.5,5.5v.785H271.5a.785.785,0,0,0-.628,1.257l4.712,6.283a.785.785,0,0,0,1.257,0l4.712-6.283a.785.785,0,0,0-.628-1.257h-.785v-.785c0-.212-.01-.426-.028-.636a.785.785,0,1,0-1.564.14c.015.164.022.331.022.5v1.571a.785.785,0,0,0,.785.785l-3.141,4.189-3.141-4.188a.785.785,0,0,0,.785-.785V33.068a7.058,7.058,0,0,0-2.63-5.5h1.845a5.482,5.482,0,0,1,1.829.312.785.785,0,0,0,.523-1.481,7.05,7.05,0,0,0-2.352-.4h-6.283a.785.785,0,1,0,0,1.571Z" transform="translate(-245.109 -23.958)"/>
        <circle id="Ellipse_366" data-name="Ellipse 366" cx="1" cy="1" r="1" transform="translate(32.105 4.105)"/>
      </g>
    </g>
  </g>
</svg>
