<svg xmlns="http://www.w3.org/2000/svg" width="72" height="72" viewBox="0 0 72 72">
  <g id="Group_7552" data-name="Group 7552" transform="translate(-198 -1122)">
    <circle id="Ellipse_424" data-name="Ellipse 424" cx="36" cy="36" r="36" transform="translate(198 1122)" opacity="0.1"/>
    <g id="_3135798" data-name="3135798" transform="translate(208.875 1136.295)">
      <g id="Group_7532" data-name="Group 7532" transform="translate(4.67 2.688)">
        <path id="Path_8071" data-name="Path 8071" d="M229.616,344.564H218.775l2.275-9.823h6.291Z" transform="translate(-203.274 -309)" fill="#d8e2f1"/>
        <path id="Path_8072" data-name="Path 8072" d="M254.4,334.741h-5.818l2.275,9.823h5.818Z" transform="translate(-230.332 -309)" fill="#b9cbea"/>
        <path id="Path_8073" data-name="Path 8073" d="M89.635,84.27H53.506a2.858,2.858,0,0,1-2.858-2.858v-23a2.858,2.858,0,0,1,2.858-2.858H89.635a2.858,2.858,0,0,1,2.858,2.858v23A2.858,2.858,0,0,1,89.635,84.27Z" transform="translate(-50.648 -55.554)" fill="#cbe2ff"/>
        <path id="Path_8074" data-name="Path 8074" d="M415.969,55.554h-5.843a2.858,2.858,0,0,1,2.858,2.858v23a2.858,2.858,0,0,1-2.858,2.858h5.843a2.858,2.858,0,0,0,2.858-2.858v-23A2.858,2.858,0,0,0,415.969,55.554Z" transform="translate(-376.982 -55.554)" fill="#bed8fb"/>
        <path id="Path_8075" data-name="Path 8075" d="M50.648,317.541a2.858,2.858,0,0,0,2.858,2.858H89.635a2.858,2.858,0,0,0,2.858-2.858v-1.876H50.648Z" transform="translate(-50.648 -291.683)" fill="#f4fbff"/>
        <path id="Path_8076" data-name="Path 8076" d="M418.827,317.541v-1.876h-5.843v1.876a2.858,2.858,0,0,1-2.858,2.858h5.843A2.858,2.858,0,0,0,418.827,317.541Z" transform="translate(-376.983 -291.683)" fill="#e4f6ff"/>
        <path id="Path_8077" data-name="Path 8077" d="M179.413,426.62H165.831a3.868,3.868,0,0,0-3.868,3.868.877.877,0,0,0,.877.877H182.4a.877.877,0,0,0,.877-.877A3.868,3.868,0,0,0,179.413,426.62Z" transform="translate(-151.7 -392.407)" fill="#f4fbff"/>
        <path id="Path_8078" data-name="Path 8078" d="M298.683,426.62h-5.336a3.868,3.868,0,0,1,3.868,3.868v.877h4.459a.877.877,0,0,0,.877-.877A3.868,3.868,0,0,0,298.683,426.62Z" transform="translate(-270.97 -392.407)" fill="#e4f6ff"/>
      </g>
      <g id="Group_7547" data-name="Group 7547" transform="translate(0 0)">
        <g id="Group_7545" data-name="Group 7545" transform="translate(0.687 0.69)">
          <g id="Group_7544" data-name="Group 7544">
            <g id="Group_7533" data-name="Group 7533">
              <path id="Path_8079" data-name="Path 8079" d="M0,0H2.714V5.684H0Z" transform="translate(17.614 19.537) rotate(-45)" fill="#4a80aa"/>
              <path id="Path_8080" data-name="Path 8080" d="M239.524,262.831l-5.746-5.746a.843.843,0,0,0-1.192,0l-1.936,1.937a.843.843,0,0,0,0,1.192l5.746,5.746a2.212,2.212,0,1,0,3.129-3.129Z" transform="translate(-209.846 -236.282)" fill="#cc9675"/>
              <circle id="Ellipse_422" data-name="Ellipse 422" cx="11.629" cy="11.629" r="11.629" fill="#b9cbea"/>
              <circle id="Ellipse_423" data-name="Ellipse 423" cx="9.109" cy="9.109" r="9.109" transform="translate(2.52 2.52)" fill="#f4fbff"/>
            </g>
            <g id="Group_7543" data-name="Group 7543" transform="translate(5.55 5.85)">
              <g id="Group_7539" data-name="Group 7539" transform="translate(0 7.474)">
                <g id="Group_7538" data-name="Group 7538">
                  <g id="Group_7537" data-name="Group 7537">
                    <g id="Group_7536" data-name="Group 7536">
                      <g id="Group_7535" data-name="Group 7535">
                        <g id="Group_7534" data-name="Group 7534">
                          <path id="Path_8081" data-name="Path 8081" d="M114.663,180.954a.459.459,0,0,1-.4-.454l-.009-2.1-3.21.014.009,2.1a.459.459,0,0,1-.4.457s-.593,2.026,2.014,2.015S114.663,180.954,114.663,180.954Z" transform="translate(-106.634 -178.399)" fill="#ffcbbe"/>
                          <path id="Path_8082" data-name="Path 8082" d="M78.48,206.721a12.468,12.468,0,0,0-2.807-.614l0,.005a2.571,2.571,0,0,1-4.007.012,12.475,12.475,0,0,0-2.8.638,2.089,2.089,0,0,0-1.216,1.879,9.11,9.11,0,0,0,12.106.047A2.075,2.075,0,0,0,78.48,206.721Z" transform="translate(-67.644 -203.552)" fill="#365e7d"/>
                        </g>
                      </g>
                    </g>
                  </g>
                </g>
              </g>
              <g id="Group_7542" data-name="Group 7542" transform="translate(2.33)">
                <g id="Group_7541" data-name="Group 7541">
                  <path id="Path_8083" data-name="Path 8083" d="M99.1,98.255a.917.917,0,0,0-.917-.917H95.134a2.22,2.22,0,0,0-2.22,2.22v1.652l.758.581H99.6l.758-1.277V99.482a.917.917,0,0,0-.917-.917h-.031A.31.31,0,0,1,99.1,98.255Z" transform="translate(-92.914 -97.338)" fill="#4a80aa"/>
                  <g id="Group_7540" data-name="Group 7540" transform="translate(0 3.028)">
                    <path id="Path_8084" data-name="Path 8084" d="M100.36,130.327l-1.455-.136a2.867,2.867,0,0,0-1.766.41,2.867,2.867,0,0,1-1.5.422H92.914v1.317a.483.483,0,0,0,.483.483.157.157,0,0,1,.158.147,3.086,3.086,0,0,0,6.161,0,.152.152,0,0,1,.152-.142h.008a.488.488,0,0,0,.489-.49C100.36,131.606,100.36,130.327,100.36,130.327Z" transform="translate(-92.914 -130.178)" fill="#ffddce"/>
                  </g>
                </g>
              </g>
            </g>
          </g>
        </g>
        <g id="Group_7546" data-name="Group 7546" transform="translate(0)">
          <path id="Path_8085" data-name="Path 8085" d="M293.458,123.246H307.92a.693.693,0,1,0,0-1.385H293.458a.693.693,0,1,0,0,1.385Z" transform="translate(-265.772 -113.06)" fill="#313131"/>
          <path id="Path_8086" data-name="Path 8086" d="M308.612,170.386a.693.693,0,0,0-.693-.693H293.458a.693.693,0,1,0,0,1.385H307.92A.693.693,0,0,0,308.612,170.386Z" transform="translate(-265.772 -156.482)" fill="#313131"/>
          <path id="Path_8087" data-name="Path 8087" d="M299.867,217.525h-6.41a.693.693,0,1,0,0,1.385h6.41a.693.693,0,0,0,0-1.385Z" transform="translate(-265.772 -199.903)" fill="#313131"/>
          <path id="Path_8088" data-name="Path 8088" d="M43.656,28.4H19.037A12.32,12.32,0,0,0,3.6,47.436c.122.122.247.24.374.357V54.95a3.554,3.554,0,0,0,3.55,3.55H20.885l-.952,4.111H18.8a4.566,4.566,0,0,0-4.561,4.561,1.571,1.571,0,0,0,1.569,1.57H35.373a1.571,1.571,0,0,0,1.57-1.57,4.566,4.566,0,0,0-4.561-4.561H31.25L30.3,58.5H43.656a3.554,3.554,0,0,0,3.55-3.55v-23A3.554,3.554,0,0,0,43.656,28.4ZM12.3,27.788a10.936,10.936,0,1,1-7.72,18.668A10.945,10.945,0,0,1,12.3,27.788Zm9.686,22.527L23.907,48.4l.009-.009a.15.15,0,0,1,.213,0l5.746,5.746a1.52,1.52,0,0,1-2.149,2.149l-5.746-5.746a.151.151,0,0,1,0-.213l.008-.008h0Zm-.49-1.469-.952-.952a12.607,12.607,0,0,0,.939-.939l.952.952Zm-9.2,2.2a12.355,12.355,0,0,0,7.156-2.278l1.174,1.174A1.536,1.536,0,0,0,21,51.516l.866.866H5.362V48.894A12.248,12.248,0,0,0,12.3,51.043ZM5.362,54.95V53.767H23.251L26.6,57.115H7.527A2.167,2.167,0,0,1,5.362,54.95Zm30.2,12.222a.184.184,0,0,1-.184.184H15.81a.184.184,0,0,1-.184-.184A3.179,3.179,0,0,1,18.8,64H32.382a3.179,3.179,0,0,1,3.175,3.176Zm-5.73-4.561H21.355l.952-4.111h6.568Zm13.828-5.5H30.989a2.911,2.911,0,0,0,.333-3.348h4.525a.693.693,0,1,0,0-1.385H30.082l-4.974-4.974a1.531,1.531,0,0,0-1.578-.368l-1.173-1.173A12.314,12.314,0,0,0,21.028,30.01c-.077-.077-.155-.151-.234-.226H43.656a2.167,2.167,0,0,1,2.165,2.165V52.382h-6.99a.693.693,0,1,0,0,1.385h6.99V54.95a2.167,2.167,0,0,1-2.165,2.165Z" transform="translate(0.001 -26.404)" fill="#313131"/>
          <path id="Path_8089" data-name="Path 8089" d="M38.107,73.312a9.8,9.8,0,1,0-9.688-11.291.693.693,0,0,0,1.369.209A8.416,8.416,0,1,1,44.5,68.983a2.8,2.8,0,0,0-1.356-1.242,11.836,11.836,0,0,0-2.8-.641l0-.715a3.769,3.769,0,0,0,1.462-2.391,1.183,1.183,0,0,0,.7-1.084c0-.716,0-1.988,0-2V59.876A1.612,1.612,0,0,0,41.2,58.3a1.613,1.613,0,0,0-1.571-1.257H36.578a2.916,2.916,0,0,0-2.913,2.913v2.97a1.177,1.177,0,0,0,.687,1.069,3.778,3.778,0,0,0,1.4,2.34l0,.788a11.833,11.833,0,0,0-2.792.665,2.727,2.727,0,0,0-1.272,1.17,8.349,8.349,0,0,1-1.872-3.992.693.693,0,1,0-1.365.238,9.8,9.8,0,0,0,9.656,8.113ZM36.578,58.424h3.051a.225.225,0,0,1,.225.224,1,1,0,0,0,1,1h.031a.225.225,0,0,1,.224.224v.272l-.7-.065a3.581,3.581,0,0,0-2.192.509,2.174,2.174,0,0,1-1.136.32H35.051v-.96A1.529,1.529,0,0,1,36.578,58.424Zm-1.528,4.314V62.3h2.035a3.559,3.559,0,0,0,1.86-.524,2.189,2.189,0,0,1,1.339-.311l.827.078c0,.365,0,.825,0,1.2a.845.845,0,0,0-.647.771,2.394,2.394,0,0,1-4.778,0A.851.851,0,0,0,35.051,62.738Zm3.03,4.4a3.777,3.777,0,0,0,.88-.1v.275a1.141,1.141,0,0,0,.09.437,1.871,1.871,0,0,1-1,.292h-.006a1.871,1.871,0,0,1-.993-.283,1.141,1.141,0,0,0,.086-.438v-.3A3.767,3.767,0,0,0,38.081,67.139Zm-4.552,1.908a10.1,10.1,0,0,1,2.255-.533,3.246,3.246,0,0,0,2.261.91h.01a3.246,3.246,0,0,0,2.271-.929,10.1,10.1,0,0,1,2.26.514,1.384,1.384,0,0,1,.832,1.032,8.418,8.418,0,0,1-10.66-.033,1.369,1.369,0,0,1,.772-.961Z" transform="translate(-25.791 -51.191)" fill="#313131"/>
        </g>
      </g>
    </g>
  </g>
</svg>
